<svg width="64" height="62" viewBox="0 0 64 62" fill="none" xmlns="http://www.w3.org/2000/svg">
<g clip-path="url(#clip0_365_265)">
<path d="M54.4484 9.3284C48.4643 3.53333 40.5513 0.341797 32.1666 0.341797C23.7401 0.341797 15.7966 3.53307 9.79951 9.32787C3.79505 15.1297 0.488281 22.8186 0.488281 30.9781C0.488281 47.8191 14.6991 61.5202 32.1666 61.5202C40.5565 61.5202 48.4694 58.3456 54.4475 52.5814C60.4438 46.7994 63.7461 39.1273 63.7461 30.9781C63.7461 22.8236 60.4442 15.1349 54.4484 9.3284ZM32.1666 60.3282C15.3499 60.3282 1.66843 47.1619 1.66843 30.9782C1.66843 14.7426 15.3499 1.53395 32.1666 1.53395C48.9289 1.53395 62.566 14.7425 62.566 30.9782C62.566 47.1619 48.9289 60.3282 32.1666 60.3282Z" fill="#6405FF"/>
<path d="M32.1682 9.8458C32.494 9.8458 32.7583 9.57889 32.7583 9.24972V3.48896C32.7583 3.15979 32.494 2.89288 32.1682 2.89288C31.8423 2.89288 31.5781 3.15979 31.5781 3.48896V9.24972C31.5781 9.57889 31.8423 9.8458 32.1682 9.8458Z" fill="#DB47D5"/>
<path d="M46.6522 6.66485C46.374 6.49291 46.0108 6.5814 45.8407 6.86222L42.8095 11.8671C42.6394 12.148 42.7269 12.5149 43.0049 12.6867C43.101 12.7462 43.2073 12.7744 43.3123 12.7744C43.511 12.7744 43.7049 12.673 43.8163 12.4893L46.8475 7.48439C47.0176 7.20357 46.9302 6.83665 46.6522 6.66485Z" fill="#6405FF"/>
<path d="M51.6219 20.7095C51.7183 20.7095 51.816 20.6855 51.9064 20.6352L56.9893 17.8021C57.2747 17.643 57.3784 17.2804 57.221 16.9922C57.0635 16.704 56.7046 16.5993 56.4193 16.7583L51.3364 19.5914C51.0511 19.7504 50.9474 20.113 51.1047 20.4012C51.2122 20.5981 51.4139 20.7095 51.6219 20.7095Z" fill="#6405FF"/>
<path d="M60.5177 30.3821H54.5549C54.2291 30.3821 53.9648 30.6491 53.9648 30.9782C53.9648 31.3074 54.2291 31.5743 54.5549 31.5743H60.5177C60.8435 31.5743 61.1077 31.3074 61.1077 30.9782C61.1077 30.6491 60.8437 30.3821 60.5177 30.3821Z" fill="#DB47D5"/>
<path d="M56.9893 44.1527L51.9064 41.3199C51.621 41.161 51.2622 41.2655 51.1047 41.5539C50.9474 41.8421 51.0511 42.2047 51.3364 42.3638L56.4193 45.1966C56.5097 45.2469 56.6075 45.2709 56.7039 45.2709C56.9118 45.2709 57.1135 45.1597 57.221 44.9627C57.3784 44.6744 57.2747 44.3118 56.9893 44.1527Z" fill="#6405FF"/>
<path d="M43.9118 49.4687C43.7435 49.1868 43.3808 49.0962 43.1017 49.2664C42.8226 49.4363 42.7329 49.8029 42.9014 50.0847L45.8357 54.9969C45.9465 55.1824 46.1415 55.2852 46.3413 55.2852C46.4452 55.2852 46.5503 55.2575 46.6457 55.1993C46.9247 55.0294 47.0144 54.6629 46.8459 54.381L43.9118 49.4687Z" fill="#6405FF"/>
<path d="M32.1682 52.1092C31.8423 52.1092 31.5781 52.3761 31.5781 52.7053V58.3726C31.5781 58.7018 31.8423 58.9687 32.1682 58.9687C32.494 58.9687 32.7583 58.7018 32.7583 58.3726V52.7053C32.7583 52.3761 32.4942 52.1092 32.1682 52.1092Z" fill="#DB47D5"/>
<path d="M21.2383 49.2709C20.9619 49.0969 20.5979 49.1819 20.4255 49.4614L17.3941 54.3736C17.2218 54.653 17.3061 55.0207 17.5826 55.1947C17.6797 55.2559 17.7876 55.2852 17.8942 55.2852C18.0911 55.2852 18.2836 55.1856 18.3955 55.0044L21.4269 50.0922C21.5993 49.8127 21.5149 49.445 21.2383 49.2709Z" fill="#6405FF"/>
<path d="M12.3279 41.3199L7.24277 44.1527C6.95744 44.3117 6.85358 44.6744 7.01094 44.9625C7.11846 45.1595 7.32014 45.2709 7.5281 45.2709C7.62448 45.2709 7.72217 45.2469 7.81252 45.1965L12.8976 42.3637C13.1831 42.2048 13.2868 41.8421 13.1295 41.554C12.9721 41.2659 12.6132 41.1611 12.3279 41.3199Z" fill="#6405FF"/>
<path d="M10.271 30.9782C10.271 30.6491 10.0068 30.3821 9.68095 30.3821H3.71898C3.39313 30.3821 3.12891 30.6491 3.12891 30.9782C3.12891 31.3074 3.39313 31.5743 3.71898 31.5743H9.68095C10.0069 31.5743 10.271 31.3074 10.271 30.9782Z" fill="#DB47D5"/>
<path d="M12.8978 19.5913L7.81268 16.7582C7.52735 16.5992 7.16832 16.704 7.01097 16.9922C6.85362 17.2805 6.95734 17.6432 7.24267 17.8021L12.3278 20.6352C12.4181 20.6855 12.5158 20.7095 12.6122 20.7095C12.8202 20.7095 13.0219 20.5981 13.1294 20.4011C13.2869 20.1129 13.1831 19.7502 12.8978 19.5913Z" fill="#6405FF"/>
<path d="M20.4229 12.4893C20.5342 12.673 20.7282 12.7744 20.9268 12.7744C21.0317 12.7744 21.1381 12.7462 21.2342 12.6867C21.5122 12.5149 21.5996 12.148 21.4296 11.8671L18.3982 6.86221C18.2282 6.58139 17.865 6.49278 17.5869 6.66485C17.3089 6.83665 17.2214 7.20357 17.3915 7.48439L20.4229 12.4893Z" fill="#6405FF"/>
<path d="M32.1682 34.4073C32.183 34.4073 32.1969 34.404 32.2113 34.4029L44.5276 40.3019C44.6092 40.341 44.6952 40.3596 44.78 40.3596C45.0009 40.3596 45.2128 40.2337 45.3136 40.0187C45.4531 39.7214 45.3276 39.3658 45.0331 39.2248L32.7583 33.3455V19.4523C32.7583 19.1232 32.494 18.8563 32.1682 18.8563C31.8423 18.8563 31.5781 19.1232 31.5781 19.4523V33.8112C31.5781 34.1404 31.8423 34.4073 32.1682 34.4073Z" fill="#DB47D5"/>
</g>
<defs>
<clipPath id="clip0_365_265">
<rect width="64" height="62" fill="white"/>
</clipPath>
</defs>
</svg>
