<svg width="37" height="64" viewBox="0 0 37 64" fill="none" xmlns="http://www.w3.org/2000/svg">
<g clip-path="url(#clip0_365_252)">
<path d="M20.1065 24.9373H29.0195C29.1829 24.9373 29.3392 24.8692 29.4508 24.7494C29.5624 24.6296 29.6198 24.4685 29.609 24.3044C29.2783 19.2616 25.2094 15.2111 20.1446 14.8828C19.981 14.8722 19.8216 14.9299 19.7023 15.0422C19.5832 15.1545 19.5156 15.3113 19.5156 15.4754V24.3435C19.5156 24.6716 19.7802 24.9373 20.1065 24.9373ZM20.6973 16.131C24.6662 16.6699 27.8205 19.804 28.3655 23.7496H20.6973V16.131Z" fill="#DB47D5"/>
<path d="M20.7778 26.3411C20.6873 26.565 20.7409 26.8217 20.9132 26.9902L26.8198 32.7654C26.9302 32.8733 27.0781 32.9335 27.2318 32.9335C27.236 32.9335 27.2404 32.9335 27.2447 32.9334C27.4029 32.9299 27.5533 32.8628 27.6618 32.747C29.1953 31.112 30.0852 29.0501 30.307 26.6187C30.3221 26.4525 30.267 26.2875 30.1551 26.1642C30.0432 26.041 29.8846 25.9706 29.7186 25.9706H21.3252C21.0848 25.9706 20.8683 26.1171 20.7778 26.3411ZM29.052 27.1583C28.8006 28.8231 28.179 30.2718 27.1985 31.4784L22.78 27.1583H29.052Z" fill="#6405FF"/>
<path d="M24.9038 33.6439C25.0351 33.5379 25.1152 33.3807 25.124 33.2117C25.1327 33.0427 25.0692 32.8779 24.9496 32.7587L18.3874 26.2289V16.2673C18.3874 16.1013 18.3183 15.943 18.1969 15.8305C18.0754 15.7181 17.9128 15.6619 17.7481 15.6755C15.1841 15.8879 12.8035 17.0385 11.0451 18.915C9.27036 20.809 8.29297 23.2749 8.29297 25.8583C8.29297 28.5681 9.34941 31.1039 11.2678 32.9984C13.1886 34.8954 15.7652 35.9401 18.5232 35.9401C20.8363 35.9401 23.0426 35.1462 24.9038 33.6439ZM9.47453 25.8583C9.47453 21.4148 12.8218 17.6125 17.2056 16.9348V26.4764C17.2056 26.6349 17.2686 26.787 17.3807 26.8985L23.6314 33.1185C22.1017 34.1895 20.3485 34.7524 18.523 34.7524C13.4491 34.7524 9.47453 30.8456 9.47453 25.8583Z" fill="#DB47D5"/>
<path d="M6.01944 28.8773C5.78914 28.6482 5.41822 28.6481 5.18805 28.8772L2.5425 31.5084C2.31049 31.7392 2.30852 32.115 2.53803 32.3482C2.65358 32.4657 2.80575 32.5244 2.95806 32.5244C3.10827 32.5244 3.25847 32.4671 3.37362 32.3526L5.01277 30.7224V36.8914C5.01277 37.2194 5.27733 37.4853 5.60361 37.4853C5.92989 37.4853 6.19446 37.2194 6.19446 36.8914V30.7232L7.83164 32.3526C8.06351 32.5834 8.43758 32.5815 8.66723 32.3485C8.89687 32.1154 8.8949 31.7394 8.66316 31.5086L6.01944 28.8773Z" fill="#6405FF"/>
<path d="M13.333 5.39614H23.6063C23.9326 5.39614 24.1972 5.13023 24.1972 4.80229C24.1972 4.47435 23.9326 4.20844 23.6063 4.20844H13.333C13.0068 4.20844 12.7422 4.47435 12.7422 4.80229C12.7422 5.13023 13.0066 5.39614 13.333 5.39614Z" fill="#DB47D5"/>
<path d="M23.911 58.7687H13.6377C13.3114 58.7687 13.0469 59.0346 13.0469 59.3625C13.0469 59.6905 13.3114 59.9564 13.6377 59.9564H23.911C24.2373 59.9564 24.5018 59.6905 24.5018 59.3625C24.5018 59.0346 24.2374 58.7687 23.911 58.7687Z" fill="#DB47D5"/>
<path d="M35.6376 1.36165C35.0053 0.619462 34.023 0.159424 33.0676 0.159424H3.87272C2.91804 0.159424 1.93526 0.61933 1.30109 1.36151C0.620298 2.05104 0.230469 3.08157 0.230469 4.19366V59.6674C0.230469 60.8288 0.590623 61.7816 1.30122 62.4997C1.93539 63.2416 2.91817 63.7015 3.87285 63.7015H33.0677C34.023 63.7015 35.0051 63.2417 35.6376 62.4998C36.3493 61.7822 36.7099 60.8295 36.7099 59.6674V4.19379C36.7098 3.08118 36.3193 2.05078 35.6376 1.36165ZM1.41203 9.44503H35.528V50.1652H22.9563L14.6894 40.8485C14.5773 40.7222 14.4169 40.6499 14.2485 40.6499H1.41203V9.44503ZM1.41203 41.8376H13.9837L22.2506 51.1543C22.3627 51.2806 22.523 51.3529 22.6915 51.3529H35.528V54.113H1.41203V41.8376ZM2.15138 2.18657C2.16372 2.1743 2.17554 2.16137 2.18683 2.14804C2.5957 1.66147 3.25745 1.34726 3.87272 1.34726H33.0676C33.6832 1.34726 34.3441 1.66134 34.7511 2.14738C34.7626 2.16123 34.775 2.17456 34.7876 2.18723C35.2512 2.64793 35.5281 3.39803 35.5281 4.19393V8.25746H1.41203V4.19379C1.41203 3.39816 1.68842 2.6478 2.15138 2.18657ZM34.7876 61.6744C34.7747 61.687 34.7626 61.7002 34.7511 61.7141C34.3439 62.2001 33.6831 62.5141 33.0676 62.5141H3.87272C3.25745 62.5141 2.5957 62.1997 2.18683 61.7134C2.17567 61.7001 2.16385 61.6873 2.15151 61.675C1.65402 61.1791 1.41216 60.5225 1.41216 59.6677V55.3007H35.5281V59.6677C35.5281 60.5227 35.2859 61.1791 34.7876 61.6744Z" fill="#6405FF"/>
<path d="M29.7918 37.7005C29.7918 37.3726 29.5272 37.1067 29.201 37.1067C28.8747 37.1067 28.6101 37.3726 28.6101 37.7005V43.9319L26.9791 42.2469C26.7512 42.0119 26.3772 42.007 26.1436 42.2355C25.9098 42.4642 25.9047 42.8403 26.1321 43.0752L28.7774 45.8077C28.8887 45.9226 29.0414 45.9874 29.2011 45.9874C29.3606 45.9874 29.5133 45.9226 29.6245 45.8077L32.2686 43.0752C32.4962 42.84 32.4909 42.464 32.2571 42.2355C32.0232 42.007 31.6492 42.012 31.4216 42.2471L29.7919 43.9314V37.7005H29.7918Z" fill="#6405FF"/>
</g>
<defs>
<clipPath id="clip0_365_252">
<rect width="37" height="64" fill="white"/>
</clipPath>
</defs>
</svg>
