<svg width="30" height="30" fill="none" xmlns="http://www.w3.org/2000/svg"><g clip-path="url(#clip0_435_1748)"><path d="M1.227 11.567h0c1.896-7.608 9.6-12.238 17.206-10.342h0c7.608 1.897 12.237 9.603 10.34 17.21-1.896 7.607-9.6 12.237-17.209 10.34C3.96 26.879-.67 19.173 1.227 11.567z" fill="#F7AC1A" stroke="#fff" stroke-width="1.6"/><path d="M19.727 9.544c-.74-1.878-2.592-2.047-4.75-1.628l-.767-2.679-1.63.468.747 2.608a68.87 68.87 0 00-1.297.39l-.752-2.625-1.63.467.767 2.678c-.35.109-.695.215-1.033.312l-.003-.008-2.249.644.5 1.74s1.197-.367 1.184-.34c.66-.189.985.133 1.142.446l.875 3.051c.046-.012.106-.027.176-.038l-.172.05 1.225 4.275c.03.216.004.582-.458.715.027.013-1.185.34-1.185.34l.235 2.04 2.121-.608c.395-.113.786-.218 1.168-.325l.777 2.71 1.629-.468-.769-2.68c.45-.12.884-.24 1.306-.361l.765 2.668 1.63-.467-.775-2.705c2.696-.943 4.417-2.184 3.917-4.826-.402-2.128-1.642-2.773-3.305-2.7.807-.753 1.154-1.77.611-3.144zm-.62 6.447c.582 2.024-2.951 2.788-4.056 3.105l-1.028-3.59c1.105-.316 4.479-1.627 5.084.485zm-2.21-4.847c.527 1.842-2.425 2.456-3.346 2.72l-.933-3.256c.92-.263 3.728-1.385 4.279.536z" fill="#fff"/></g><defs><clipPath id="clip0_435_1748"><path fill="#fff" d="M0 0h30v30H0z"/></clipPath></defs></svg>