<svg width="30" height="30" fill="none" xmlns="http://www.w3.org/2000/svg"><circle cx="15" cy="15" r="15" fill="url(#paint0_linear_435_1830)"/><g clip-path="url(#clip0_435_1830)"><mask id="a" style="mask-type:luminance" maskUnits="userSpaceOnUse" x="7" y="7" width="16" height="17"><path d="M16.923 7.477a3.36 3.36 0 00-1.694 2.902c0 .616.251 1.236.566 1.79.251.495.375 1.359-.502 1.79-.626.37-1.443.123-1.818-.494-.375-.494-.814-.989-1.38-1.358a3.328 3.328 0 00-3.385 0 3.365 3.365 0 00-1.694 2.905c0 1.174.626 2.285 1.694 2.902a3.328 3.328 0 003.385 0c.566-.31 1.005-.802 1.316-1.359.251-.432.94-.99 1.818-.495.626.37.814 1.174.502 1.791-.314.557-.502 1.174-.502 1.79 0 1.175.626 2.286 1.694 2.903a3.328 3.328 0 003.386 0 3.36 3.36 0 001.694-2.902 3.353 3.353 0 00-1.694-2.902c-.566-.31-1.192-.432-1.882-.432-.566 0-1.316-.37-1.316-1.296 0-.742.566-1.296 1.316-1.296.626 0 1.316-.122 1.882-.432a3.36 3.36 0 001.694-2.902 3.353 3.353 0 00-1.694-2.902c-.503-.31-1.129-.432-1.695-.432-.562-.003-1.192.122-1.69.429z" fill="#fff"/></mask><g mask="url(#a)"><path d="M14.54-.365l15.674 15.498L14.54 30.57-1.197 15.133 14.54-.364z" fill="#fff"/></g></g><defs><linearGradient id="paint0_linear_435_1830" x1="0" y1="15" x2="30" y2="15" gradientUnits="userSpaceOnUse"><stop stop-color="#0F9FD7"/><stop offset="1" stop-color="#036AA0"/></linearGradient><clipPath id="clip0_435_1830"><path fill="#fff" transform="translate(7 7)" d="M0 0h15v16H0z"/></clipPath></defs></svg>