<svg width="34" height="26" fill="none" xmlns="http://www.w3.org/2000/svg"><g clip-path="url(#clip0_418_156)"><path d="M12 2c6.627 0 12 5.373 12 12s-5.373 12-12 12S0 20.629 0 14 5.372 2 12 2z" fill="#53AE94"/><path d="M13.481 12.402v-1.786h4.082v-2.72H6.447v2.72h4.083V12.4c-3.318.152-5.813.81-5.813 1.597 0 .787 2.496 1.444 5.813 1.598v5.717h2.952v-5.718c3.312-.153 5.802-.81 5.802-1.596 0-.787-2.49-1.443-5.802-1.596m0 2.708v-.002c-.083.005-.511.031-1.464.031a30.81 30.81 0 01-1.487-.031v.002c-2.931-.13-5.119-.64-5.119-1.251 0-.61 2.188-1.12 5.12-1.25v1.993c.191.013.74.045 1.498.045.91 0 1.368-.038 1.452-.045v-1.994c2.926.13 5.11.642 5.11 1.25 0 .609-2.185 1.12-5.11 1.25" fill="#fff"/></g><circle cx="26" cy="8" r="8" fill="#FF060A"/><g clip-path="url(#clip1_418_156)"><path d="M31.579 6.314c-.516-.476-1.229-1.203-1.81-1.719l-.034-.024a.656.656 0 00-.191-.106c-1.4-.262-7.92-1.48-8.047-1.465a.24.24 0 00-.1.038l-.033.026c-.04.04-.07.09-.089.144l-.009.022v.142C22 5.414 24.898 12.11 25.47 13.68c.034.106.1.309.221.32h.028c.065 0 .344-.369.344-.369s4.977-6.036 5.48-6.679c.066-.079.123-.164.173-.254a.414.414 0 00-.136-.385zm-4.24.703l2.124-1.762 1.246 1.148-3.37.614zm-.825-.115l-3.658-2.998 5.918 1.092-2.26 1.906zm.33.785l3.743-.603-4.28 5.156.537-4.553zm-4.485-3.484l3.849 3.266-.557 4.775-3.291-8.04z" fill="#fff"/></g><defs><clipPath id="clip0_418_156"><path fill="#fff" transform="translate(0 2)" d="M0 0h24v24H0z"/></clipPath><clipPath id="clip1_418_156"><path fill="#fff" transform="translate(21 3)" d="M0 0h11v11H0z"/></clipPath></defs></svg>