<svg width="38" height="33" fill="none" xmlns="http://www.w3.org/2000/svg"><g clip-path="url(#clip0_435_1889)"><path d="M0 3h30v30H0V3z" fill="#26A17B"/><path d="M16.606 19.136c-.089 0-.471.037-1.59.037-.895 0-1.402-.027-1.624-.037-3.452-.153-6.157-.758-6.157-1.49s2.705-1.346 6.157-1.5v2.385h3.214v-2.385c3.443.154 6.148.768 6.148 1.5 0 .723-2.705 1.337-6.148 1.49zm0-3.242v-2.18h4.822V10.5H8.57v3.214h4.821v2.179c-3.904.181-6.964.976-6.964 1.915 0 .94 3.06 1.735 6.964 1.916v6.847h3.214v-6.847c3.905-.181 6.965-.976 6.965-1.916 0-.939-3.06-1.725-6.965-1.915z" fill="#fff"/></g><g clip-path="url(#clip1_435_1889)"><path d="M22 0h16v16H22V0z" fill="#627EEA"/><path d="M30 2.286V6.51l3.571 1.595L30 2.286z" fill="#fff" fill-opacity=".6"/><path d="M30 2.286l-3.572 5.82 3.571-1.596V2.286z" fill="#fff"/><path d="M30 10.843v2.871l3.571-4.943L30 10.843z" fill="#fff" fill-opacity=".6"/><path d="M30 13.714v-2.871L26.427 8.77l3.571 4.943z" fill="#fff"/><path d="M30 10.177l3.571-2.072L30 6.51v3.667z" fill="#fff" fill-opacity=".2"/><path d="M26.428 8.105l3.571 2.072V6.51l-3.571 1.595z" fill="#fff" fill-opacity=".6"/></g><defs><clipPath id="clip0_435_1889"><rect y="3" width="30" height="30" rx="15" fill="#fff"/></clipPath><clipPath id="clip1_435_1889"><rect x="22" width="16" height="16" rx="8" fill="#fff"/></clipPath></defs></svg>