<svg width="24" height="24" fill="none" xmlns="http://www.w3.org/2000/svg"><g clip-path="url(#clip0_411_76)"><path d="M23.081 7.23c-1.125-1.038-2.681-2.625-3.948-3.75l-.075-.052a1.43 1.43 0 00-.417-.233C15.585 2.625 1.361-.033 1.084 0a.525.525 0 00-.218.083L.795.139A.836.836 0 00.6.454L.581.503V.81c1.602 4.46 7.924 19.065 9.17 22.493.074.232.217.675.483.697h.06c.142 0 .75-.802.75-.802s10.86-13.17 11.959-14.573c.142-.172.267-.358.375-.555a.904.904 0 00-.297-.84zM13.83 8.764l4.635-3.844 2.719 2.505-7.354 1.34zm-1.8-.251l-7.98-6.54 12.911 2.381-4.93 4.159zm.72 1.714l8.168-1.317-9.338 11.25 1.17-9.933zM2.966 2.625l8.396 7.125-1.214 10.418L2.966 2.625z" fill="#FF060A"/></g><defs><clipPath id="clip0_411_76"><path fill="#fff" d="M0 0h24v24H0z"/></clipPath></defs></svg>