<svg width="30" height="30" fill="none" xmlns="http://www.w3.org/2000/svg"><g clip-path="url(#clip0_435_1850)"><path d="M0 0h30v30H0V0z" fill="#C4342B"/><path fill-rule="evenodd" clip-rule="evenodd" d="M8.25 7.76a.536.536 0 01.524-.162l11.304 2.768a.545.545 0 01.189.087l2.3 1.677a.536.536 0 01.126.735L14.78 24.442a.536.536 0 01-.947-.123l-5.69-16.02a.536.536 0 01.106-.54zm1.865 2.89l3.95 11.122.65-5.763-4.6-5.358zm5.657 5.545l-.66 5.863 5.587-8.176-4.927 2.313zm5.431-3.733l-3.601 1.69 2.414-2.555 1.188.865zm-2.274-1.274L10.14 9.036l5.152 6 3.636-3.848z" fill="#fff"/></g><defs><clipPath id="clip0_435_1850"><rect width="30" height="30" rx="15" fill="#fff"/></clipPath></defs></svg>