<svg width="18" height="18" viewBox="0 0 18 18" fill="none" xmlns="http://www.w3.org/2000/svg">
<path d="M15.587 11.5341C15.1043 10.9294 14.7331 10.4986 14.7331 9.33586V5.47709C14.7331 3.84921 14.6217 2.32539 13.4168 1.20994C12.451 0.325127 10.8619 0 9.60755 0C6.95478 0 4.5844 1.07213 4.00614 3.95552C3.95721 4.28234 4.19796 4.42071 4.39202 4.4674L6.90641 4.69803C7.14716 4.69803 7.29229 4.46571 7.34122 4.23284C7.53304 3.25577 8.40492 2.43395 9.36961 2.43395C9.90061 2.43395 10.9474 2.96608 10.9474 4.08209V5.47709C9.40224 5.47709 7.67816 5.58116 6.32759 6.1386C4.73571 6.7911 3.37502 8.04098 3.37502 10.0412C3.37502 12.5989 5.35503 13.9968 7.47679 13.9968C9.26217 13.9968 10.2347 13.5344 11.6326 12.1849C12.0674 12.8374 12.3363 13.2987 13.1558 13.9962C13.3499 14.0913 13.5906 14.0913 13.7341 13.9512C14.2161 13.5316 15.0571 12.6501 15.5864 12.2322C15.8277 12.0449 15.7805 11.767 15.5864 11.5347L15.587 11.5341ZM10.9474 7.91161C10.9474 8.84142 10.7641 11.1617 8.40154 11.1617C7.1871 11.1617 7.16122 9.73693 7.16122 9.73693C7.16122 7.91104 9.11423 7.30242 10.9469 7.30242V7.91104L10.9474 7.91161Z" fill="#121212"/>
<path d="M16.4212 15.8284C14.4243 17.1756 11.4329 18.0002 9.00965 18.0002C5.54126 18.0002 2.45368 16.7413 0.0782303 14.7861C-0.110771 14.6117 0.0782304 14.4384 0.269481 14.5251C2.8345 15.8723 5.73251 16.653 8.96128 16.653C11.1472 16.653 13.9029 16.2182 16.1354 15.3497C16.4673 15.2631 16.7531 15.6113 16.4212 15.8284ZM17.1339 14.9154C16.8959 14.6117 15.4711 14.7861 14.8529 14.8288C14.6617 14.8288 14.6156 14.6978 14.8046 14.5689C15.8975 13.8293 17.7498 14.0458 17.9405 14.3074C18.1301 14.5689 17.8927 16.2626 16.8481 17.0451C16.7047 17.1756 16.5157 17.0873 16.6102 16.9585C16.8476 16.4353 17.3713 15.2203 17.1333 14.9149L17.1339 14.9154Z" fill="#FFB300"/>
</svg>
