<svg width="18" height="18" viewBox="0 0 18 18" fill="none" xmlns="http://www.w3.org/2000/svg">
<path d="M15.587 11.534C15.1043 10.9293 14.7331 10.4984 14.7331 9.33574V5.47697C14.7331 3.84909 14.6217 2.32527 13.4168 1.20982C12.451 0.325005 10.8619 -0.00012207 9.60755 -0.00012207C6.95478 -0.00012207 4.5844 1.07201 4.00614 3.9554C3.95721 4.28221 4.19796 4.42059 4.39202 4.46728L6.90641 4.6979C7.14716 4.6979 7.29229 4.46559 7.34122 4.23271C7.53304 3.25565 8.40492 2.43383 9.36961 2.43383C9.90061 2.43383 10.9474 2.96596 10.9474 4.08196V5.47697C9.40224 5.47697 7.67816 5.58103 6.32759 6.13847C4.73571 6.79098 3.37502 8.04086 3.37502 10.0411C3.37502 12.5988 5.35503 13.9966 7.47679 13.9966C9.26217 13.9966 10.2347 13.5343 11.6326 12.1848C12.0674 12.8373 12.3363 13.2986 13.1558 13.9961C13.3499 14.0911 13.5906 14.0911 13.7341 13.9511C14.2161 13.5315 15.0571 12.65 15.5864 12.2321C15.8277 12.0448 15.7805 11.7669 15.5864 11.5346L15.587 11.534ZM10.9474 7.91148C10.9474 8.8413 10.7641 11.1616 8.40154 11.1616C7.1871 11.1616 7.16122 9.73681 7.16122 9.73681C7.16122 7.91092 9.11423 7.30229 10.9469 7.30229V7.91092L10.9474 7.91148Z" fill="white"/>
<path d="M16.4212 15.8283C14.4243 17.1755 11.4329 18.0001 9.00965 18.0001C5.54126 18.0001 2.45368 16.7412 0.0782303 14.7859C-0.110771 14.6116 0.0782304 14.4383 0.269481 14.5249C2.8345 15.8721 5.73251 16.6529 8.96128 16.6529C11.1472 16.6529 13.9029 16.2181 16.1354 15.3496C16.4673 15.2629 16.7531 15.6111 16.4212 15.8283ZM17.1339 14.9153C16.8959 14.6116 15.4711 14.7859 14.8529 14.8287C14.6617 14.8287 14.6156 14.6976 14.8046 14.5688C15.8975 13.8291 17.7498 14.0457 17.9405 14.3073C18.1301 14.5688 17.8927 16.2625 16.8481 17.045C16.7047 17.1755 16.5157 17.0871 16.6102 16.9583C16.8476 16.4352 17.3713 15.2202 17.1333 14.9148L17.1339 14.9153Z" fill="#FFB300"/>
</svg>
