<svg width="17" height="20" viewBox="0 0 17 20" fill="none" xmlns="http://www.w3.org/2000/svg">
<path d="M17 14.6584C16.8875 14.9817 16.7692 15.2904 16.6443 15.5864C16.3486 16.2672 15.9847 16.9151 15.5583 17.5197C14.9888 18.3263 14.5213 18.8836 14.161 19.193C13.6033 19.7023 13.005 19.9629 12.3642 19.9769C11.9046 19.9769 11.3508 19.8476 10.7048 19.5849C10.0575 19.323 9.46246 19.1936 8.91846 19.1936C8.34831 19.1936 7.73631 19.323 7.08115 19.5849C6.426 19.8476 5.89769 19.9849 5.49427 19.9983C4.87965 20.0243 4.26831 19.7569 3.65696 19.1936C3.26727 18.8563 2.7795 18.2783 2.19496 17.4603C1.56792 16.587 1.05269 15.5724 0.649269 14.4164C0.216423 13.1684 0 11.9598 0 10.7898C0 9.44981 0.292269 8.29384 0.877461 7.32519C1.32463 6.55992 1.95792 5.92524 2.71608 5.48256C3.47143 5.03575 4.32747 4.79618 5.20069 4.78724C5.68846 4.78724 6.32792 4.93724 7.123 5.23056C7.91546 5.52589 8.42415 5.67522 8.64777 5.67522C8.8145 5.67522 9.38008 5.50056 10.338 5.1519C11.2442 4.82857 12.0092 4.69457 12.6362 4.74724C14.3343 4.88324 15.6093 5.54722 16.458 6.74187C14.9397 7.65385 14.1891 8.93049 14.2035 10.5685C14.2172 11.8451 14.6841 12.9077 15.6021 13.7511C16.0108 14.1367 16.4844 14.444 17 14.6584ZM12.7291 0C12.7422 0.133331 12.7487 0.267328 12.7487 0.399992C12.7487 1.39997 12.3806 2.33462 11.6463 3.1986C10.759 4.22658 9.68608 4.8199 8.52223 4.72657C8.5066 4.60076 8.49874 4.47407 8.49869 4.34725C8.49869 3.38727 8.92042 2.35929 9.66973 1.5193C10.0437 1.09398 10.5197 0.739986 11.0951 0.457991C11.6718 0.179997 12.2171 0.0266661 12.7291 0Z" fill="#121212"/>
</svg>
