<svg width="33" height="16" viewBox="0 0 33 16" fill="none" xmlns="http://www.w3.org/2000/svg">
<g clip-path="url(#clip0_275_1964)">
<path d="M3.64501 14.2246C3.51133 14.2096 3.30241 14.094 3.15412 13.9781C1.74291 12.6329 3.55488 11.086 5.65103 10.1895V7.63029C6.14109 7.9342 6.409 7.94814 6.42334 7.9916L8.02804 6.44468L7.49305 5.11369C12.1889 3.53753 14.0756 2.92998 17.8947 2.30874L17.21 1.68616L18.3255 1.0652C20.8957 1.89002 23.3187 2.10622 22.9017 4.20303C23.0062 2.78593 21.1931 2.23604 18.4294 1.48445L17.8947 1.80204L18.9195 2.6266C14.3435 3.39296 11.5349 4.26097 8.19149 5.38863L8.65179 6.54581L6.97322 8.15067C7.25601 8.22309 10.1829 9.1772 13.2283 7.10964C13.2283 7.10964 13.2884 7.06591 13.2884 7.0517C13.1999 6.90712 12.991 6.74752 12.7388 6.53132C13.6304 6.58926 14.209 7.35534 14.1054 8.15067H13.6894C13.7189 7.89021 13.6594 7.61553 13.5709 7.42777C11.2082 9.10532 8.47401 9.35129 6.14109 8.5557V10.5366C5.01185 10.9272 2.9904 12.1409 3.00583 13.3134C3.07998 13.877 3.37738 14.0792 3.64501 14.2246Z" fill="#121212"/>
<path d="M13.2954 13.5613C10.7676 14.8048 8.34677 15.8027 4.61698 15.9473C-0.241782 15.8456 -0.999484 12.7072 1.30338 9.42536C3.47285 6.11398 6.9204 3.11993 12.4035 1.25435C13.9927 0.706341 16.3259 0.0837593 18.5844 0.0547895C21.8239 0.0255518 24.9745 1.00917 24.7659 4.03166C24.6468 6.34547 21.2153 9.61313 19.4016 11.9562C18.6288 12.9822 18.4948 13.6479 19.817 13.5903C24.6176 13.2858 28.9709 11.667 33.0124 9.9892C30.279 11.7968 16.147 18.6074 16.0886 13.9663C16.1029 13.3727 16.3849 12.7512 16.8455 12.0863C17.292 11.4208 17.9157 10.7266 18.5546 10.0182C19.5204 8.94818 21.9126 6.38866 22.715 4.85542C24.0669 1.94908 21.0361 1.80423 18.4207 0.908051L17.3055 1.52902L17.9901 2.15159C14.1711 2.7731 12.2844 3.38039 7.58852 4.95681L8.12351 6.28753L6.51881 7.83445C6.47443 7.79127 6.23657 7.77732 5.74622 7.47314V10.0324C3.65035 10.9291 1.8381 12.476 3.24932 13.821C3.39788 13.9368 3.6068 14.0524 3.74048 14.0675C6.31071 15.4846 13.3089 13.5613 13.2954 13.5613Z" fill="#FF6600"/>
</g>
<defs>
<clipPath id="clip0_275_1964">
<rect width="33" height="16" fill="white"/>
</clipPath>
</defs>
</svg>
