<svg width="33" height="16" viewBox="0 0 33 16" fill="none" xmlns="http://www.w3.org/2000/svg">
<g clip-path="url(#clip0_224_69)">
<path d="M3.64501 14.2254C3.51133 14.2104 3.30241 14.0947 3.15412 13.9789C1.74291 12.6337 3.55488 11.0867 5.65103 10.1903V7.63105C6.14109 7.93496 6.409 7.94891 6.42334 7.99236L8.02804 6.44544L7.49305 5.11445C12.1889 3.53829 14.0756 2.93074 17.8947 2.30951L17.21 1.68693L18.3255 1.06596C20.8957 1.89079 23.3187 2.10698 22.9017 4.20379C23.0062 2.7867 21.1931 2.23681 18.4294 1.48521L17.8947 1.80281L18.9195 2.62737C14.3435 3.39372 11.5349 4.26173 8.19149 5.3894L8.65179 6.54657L6.97322 8.15143C7.25601 8.22385 10.1829 9.17797 13.2283 7.1104C13.2283 7.1104 13.2884 7.06668 13.2884 7.05246C13.1999 6.90788 12.991 6.74828 12.7388 6.53208C13.6304 6.59002 14.209 7.35611 14.1054 8.15143H13.6894C13.7189 7.89097 13.6594 7.61629 13.5709 7.42853C11.2082 9.10608 8.47401 9.35205 6.14109 8.55646V10.5374C5.01185 10.9279 2.9904 12.1417 3.00583 13.3142C3.07998 13.8777 3.37738 14.08 3.64501 14.2254Z" fill="#DADADA"/>
<path d="M13.2954 13.561C10.7676 14.8046 8.34677 15.8024 4.61698 15.947C-0.241782 15.8453 -0.999484 12.707 1.30338 9.42509C3.47285 6.11371 6.9204 3.11966 12.4035 1.25407C13.9927 0.706066 16.3259 0.0834846 18.5844 0.0545149C21.8239 0.0252771 24.9745 1.0089 24.7659 4.03139C24.6468 6.3452 21.2153 9.61285 19.4016 11.9559C18.6288 12.9819 18.4948 13.6477 19.817 13.59C24.6176 13.2856 28.9709 11.6667 33.0124 9.98893C30.279 11.7966 16.147 18.6071 16.0886 13.9661C16.1029 13.3725 16.3849 12.751 16.8455 12.086C17.292 11.4205 17.9157 10.7263 18.5546 10.0179C19.5204 8.9479 21.9126 6.38839 22.715 4.85515C24.0669 1.9488 21.0361 1.80395 18.4207 0.907776L17.3055 1.52874L17.9901 2.15132C14.1711 2.77282 12.2844 3.38011 7.58852 4.95654L8.12351 6.28726L6.51881 7.83418C6.47443 7.79099 6.23657 7.77705 5.74622 7.47287V10.0321C3.65035 10.9288 1.8381 12.4757 3.24932 13.8207C3.39788 13.9366 3.6068 14.0522 3.74048 14.0672C6.31071 15.4843 13.3089 13.561 13.2954 13.561Z" fill="#FF6600"/>
</g>
<defs>
<clipPath id="clip0_224_69">
<rect width="33" height="16" fill="white"/>
</clipPath>
</defs>
</svg>
