<svg width="30" height="18" viewBox="0 0 30 18" fill="none" xmlns="http://www.w3.org/2000/svg">
<g clip-path="url(#clip0_275_1924)">
<path d="M8.60869 15.057C9.29095 14.4917 9.40823 13.7916 9.40823 13.1635V10.5255H5.70015V14.1047C5.70015 14.6173 5.28304 15.0326 4.76803 15.0326C4.25302 15.0326 3.86956 14.6173 3.86956 14.1047V3.96485C3.86956 3.45325 4.25302 3.03789 4.76803 3.03789C5.28304 3.03789 5.70015 3.45325 5.70015 3.96485V7.56733H9.40313V3.83011C9.40313 1.76547 8.04472 0.0665523 4.73641 0.0625C1.33938 0.0625 0.0554199 1.76952 0.0554199 3.83416V14.4218C0.0554199 16.4682 1.69122 18.0161 3.78288 18.0161H4.9312L8.60869 15.057Z" fill="#121212"/>
<path d="M20.6671 3.8364V0.40918H29.9292V3.8364H27.3572V17.9941H26.2598L23.2269 15.4715V3.8364H20.6671Z" fill="#121212"/>
<path d="M6.52112 18.0206H24.8861L15.8668 10.5127L6.52112 18.0206Z" fill="#FFC400"/>
<path d="M14.8693 8.48975L15.8677 3.42034L16.861 8.48975H14.8693ZM18.4397 0.427734H13.2733L10.2638 13.8438L15.8687 9.34883L21.7123 14.2136L18.4397 0.427734Z" fill="#121212"/>
</g>
<defs>
<clipPath id="clip0_275_1924">
<rect width="30" height="18" fill="white"/>
</clipPath>
</defs>
</svg>
