<svg width="20" height="14" viewBox="0 0 20 14" fill="none" xmlns="http://www.w3.org/2000/svg">
<path d="M16 1.68H17.1429V2.11176C17.2589 2.01656 17.5389 1.68 18.2857 1.68C19.1486 1.68 20 2.25456 20 3.22336V5.63136H18.8623V3.50896C18.8623 2.96912 18.5966 2.6516 18.0989 2.6516C17.6171 2.6516 17.1429 2.95344 17.1429 3.50896V5.6H16V1.68ZM11.0126 3.7156C11.0126 2.57208 11.9749 1.6352 13.2194 1.6352C14.4806 1.6352 15.4269 2.57208 15.4269 3.7156C15.4269 4.85856 14.464 5.79544 13.2194 5.79544C11.9749 5.77976 11.0126 4.85856 11.0126 3.7156ZM12.2069 3.7156C12.2069 4.27112 12.6389 4.71576 13.236 4.71576C13.8337 4.71576 14.2646 4.27112 14.2646 3.7156C14.2646 3.15952 13.8337 2.71488 13.236 2.71488C12.6389 2.71488 12.2069 3.15952 12.2069 3.7156ZM3.87657 5.6H5.304L6.56514 4.12832L7.36171 4.90672L5.42972 7.28H6.85714L8.12457 5.6364L10.2857 7.84H12.0114L8.888 4.74768L11.4274 1.68H10L8.12457 3.98552L7.328 3.22336L9.36914 0.76216H7.94286L6.54857 2.47688L5.71429 1.68H4.02171L5.80114 3.3824L3.87657 5.6ZM0 0V5.5944L3.42857 5.6L3.43371 4.48H1.14286L1.13771 3.36H3.42857V2.24H1.13771V1.12H3.42857V0.00560013L0 0ZM8.57143 9.8C7.26514 9.8 6.28571 10.7492 6.28571 11.9078C6.28571 13.067 7.28229 14 8.57143 14C9.86057 14 10.8571 13.0665 10.8571 11.9078C10.8571 10.7492 9.86057 9.8 8.57143 9.8ZM8.57143 12.922C7.95257 12.922 7.50571 12.4712 7.50571 11.9084C7.50571 11.345 7.95257 10.8942 8.57143 10.8942C9.19029 10.8942 9.63714 11.345 9.63714 11.9078C9.63714 12.4712 9.19029 12.922 8.57143 12.922ZM17.7143 8.4H16.5714V9.4948H17.7143V8.4ZM17.7143 9.9232H16.5714V14H17.7143V9.9232ZM20 8.4H18.8571V14H20V8.4ZM14.016 9.828C13.1863 9.828 12.6377 10.1937 12.5714 10.2413V8.4H11.4286V13.9888H12.5714V13.72C12.6543 13.7833 13.2029 13.9888 14 13.9888C15.0451 13.9888 16.0074 13.0995 16.0074 11.9241C16.0074 10.7335 15.0949 9.828 14.016 9.828ZM13.7343 12.8929C13.1366 12.8929 12.5743 12.4639 12.5743 11.9084C12.5743 11.3372 13.1366 10.9082 13.7343 10.9082C14.3314 10.9082 14.7629 11.3366 14.7629 11.8927C14.7629 12.4639 14.3149 12.8929 13.7343 12.8929ZM0 8.4V14H1.14286V10.08H1.19257L2.28571 14H3.42857L4.52171 10.08H4.57143V14H5.71829V8.4H3.77714L2.85714 12.32H2.824L1.81829 8.4H0Z" fill="#ED1B2D"/>
</svg>
