<svg width="17" height="18" viewBox="0 0 17 18" fill="none" xmlns="http://www.w3.org/2000/svg">
<g clip-path="url(#clip0_244_29)">
<path d="M8.67346 7.36365V10.8491H13.3414C13.1364 11.97 12.5213 12.9192 11.5988 13.5573L14.4137 15.8237C16.0538 14.2529 17 11.9456 17 9.20466C17 8.56648 16.9448 7.95278 16.8423 7.36375L8.67346 7.36365Z" fill="#4285F4"/>
<path d="M3.81259 10.7131L3.17772 11.2174L0.93045 13.0338C2.35763 15.971 5.28276 18.0002 8.67329 18.0002C11.0151 18.0002 12.9784 17.1983 14.4135 15.8238L11.5986 13.5574C10.8259 14.0974 9.84022 14.4247 8.67329 14.4247C6.41819 14.4247 4.50218 12.8456 3.81614 10.7183L3.81259 10.7131Z" fill="#34A853"/>
<path d="M0.930456 4.96643C0.339112 6.1773 9.15527e-05 7.54369 9.15527e-05 9.00003C9.15527e-05 10.4564 0.339112 11.8228 0.930456 13.0336C0.930456 13.0418 3.81642 10.71 3.81642 10.71C3.64295 10.17 3.54042 9.5973 3.54042 8.99994C3.54042 8.40259 3.64295 7.82989 3.81642 7.28989L0.930456 4.96643Z" fill="#FBBC05"/>
<path d="M8.67347 3.58365C9.95086 3.58365 11.0863 4.04183 11.9931 4.92548L14.4768 2.34823C12.9708 0.891879 11.0153 0 8.67347 0C5.28294 0 2.35763 2.02092 0.93045 4.9664L3.81633 7.29005C4.50228 5.16274 6.41836 3.58365 8.67347 3.58365Z" fill="#EA4335"/>
</g>
<defs>
<clipPath id="clip0_244_29">
<rect width="17" height="18" fill="white"/>
</clipPath>
</defs>
</svg>
