<svg width="22" height="9" viewBox="0 0 22 9" fill="none" xmlns="http://www.w3.org/2000/svg">
<path d="M18.3975 0.529412H22V0H18.601L18.403 0.529412H18.3975ZM15.6475 0.529412L15.433 0H12.1V0.529412H15.642H15.6475ZM12.1 1.05882H15.851L16.06 1.58824H12.1V1.05882ZM10.89 0.529412C10.4542 0.189342 9.91098 0.00258062 9.35 0H4.95V0.529412H10.89ZM4.95 1.05882H11.3905C11.5005 1.21765 11.5995 1.39765 11.6655 1.58824H4.95V1.05882ZM4.4 0.529412V0H0V0.529412H4.4ZM0 1.05882H4.4V1.58824H0V1.05882ZM1.1 2.11765H3.3V2.64706H1.1V2.11765ZM1.1 3.70588V3.17647H3.3V3.70588H1.1ZM1.1 4.76471V4.23529H3.3V4.76471H1.1ZM1.1 5.82353V5.29412H3.3V5.82353H1.1ZM1.1 6.88235V6.35294H3.3V6.88235H1.1ZM1.1 7.41177H0V7.94118H4.4V7.41177H1.1ZM4.95 7.41177V7.94118H11.44C11.572 7.78235 11.6765 7.60235 11.7645 7.41177H4.95ZM9.35 6.88235H11.935C11.9735 6.71294 11.99 6.53294 11.99 6.35294H9.35V6.88235ZM7.7 6.88235V6.35294H6.05V6.88235H7.7ZM6.05 5.82353H11.935C11.8977 5.64176 11.8406 5.4643 11.7645 5.29412H6.05V5.82353ZM6.05 4.76471H11.44C11.2835 4.56418 11.0983 4.38595 10.89 4.23529H6.05V4.76471ZM6.05 3.70588H11.3905C11.5005 3.54706 11.5995 3.36706 11.6655 3.17647H6.05V3.70588ZM6.05 2.64706V2.11765H7.7V2.64706H6.05ZM9.35 2.11765H11.792C11.8123 2.29358 11.8123 2.47113 11.792 2.64706H9.35V2.11765ZM13.2 3.17647V3.70588H16.896L16.687 3.17647H13.2ZM16.478 2.64706H13.2V2.11765H16.269L16.478 2.64706ZM17.3965 3.17647L17.1985 3.70588H20.9V3.17647H17.3965ZM20.9 2.64706H17.6L17.798 2.11765H20.9V2.64706ZM20.9 1.58824H22V1.05882H18.1995L18.0015 1.58824H20.9ZM20.9 4.23529H17.05V4.76471H20.9V4.23529ZM20.9 5.29412H18.7V5.82353H20.9V5.29412ZM20.9 6.35294H18.7V6.88235H20.9V6.35294ZM20.9 7.41177H18.7V7.94118H22V7.41177H20.9ZM22 8.47059H18.7V9H22V8.47059ZM17.05 9L17.2645 8.47059H17.05V9ZM17.05 7.94118H17.4735L17.6825 7.41177H17.05V7.94118ZM17.05 7.41177V7.94118H16.632L16.423 7.41177H17.05ZM17.05 6.88235H17.897L18.106 6.35294H17.05V6.88235ZM17.05 6.35294V6.88235H16.2195L16.0105 6.35294H17.0445H17.05ZM17.05 5.82353H18.315L18.535 5.29412H17.05V5.82353ZM17.05 5.29412V5.82353H15.8015L15.5925 5.29412H17.05ZM17.05 4.76471V4.23529H13.2V4.76471H17.05ZM13.2 5.29412V5.82353H15.4V5.29412H13.2ZM15.4 6.35294H13.2V6.88235H15.4V6.35294ZM15.4 7.41177H12.1V7.94118H15.4V7.41177ZM15.4 8.47059H12.1V9H15.4V8.47059ZM9.35 9C9.90743 8.97893 10.4448 8.79419 10.89 8.47059H4.95V9H9.35ZM4.4 9V8.47059H0V9H4.4ZM16.841 8.47059H17.0445V9L16.841 8.47059Z" fill="white"/>
</svg>
