<svg width="27" height="18" viewBox="0 0 27 18" fill="none" xmlns="http://www.w3.org/2000/svg">
<g clip-path="url(#clip0_224_135)">
<path d="M2.95026 11.8702C2.95026 12.9049 3.17574 13.6993 3.47045 14.1798C3.85685 14.8093 4.43318 15.0759 5.02073 15.0759C5.77856 15.0759 6.47184 14.8865 7.80786 13.0255C8.87818 11.5338 10.1394 9.44005 10.9879 8.12743L12.425 5.9036C13.4233 4.35917 14.5787 2.6423 15.9035 1.47856C16.9851 0.528726 18.1518 0.0010376 19.3259 0.0010376C21.2972 0.0010376 23.175 1.15159 24.6121 3.30945C26.1848 5.67274 26.9482 8.64947 26.9482 11.7214C26.9482 13.5475 26.5908 14.8894 25.9827 15.9495C25.3951 16.9747 24.25 17.999 22.3236 17.999V15.0759C23.973 15.0759 24.3847 13.5494 24.3847 11.8024C24.3847 9.31284 23.8084 6.55002 22.5388 4.5759C21.6378 3.17565 20.4702 2.32004 19.1856 2.32004C17.7963 2.32004 16.6782 3.37541 15.4217 5.25719C14.7537 6.25697 14.0679 7.47536 13.2979 8.85018L12.4503 10.3626C10.7475 13.4034 10.3162 14.096 9.4648 15.239C7.97253 17.2404 6.69825 17.999 5.02073 17.999C3.03072 17.999 1.77235 17.1311 0.993003 15.8232C0.3568 14.7575 0.0443115 13.3591 0.0443115 11.7657L2.95026 11.8702Z" fill="#0081FB"/>
<path d="M2.33557 3.51582C3.66786 1.44747 5.5905 0.0010376 7.79569 0.0010376C9.07278 0.0010376 10.3424 0.381727 11.6681 1.47197C13.1183 2.66398 14.6639 4.62679 16.5921 7.8617L17.2835 9.02262C18.9526 11.8231 19.9023 13.2639 20.458 13.9433C21.1728 14.8159 21.6733 15.0759 22.3236 15.0759C23.973 15.0759 24.3847 13.5494 24.3847 11.8024L26.9482 11.7214C26.9482 13.5475 26.5908 14.8894 25.9827 15.9495C25.3951 16.9747 24.25 17.999 22.3236 17.999C21.126 17.999 20.0651 17.737 18.8918 16.6223C17.9899 15.7667 16.9355 14.2467 16.1243 12.8804L13.7114 8.82096C12.5008 6.78371 11.3902 5.26472 10.7475 4.57685C10.0561 3.83714 9.16727 2.94384 7.74891 2.94384C6.60094 2.94384 5.62605 3.75516 4.81021 4.99617L2.33557 3.51582Z" fill="url(#paint0_linear_224_135)"/>
<path d="M7.74892 2.94384C6.60095 2.94384 5.62606 3.75516 4.81022 4.99617C3.65664 6.74979 2.95026 9.36184 2.95026 11.8702C2.95026 12.9049 3.17574 13.6993 3.47045 14.1798L0.993003 15.8232C0.3568 14.7575 0.0443115 13.3591 0.0443115 11.7657C0.0443115 8.86808 0.833952 5.84801 2.33558 3.51582C3.66786 1.44747 5.59051 0.0010376 7.7957 0.0010376L7.74892 2.94384Z" fill="url(#paint1_linear_224_135)"/>
</g>
<defs>
<linearGradient id="paint0_linear_224_135" x1="5.75142" y1="11.0259" x2="24.2768" y2="11.9549" gradientUnits="userSpaceOnUse">
<stop stop-color="#0064E1"/>
<stop offset="0.4" stop-color="#0064E1"/>
<stop offset="0.83" stop-color="#0073EE"/>
<stop offset="1" stop-color="#0082FB"/>
</linearGradient>
<linearGradient id="paint1_linear_224_135" x1="4.25448" y1="13.099" x2="4.25448" y2="6.22022" gradientUnits="userSpaceOnUse">
<stop stop-color="#0082FB"/>
<stop offset="1" stop-color="#0064E0"/>
</linearGradient>
<clipPath id="clip0_224_135">
<rect width="27" height="18" fill="white"/>
</clipPath>
</defs>
</svg>
