<svg width="12" height="12" fill="none" xmlns="http://www.w3.org/2000/svg"><path d="M4.5.209a.576.576 0 01.06.643 5.406 5.406 0 00-.658 2.595c0 3.016 2.458 5.458 5.488 5.458.395 0 .78-.041 1.15-.12a.59.59 0 01.607.237.55.55 0 01-.023.67A6.262 6.262 0 016.258 12C2.8 12 0 9.215 0 5.783 0 3.2 1.585.984 3.843.045A.564.564 0 014.5.21z" fill="#FFD600"/><path d="M8.095 2.361a.163.163 0 01.31 0l.29.871c.13.389.434.693.822.823l.872.29a.163.163 0 010 .31l-.872.29a1.3 1.3 0 00-.822.822l-.29.872a.163.163 0 01-.31 0l-.29-.872a1.3 1.3 0 00-.823-.822l-.871-.29a.163.163 0 010-.31l.871-.29a1.3 1.3 0 00.823-.822l.29-.872zM10.397.074a.109.109 0 01.206 0l.193.58a.87.87 0 00.55.55l.58.193a.109.109 0 010 .206l-.58.193a.867.867 0 00-.55.55l-.193.58a.108.108 0 01-.103.073.109.109 0 01-.103-.073l-.193-.58a.867.867 0 00-.55-.55l-.58-.193a.109.109 0 010-.206l.58-.193a.866.866 0 00.55-.55l.193-.579z" fill="#FFD600"/></svg>