<svg width="14" height="14" fill="none" xmlns="http://www.w3.org/2000/svg"><g clip-path="url(#clip0_280_22)"><path d="M13.718 6.743l-2.612-.76a4.64 4.64 0 00-.506-1.226l1.306-2.389a.248.248 0 00-.337-.336l-2.38 1.307a4.562 4.562 0 00-1.24-.517c-.26-.882-.518-1.763-.777-2.647-.068-.234-.405-.235-.474 0-.257.884-.514 1.765-.77 2.65-.43.109-.84.28-1.22.506L2.3 2.016c-.217-.119-.456.119-.336.337l1.32 2.402a4.63 4.63 0 00-.51 1.232l-2.599.762c-.234.069-.235.406 0 .474l2.6.757c.113.441.289.863.523 1.253l-1.297 2.375c-.12.217.118.456.336.336l2.371-1.302c.384.23.8.401 1.233.51l.762 2.6c.07.235.406.235.474 0 .252-.865.505-1.73.756-2.596a4.62 4.62 0 001.246-.515l2.357 1.288a.208.208 0 00.162.046.24.24 0 00.153-.07.241.241 0 00.08-.164.21.21 0 00-.047-.162l-1.292-2.353a4.66 4.66 0 00.512-1.242l2.613-.766c.235-.069.236-.406 0-.475z" fill="#FBB041"/><path d="M6.902 10.88a3.916 3.916 0 100-7.832 3.916 3.916 0 000 7.832z" fill="#F9EC21"/></g><defs><clipPath id="clip0_280_22"><path fill="#fff" d="M0 0h14v14H0z"/></clipPath></defs></svg>