<svg width="75" height="79" fill="none" xmlns="http://www.w3.org/2000/svg"><path d="M7.523 72.602H6.305a1.863 1.863 0 00-.73-1.192 2.018 2.018 0 00-.622-.312 2.422 2.422 0 00-.723-.106c-.46 0-.873.116-1.238.348-.362.232-.648.572-.86 1.02-.208.447-.312.994-.312 1.64 0 .651.104 1.2.313 1.648.21.448.499.787.863 1.016.365.23.775.344 1.23.344.253 0 .493-.034.72-.102.228-.07.436-.173.62-.308a1.871 1.871 0 00.738-1.176l1.22.004a3.264 3.264 0 01-.38 1.086 2.997 2.997 0 01-.714.851c-.29.237-.62.42-.992.551a3.67 3.67 0 01-1.22.195c-.692 0-1.31-.164-1.85-.492-.542-.33-.97-.803-1.282-1.418C.776 75.585.62 74.852.62 74c0-.854.156-1.587.469-2.2.312-.614.74-1.085 1.281-1.413.542-.331 1.158-.496 1.848-.496.424 0 .82.06 1.187.183.37.12.702.297.996.532.295.231.538.515.73.851.194.333.324.715.391 1.145zM14.43 78h-1.281l2.879-8h1.394l2.879 8H19.02l-2.262-6.547h-.063L14.43 78zm.215-3.133H18.8v1.016h-4.156v-1.016zM26.296 78v-8h2.852c.622 0 1.138.113 1.547.34a2.2 2.2 0 01.918.93c.203.39.304.83.304 1.32 0 .492-.103.935-.308 1.328-.203.39-.51.7-.922.93-.409.226-.923.34-1.543.34h-1.961v-1.024h1.852c.393 0 .712-.068.956-.203a1.28 1.28 0 00.54-.563c.114-.236.172-.506.172-.808 0-.302-.058-.57-.172-.805a1.233 1.233 0 00-.543-.55c-.245-.133-.568-.2-.97-.2h-1.515V78h-1.207zm13.083-8v8h-1.207v-8h1.207zm6.204 1.04V70h6.191v1.04h-2.496V78h-1.203v-6.96h-2.492zM57.713 78H56.43l2.88-8h1.394l2.879 8h-1.282l-2.261-6.547h-.063L57.713 78zm.215-3.133h4.156v1.016h-4.157v-1.016zM69.579 78v-8h1.207v6.96h3.625V78H69.58zM12.072 47.816L5.088 58.832h7.128V62H.864v-2.64l6.984-10.992H1.032V45.2h11.04v2.616zm10.839 3.6V50h3.096v12h-3.096v-1.416c-.928 1.168-2.232 1.752-3.912 1.752-1.6 0-2.976-.608-4.128-1.824-1.136-1.232-1.704-2.736-1.704-4.512 0-1.76.568-3.256 1.704-4.488 1.152-1.232 2.528-1.848 4.128-1.848 1.68 0 2.984.584 3.912 1.752zm-5.712 7.032c.624.624 1.416.936 2.376.936s1.752-.312 2.376-.936c.64-.64.96-1.456.96-2.448s-.32-1.8-.96-2.424c-.624-.64-1.416-.96-2.376-.96s-1.752.32-2.376.96c-.624.624-.936 1.432-.936 2.424s.312 1.808.936 2.448zM35.679 50v2.976h-2.713v4.992c0 .416.104.72.312.912.208.192.512.304.912.336.4.016.896.008 1.488-.024V62c-2.096.24-3.592.048-4.488-.576-.88-.64-1.32-1.792-1.32-3.456v-4.992h-2.088V50h2.088v-2.424l3.096-.936V50h2.712zm10.927 1.416V50h3.096v12h-3.096v-1.416c-.928 1.168-2.232 1.752-3.912 1.752-1.6 0-2.976-.608-4.128-1.824-1.136-1.232-1.704-2.736-1.704-4.512 0-1.76.568-3.256 1.704-4.488 1.152-1.232 2.528-1.848 4.128-1.848 1.68 0 2.984.584 3.912 1.752zm-5.712 7.032c.624.624 1.416.936 2.376.936s1.752-.312 2.376-.936c.64-.64.96-1.456.96-2.448s-.32-1.8-.96-2.424c-.624-.64-1.416-.96-2.376-.96s-1.752.32-2.376.96c-.624.624-.936 1.432-.936 2.424s.312 1.808.936 2.448zM55.606 50v2.064c.272-.752.736-1.32 1.392-1.704.656-.4 1.408-.6 2.256-.6v3.456c-.944-.128-1.792.064-2.544.576-.736.496-1.104 1.32-1.104 2.472V62H52.51V50h3.096zm14.133 1.416V50h3.096v12H69.74v-1.416c-.928 1.168-2.232 1.752-3.912 1.752-1.6 0-2.976-.608-4.128-1.824-1.136-1.232-1.704-2.736-1.704-4.512 0-1.76.568-3.256 1.704-4.488 1.152-1.232 2.528-1.848 4.128-1.848 1.68 0 2.984.584 3.912 1.752zm-5.712 7.032c.624.624 1.416.936 2.376.936s1.752-.312 2.376-.936c.64-.64.96-1.456.96-2.448s-.32-1.8-.96-2.424c-.624-.64-1.416-.96-2.376-.96s-1.752.32-2.376.96c-.624.624-.936 1.432-.936 2.424s.312 1.808.936 2.448z" fill="#121212"/><g clip-path="url(#clip0_4136_2025)" fill="#6405FF"><path d="M37.098.403L32.001 5.5a2.333 2.333 0 00-.696 1.65c0 .623.256 1.21.696 1.65l5.097 5.133c.11.11.257.147.403.147a.765.765 0 00.404-.147L43 8.836A2.368 2.368 0 0043 5.5L37.905.403a.66.66 0 00-.807 0zM35.118 16.5c0-.147-.074-.293-.147-.403L29.838 11a2.368 2.368 0 00-3.337 0l-5.097 5.097a.551.551 0 00-.146.403c0 .147.073.293.146.403L26.502 22c.44.44 1.027.697 1.65.697s1.21-.257 1.65-.697l5.134-5.097a.589.589 0 00.183-.403zM48.502 11a2.368 2.368 0 00-3.337 0l-5.096 5.097a.551.551 0 00-.147.403c0 .147.073.293.147.403L45.165 22c.44.44 1.027.697 1.65.697s1.21-.257 1.65-.697l5.097-5.097c.22-.22.22-.55 0-.77L48.502 11zm-10.599 8.067a.532.532 0 00-.77 0L32 24.164a2.368 2.368 0 000 3.337l5.097 5.096a.55.55 0 00.403.147.551.551 0 00.403-.147L43 27.501a2.368 2.368 0 000-3.337l-5.097-5.097z"/></g><defs><clipPath id="clip0_4136_2025"><path fill="#fff" transform="translate(21)" d="M0 0h33v33H0z"/></clipPath></defs></svg>