<svg width="118" height="36" fill="none" xmlns="http://www.w3.org/2000/svg"><path d="M50.523 29.602h-1.218a1.863 1.863 0 00-.73-1.192 2.017 2.017 0 00-.622-.312 2.421 2.421 0 00-.723-.106 2.26 2.26 0 00-1.238.348c-.362.232-.648.572-.86 1.02-.207.447-.312.994-.312 1.64 0 .651.105 1.2.313 1.648.21.448.498.787.863 1.016.365.23.775.344 1.23.344.253 0 .493-.034.72-.102.229-.07.436-.173.62-.308a1.871 1.871 0 00.738-1.176l1.22.004a3.263 3.263 0 01-.38 1.086 2.997 2.997 0 01-.714.851c-.29.237-.62.42-.992.551a3.67 3.67 0 01-1.22.195c-.692 0-1.31-.164-1.85-.492-.543-.33-.97-.803-1.282-1.418-.31-.614-.465-1.347-.465-2.199 0-.854.156-1.587.469-2.2.312-.614.74-1.085 1.281-1.413.542-.331 1.158-.496 1.848-.496.424 0 .82.06 1.187.183.37.12.702.297.996.531.295.232.538.516.73.852.194.333.324.715.391 1.145zM57.43 35h-1.281l2.879-8h1.394l2.879 8H62.02l-2.262-6.547h-.063L57.43 35zm.215-3.133H61.8v1.016h-4.156v-1.016zM69.296 35v-8h2.852c.622 0 1.138.113 1.547.34a2.2 2.2 0 01.918.93c.203.39.304.83.304 1.32 0 .492-.103.935-.308 1.328-.203.39-.51.7-.922.93-.409.226-.923.34-1.543.34h-1.961v-1.024h1.851c.394 0 .713-.068.957-.203a1.28 1.28 0 00.54-.563c.114-.236.171-.506.171-.808 0-.302-.057-.57-.171-.805a1.233 1.233 0 00-.543-.55c-.245-.133-.568-.2-.97-.2h-1.515V35h-1.207zm13.083-8v8h-1.207v-8h1.207zm6.204 1.04V27h6.191v1.04h-2.496V35h-1.203v-6.96h-2.492zm12.13 6.96h-1.282l2.879-8h1.395l2.879 8h-1.281l-2.262-6.547h-.063L100.713 35zm.215-3.133h4.156v1.016h-4.156v-1.016zM112.579 35v-8h1.207v6.96h3.625V35h-4.832zM55.072 4.816l-6.984 11.016h7.128V19H43.864v-2.64l6.984-10.992h-6.816V2.2h11.04v2.616zm10.839 3.6V7h3.096v12h-3.096v-1.416c-.928 1.168-2.232 1.752-3.912 1.752-1.6 0-2.976-.608-4.128-1.824-1.136-1.232-1.704-2.736-1.704-4.512 0-1.76.568-3.256 1.704-4.488 1.152-1.232 2.528-1.848 4.128-1.848 1.68 0 2.984.584 3.912 1.752zm-5.712 7.032c.624.624 1.416.936 2.376.936s1.752-.312 2.376-.936c.64-.64.96-1.456.96-2.448s-.32-1.8-.96-2.424c-.624-.64-1.416-.96-2.376-.96s-1.752.32-2.376.96c-.624.624-.936 1.432-.936 2.424s.312 1.808.936 2.448zM78.679 7v2.976h-2.713v4.992c0 .416.104.72.312.912.208.192.512.304.912.336.4.016.896.008 1.488-.024V19c-2.096.24-3.592.048-4.488-.576-.88-.64-1.32-1.792-1.32-3.456V9.976h-2.088V7h2.088V4.576l3.096-.936V7h2.712zm10.927 1.416V7h3.096v12h-3.096v-1.416c-.928 1.168-2.232 1.752-3.912 1.752-1.6 0-2.976-.608-4.128-1.824-1.136-1.232-1.704-2.736-1.704-4.512 0-1.76.568-3.256 1.704-4.488 1.152-1.232 2.528-1.848 4.128-1.848 1.68 0 2.984.584 3.912 1.752zm-5.712 7.032c.624.624 1.416.936 2.376.936s1.752-.312 2.376-.936c.64-.64.96-1.456.96-2.448s-.32-1.8-.96-2.424c-.624-.64-1.416-.96-2.376-.96s-1.752.32-2.376.96c-.624.624-.936 1.432-.936 2.424s.312 1.808.936 2.448zM98.606 7v2.064c.272-.752.736-1.32 1.392-1.704.656-.4 1.408-.6 2.256-.6v3.456c-.944-.128-1.792.064-2.544.576-.736.496-1.104 1.32-1.104 2.472V19H95.51V7h3.096zm14.133 1.416V7h3.096v12h-3.096v-1.416c-.928 1.168-2.232 1.752-3.912 1.752-1.6 0-2.976-.608-4.128-1.824-1.136-1.232-1.704-2.736-1.704-4.512 0-1.76.568-3.256 1.704-4.488 1.152-1.232 2.528-1.848 4.128-1.848 1.68 0 2.984.584 3.912 1.752zm-5.712 7.032c.624.624 1.416.936 2.376.936s1.752-.312 2.376-.936c.64-.64.96-1.456.96-2.448s-.32-1.8-.96-2.424c-.624-.64-1.416-.96-2.376-.96s-1.752.32-2.376.96c-.624.624-.936 1.432-.936 2.424s.312 1.808.936 2.448z" fill="#fff"/><g clip-path="url(#clip0_221_41)" fill="#6147FF"><path d="M16.097 2.403L11 7.5a2.333 2.333 0 00-.697 1.65c0 .623.257 1.21.697 1.65l5.097 5.133a.55.55 0 00.403.147.761.761 0 00.403-.147L22 10.837A2.368 2.368 0 0022 7.5l-5.097-5.097a.66.66 0 00-.806 0zM14.117 18.5c0-.147-.074-.293-.147-.403L8.837 13A2.368 2.368 0 005.5 13L.403 18.097a.551.551 0 00-.146.403c0 .147.073.293.146.403L5.5 24c.44.44 1.027.697 1.65.697S8.36 24.44 8.8 24l5.133-5.097a.589.589 0 00.184-.403zM27.5 13a2.368 2.368 0 00-3.337 0l-5.096 5.097a.551.551 0 00-.147.403c0 .147.073.293.147.403L24.163 24c.44.44 1.027.697 1.65.697.624 0 1.21-.257 1.65-.697l5.097-5.097c.22-.22.22-.55 0-.77L27.5 13zm-10.597 8.067a.532.532 0 00-.77 0L11 26.163a2.368 2.368 0 000 3.337l5.097 5.097a.55.55 0 00.403.146.551.551 0 00.403-.146L22 29.5a2.368 2.368 0 000-3.337l-5.097-5.096z"/></g><defs><clipPath id="clip0_221_41"><path fill="#fff" transform="translate(0 2)" d="M0 0h33v33H0z"/></clipPath></defs></svg>