<svg viewBox="0 0 24 24"  xmlns="http://www.w3.org/2000/svg" style="display:none">

	<symbol viewBox="0 0 16 16" id="drop-down-arrow">
		<path d="M4.66668 6.66667L8.00001 10L11.3333 6.66667" fill="none" stroke="currentColor" stroke-width="1.4" stroke-linecap="round" stroke-linejoin="round"/>	
	</symbol>

	<symbol viewBox="0 0 18 12" id="next-arrow">
		<path d="M1 5.3C0.613401 5.3 0.3 5.6134 0.3 6C0.3 6.3866 0.613401 6.7 1 6.7V5.3ZM17.495 6.49497C17.7683 6.22161 17.7683 5.77839 17.495 5.50503L13.0402 1.05025C12.7668 0.776886 12.3236 0.776886 12.0503 1.05025C11.7769 1.32362 11.7769 1.76684 12.0503 2.0402L16.0101 6L12.0503 9.9598C11.7769 10.2332 11.7769 10.6764 12.0503 10.9497C12.3236 11.2231 12.7668 11.2231 13.0402 10.9497L17.495 6.49497ZM1 6.7H17V5.3H1V6.7Z" fill="currentColor"/>
	</symbol>

	<symbol viewBox="0 0 18 12" id="prev-arrow">
		<path d="M17 6.7C17.3866 6.7 17.7 6.3866 17.7 6C17.7 5.6134 17.3866 5.3 17 5.3L17 6.7ZM0.505025 5.50502C0.231658 5.77839 0.231658 6.22161 0.505025 6.49497L4.9598 10.9497C5.23316 11.2231 5.67638 11.2231 5.94975 10.9497C6.22311 10.6764 6.22311 10.2332 5.94975 9.9598L1.98995 6L5.94975 2.0402C6.22311 1.76683 6.22311 1.32362 5.94975 1.05025C5.67638 0.776885 5.23317 0.776885 4.9598 1.05025L0.505025 5.50502ZM17 5.3L1 5.3L1 6.7L17 6.7L17 5.3Z" fill="currentColor"/>
	</symbol>

	<symbol viewBox="0 0 24 24" id="up-arrow">
		<path d="M12 5V19" stroke="currentColor" fill="none" stroke-width="1.5" stroke-linecap="round" stroke-linejoin="round"/>
		<path d="M16 9L12 5" stroke="currentColor" fill="none" stroke-width="1.5" stroke-linecap="round" stroke-linejoin="round"/>
		<path d="M8 9L12 5" stroke="currentColor" fill="none" stroke-width="1.5" stroke-linecap="round" stroke-linejoin="round"/>
	</symbol>

	<symbol viewBox="0 0 24 24" id="down-arrow">
		<path d="M12 19V5" stroke="currentColor" fill="none" stroke-width="1.5" stroke-linecap="round" stroke-linejoin="round"/>
		<path d="M16 15L12 19" stroke="currentColor" fill="none" stroke-width="1.5" stroke-linecap="round" stroke-linejoin="round"/>
		<path d="M8 15L12 19" stroke="currentColor" fill="none" stroke-width="1.5" stroke-linecap="round" stroke-linejoin="round"/>	
	</symbol>

	<symbol viewBox="0 0 20 20" id="in-process-arrow">
		<path d="M17.5 14.167H2.5" stroke="currentColor" fill="none" stroke-width="1.25" stroke-linecap="round" stroke-linejoin="round"/>
		<path d="M5 8.33301L2.5 5.83301L5 3.33301" stroke="currentColor" fill="none" stroke-width="1.25" stroke-linecap="round" stroke-linejoin="round"/>
		<path d="M2.5 5.83301H17.5" stroke="currentColor" fill="none" stroke-width="1.25" stroke-linecap="round" stroke-linejoin="round"/>
		<path d="M15 16.667L17.5 14.167L15 11.667" stroke="currentColor" fill="none" stroke-width="1.25" stroke-linecap="round" stroke-linejoin="round"/>
	</symbol>

	<symbol viewBox="0 0 20 20" id="in-process-arrow-2">
		<path d="M5.83325 2.5V17.5" stroke="currentColor" fill="none" stroke-width="1.25" stroke-linecap="round" stroke-linejoin="round"/>
		<path d="M8.33325 5L5.83325 2.5L3.33325 5" stroke="currentColor" fill="none" stroke-width="1.25" stroke-linecap="round" stroke-linejoin="round"/>
		<path d="M16.6667 15L14.1667 17.5L11.6667 15" stroke="currentColor" fill="none" stroke-width="1.25" stroke-linecap="round" stroke-linejoin="round"/>
		<path d="M14.1667 17.5V2.5" stroke="currentColor" fill="none" stroke-width="1.25" stroke-linecap="round" stroke-linejoin="round"/>
	</symbol>

	<symbol viewBox="0 0 24 24" id="in-process">
		<path d="M5 13C5 13.9193 5.18106 14.8295 5.53284 15.6788C5.88463 16.5281 6.40024 17.2997 7.05025 17.9497C7.70026 18.5998 8.47194 19.1154 9.32122 19.4672C10.1705 19.8189 11.0807 20 12 20C12.9193 20 13.8295 19.8189 14.6788 19.4672C15.5281 19.1154 16.2997 18.5998 16.9497 17.9497C17.5998 17.2997 18.1154 16.5281 18.4672 15.6788C18.8189 14.8295 19 13.9193 19 13C19 12.0807 18.8189 11.1705 18.4672 10.3212C18.1154 9.47194 17.5998 8.70026 16.9497 8.05025C16.2997 7.40024 15.5281 6.88463 14.6788 6.53284C13.8295 6.18106 12.9193 6 12 6C11.0807 6 10.1705 6.18106 9.32122 6.53284C8.47194 6.88463 7.70026 7.40024 7.05025 8.05025C6.40024 8.70026 5.88463 9.47194 5.53284 10.3212C5.18106 11.1705 5 12.0807 5 13Z" stroke="currentColor" fill="none" stroke-width="1.5" stroke-linecap="round" stroke-linejoin="round"/>
		<path d="M12 10V13H14" stroke="currentColor" fill="none" stroke-width="1.5" stroke-linecap="round" stroke-linejoin="round"/>
		<path d="M7 4L4.25 6" stroke="currentColor" fill="none" stroke-width="1.5" stroke-linecap="round" stroke-linejoin="round"/>
		<path d="M17 4L19.75 6" stroke="currentColor" fill="none" stroke-width="1.5" stroke-linecap="round" stroke-linejoin="round"/>
	</symbol>

	<symbol viewBox="0 0 20 20" id="profit-arrow">
		<path d="M2.5 14.1663L7.5 9.16634L10.8333 12.4997L17.5 5.83301" stroke="currentColor" fill="none" stroke-width="1.25" stroke-linecap="round" stroke-linejoin="round"/>
		<path d="M11.6667 5.83301H17.5V11.6663" stroke="currentColor" fill="none" stroke-width="1.25" stroke-linecap="round" stroke-linejoin="round"/>
	</symbol>

	<symbol viewBox="0 0 20 20" id="copy">
		<path d="M6.66663 8.33366C6.66663 7.89163 6.84222 7.46771 7.15478 7.15515C7.46734 6.84259 7.89127 6.66699 8.33329 6.66699H15C15.442 6.66699 15.8659 6.84259 16.1785 7.15515C16.491 7.46771 16.6666 7.89163 16.6666 8.33366V15.0003C16.6666 15.4424 16.491 15.8663 16.1785 16.1788C15.8659 16.4914 15.442 16.667 15 16.667H8.33329C7.89127 16.667 7.46734 16.4914 7.15478 16.1788C6.84222 15.8663 6.66663 15.4424 6.66663 15.0003V8.33366Z" stroke="currentColor" fill="none" stroke-width="1.04167" stroke-linecap="round" stroke-linejoin="round"/>
		<path d="M13.3334 6.66634V4.99967C13.3334 4.55765 13.1578 4.13372 12.8452 3.82116C12.5327 3.5086 12.1087 3.33301 11.6667 3.33301H5.00004C4.55801 3.33301 4.13409 3.5086 3.82153 3.82116C3.50897 4.13372 3.33337 4.55765 3.33337 4.99967V11.6663C3.33337 12.1084 3.50897 12.5323 3.82153 12.8449C4.13409 13.1574 4.55801 13.333 5.00004 13.333H6.66671" stroke="currentColor" fill="none" stroke-width="1.04167" stroke-linecap="round" stroke-linejoin="round"/>
	</symbol>

	<symbol viewBox="0 0 7 12" id="page-next-arrow">
		<path d="M6.56569 6.56569C6.8781 6.25327 6.8781 5.74673 6.56569 5.43431L1.47452 0.343146C1.1621 0.0307262 0.655565 0.0307262 0.343146 0.343146C0.0307262 0.655565 0.0307262 1.1621 0.343146 1.47452L4.86863 6L0.343146 10.5255C0.0307262 10.8379 0.0307262 11.3444 0.343146 11.6569C0.655565 11.9693 1.1621 11.9693 1.47452 11.6569L6.56569 6.56569ZM5 6.8H6V5.2H5V6.8Z" fill="currentColor"/>
	</symbol>

	<symbol viewBox="0 0 7 12" id="page-prev-arrow">
		<path d="M0.438221 5.43554C0.125801 5.74795 0.125801 6.25449 0.438221 6.56691L5.52939 11.6581C5.84181 11.9705 6.34834 11.9705 6.66076 11.6581C6.97318 11.3457 6.97318 10.8391 6.66076 10.5267L2.13528 6.00122L6.66076 1.47574C6.97318 1.16332 6.97318 0.656785 6.66076 0.344366C6.34834 0.0319462 5.84181 0.0319462 5.52939 0.344366L0.438221 5.43554ZM2.00391 5.20122H1.00391L1.00391 6.80122H2.00391L2.00391 5.20122Z" fill="currentColor"/>
	</symbol>

	<symbol viewBox="0 0 15 15" id="up-right-arrow">
		<path d="M5.625 3.125V4.375H9.74375L2.5 11.6187L3.38125 12.5L10.625 5.25625V9.375H11.875V3.125H5.625Z" fill="currentColor"/>
	</symbol>

	<symbol viewBox="0 0 15 15" id="down-right-arrow">
		<path d="M5.625 11.875V10.625H9.74375L2.5 3.38125L3.38125 2.5L10.625 9.74375V5.625H11.875V11.875H5.625Z" fill="currentColor"/>
	</symbol>

	<symbol viewBox="0 0 20 20" id="up-right-arrow-2">
		<path d="M14.1666 5.8335L5.83331 14.1668" stroke="currentColor" fill="none" stroke-width="1.25" stroke-linecap="round" stroke-linejoin="round"/>
		<path d="M6.66669 5.8335H14.1667V13.3335" stroke="currentColor" fill="none" stroke-width="1.25" stroke-linecap="round" stroke-linejoin="round"/>
	</symbol>

	<symbol viewBox="0 0 20 20" id="down-left-arrow">
		<path d="M5.83329 14.1665L14.1666 5.83317" stroke="currentColor" fill="none" stroke-width="1.25" stroke-linecap="round" stroke-linejoin="round"/>
		<path d="M13.3334 14.1665H5.83337V6.6665" stroke="currentColor" fill="none" stroke-width="1.25" stroke-linecap="round" stroke-linejoin="round"/>
	</symbol>

	<symbol viewBox="0 0 29 30" id="pdf">
		<path fill-rule="evenodd" clip-rule="evenodd" d="M3.34101 13.938H2.50576C1.12191 13.938 0 15.0524 0 16.427V28.3185C0 29.235 0.747853 29.9778 1.67051 29.9778C6.1476 29.9778 22.8078 29.9778 27.285 29.9778C27.728 29.9778 28.1529 29.803 28.4662 29.4918C28.7795 29.1807 28.9555 28.7586 28.9555 28.3185C28.9555 26.1991 28.9555 21.5884 28.9555 19.4691C28.9555 19.029 28.7795 18.6069 28.4662 18.2957C28.1529 17.9846 27.728 17.8098 27.285 17.8098H26.1712V7.30087C26.1712 7.18114 26.1322 7.06472 26.0599 6.96902L21.0484 0.331848C20.9432 0.192601 20.7782 0.110565 20.603 0.110565H5.01152C4.5685 0.110565 4.14353 0.285388 3.83027 0.596539C3.51702 0.907822 3.34101 1.32981 3.34101 1.76986V13.938ZM27.285 18.9159H2.50469C2.00581 18.9159 1.52243 18.7682 1.11363 18.497V28.3187C1.11363 28.6241 1.363 28.8717 1.67051 28.8717C6.1476 28.8717 22.8078 28.8717 27.285 28.8717C27.4327 28.8717 27.5743 28.8134 27.6787 28.7097C27.7831 28.6059 27.8417 28.4652 27.8417 28.3185V19.4691C27.8417 19.3224 27.7831 19.1817 27.6787 19.0779C27.5743 18.9742 27.4327 18.9159 27.285 18.9159ZM6.95759 24.7926H9.38798C10.3522 24.7926 11.1339 24.0162 11.1339 23.0584V22.3094C11.1339 21.3516 10.3522 20.5752 9.38798 20.5752C8.15341 20.5752 6.40071 20.5752 6.40071 20.5752C6.09321 20.5752 5.84397 20.8228 5.84397 21.1284V26.6592C5.84397 26.9645 6.09347 27.2124 6.40071 27.2124C6.70809 27.2124 6.95759 26.9645 6.95759 26.6592V24.7926ZM19.6313 24.4294C19.6758 24.4408 19.7224 24.4469 19.7705 24.4469H21.8587C22.166 24.4469 22.4155 24.1991 22.4155 23.8938C22.4155 23.5885 22.166 23.3407 21.8587 23.3407H19.7705C19.7224 23.3407 19.6758 23.3468 19.6313 23.3582V21.6814H22.5546C22.862 21.6814 23.1115 21.4335 23.1115 21.1284C23.1115 20.823 22.862 20.5752 22.5546 20.5752H19.0745C18.767 20.5752 18.5176 20.8228 18.5176 21.1284V26.6592C18.5176 26.9645 18.7671 27.2124 19.0745 27.2124C19.3818 27.2124 19.6313 26.9645 19.6313 26.6592V24.4294ZM17.4098 23.3407C17.4098 22.6072 17.1164 21.9038 16.5943 21.3852C16.0721 20.8666 15.364 20.5752 14.6255 20.5752C13.6299 20.5752 12.6766 20.5752 12.6766 20.5752C12.3691 20.5752 12.1197 20.8228 12.1197 21.1284V26.6592C12.1197 26.9648 12.3691 27.2124 12.6766 27.2124H14.6255C15.364 27.2124 16.0721 26.921 16.5943 26.4024C17.1164 25.8838 17.4098 25.1803 17.4098 24.4469V23.3407ZM16.296 23.3407V24.4469C16.296 24.887 16.12 25.309 15.8067 25.6203C15.4935 25.9314 15.0685 26.1062 14.6255 26.1062H13.2335V21.6814H14.6255C15.0685 21.6814 15.4935 21.8562 15.8067 22.1673C16.12 22.4786 16.296 22.9006 16.296 23.3407ZM6.95759 23.6863H9.38798C9.73718 23.6863 10.0201 23.4053 10.0202 23.0584V22.3094C10.0201 21.9625 9.73718 21.6814 9.38798 21.6814H6.95759V23.6863ZM20.0461 1.21685H5.01152C4.86385 1.21685 4.72219 1.27512 4.61782 1.3788C4.51331 1.48247 4.45464 1.62318 4.45464 1.76986V17.8098H25.0576V7.85402H21.7166C20.7939 7.85402 20.0461 7.11105 20.0461 6.19472V1.21685ZM3.34101 15.0442H2.50576C1.73693 15.0442 1.11363 15.6633 1.11363 16.427C1.11363 16.4274 1.11363 16.4278 1.11363 16.428C1.11363 16.7945 1.26023 17.1459 1.5211 17.405C1.78196 17.6641 2.13571 17.8098 2.50469 17.8098H3.34101V15.0442ZM8.35254 14.4912H21.1597C21.4671 14.4912 21.7166 14.2434 21.7166 13.938C21.7166 13.6327 21.4671 13.3849 21.1597 13.3849H8.35254C8.04516 13.3849 7.79565 13.6327 7.79565 13.938C7.79565 14.2434 8.04516 14.4912 8.35254 14.4912ZM8.35254 11.1726H21.1597C21.4671 11.1726 21.7166 10.9248 21.7166 10.6195C21.7166 10.3141 21.4671 10.0663 21.1597 10.0663H8.35254C8.04516 10.0663 7.79565 10.3141 7.79565 10.6195C7.79565 10.9248 8.04516 11.1726 8.35254 11.1726ZM8.35254 7.85402H15.5914C15.8987 7.85402 16.1482 7.60618 16.1482 7.30087C16.1482 6.99556 15.8987 6.74773 15.5914 6.74773H8.35254C8.04516 6.74773 7.79565 6.99556 7.79565 7.30087C7.79565 7.60618 8.04516 7.85402 8.35254 7.85402ZM21.1597 2.323V6.19472C21.1597 6.50017 21.4091 6.74773 21.7166 6.74773H24.5007L21.1597 2.323Z" fill="currentColor"/>
	</symbol>

	<symbol viewBox="0 0 32 30" id="decor-check">
		<path d="M26.6431 8.88921C26.4444 8.51236 26.5921 8.04659 26.9723 7.84958C27.3534 7.65256 27.8222 7.79906 28.0209 8.17592C28.5702 9.21454 28.9982 10.3229 29.2856 11.4827C29.5658 12.6153 29.7156 13.7944 29.7156 15.0017C29.7156 19.0663 28.0535 22.7459 25.3672 25.4102C22.6799 28.0744 18.9684 29.7213 14.8686 29.7213C10.7688 29.7213 7.05726 28.0734 4.36993 25.4102C1.6826 22.7459 0.0214844 19.0663 0.0214844 15.0017C0.0214844 10.9372 1.68362 7.25752 4.36993 4.59328C7.05726 1.92903 10.7688 0.282186 14.8686 0.282186C16.1465 0.282186 17.3949 0.44485 18.5923 0.751991C19.8203 1.0662 20.9872 1.53298 22.0705 2.13008C22.4465 2.3372 22.581 2.80701 22.3721 3.17881C22.1632 3.55061 21.6893 3.68499 21.3143 3.47787C20.3451 2.9434 19.3006 2.52613 18.202 2.24425C17.1442 1.97247 16.0273 1.82901 14.8696 1.82901C11.2009 1.82901 7.87865 3.30308 5.47462 5.68747C3.07059 8.07084 1.58273 11.3645 1.58273 15.0017C1.58273 18.6389 3.06957 21.9326 5.47462 24.316C7.87865 26.6994 11.2009 28.1744 14.8696 28.1744C18.5383 28.1744 21.8605 26.7004 24.2645 24.316C26.6686 21.9326 28.1564 18.6389 28.1564 15.0017C28.1564 13.9106 28.024 12.8548 27.7753 11.8505C27.5165 10.8058 27.1333 9.81265 26.6451 8.8882L26.6431 8.88921ZM7.08274 14.6592C8.70716 16.2485 10.8157 18.4985 12.7713 21.2092C13.2217 21.8346 13.9076 22.1599 14.6811 22.1165C15.4545 22.073 16.0986 21.673 16.4757 21.0021C19.751 15.1674 26.9397 3.10506 31.9801 0.0861816C31.9801 0.0861816 23.0773 1.39557 14.4691 16.3828L10.2755 11.6676C8.28832 9.43378 4.94469 12.5678 7.08274 14.6602V14.6592Z" fill="currentColor"/>
	</symbol>

	<symbol viewBox="0 0 30 30" id="decor-close">
		<path d="M15 0.00158691C6.717 0.00158691 0 6.66336 0 14.8816C0 23.0998 6.717 29.7616 15 29.7616C23.2845 29.7616 30 23.0998 30 14.8816C30 6.66336 23.2845 0.00158691 15 0.00158691ZM15 1.86159C18.2865 1.86159 21.2835 3.06835 23.586 5.04888L5.088 23.3974C3.0915 21.1133 1.875 18.1403 1.875 14.8816C1.875 7.69008 7.752 1.86159 15 1.86159ZM15 27.9016C11.7135 27.9016 8.7165 26.6948 6.414 24.7143L24.912 6.36279C26.9085 8.64687 28.125 11.6199 28.125 14.8801C28.125 22.0716 22.2495 27.9016 15 27.9016Z" fill="currentColor"/>
	</symbol>

	<symbol viewBox="0 0 16 16" id="close-2">
		<path fill-rule="evenodd" clip-rule="evenodd" d="M14.5 8C14.5 9.72391 13.8152 11.3772 12.5962 12.5962C11.3772 13.8152 9.72391 14.5 8 14.5C6.27609 14.5 4.62279 13.8152 3.40381 12.5962C2.18482 11.3772 1.5 9.72391 1.5 8C1.5 6.27609 2.18482 4.62279 3.40381 3.40381C4.62279 2.18482 6.27609 1.5 8 1.5C9.72391 1.5 11.3772 2.18482 12.5962 3.40381C13.8152 4.62279 14.5 6.27609 14.5 8ZM16 8C16 10.1217 15.1571 12.1566 13.6569 13.6569C12.1566 15.1571 10.1217 16 8 16C5.87827 16 3.84344 15.1571 2.34315 13.6569C0.842855 12.1566 0 10.1217 0 8C0 5.87827 0.842855 3.84344 2.34315 2.34315C3.84344 0.842855 5.87827 0 8 0C10.1217 0 12.1566 0.842855 13.6569 2.34315C15.1571 3.84344 16 5.87827 16 8ZM3.75 7.25C3.55109 7.25 3.36032 7.32902 3.21967 7.46967C3.07902 7.61032 3 7.80109 3 8C3 8.19891 3.07902 8.38968 3.21967 8.53033C3.36032 8.67098 3.55109 8.75 3.75 8.75H12.25C12.4489 8.75 12.6397 8.67098 12.7803 8.53033C12.921 8.38968 13 8.19891 13 8C13 7.80109 12.921 7.61032 12.7803 7.46967C12.6397 7.32902 12.4489 7.25 12.25 7.25H3.75Z" fill="currentColor"/>
	</symbol>

	<symbol viewBox="0 0 18 18" id="close-3">
		<path d="M1 17L16.9999 1.00013" stroke="currentColor" fill="none" stroke-width="1.4" stroke-linecap="round"/>
		<path d="M1 1L16.9999 16.9999" stroke="currentColor" fill="none" stroke-width="1.4" stroke-linecap="round"/>	
	</symbol>

	<symbol viewBox="0 0 34 24" id="check">
		<path d="M2 12L12 22L32 2" stroke="currentColor" fill="none" stroke-width="3" stroke-linecap="round" stroke-linejoin="round"/>	
	</symbol>

	<symbol viewBox="0 0 16 16" id="check-2">
		<path d="M12.4749 4.8067C12.413 4.74421 12.3392 4.69461 12.258 4.66077C12.1767 4.62692 12.0896 4.6095 12.0016 4.6095C11.9136 4.6095 11.8264 4.62692 11.7452 4.66077C11.664 4.69461 11.5902 4.74421 11.5283 4.8067L6.56159 9.78003L4.47493 7.6867C4.41058 7.62454 4.33462 7.57566 4.25138 7.54286C4.16815 7.51006 4.07926 7.49397 3.98981 7.49552C3.90036 7.49706 3.81208 7.51622 3.73003 7.55188C3.64798 7.58754 3.57375 7.63902 3.51159 7.70336C3.44944 7.76771 3.40056 7.84367 3.36776 7.92691C3.33495 8.01014 3.31887 8.09903 3.32041 8.18848C3.32196 8.27793 3.34111 8.36621 3.37678 8.44826C3.41244 8.53031 3.46391 8.60454 3.52826 8.6667L6.08826 11.2267C6.15024 11.2892 6.22397 11.3388 6.30521 11.3726C6.38645 11.4065 6.47359 11.4239 6.56159 11.4239C6.6496 11.4239 6.73674 11.4065 6.81798 11.3726C6.89922 11.3388 6.97295 11.2892 7.03493 11.2267L12.4749 5.7867C12.5426 5.72427 12.5966 5.6485 12.6335 5.56417C12.6705 5.47983 12.6895 5.38876 12.6895 5.2967C12.6895 5.20463 12.6705 5.11356 12.6335 5.02923C12.5966 4.94489 12.5426 4.86912 12.4749 4.8067Z" fill="currentColor"/>	
	</symbol>

	<symbol viewBox="0 0 18 18" id="check-3">
		<path d="M9 16.875C10.0344 16.8763 11.0588 16.6732 12.0144 16.2774C12.97 15.8816 13.838 15.3008 14.5684 14.5684C15.3008 13.838 15.8816 12.97 16.2774 12.0144C16.6732 11.0588 16.8763 10.0344 16.875 9C16.8763 7.96565 16.6732 6.94123 16.2774 5.98562C15.8815 5.03001 15.3008 4.16204 14.5684 3.43159C13.838 2.69923 12.97 2.11844 12.0144 1.72259C11.0588 1.32675 10.0344 1.12367 9 1.12501C7.96565 1.12369 6.94123 1.32678 5.98562 1.72262C5.03001 2.11847 4.16204 2.69925 3.43159 3.43159C2.69925 4.16204 2.11847 5.03001 1.72262 5.98562C1.32678 6.94123 1.12369 7.96565 1.12501 9C1.12367 10.0344 1.32675 11.0588 1.72259 12.0144C2.11844 12.97 2.69923 13.838 3.43159 14.5684C4.16204 15.3008 5.03001 15.8815 5.98562 16.2774C6.94123 16.6732 7.96565 16.8763 9 16.875Z" fill="none" stroke="currentColor" stroke-width="1.6" stroke-linejoin="round"/>
		<path d="M6 9L8.25 11.25L12.75 6.75" fill="none" stroke="currentColor" stroke-width="1.6" stroke-linecap="round" stroke-linejoin="round"/>
	</symbol>

	<symbol viewBox="0 0 40 40" id="facebook">
		<path d="M24.1894 12.1214C23.4049 12.0382 22.6163 11.9977 21.8273 12.0001C19.2117 12.0001 17.5861 13.6661 17.5861 16.3479V18.1687H15.3889C15.2857 18.1687 15.1868 18.2096 15.1139 18.2826C15.041 18.3555 15 18.4544 15 18.5575V21.552C15 21.6551 15.041 21.754 15.1139 21.827C15.1868 21.8999 15.2857 21.9409 15.3889 21.9409H17.5861V27.9453C17.5861 28.0485 17.6271 28.1474 17.7 28.2203C17.7729 28.2932 17.8719 28.3342 17.975 28.3342H21.069C21.1721 28.3342 21.2711 28.2932 21.344 28.2203C21.4169 28.1474 21.4579 28.0485 21.4579 27.9453V21.9409H23.6481C23.7425 21.9409 23.8337 21.9066 23.9047 21.8444C23.9757 21.7821 24.0216 21.6962 24.0339 21.6025L24.4204 18.6081C24.4276 18.5532 24.423 18.4974 24.4069 18.4445C24.3908 18.3915 24.3636 18.3426 24.3271 18.301C24.2906 18.2594 24.2456 18.2261 24.1952 18.2032C24.1447 18.1804 24.09 18.1686 24.0347 18.1687H21.4579V16.645C21.4579 15.8905 21.6096 15.5755 22.553 15.5755H24.1389C24.242 15.5755 24.3409 15.5346 24.4139 15.4616C24.4868 15.3887 24.5278 15.2898 24.5278 15.1867V12.5072C24.5278 12.4128 24.4935 12.3216 24.4313 12.2506C24.369 12.1796 24.2831 12.1337 24.1894 12.1214V12.1214ZM23.75 14.797L22.5522 14.7978C20.8746 14.7978 20.6801 15.8524 20.6801 16.645V18.5583C20.6801 18.6613 20.721 18.7601 20.7937 18.833C20.8665 18.9059 20.9652 18.947 21.0682 18.9472H23.5929L23.3059 21.1639H21.069C20.9659 21.1639 20.8669 21.2048 20.794 21.2778C20.7211 21.3507 20.6801 21.4496 20.6801 21.5528V27.5557H18.3639V21.5528C18.3639 21.4496 18.3229 21.3507 18.25 21.2778C18.1771 21.2048 18.0781 21.1639 17.975 21.1639H15.7786V18.9472H17.975C18.0781 18.9472 18.1771 18.9062 18.25 18.8333C18.3229 18.7604 18.3639 18.6615 18.3639 18.5583V16.3479C18.3639 14.1125 19.6589 12.7779 21.8273 12.7779C22.6121 12.7779 23.3207 12.8207 23.75 12.858V14.797V14.797Z" fill="currentColor"/>
		<path fill-rule="evenodd" clip-rule="evenodd" d="M24.0323 21.6024C24.0201 21.6961 23.9741 21.782 23.9032 21.8443C23.8322 21.9065 23.741 21.9408 23.6465 21.9408H21.4563V27.9452C21.4563 28.0484 21.4154 28.1473 21.3424 28.2202C21.2695 28.2931 21.1706 28.3341 21.0674 28.3341H17.9734C17.8703 28.3341 17.7714 28.2931 17.6985 28.2202C17.6255 28.1473 17.5845 28.0484 17.5845 27.9452V21.9408H15.3873C15.2842 21.9408 15.1853 21.8998 15.1123 21.8269C15.0394 21.7539 14.9984 21.655 14.9984 21.5519V18.5574C14.9984 18.4543 15.0394 18.3554 15.1123 18.2825C15.1853 18.2095 15.2842 18.1686 15.3873 18.1686H17.5845V16.3478C17.5845 13.666 19.2101 12 21.8258 12C22.6148 11.9976 23.4033 12.0381 24.1879 12.1213C24.2815 12.1336 24.3674 12.1795 24.4297 12.2505C24.492 12.3215 24.5263 12.4127 24.5262 12.5071V15.1866C24.5262 15.2897 24.4852 15.3886 24.4123 15.4615C24.3394 15.5345 24.2405 15.5754 24.1373 15.5754H22.5514C21.608 15.5754 21.4563 15.8904 21.4563 16.6449V18.1686H24.0331C24.0885 18.1685 24.1432 18.1803 24.1936 18.2031C24.244 18.226 24.289 18.2593 24.3255 18.3009C24.3621 18.3425 24.3893 18.3914 24.4054 18.4444C24.4215 18.4973 24.4261 18.5531 24.4189 18.608L24.0323 21.6024ZM24.0331 18.0686C24.0331 18.0686 24.0331 18.0686 24.0331 18.0686C24.1027 18.0685 24.1715 18.0834 24.2348 18.112C24.2982 18.1407 24.3548 18.1826 24.4007 18.2349C24.4466 18.2872 24.4808 18.3487 24.5011 18.4153C24.5213 18.4819 24.5271 18.552 24.518 18.621L24.1315 21.6152C24.1161 21.7329 24.0583 21.8412 23.9691 21.9194C23.8799 21.9977 23.7652 22.0408 23.6465 22.0408C23.6465 22.0408 23.6466 22.0408 23.6465 22.0408H21.5563V27.9452C21.5563 28.0749 21.5048 28.1992 21.4131 28.2909C21.3214 28.3826 21.1971 28.4341 21.0674 28.4341H17.9734C17.8438 28.4341 17.7194 28.3826 17.6277 28.2909C17.5361 28.1992 17.4845 28.0749 17.4845 27.9452V22.0408H15.3873C15.2577 22.0408 15.1333 21.9893 15.0416 21.8976C14.9499 21.8059 14.8984 21.6816 14.8984 21.5519V18.5574C14.8984 18.4278 14.9499 18.3034 15.0416 18.2117C15.1333 18.1201 15.2577 18.0686 15.3873 18.0686H17.4845V16.3478C17.4845 14.9867 17.8974 13.8726 18.6527 13.0984C19.4082 12.3239 20.4962 11.9 21.8256 11.9C22.6182 11.8976 23.4103 11.9383 24.1984 12.0219L24.1879 12.1213L24.2009 12.0222C24.3186 12.0376 24.4266 12.0953 24.5049 12.1846C24.5831 12.2738 24.6263 12.3884 24.6262 12.5071C24.6262 12.5071 24.6262 12.5071 24.6262 12.5071V15.1866C24.6262 15.3162 24.5747 15.4406 24.483 15.5323C24.3913 15.6239 24.267 15.6754 24.1373 15.6754H22.5514C22.0836 15.6754 21.8495 15.7553 21.7244 15.8942C21.5969 16.0357 21.5563 16.2656 21.5563 16.6449V18.0686H24.0331ZM23.7484 14.7969L22.5507 14.7977C20.873 14.7977 20.6785 15.8523 20.6785 16.6449V18.5582C20.6785 18.6612 20.7194 18.76 20.7922 18.8329C20.8649 18.9058 20.9637 18.9469 21.0667 18.9471H23.5913L23.3043 21.1638H21.0674C20.9643 21.1638 20.8654 21.2048 20.7925 21.2777C20.7195 21.3506 20.6785 21.4495 20.6785 21.5527V27.5556H18.3623V21.5527C18.3623 21.4495 18.3214 21.3506 18.2484 21.2777C18.1755 21.2048 18.0766 21.1638 17.9734 21.1638H15.777V18.9471H17.9734C18.0766 18.9471 18.1755 18.9061 18.2484 18.8332C18.3214 18.7603 18.3623 18.6614 18.3623 18.5582V16.3478C18.3623 14.1124 19.6573 12.7778 21.8258 12.7778C22.6105 12.7778 23.3191 12.8206 23.7484 12.8579V14.7969ZM23.6484 14.697L22.5507 14.6977ZM23.6484 14.697V12.9498C23.2161 12.9148 22.5538 12.8778 21.8258 12.8778C20.7624 12.8778 19.9247 13.2046 19.3527 13.7942C18.7802 14.3842 18.4623 15.2492 18.4623 16.3478V18.5582C18.4623 18.6879 18.4108 18.8122 18.3191 18.9039C18.2274 18.9956 18.1031 19.0471 17.9734 19.0471H15.877V21.0638H17.9734C18.1031 21.0638 18.2274 21.1153 18.3191 21.207C18.4108 21.2987 18.4623 21.423 18.4623 21.5527V27.4556H20.5785V21.5527C20.5785 21.423 20.6301 21.2987 20.7217 21.207C20.8134 21.1153 20.9378 21.0638 21.0674 21.0638H23.2164L23.4775 19.0471H21.0667C20.9372 19.0469 20.8129 18.9952 20.7214 18.9036C20.6299 18.8119 20.5785 18.6877 20.5785 18.5582V16.6449C20.5785 16.2442 20.6267 15.7554 20.904 15.3661C21.1863 14.9697 21.6896 14.6977 22.5507 14.6977" fill="currentColor"/>		
	</symbol>

	<symbol viewBox="0 0 40 40" id="whatsapp">
		<path d="M25.1698 14.8005C24.4975 14.1214 23.6967 13.583 22.8141 13.2166C21.9315 12.8502 20.9847 12.6632 20.0291 12.6665C16.0251 12.6665 12.7618 15.9299 12.7618 19.9339C12.7618 21.2172 13.0991 22.4639 13.7298 23.5639L12.7031 27.3332L16.5531 26.3212C17.6165 26.9005 18.8118 27.2085 20.0291 27.2085C24.0331 27.2085 27.2965 23.9452 27.2965 19.9412C27.2965 17.9979 26.5411 16.1719 25.1698 14.8005ZM20.0291 25.9765C18.9438 25.9765 17.8805 25.6832 16.9491 25.1332L16.7291 25.0012L14.4411 25.6025L15.0498 23.3732L14.9031 23.1459C14.3001 22.183 13.98 21.07 13.9791 19.9339C13.9791 16.6045 16.6925 13.8912 20.0218 13.8912C21.6351 13.8912 23.1531 14.5219 24.2898 15.6659C24.8526 16.2261 25.2986 16.8925 25.602 17.6264C25.9054 18.3603 26.0601 19.1471 26.0571 19.9412C26.0718 23.2705 23.3585 25.9765 20.0291 25.9765ZM23.3438 21.4592C23.1605 21.3712 22.2658 20.9312 22.1045 20.8652C21.9358 20.8065 21.8185 20.7772 21.6938 20.9532C21.5691 21.1365 21.2245 21.5472 21.1218 21.6645C21.0191 21.7892 20.9091 21.8039 20.7258 21.7085C20.5425 21.6205 19.9558 21.4225 19.2665 20.8065C18.7238 20.3225 18.3645 19.7285 18.2545 19.5452C18.1518 19.3619 18.2398 19.2665 18.3351 19.1712C18.4158 19.0905 18.5185 18.9585 18.6065 18.8559C18.6945 18.7532 18.7311 18.6725 18.7898 18.5552C18.8485 18.4305 18.8191 18.3279 18.7751 18.2399C18.7311 18.1519 18.3645 17.2572 18.2178 16.8905C18.0711 16.5385 17.9171 16.5825 17.8071 16.5752H17.4551C17.3305 16.5752 17.1398 16.6192 16.9711 16.8025C16.8098 16.9859 16.3405 17.4259 16.3405 18.3205C16.3405 19.2152 16.9931 20.0805 17.0811 20.1979C17.1691 20.3225 18.3645 22.1559 20.1831 22.9405C20.6158 23.1312 20.9531 23.2412 21.2171 23.3219C21.6498 23.4612 22.0458 23.4392 22.3611 23.3952C22.7131 23.3439 23.4391 22.9552 23.5858 22.5299C23.7398 22.1045 23.7398 21.7452 23.6885 21.6645C23.6371 21.5839 23.5271 21.5472 23.3438 21.4592Z" fill="currentColor"/>	
	</symbol>

	<symbol viewBox="0 0 40 40" id="telegram">
		<path d="M24.5406 12.9977C24.3534 13.0114 24.1695 13.0553 23.9964 13.1278H23.994C23.8278 13.1937 23.0374 13.5262 21.8357 14.0302L17.5295 15.8438C14.4396 17.1446 11.4022 18.4256 11.4022 18.4256L11.4384 18.4116C11.4384 18.4116 11.229 18.4805 11.0102 18.6304C10.8751 18.7164 10.7588 18.8289 10.6684 18.9611C10.561 19.1186 10.4747 19.3596 10.5068 19.6086C10.5593 20.0298 10.8323 20.2824 11.0283 20.4218C11.2266 20.563 11.4156 20.6289 11.4156 20.6289H11.4203L14.2687 21.5885C14.3965 21.9986 15.1367 24.4322 15.3146 24.9928C15.4196 25.3277 15.5217 25.5371 15.6495 25.6969C15.7113 25.7786 15.7836 25.8468 15.8705 25.9017C15.9157 25.9279 15.9639 25.9487 16.014 25.9635L15.9849 25.9565C15.9936 25.9588 16.0006 25.9658 16.007 25.9682C16.0304 25.9746 16.0461 25.9769 16.0759 25.9816C16.5268 26.1181 16.889 25.8381 16.889 25.8381L16.9095 25.8217L18.5912 24.2905L21.4099 26.4529L21.474 26.4803C22.0615 26.7381 22.6565 26.5947 22.9709 26.3415C23.2876 26.0866 23.4107 25.7605 23.4107 25.7605L23.4311 25.708L25.6093 14.5494C25.6711 14.2741 25.6869 14.0162 25.6186 13.766C25.5482 13.5127 25.3857 13.2949 25.163 13.1552C24.976 13.0415 24.7592 12.9867 24.5406 12.9977ZM24.4817 14.1936C24.4794 14.2303 24.4864 14.2262 24.47 14.2968V14.3032L22.3123 25.3457C22.303 25.3615 22.2872 25.3959 22.244 25.4303C22.1985 25.4665 22.1624 25.4892 21.9728 25.414L18.5253 22.7709L16.4428 24.6691L16.8803 21.8749L22.513 16.6249C22.7451 16.4091 22.6675 16.3636 22.6675 16.3636C22.6839 16.0987 22.317 16.286 22.317 16.286L15.2143 20.6861L15.212 20.6744L11.8076 19.5281V19.5258L11.7989 19.5241C11.8048 19.5221 11.8107 19.5197 11.8164 19.5171L11.835 19.5077L11.8531 19.5013C11.8531 19.5013 14.8929 18.2203 17.9828 16.9195C19.5298 16.2679 21.0885 15.6116 22.2872 15.1053C23.486 14.6019 24.372 14.2326 24.4222 14.2128C24.47 14.1941 24.4473 14.1941 24.4817 14.1941V14.1936Z" fill="currentColor"/>	
	</symbol>

	<symbol viewBox="0 0 40 40" id="viber">
		<path d="M19.557 12.0028C18.1446 12.0199 15.108 12.252 13.4096 13.8101C12.1463 15.0619 11.7052 16.9127 11.6535 19.2012C11.6106 21.4815 11.5589 25.7638 15.6866 26.9298V28.7058C15.6866 28.7058 15.6608 29.4164 16.1305 29.5621C16.7091 29.7453 17.0385 29.1986 17.5885 28.6112L18.6143 27.4512C21.4385 27.6861 23.6017 27.1449 23.8508 27.0646C24.4239 26.8814 27.6519 26.4689 28.1793 22.1861C28.7205 17.763 27.9159 14.9761 26.4633 13.7155H26.4545C26.0162 13.3118 24.2545 12.0281 20.3187 12.0138C20.3187 12.0138 20.0267 11.994 19.557 12.0023V12.0028ZM19.6054 13.2464C20.0063 13.2436 20.25 13.2607 20.25 13.2607C23.5813 13.2695 25.1714 14.2721 25.5465 14.6098C26.7697 15.6581 27.4 18.1705 26.9385 21.8632C26.5002 25.4437 23.8822 25.6703 23.3976 25.8249C23.1914 25.8909 21.2862 26.3606 18.886 26.206C18.886 26.206 17.0985 28.3631 16.5397 28.9186C16.4511 29.016 16.3477 29.0446 16.2817 29.0303C16.1871 29.0072 16.1585 28.89 16.164 28.7294L16.1811 25.782C12.6803 24.814 12.8866 21.1614 12.924 19.2535C12.9669 17.3455 13.3249 15.7846 14.3908 14.7275C15.8258 13.4301 18.4042 13.2552 19.6043 13.2464H19.6054ZM19.8694 15.1538C19.8406 15.1535 19.812 15.1589 19.7853 15.1697C19.7586 15.1805 19.7343 15.1965 19.7138 15.2167C19.6933 15.237 19.677 15.2611 19.6658 15.2877C19.6547 15.3142 19.6489 15.3427 19.6488 15.3716C19.6488 15.4948 19.7489 15.5921 19.8694 15.5921C20.4147 15.5817 20.9567 15.6794 21.4641 15.8795C21.9715 16.0797 22.4342 16.3783 22.8256 16.7581C23.6248 17.5342 24.0142 18.577 24.029 19.9404C24.029 20.0609 24.1264 20.161 24.2496 20.161V20.1522C24.3077 20.1523 24.3634 20.1295 24.4047 20.0887C24.4461 20.0479 24.4696 19.9924 24.4701 19.9344C24.4968 19.2926 24.3928 18.6521 24.1642 18.0518C23.9357 17.4515 23.5875 16.9039 23.1408 16.4424C22.2701 15.5916 21.1668 15.1532 19.8694 15.1532V15.1538ZM16.9703 15.6581C16.8147 15.6354 16.6559 15.6666 16.5204 15.7467H16.5089C16.1944 15.931 15.9112 16.164 15.6696 16.4369C15.4688 16.669 15.3599 16.9039 15.3313 17.1299C15.3143 17.2647 15.3258 17.3994 15.366 17.5281L15.3803 17.5369C15.6063 18.2013 15.9017 18.8404 16.2625 19.4421C16.7273 20.2874 17.2992 21.0692 17.9642 21.7681L17.984 21.7967L18.0153 21.8198L18.0351 21.8429L18.0582 21.8627C18.7596 22.5296 19.5433 23.1042 20.3902 23.5726C21.3582 24.0995 21.9456 24.3487 22.2982 24.4521V24.4576C22.4016 24.4889 22.4956 24.5032 22.5902 24.5032C22.8907 24.4812 23.1751 24.3592 23.3982 24.1567C23.6699 23.9151 23.9003 23.6306 24.0802 23.3147V23.3092C24.249 22.9913 24.1918 22.6904 23.9482 22.4869C23.4602 22.0604 22.9326 21.6815 22.3724 21.3556C21.9973 21.1521 21.6162 21.2753 21.4616 21.4815L21.1322 21.8968C20.9633 22.103 20.6564 22.0744 20.6564 22.0744L20.6476 22.0799C18.3591 21.4953 17.7486 19.1781 17.7486 19.1781C17.7486 19.1781 17.72 18.863 17.9317 18.7024L18.3442 18.3702C18.5417 18.2096 18.6792 17.829 18.4674 17.4533C18.1437 16.8924 17.7657 16.3646 17.3388 15.8776C17.2455 15.7627 17.1146 15.6846 16.9692 15.657L16.9703 15.6581ZM20.25 16.3115C19.9579 16.3115 19.9579 16.7526 20.2527 16.7526C20.6159 16.7585 20.9743 16.8359 21.3076 16.9804C21.6408 17.1249 21.9423 17.3336 22.1948 17.5947C22.4251 17.8488 22.6022 18.1465 22.7153 18.4703C22.8285 18.794 22.8756 19.1372 22.8537 19.4795C22.8547 19.5374 22.8783 19.5927 22.9196 19.6334C22.9608 19.6741 23.0163 19.697 23.0742 19.6973L23.083 19.7089C23.1414 19.7084 23.1972 19.685 23.2385 19.6438C23.2798 19.6025 23.3032 19.5467 23.3036 19.4883C23.3234 18.6144 23.0517 17.8812 22.5187 17.2938C21.983 16.7064 21.2356 16.377 20.2813 16.3115H20.25ZM20.6113 17.4973C20.3105 17.4885 20.2989 17.9384 20.597 17.9472C21.3219 17.9846 21.6739 18.3509 21.7201 19.1044C21.7211 19.1616 21.7445 19.2161 21.7852 19.2563C21.8259 19.2965 21.8807 19.3192 21.9379 19.3195H21.9467C21.9762 19.3182 22.005 19.3111 22.0316 19.2985C22.0583 19.286 22.0822 19.2683 22.1019 19.2464C22.1216 19.2246 22.1367 19.199 22.1465 19.1712C22.1562 19.1434 22.1603 19.114 22.1585 19.0846C22.1068 18.1023 21.5711 17.549 20.6201 17.4979H20.6113V17.4973Z" fill="currentColor"/>	
	</symbol>

	<symbol viewBox="0 0 20 20" id="password-visible">
		<path d="M10 12.5C11.3807 12.5 12.5 11.3807 12.5 10C12.5 8.61929 11.3807 7.5 10 7.5C8.61929 7.5 7.5 8.61929 7.5 10C7.5 11.3807 8.61929 12.5 10 12.5Z" fill="currentColor"/>
		<path d="M15.4227 5.51484C13.7148 4.34375 11.8871 3.75 9.99062 3.75C8.28398 3.75 6.62031 4.25781 5.0457 5.25312C3.45781 6.25898 1.90117 8.08594 0.625 10C1.65703 11.7188 3.06875 13.4859 4.53906 14.4992C6.22578 15.6609 8.05977 16.25 9.99062 16.25C11.9047 16.25 13.7348 15.6613 15.432 14.5004C16.9262 13.4766 18.348 11.7117 19.375 10C18.3445 8.30352 16.918 6.54062 15.4227 5.51484ZM10 13.75C9.25832 13.75 8.5333 13.5301 7.91661 13.118C7.29993 12.706 6.81928 12.1203 6.53545 11.4351C6.25162 10.7498 6.17736 9.99584 6.32206 9.26841C6.46675 8.54098 6.8239 7.8728 7.34835 7.34835C7.8728 6.8239 8.54098 6.46675 9.26841 6.32206C9.99584 6.17736 10.7498 6.25162 11.4351 6.53545C12.1203 6.81928 12.706 7.29993 13.118 7.91661C13.5301 8.5333 13.75 9.25832 13.75 10C13.7489 10.9942 13.3534 11.9474 12.6504 12.6504C11.9474 13.3534 10.9942 13.7489 10 13.75Z" fill="currentColor"/>
	</symbol>

	<symbol viewBox="0 0 20 20" id="password-hidden">
		<path d="M2.5 3.35954L3.3593 2.50024L17.5 16.641L16.6407 17.5003L2.5 3.35954ZM10.1305 7.50349L12.4966 9.8695C12.4637 9.25266 12.2039 8.66977 11.7671 8.23297C11.3303 7.79618 10.7474 7.53636 10.1305 7.50349ZM9.86961 12.4965L7.50359 10.1304C7.53646 10.7473 7.79629 11.3302 8.23308 11.767C8.66987 12.2038 9.25277 12.4636 9.86961 12.4965Z" fill="currentColor"/>
		<path d="M10 13.75C9.42309 13.75 8.85396 13.617 8.33688 13.3611C7.8198 13.1053 7.36872 12.7336 7.01873 12.275C6.66874 11.8164 6.42928 11.2832 6.31899 10.7169C6.20869 10.1507 6.23053 9.5666 6.38281 9.01016L3.68477 6.31172C2.58281 7.32109 1.53281 8.63828 0.625 10C1.65703 11.7188 3.06875 13.4859 4.53906 14.4992C6.22578 15.6609 8.05977 16.25 9.99062 16.25C11.0458 16.2507 12.0931 16.0683 13.0859 15.7109L10.9918 13.6172C10.6686 13.7056 10.3351 13.7503 10 13.75ZM10 6.25C10.5769 6.24997 11.146 6.38305 11.6631 6.63888C12.1802 6.8947 12.6313 7.26639 12.9813 7.725C13.3313 8.18361 13.5707 8.71679 13.681 9.28306C13.7913 9.84932 13.7695 10.4334 13.6172 10.9898L16.3773 13.75C17.516 12.7246 18.5676 11.3453 19.375 10C18.3445 8.30352 16.918 6.54062 15.4227 5.51484C13.7148 4.34375 11.8871 3.75 9.99062 3.75C8.94704 3.7515 7.91223 3.94057 6.93555 4.3082L9.01016 6.38281C9.33269 6.29453 9.6656 6.24986 10 6.25Z" fill="currentColor"/>
	</symbol>

	<symbol viewBox="0 0 20 20" id="datetime">
		<path d="M9.82917 17.5H4.16667C3.72464 17.5 3.30072 17.3244 2.98816 17.0118C2.67559 16.6993 2.5 16.2754 2.5 15.8333V5.83332C2.5 5.3913 2.67559 4.96737 2.98816 4.65481C3.30072 4.34225 3.72464 4.16666 4.16667 4.16666H14.1667C14.6087 4.16666 15.0326 4.34225 15.3452 4.65481C15.6577 4.96737 15.8333 5.3913 15.8333 5.83332V9.16666" stroke="currentColor" fill="none" stroke-width="1.04167" stroke-linecap="round" stroke-linejoin="round"/>
		<path d="M11.668 15C11.668 15.884 12.0192 16.7319 12.6443 17.357C13.2694 17.9821 14.1172 18.3333 15.0013 18.3333C15.8854 18.3333 16.7332 17.9821 17.3583 17.357C17.9834 16.7319 18.3346 15.884 18.3346 15C18.3346 14.1159 17.9834 13.2681 17.3583 12.643C16.7332 12.0178 15.8854 11.6667 15.0013 11.6667C14.1172 11.6667 13.2694 12.0178 12.6443 12.643C12.0192 13.2681 11.668 14.1159 11.668 15Z" stroke="currentColor" fill="none" stroke-width="1.04167" stroke-linecap="round" stroke-linejoin="round"/>
		<path d="M12.5 2.5V5.83333" stroke="currentColor" fill="none" stroke-width="1.04167" stroke-linecap="round" stroke-linejoin="round"/>
		<path d="M5.83203 2.5V5.83333" stroke="currentColor" fill="none" stroke-width="1.04167" stroke-linecap="round" stroke-linejoin="round"/>
		<path d="M2.5 9.16666H15.8333" stroke="currentColor" fill="none" stroke-width="1.04167" stroke-linecap="round" stroke-linejoin="round"/>
		<path d="M15 13.7467V15L15.8333 15.8333" stroke="currentColor" fill="none" stroke-width="1.04167" stroke-linecap="round" stroke-linejoin="round"/>
	</symbol>

	<symbol viewBox="0 0 20 20" id="views">
		<path d="M8.33203 10C8.33203 10.442 8.50763 10.866 8.82019 11.1785C9.13275 11.4911 9.55667 11.6667 9.9987 11.6667C10.4407 11.6667 10.8646 11.4911 11.1772 11.1785C11.4898 10.866 11.6654 10.442 11.6654 10C11.6654 9.55798 11.4898 9.13406 11.1772 8.8215C10.8646 8.50894 10.4407 8.33334 9.9987 8.33334C9.55667 8.33334 9.13275 8.50894 8.82019 8.8215C8.50763 9.13406 8.33203 9.55798 8.33203 10Z" stroke="currentColor" fill="none" stroke-width="1.04167" stroke-linecap="round" stroke-linejoin="round"/>
		<path d="M17.5 10C15.5 13.3333 13 15 10 15C7 15 4.5 13.3333 2.5 10C4.5 6.66667 7 5 10 5C13 5 15.5 6.66667 17.5 10Z" stroke="currentColor" fill="none" stroke-width="1.04167" stroke-linecap="round" stroke-linejoin="round"/>
	</symbol>

	<symbol viewBox="0 0 20 20" id="read-time">
		<path d="M2.5 10C2.5 10.9849 2.69399 11.9602 3.0709 12.8701C3.44781 13.7801 4.00026 14.6069 4.6967 15.3033C5.39314 15.9997 6.21993 16.5522 7.12987 16.9291C8.03982 17.306 9.01509 17.5 10 17.5C10.9849 17.5 11.9602 17.306 12.8701 16.9291C13.7801 16.5522 14.6069 15.9997 15.3033 15.3033C15.9997 14.6069 16.5522 13.7801 16.9291 12.8701C17.306 11.9602 17.5 10.9849 17.5 10C17.5 9.01509 17.306 8.03982 16.9291 7.12987C16.5522 6.21993 15.9997 5.39314 15.3033 4.6967C14.6069 4.00026 13.7801 3.44781 12.8701 3.0709C11.9602 2.69399 10.9849 2.5 10 2.5C9.01509 2.5 8.03982 2.69399 7.12987 3.0709C6.21993 3.44781 5.39314 4.00026 4.6967 4.6967C4.00026 5.39314 3.44781 6.21993 3.0709 7.12987C2.69399 8.03982 2.5 9.01509 2.5 10Z" stroke="currentColor" fill="none" stroke-width="1.04167" stroke-linecap="round" stroke-linejoin="round"/>
		<path d="M10 10H12.9167" stroke="currentColor" fill="none" stroke-width="1.04167" stroke-linecap="round" stroke-linejoin="round"/>
		<path d="M10 5.83334V10" stroke="currentColor" fill="none" stroke-width="1.04167" stroke-linecap="round" stroke-linejoin="round"/>
	</symbol>

	<symbol viewBox="0 0 19 20" id="user">
		<path d="M16.4053 20.7826H2.59503C2.23909 20.7826 1.89772 20.6452 1.64602 20.4006C1.39433 20.156 1.25293 19.8242 1.25293 19.4783V18.7087C1.2553 16.9454 1.97772 15.255 3.26152 14.009C4.54532 12.7629 6.28552 12.063 8.0999 12.063H10.9004C12.7133 12.0653 14.4512 12.7662 15.733 14.0121C17.0149 15.2579 17.7361 16.9469 17.7385 18.7087V19.4783C17.7385 19.8227 17.5983 20.1532 17.3485 20.3975C17.0988 20.6419 16.7597 20.7803 16.4053 20.7826ZM8.0999 12.4891C6.40296 12.4909 4.776 13.1466 3.57587 14.3126C2.37574 15.4785 1.70043 17.0595 1.69806 18.7087V19.4783C1.69806 19.7089 1.79233 19.9301 1.96012 20.0931C2.12792 20.2562 2.3555 20.3478 2.5928 20.3478H16.4053C16.6426 20.3478 16.8702 20.2562 17.038 20.0931C17.2058 19.9301 17.3 19.7089 17.3 19.4783V18.7087C17.2977 17.0599 16.6227 15.4792 15.423 14.3133C14.2234 13.1474 12.597 12.4914 10.9004 12.4891H8.0999ZM9.50017 11.5739C7.35056 11.5739 4.99069 8.63696 4.99069 5.96304C4.9974 3.24783 7.3774 1.21739 9.50017 1.21739C10.6533 1.24429 11.7512 1.70303 12.5646 2.49783C13.0191 2.92337 13.3807 3.43356 13.6278 3.99792C13.875 4.56229 14.0025 5.16927 14.0029 5.78261C14.0029 8.54348 11.6498 11.5739 9.50017 11.5739ZM9.50017 1.65217C7.57872 1.65217 5.42911 3.5 5.42911 5.97174C5.42911 8.39565 7.59885 11.1565 9.50017 11.1565C11.4015 11.1565 13.5645 8.29131 13.5645 5.78261C13.5645 3.34348 11.4261 1.65217 9.50017 1.65217Z" stroke="currentColor" fill="none" stroke-width="0.4"/>
	</symbol>

	<symbol viewBox="0 0 20 20" id="wallet">
		<path d="M14.1667 6.66634V4.16634C14.1667 3.94533 14.0789 3.73337 13.9226 3.57709C13.7663 3.42081 13.5544 3.33301 13.3334 3.33301H5.00004C4.55801 3.33301 4.13409 3.5086 3.82153 3.82116C3.50897 4.13372 3.33337 4.55765 3.33337 4.99967M3.33337 4.99967C3.33337 5.4417 3.50897 5.86563 3.82153 6.17819C4.13409 6.49075 4.55801 6.66634 5.00004 6.66634H15C15.2211 6.66634 15.433 6.75414 15.5893 6.91042C15.7456 7.0667 15.8334 7.27866 15.8334 7.49967V9.99967M3.33337 4.99967V14.9997C3.33337 15.4417 3.50897 15.8656 3.82153 16.1782C4.13409 16.4907 4.55801 16.6663 5.00004 16.6663H15C15.2211 16.6663 15.433 16.5785 15.5893 16.4223C15.7456 16.266 15.8334 16.054 15.8334 15.833V13.333" stroke="currentColor" fill="none" stroke-width="1.25" stroke-linecap="round" stroke-linejoin="round"/>
		<path d="M16.6666 10V13.3333H13.3333C12.8913 13.3333 12.4673 13.1577 12.1548 12.8452C11.8422 12.5326 11.6666 12.1087 11.6666 11.6667C11.6666 11.2246 11.8422 10.8007 12.1548 10.4882C12.4673 10.1756 12.8913 10 13.3333 10H16.6666Z" stroke="currentColor" fill="none" stroke-width="1.25" stroke-linecap="round" stroke-linejoin="round"/>	
	</symbol>

	<symbol viewBox="0 0 16 16" id="favorite-off">
		<path d="M7.99989 11.8336L3.88522 13.997L4.67122 9.41496L1.33789 6.17029L5.93789 5.50363L7.99522 1.33496L10.0526 5.50363L14.6526 6.17029L11.3192 9.41496L12.1052 13.997L7.99989 11.8336Z" fill="none" stroke="currentColor" stroke-linecap="round" stroke-linejoin="round"/>
	</symbol>

	<symbol viewBox="0 0 16 16" id="favorite-on">
		<path d="M5.49542 4.89328L1.24209 5.50995L1.16675 5.52528C1.05271 5.55556 0.948751 5.61555 0.865483 5.69915C0.782214 5.78274 0.722624 5.88694 0.692796 6.0011C0.662969 6.11526 0.663973 6.23529 0.695706 6.34893C0.72744 6.46257 0.788766 6.56576 0.873421 6.64795L3.95475 9.64728L3.22809 13.8839L3.21942 13.9573C3.21244 14.0752 3.23693 14.1929 3.29039 14.2983C3.34384 14.4037 3.42434 14.4929 3.52365 14.557C3.62295 14.621 3.73748 14.6575 3.85552 14.6627C3.97356 14.6679 4.09086 14.6416 4.19542 14.5866L7.99942 12.5866L11.7948 14.5866L11.8614 14.6173C11.9715 14.6606 12.0911 14.6739 12.2079 14.6558C12.3248 14.6377 12.4347 14.5888 12.5265 14.5141C12.6182 14.4395 12.6885 14.3418 12.73 14.231C12.7715 14.1203 12.7828 14.0005 12.7628 13.8839L12.0354 9.64728L15.1181 6.64728L15.1701 6.59062C15.2444 6.49913 15.2931 6.38958 15.3112 6.27315C15.3294 6.15671 15.3164 6.03753 15.2735 5.92777C15.2306 5.818 15.1594 5.72157 15.0671 5.64829C14.9748 5.57501 14.8647 5.52751 14.7481 5.51062L10.4948 4.89328L8.59342 1.03995C8.53841 0.928305 8.45323 0.834292 8.34755 0.768551C8.24186 0.702811 8.11989 0.667969 7.99542 0.667969C7.87096 0.667969 7.74898 0.702811 7.6433 0.768551C7.53761 0.834292 7.45244 0.928305 7.39742 1.03995L5.49542 4.89328Z" fill="#D18A00"/>
	</symbol>

	<symbol viewBox="0 0 18 18" id="search">
		<path d="M17.8407 17.082L13.4668 12.7078C14.6401 11.3588 15.3504 9.59867 15.3504 7.67494C15.3504 3.44035 11.9063 0 7.67607 0C3.4418 0 0.00170898 3.44435 0.00170898 7.67494C0.00170898 11.9055 3.44579 15.3499 7.67607 15.3499C9.59965 15.3499 11.3596 14.6395 12.7085 13.4661L17.0824 17.8404C17.1862 17.9441 17.3259 18 17.4616 18C17.5973 18 17.7369 17.9481 17.8407 17.8404C18.0482 17.6328 18.0482 17.2896 17.8407 17.082ZM1.07524 7.67494C1.07524 4.03503 4.03643 1.07761 7.67208 1.07761C11.3117 1.07761 14.2689 4.03902 14.2689 7.67494C14.2689 11.3109 11.3117 14.2763 7.67208 14.2763C4.03643 14.2763 1.07524 11.3149 1.07524 7.67494Z" fill="currentColor" stroke="currentColor" stroke-width="0.2"/>
	</symbol>

	<symbol viewBox="0 0 24 24" id="navigation">
		<path d="M12 6C12 6.53043 12.2107 7.03914 12.5858 7.41421C12.9609 7.78929 13.4696 8 14 8C14.5304 8 15.0391 7.78929 15.4142 7.41421C15.7893 7.03914 16 6.53043 16 6C16 5.46957 15.7893 4.96086 15.4142 4.58579C15.0391 4.21071 14.5304 4 14 4C13.4696 4 12.9609 4.21071 12.5858 4.58579C12.2107 4.96086 12 5.46957 12 6Z" stroke="currentColor" fill="none" stroke-width="1.5" stroke-linecap="round" stroke-linejoin="round"/>
		<path d="M4 6H12" stroke="currentColor" fill="none" stroke-width="1.5" stroke-linecap="round" stroke-linejoin="round"/>
		<path d="M16 6H20" stroke="currentColor" fill="none" stroke-width="1.5" stroke-linecap="round" stroke-linejoin="round"/>
		<path d="M6 12C6 12.5304 6.21071 13.0391 6.58579 13.4142C6.96086 13.7893 7.46957 14 8 14C8.53043 14 9.03914 13.7893 9.41421 13.4142C9.78929 13.0391 10 12.5304 10 12C10 11.4696 9.78929 10.9609 9.41421 10.5858C9.03914 10.2107 8.53043 10 8 10C7.46957 10 6.96086 10.2107 6.58579 10.5858C6.21071 10.9609 6 11.4696 6 12Z" stroke="currentColor" fill="none" stroke-width="1.5" stroke-linecap="round" stroke-linejoin="round"/>
		<path d="M4 12H6" stroke="currentColor" fill="none" stroke-width="1.5" stroke-linecap="round" stroke-linejoin="round"/>
		<path d="M10 12H20" stroke="currentColor" fill="none" stroke-width="1.5" stroke-linecap="round" stroke-linejoin="round"/>
		<path d="M15 18C15 18.5304 15.2107 19.0391 15.5858 19.4142C15.9609 19.7893 16.4696 20 17 20C17.5304 20 18.0391 19.7893 18.4142 19.4142C18.7893 19.0391 19 18.5304 19 18C19 17.4696 18.7893 16.9609 18.4142 16.5858C18.0391 16.2107 17.5304 16 17 16C16.4696 16 15.9609 16.2107 15.5858 16.5858C15.2107 16.9609 15 17.4696 15 18Z" stroke="currentColor" fill="none" stroke-width="1.5" stroke-linecap="round" stroke-linejoin="round"/>
		<path d="M4 18H15" stroke="currentColor" fill="none" stroke-width="1.5" stroke-linecap="round" stroke-linejoin="round"/>
		<path d="M19 18H20" stroke="currentColor" fill="none" stroke-width="1.5" stroke-linecap="round" stroke-linejoin="round"/>
	</symbol>

	<symbol viewBox="0 0 24 24" id="nav-home">
		<path d="M3 19H21" stroke="currentColor" fill="none" stroke-width="1.25" stroke-linecap="round" stroke-linejoin="round"/>
		<path d="M5 7C5 6.73478 5.10536 6.48043 5.29289 6.29289C5.48043 6.10536 5.73478 6 6 6H18C18.2652 6 18.5196 6.10536 18.7071 6.29289C18.8946 6.48043 19 6.73478 19 7V15C19 15.2652 18.8946 15.5196 18.7071 15.7071C18.5196 15.8946 18.2652 16 18 16H6C5.73478 16 5.48043 15.8946 5.29289 15.7071C5.10536 15.5196 5 15.2652 5 15V7Z" stroke="currentColor" fill="none" stroke-width="1.25" stroke-linecap="round" stroke-linejoin="round"/>
	</symbol>

	<symbol viewBox="0 0 24 24" id="nav-market">
		<path d="M3 21H21" stroke="currentColor" fill="none" stroke-width="1.25" stroke-linecap="round" stroke-linejoin="round"/>
		<path d="M3 7V8C3 8.79565 3.31607 9.55871 3.87868 10.1213C4.44129 10.6839 5.20435 11 6 11C6.79565 11 7.55871 10.6839 8.12132 10.1213C8.68393 9.55871 9 8.79565 9 8M3 7H21M3 7L5 3H19L21 7M9 8V7M9 8C9 8.79565 9.31607 9.55871 9.87868 10.1213C10.4413 10.6839 11.2044 11 12 11C12.7956 11 13.5587 10.6839 14.1213 10.1213C14.6839 9.55871 15 8.79565 15 8M15 8V7M15 8C15 8.79565 15.3161 9.55871 15.8787 10.1213C16.4413 10.6839 17.2044 11 18 11C18.7956 11 19.5587 10.6839 20.1213 10.1213C20.6839 9.55871 21 8.79565 21 8V7" stroke="currentColor" fill="none" stroke-width="1.25" stroke-linecap="round" stroke-linejoin="round"/>
		<path d="M5 20.9996V10.8496" stroke="currentColor" fill="none" stroke-width="1.25" stroke-linecap="round" stroke-linejoin="round"/>
		<path d="M19 20.9996V10.8496" stroke="currentColor" fill="none" stroke-width="1.25" stroke-linecap="round" stroke-linejoin="round"/>
		<path d="M9 21V17C9 16.4696 9.21071 15.9609 9.58579 15.5858C9.96086 15.2107 10.4696 15 11 15H13C13.5304 15 14.0391 15.2107 14.4142 15.5858C14.7893 15.9609 15 16.4696 15 17V21" stroke="currentColor" fill="none" stroke-width="1.25" stroke-linecap="round" stroke-linejoin="round"/>
	</symbol>

	<symbol viewBox="0 0 24 24" id="nav-my-assets">
		<path d="M3 9C3 8.46957 3.21071 7.96086 3.58579 7.58579C3.96086 7.21071 4.46957 7 5 7H19C19.5304 7 20.0391 7.21071 20.4142 7.58579C20.7893 7.96086 21 8.46957 21 9V18C21 18.5304 20.7893 19.0391 20.4142 19.4142C20.0391 19.7893 19.5304 20 19 20H5C4.46957 20 3.96086 19.7893 3.58579 19.4142C3.21071 19.0391 3 18.5304 3 18V9Z" stroke="currentColor" fill="none" stroke-width="1.25" stroke-linecap="round" stroke-linejoin="round"/>
		<path d="M8 7V5C8 4.46957 8.21071 3.96086 8.58579 3.58579C8.96086 3.21071 9.46957 3 10 3H14C14.5304 3 15.0391 3.21071 15.4142 3.58579C15.7893 3.96086 16 4.46957 16 5V7" stroke="currentColor" fill="none" stroke-width="1.25" stroke-linecap="round" stroke-linejoin="round"/>
		<path d="M12 12V12.01" stroke="currentColor" fill="none" stroke-width="1.25" stroke-linecap="round" stroke-linejoin="round"/>
		<path d="M3 13C5.79158 14.4067 8.87403 15.1394 12 15.1394C15.126 15.1394 18.2084 14.4067 21 13" stroke="currentColor" fill="none" stroke-width="1.25" stroke-linecap="round" stroke-linejoin="round"/>
	</symbol>

	<symbol viewBox="0 0 24 24" id="nav-my-wallets">
		<path d="M17 8V5C17 4.73478 16.8946 4.48043 16.7071 4.29289C16.5196 4.10536 16.2652 4 16 4H6C5.46957 4 4.96086 4.21071 4.58579 4.58579C4.21071 4.96086 4 5.46957 4 6M4 6C4 6.53043 4.21071 7.03914 4.58579 7.41421C4.96086 7.78929 5.46957 8 6 8H18C18.2652 8 18.5196 8.10536 18.7071 8.29289C18.8946 8.48043 19 8.73478 19 9V12M4 6V18C4 18.5304 4.21071 19.0391 4.58579 19.4142C4.96086 19.7893 5.46957 20 6 20H18C18.2652 20 18.5196 19.8946 18.7071 19.7071C18.8946 19.5196 19 19.2652 19 19V16" stroke="currentColor" fill="none" stroke-width="1.25" stroke-linecap="round" stroke-linejoin="round"/>
		<path d="M20 12V16H16C15.4696 16 14.9609 15.7893 14.5858 15.4142C14.2107 15.0391 14 14.5304 14 14C14 13.4696 14.2107 12.9609 14.5858 12.5858C14.9609 12.2107 15.4696 12 16 12H20Z" stroke="currentColor" fill="none" stroke-width="1.25" stroke-linecap="round" stroke-linejoin="round"/>
	</symbol>

	<symbol viewBox="0 0 24 24" id="nav-fund">
		<path d="M12 4H6C5.46957 4 4.96086 4.21071 4.58579 4.58579C4.21071 4.96086 4 5.46957 4 6V18C4 18.5304 4.21071 19.0391 4.58579 19.4142C4.96086 19.7893 5.46957 20 6 20H14" stroke="currentColor" fill="none" stroke-width="1.25" stroke-linecap="round" stroke-linejoin="round"/>
		<path d="M18 20V3" stroke="currentColor" fill="none" stroke-width="1.25" stroke-linecap="round" stroke-linejoin="round"/>
		<path d="M15 6L18 3L21 6" stroke="currentColor" fill="none" stroke-width="1.25" stroke-linecap="round" stroke-linejoin="round"/>
	</symbol>

	<symbol viewBox="0 0 24 24" id="nav-withdrawal">
		<path d="M12 20H6C5.46957 20 4.96086 19.7893 4.58579 19.4142C4.21071 19.0391 4 18.5304 4 18V6C4 5.46957 4.21071 4.96086 4.58579 4.58579C4.96086 4.21071 5.46957 4 6 4H14" stroke="currentColor" fill="none" stroke-width="1.25" stroke-linecap="round" stroke-linejoin="round"/>
		<path d="M18 4V21" stroke="currentColor" fill="none" stroke-width="1.25" stroke-linecap="round" stroke-linejoin="round"/>
		<path d="M15 18L18 21L21 18" stroke="currentColor" fill="none" stroke-width="1.25" stroke-linecap="round" stroke-linejoin="round"/>
	</symbol>

	<symbol viewBox="0 0 24 24" id="nav-internal-exchange">
		<path d="M21 7H3" stroke="currentColor" fill="none" stroke-width="1.25" stroke-linecap="round" stroke-linejoin="round"/>
		<path d="M18 10L21 7L18 4" stroke="currentColor" fill="none" stroke-width="1.25" stroke-linecap="round" stroke-linejoin="round"/>
		<path d="M6 20L3 17L6 14" stroke="currentColor" fill="none" stroke-width="1.25" stroke-linecap="round" stroke-linejoin="round"/>
		<path d="M3 17H21" stroke="currentColor" fill="none" stroke-width="1.25" stroke-linecap="round" stroke-linejoin="round"/>
	</symbol>

	<symbol viewBox="0 0 24 24" id="nav-payment-transactions">
		<path d="M14 3V7C14 7.26522 14.1054 7.51957 14.2929 7.70711C14.4804 7.89464 14.7348 8 15 8H19" stroke="currentColor" fill="none" stroke-width="1.25" stroke-linecap="round" stroke-linejoin="round"/>
		<path d="M17 21H7C6.46957 21 5.96086 20.7893 5.58579 20.4142C5.21071 20.0391 5 19.5304 5 19V5C5 4.46957 5.21071 3.96086 5.58579 3.58579C5.96086 3.21071 6.46957 3 7 3H14L19 8V19C19 19.5304 18.7893 20.0391 18.4142 20.4142C18.0391 20.7893 17.5304 21 17 21Z" stroke="currentColor" fill="none" stroke-width="1.25" stroke-linecap="round" stroke-linejoin="round"/>
		<path d="M14 11H11.5C11.1022 11 10.7206 11.158 10.4393 11.4393C10.158 11.7206 10 12.1022 10 12.5C10 12.8978 10.158 13.2794 10.4393 13.5607C10.7206 13.842 11.1022 14 11.5 14H12.5C12.8978 14 13.2794 14.158 13.5607 14.4393C13.842 14.7206 14 15.1022 14 15.5C14 15.8978 13.842 16.2794 13.5607 16.5607C13.2794 16.842 12.8978 17 12.5 17H10" stroke="currentColor" fill="none" stroke-width="1.25" stroke-linecap="round" stroke-linejoin="round"/>
		<path d="M12 17V18M12 10V11" stroke="currentColor" fill="none" stroke-width="1.25" stroke-linecap="round" stroke-linejoin="round"/>
	</symbol>

	<symbol viewBox="0 0 24 24" id="account-verification">
		<path d="M9.99953 20.7766C9.12914 20.5792 8.29321 20.2526 7.51953 19.8076" stroke="currentColor" fill="none" stroke-width="1.75" stroke-linecap="round" stroke-linejoin="round"/>
		<path d="M14 3.22266C15.9882 3.67673 17.7632 4.79235 19.0347 6.38686C20.3061 7.98138 20.9984 9.96031 20.9984 11.9997C20.9984 14.039 20.3061 16.0179 19.0347 17.6125C17.7632 19.207 15.9882 20.3226 14 20.7767" stroke="currentColor" fill="none" stroke-width="1.75" stroke-linecap="round" stroke-linejoin="round"/>
		<path d="M4.57856 17.093C4.03307 16.3004 3.61876 15.4252 3.35156 14.501" stroke="currentColor" fill="none" stroke-width="1.75" stroke-linecap="round" stroke-linejoin="round"/>
		<path d="M3.12402 10.4995C3.28402 9.54953 3.59202 8.64953 4.02402 7.82453L4.19302 7.51953" stroke="currentColor" fill="none" stroke-width="1.75" stroke-linecap="round" stroke-linejoin="round"/>
		<path d="M6.90723 4.57866C7.84288 3.93456 8.89255 3.47437 10.0002 3.22266" stroke="currentColor" fill="none" stroke-width="1.75" stroke-linecap="round" stroke-linejoin="round"/>
		<path d="M9 12L11 14L15 10" stroke="currentColor" fill="none" stroke-width="1.75" stroke-linecap="round" stroke-linejoin="round"/>
	</symbol>

	<symbol viewBox="0 0 24 24" id="account-settings">
		<path d="M10.325 4.317C10.751 2.561 13.249 2.561 13.675 4.317C13.7389 4.5808 13.8642 4.82578 14.0407 5.032C14.2172 5.23822 14.4399 5.39985 14.6907 5.50375C14.9414 5.60764 15.2132 5.65085 15.4838 5.62987C15.7544 5.60889 16.0162 5.5243 16.248 5.383C17.791 4.443 19.558 6.209 18.618 7.753C18.4769 7.98466 18.3924 8.24634 18.3715 8.51677C18.3506 8.78721 18.3938 9.05877 18.4975 9.30938C18.6013 9.55999 18.7627 9.78258 18.9687 9.95905C19.1747 10.1355 19.4194 10.2609 19.683 10.325C21.439 10.751 21.439 13.249 19.683 13.675C19.4192 13.7389 19.1742 13.8642 18.968 14.0407C18.7618 14.2172 18.6001 14.4399 18.4963 14.6907C18.3924 14.9414 18.3491 15.2132 18.3701 15.4838C18.3911 15.7544 18.4757 16.0162 18.617 16.248C19.557 17.791 17.791 19.558 16.247 18.618C16.0153 18.4769 15.7537 18.3924 15.4832 18.3715C15.2128 18.3506 14.9412 18.3938 14.6906 18.4975C14.44 18.6013 14.2174 18.7627 14.0409 18.9687C13.8645 19.1747 13.7391 19.4194 13.675 19.683C13.249 21.439 10.751 21.439 10.325 19.683C10.2611 19.4192 10.1358 19.1742 9.95929 18.968C9.7828 18.7618 9.56011 18.6001 9.30935 18.4963C9.05859 18.3924 8.78683 18.3491 8.51621 18.3701C8.24559 18.3911 7.98375 18.4757 7.752 18.617C6.209 19.557 4.442 17.791 5.382 16.247C5.5231 16.0153 5.60755 15.7537 5.62848 15.4832C5.64942 15.2128 5.60624 14.9412 5.50247 14.6906C5.3987 14.44 5.23726 14.2174 5.03127 14.0409C4.82529 13.8645 4.58056 13.7391 4.317 13.675C2.561 13.249 2.561 10.751 4.317 10.325C4.5808 10.2611 4.82578 10.1358 5.032 9.95929C5.23822 9.7828 5.39985 9.56011 5.50375 9.30935C5.60764 9.05859 5.65085 8.78683 5.62987 8.51621C5.60889 8.24559 5.5243 7.98375 5.383 7.752C4.443 6.209 6.209 4.442 7.753 5.382C8.753 5.99 10.049 5.452 10.325 4.317Z" stroke="currentColor" fill="none" stroke-width="1.25" stroke-linecap="round" stroke-linejoin="round"/>
		<path d="M9 12C9 12.7956 9.31607 13.5587 9.87868 14.1213C10.4413 14.6839 11.2044 15 12 15C12.7956 15 13.5587 14.6839 14.1213 14.1213C14.6839 13.5587 15 12.7956 15 12C15 11.2044 14.6839 10.4413 14.1213 9.87868C13.5587 9.31607 12.7956 9 12 9C11.2044 9 10.4413 9.31607 9.87868 9.87868C9.31607 10.4413 9 11.2044 9 12Z" stroke="currentColor" fill="none" stroke-width="1.25" stroke-linecap="round" stroke-linejoin="round"/>
	</symbol>

	<symbol viewBox="0 0 24 24" id="account-help">
		<path d="M4 14V11C4 8.87827 4.84285 6.84344 6.34315 5.34315C7.84344 3.84285 9.87827 3 12 3C14.1217 3 16.1566 3.84285 17.6569 5.34315C19.1571 6.84344 20 8.87827 20 11V14" stroke="currentColor" fill="none" stroke-width="1.25" stroke-linecap="round" stroke-linejoin="round"/>
		<path d="M18 19C18 20.657 15.314 22 12 22" stroke="currentColor" fill="none" stroke-width="1.25" stroke-linecap="round" stroke-linejoin="round"/>
		<path d="M4 14C4 13.4696 4.21071 12.9609 4.58579 12.5858C4.96086 12.2107 5.46957 12 6 12H7C7.53043 12 8.03914 12.2107 8.41421 12.5858C8.78929 12.9609 9 13.4696 9 14V17C9 17.5304 8.78929 18.0391 8.41421 18.4142C8.03914 18.7893 7.53043 19 7 19H6C5.46957 19 4.96086 18.7893 4.58579 18.4142C4.21071 18.0391 4 17.5304 4 17V14Z" stroke="currentColor" fill="none" stroke-width="1.25" stroke-linecap="round" stroke-linejoin="round"/>
		<path d="M15 14C15 13.4696 15.2107 12.9609 15.5858 12.5858C15.9609 12.2107 16.4696 12 17 12H18C18.5304 12 19.0391 12.2107 19.4142 12.5858C19.7893 12.9609 20 13.4696 20 14V17C20 17.5304 19.7893 18.0391 19.4142 18.4142C19.0391 18.7893 18.5304 19 18 19H17C16.4696 19 15.9609 18.7893 15.5858 18.4142C15.2107 18.0391 15 17.5304 15 17V14Z" stroke="currentColor" fill="none" stroke-width="1.25" stroke-linecap="round" stroke-linejoin="round"/>
	</symbol>

	<symbol viewBox="0 0 24 24" id="account-logout">
		<path d="M10 8V6C10 5.46957 10.2107 4.96086 10.5858 4.58579C10.9609 4.21071 11.4696 4 12 4H19C19.5304 4 20.0391 4.21071 20.4142 4.58579C20.7893 4.96086 21 5.46957 21 6V18C21 18.5304 20.7893 19.0391 20.4142 19.4142C20.0391 19.7893 19.5304 20 19 20H12C11.4696 20 10.9609 19.7893 10.5858 19.4142C10.2107 19.0391 10 18.5304 10 18V16" stroke="currentColor" fill="none" stroke-width="1.25" stroke-linecap="round" stroke-linejoin="round"/>
		<path d="M15 12H3L6 9" stroke="currentColor" fill="none" stroke-width="1.25" stroke-linecap="round" stroke-linejoin="round"/>
		<path d="M6 15L3 12" stroke="currentColor" fill="none" stroke-width="1.25" stroke-linecap="round" stroke-linejoin="round"/>
	</symbol>

	<symbol viewBox="0 0 24 24" id="account-collapse">
		<path d="M12 16L8 12L12 8" stroke="currentColor" fill="none" stroke-width="1.25" stroke-linecap="round" stroke-linejoin="round"/>
		<path d="M16 12H8" stroke="currentColor" fill="none" stroke-width="1.25" stroke-linecap="round" stroke-linejoin="round"/>
		<path d="M21 5C21 4.46957 20.7893 3.96086 20.4142 3.58579C20.0391 3.21071 19.5304 3 19 3H5C4.46957 3 3.96086 3.21071 3.58579 3.58579C3.21071 3.96086 3 4.46957 3 5V19C3 19.5304 3.21071 20.0391 3.58579 20.4142C3.96086 20.7893 4.46957 21 5 21H19C19.5304 21 20.0391 20.7893 20.4142 20.4142C20.7893 20.0391 21 19.5304 21 19V5Z" stroke="currentColor" fill="none" stroke-width="1.25" stroke-linecap="round" stroke-linejoin="round"/>
	</symbol>

	<symbol viewBox="0 0 20 20" id="trash">
		<path d="M8.33268 4.16667H11.666C11.666 3.72464 11.4904 3.30072 11.1779 2.98816C10.8653 2.67559 10.4414 2.5 9.99935 2.5C9.55732 2.5 9.1334 2.67559 8.82084 2.98816C8.50828 3.30072 8.33268 3.72464 8.33268 4.16667ZM7.08268 4.16667C7.08268 3.78364 7.15812 3.40437 7.3047 3.05051C7.45128 2.69664 7.66612 2.37511 7.93695 2.10427C8.20779 1.83343 8.52932 1.61859 8.88319 1.47202C9.23706 1.32544 9.61633 1.25 9.99935 1.25C10.3824 1.25 10.7616 1.32544 11.1155 1.47202C11.4694 1.61859 11.7909 1.83343 12.0617 2.10427C12.3326 2.37511 12.5474 2.69664 12.694 3.05051C12.8406 3.40437 12.916 3.78364 12.916 4.16667H17.7077C17.8734 4.16667 18.0324 4.23251 18.1496 4.34973C18.2668 4.46694 18.3327 4.62591 18.3327 4.79167C18.3327 4.95743 18.2668 5.1164 18.1496 5.23361C18.0324 5.35082 17.8734 5.41667 17.7077 5.41667H16.6077L15.6327 15.5092C15.5579 16.2825 15.1977 17.0002 14.6224 17.5224C14.0471 18.0445 13.2979 18.3336 12.521 18.3333H7.47768C6.7009 18.3334 5.95193 18.0442 5.37681 17.5221C4.80168 16.9999 4.44163 16.2823 4.36685 15.5092L3.39102 5.41667H2.29102C2.12526 5.41667 1.96628 5.35082 1.84907 5.23361C1.73186 5.1164 1.66602 4.95743 1.66602 4.79167C1.66602 4.62591 1.73186 4.46694 1.84907 4.34973C1.96628 4.23251 2.12526 4.16667 2.29102 4.16667H7.08268ZM8.74935 8.125C8.74935 7.95924 8.6835 7.80027 8.56629 7.68306C8.44908 7.56585 8.29011 7.5 8.12435 7.5C7.95859 7.5 7.79962 7.56585 7.68241 7.68306C7.5652 7.80027 7.49935 7.95924 7.49935 8.125V14.375C7.49935 14.5408 7.5652 14.6997 7.68241 14.8169C7.79962 14.9342 7.95859 15 8.12435 15C8.29011 15 8.44908 14.9342 8.56629 14.8169C8.6835 14.6997 8.74935 14.5408 8.74935 14.375V8.125ZM11.8743 7.5C11.7086 7.5 11.5496 7.56585 11.4324 7.68306C11.3152 7.80027 11.2493 7.95924 11.2493 8.125V14.375C11.2493 14.5408 11.3152 14.6997 11.4324 14.8169C11.5496 14.9342 11.7086 15 11.8743 15C12.0401 15 12.1991 14.9342 12.3163 14.8169C12.4335 14.6997 12.4993 14.5408 12.4993 14.375V8.125C12.4993 7.95924 12.4335 7.80027 12.3163 7.68306C12.1991 7.56585 12.0401 7.5 11.8743 7.5Z" fill="currentColor"/>
	</symbol>

	<symbol viewBox="0 0 16 16" id="phone">
		<path d="M12.645 9.91125C12.3175 9.57018 11.9224 9.38783 11.5036 9.38783C11.0883 9.38783 10.6898 9.5668 10.3487 9.90787L9.28163 10.9716C9.19383 10.9243 9.10603 10.8804 9.02161 10.8365C8.90004 10.7757 8.78523 10.7183 8.6873 10.6575C7.68773 10.0227 6.77934 9.19534 5.9081 8.12486C5.48598 7.59131 5.20232 7.14218 4.99633 6.6863C5.27324 6.43303 5.52989 6.16963 5.77978 5.91636C5.87433 5.82181 5.96888 5.72388 6.06344 5.62933C6.77259 4.92018 6.77259 4.00166 6.06344 3.29251L5.14154 2.37061C5.03686 2.26593 4.92879 2.15786 4.82749 2.0498C4.62487 1.84044 4.41213 1.62431 4.19263 1.4217C3.86507 1.09752 3.47335 0.925293 3.06136 0.925293C2.64938 0.925293 2.25091 1.09752 1.91322 1.4217C1.90984 1.42508 1.90984 1.42508 1.90646 1.42845L0.758312 2.58673C0.326068 3.01898 0.0795532 3.54577 0.0255227 4.157C-0.0555231 5.14305 0.234891 6.06157 0.457767 6.66266C1.00483 8.13837 1.82204 9.50602 3.0411 10.9716C4.52019 12.7377 6.29982 14.1324 8.33272 15.1151C9.10941 15.4831 10.1461 15.9188 11.3044 15.9931C11.3753 15.9964 11.4496 15.9998 11.5171 15.9998C12.2972 15.9998 12.9523 15.7195 13.4656 15.1623C13.469 15.1556 13.4758 15.1522 13.4791 15.1455C13.6547 14.9327 13.8573 14.7402 14.0701 14.5342C14.2153 14.3958 14.3639 14.2506 14.5091 14.0986C14.8434 13.7508 15.019 13.3456 15.019 12.9302C15.019 12.5115 14.84 12.1096 14.499 11.7719L12.645 9.91125ZM13.854 13.4671C13.8506 13.4671 13.8506 13.4705 13.854 13.4671C13.7223 13.609 13.5872 13.7373 13.442 13.8791C13.2225 14.0885 12.9996 14.308 12.7902 14.5545C12.4492 14.9192 12.0473 15.0914 11.5205 15.0914C11.4699 15.0914 11.4158 15.0914 11.3652 15.0881C10.3622 15.0239 9.43021 14.6322 8.7312 14.2979C6.81986 13.3726 5.14154 12.059 3.74688 10.3941C2.59535 9.00624 1.82542 7.72301 1.3155 6.34523C1.00145 5.50438 0.886635 4.84926 0.937288 4.23129C0.971057 3.83619 1.12302 3.50863 1.4033 3.22835L2.55483 2.07682C2.7203 1.92148 2.8959 1.83706 3.06812 1.83706C3.28086 1.83706 3.45309 1.96538 3.56115 2.07344C3.56452 2.07682 3.5679 2.0802 3.57128 2.08357C3.77727 2.27606 3.97313 2.47529 4.17912 2.68804C4.28381 2.7961 4.39187 2.90416 4.49993 3.0156L5.42182 3.9375C5.77978 4.29545 5.77978 4.62639 5.42182 4.98434C5.32389 5.08227 5.22934 5.1802 5.13141 5.27475C4.84775 5.56517 4.5776 5.83532 4.28381 6.09872C4.27705 6.10547 4.2703 6.10885 4.26692 6.1156C3.97651 6.40602 4.03054 6.68968 4.09132 6.88216C4.0947 6.89229 4.09808 6.90242 4.10145 6.91255C4.34121 7.49338 4.6789 8.04044 5.19219 8.69218L5.19557 8.69556C6.1276 9.84371 7.11028 10.7386 8.19427 11.4241C8.33272 11.5119 8.47455 11.5828 8.60963 11.6504C8.73119 11.7111 8.84601 11.7685 8.94394 11.8293C8.95745 11.8361 8.97096 11.8462 8.98446 11.853C9.09928 11.9104 9.20734 11.9374 9.31878 11.9374C9.59906 11.9374 9.77466 11.7618 9.83207 11.7044L10.987 10.5495C11.1018 10.4347 11.2841 10.2962 11.4969 10.2962C11.7063 10.2962 11.8785 10.4279 11.9832 10.5427C11.9865 10.5461 11.9865 10.5461 11.9899 10.5495L13.8506 12.4102C14.1984 12.7546 14.1984 13.1092 13.854 13.4671Z" fill="currentColor"/>
		<path d="M8.64678 3.80622C9.53153 3.9548 10.3352 4.37354 10.9769 5.01515C11.6185 5.65676 12.0338 6.46047 12.1858 7.34522C12.2229 7.56809 12.4154 7.72343 12.6349 7.72343C12.6619 7.72343 12.6856 7.72005 12.7126 7.71668C12.9625 7.67615 13.1279 7.43977 13.0874 7.18988C12.9051 6.1194 12.3985 5.14347 11.6252 4.37016C10.8519 3.59685 9.87598 3.09031 8.8055 2.90796C8.5556 2.86744 8.3226 3.0329 8.2787 3.27942C8.2348 3.52593 8.39689 3.76569 8.64678 3.80622Z" fill="currentColor"/>
		<path d="M15.9814 7.05794C15.6809 5.29519 14.8502 3.69116 13.5737 2.41469C12.2972 1.13821 10.6932 0.307495 8.93043 0.00695018C8.68392 -0.0369496 8.45091 0.131896 8.40701 0.37841C8.36649 0.628302 8.53196 0.861308 8.78185 0.905208C10.3555 1.17198 11.7907 1.91828 12.9321 3.0563C14.0735 4.1977 14.8164 5.63288 15.0832 7.20652C15.1203 7.4294 15.3128 7.58474 15.5323 7.58474C15.5593 7.58474 15.5829 7.58136 15.61 7.57798C15.8565 7.54084 16.0253 7.30445 15.9814 7.05794Z" fill="currentColor"/>	
	</symbol>

	<symbol viewBox="0 0 16 16" id="email">
		<path d="M14.0468 1.91162H1.95655C0.877302 1.91162 0 2.78892 0 3.86817V12.1314C0 13.2106 0.877302 14.0879 1.95655 14.0879H14.0435C15.1227 14.0879 16 13.2106 16 12.1314V3.87148C16.0033 2.79223 15.126 1.91162 14.0468 1.91162ZM15.1095 12.1314C15.1095 12.7173 14.6327 13.1941 14.0468 13.1941H1.95655C1.37058 13.1941 0.893855 12.7173 0.893855 12.1314V3.87148C0.893855 3.28551 1.37058 2.80879 1.95655 2.80879H14.0435C14.6294 2.80879 15.1061 3.28551 15.1061 3.87148V12.1314H15.1095Z" fill="currentColor"/>
		<path d="M10.0906 7.89706L14.0037 4.38785C14.1858 4.22232 14.2023 3.94092 14.0368 3.75553C13.8713 3.57345 13.5899 3.5569 13.4045 3.72243L8.00824 8.5658L6.95548 7.62559C6.95217 7.62228 6.94886 7.61897 6.94886 7.61566C6.92568 7.59249 6.90251 7.57262 6.87602 7.55276L2.59214 3.71912C2.40675 3.55359 2.12535 3.57014 1.95982 3.75553C1.7943 3.94092 1.81085 4.22232 1.99624 4.38785L5.95569 7.92686L2.01279 11.6181C1.83402 11.787 1.82409 12.0684 1.99293 12.2505C2.08232 12.3432 2.2015 12.3928 2.32068 12.3928C2.42993 12.3928 2.53917 12.3531 2.62525 12.2736L6.62773 8.52938L7.7136 9.49938C7.79967 9.57552 7.90561 9.61194 8.01155 9.61194C8.11749 9.61194 8.22674 9.57221 8.3095 9.49607L9.42517 8.49627L13.4045 12.2769C13.4906 12.3597 13.6031 12.3994 13.7124 12.3994C13.8315 12.3994 13.9474 12.3531 14.0368 12.2604C14.2056 12.0816 14.199 11.7969 14.0202 11.6281L10.0906 7.89706Z" fill="currentColor"/>	
	</symbol>

	<symbol viewBox="0 0 16 16" id="map-point">
		<path d="M8 0C4.89838 0 2.375 2.52338 2.375 5.625C2.375 6.67294 2.66528 7.69563 3.21466 8.58288L7.67981 15.7784C7.76534 15.9163 7.91603 16 8.07809 16C8.07934 16 8.08056 16 8.08181 16C8.24528 15.9987 8.39628 15.9124 8.48025 15.7721L12.8316 8.50688C13.3507 7.63838 13.625 6.64184 13.625 5.625C13.625 2.52338 11.1016 0 8 0ZM12.0271 8.02556L8.071 14.6308L4.01147 8.08894C3.55419 7.35044 3.30625 6.49844 3.30625 5.625C3.30625 3.04031 5.41531 0.93125 8 0.93125C10.5847 0.93125 12.6906 3.04031 12.6906 5.625C12.6906 6.47253 12.459 7.30275 12.0271 8.02556Z" fill="currentColor"/>
		<path d="M8 2.8125C6.44919 2.8125 5.1875 4.07419 5.1875 5.625C5.1875 7.16591 6.42866 8.4375 8 8.4375C9.59072 8.4375 10.8125 7.14897 10.8125 5.625C10.8125 4.07419 9.55081 2.8125 8 2.8125ZM8 7.50625C6.96072 7.50625 6.11875 6.66147 6.11875 5.625C6.11875 4.59113 6.96613 3.74375 8 3.74375C9.03387 3.74375 9.87813 4.59113 9.87813 5.625C9.87813 6.64634 9.05575 7.50625 8 7.50625Z" fill="currentColor"/>	
	</symbol>

	<symbol viewBox="0 0 90 60" id="quote">
		<path fill-rule="evenodd" clip-rule="evenodd" d="M70.0648 19.9644C81.0652 19.9644 89.9648 28.964 89.9648 39.9644C89.9648 50.9647 80.9652 59.9644 69.9648 59.9644C58.9645 59.9644 49.9648 50.9647 49.9648 39.9644C49.9648 17.8644 67.8648 -0.0356445 89.9648 -0.0356445C89.9648 -0.0356445 76.865 4.864 70.0648 19.9644ZM39.9648 39.9644C39.9648 50.9647 30.9652 59.9644 19.9648 59.9644C8.96449 59.9644 -0.0351562 50.9647 -0.0351562 39.9644C-0.0351562 17.8644 17.8648 -0.0356445 39.9648 -0.0356445C39.9648 -0.0356445 26.865 4.86453 20.0648 19.9644C31.0652 19.9644 39.9648 28.964 39.9648 39.9644Z" fill="currentColor"/>
	</symbol>

	<symbol viewBox="0 0 24 24" id="planet">
		<path d="M3 12C3 13.1819 3.23279 14.3522 3.68508 15.4442C4.13738 16.5361 4.80031 17.5282 5.63604 18.364C6.47177 19.1997 7.46392 19.8626 8.55585 20.3149C9.64778 20.7672 10.8181 21 12 21C13.1819 21 14.3522 20.7672 15.4442 20.3149C16.5361 19.8626 17.5282 19.1997 18.364 18.364C19.1997 17.5282 19.8626 16.5361 20.3149 15.4442C20.7672 14.3522 21 13.1819 21 12C21 9.61305 20.0518 7.32387 18.364 5.63604C16.6761 3.94821 14.3869 3 12 3C9.61305 3 7.32387 3.94821 5.63604 5.63604C3.94821 7.32387 3 9.61305 3 12Z" stroke="currentColor" fill="none" stroke-width="1.25" stroke-linecap="round" stroke-linejoin="round"/>
		<path d="M3.60156 9H20.4016" stroke="currentColor" fill="none" stroke-width="1.25" stroke-linecap="round" stroke-linejoin="round"/>
		<path d="M3.60156 15H20.4016" stroke="currentColor" fill="none" stroke-width="1.25" stroke-linecap="round" stroke-linejoin="round"/>
		<path d="M11.4997 3C9.81501 5.69961 8.92188 8.81787 8.92188 12C8.92188 15.1821 9.81501 18.3004 11.4997 21" stroke="currentColor" fill="none" stroke-width="1.25" stroke-linecap="round" stroke-linejoin="round"/>
		<path d="M12.5 3C14.1847 5.69961 15.0778 8.81787 15.0778 12C15.0778 15.1821 14.1847 18.3004 12.5 21" stroke="currentColor" fill="none" stroke-width="1.25" stroke-linecap="round" stroke-linejoin="round"/>
	</symbol>

	<symbol viewBox="0 0 24 24" id="columns">
		<path fill-rule="evenodd" clip-rule="evenodd" d="M2.375 15C2.375 14.1025 3.10254 13.375 4 13.375H6C6.89746 13.375 7.625 14.1025 7.625 15V21C7.625 21.8975 6.89746 22.625 6 22.625H4C3.10254 22.625 2.375 21.8975 2.375 21V15ZM4 14.625C3.79289 14.625 3.625 14.7929 3.625 15V21C3.625 21.2071 3.79289 21.375 4 21.375H6C6.20711 21.375 6.375 21.2071 6.375 21V15C6.375 14.7929 6.20711 14.625 6 14.625H4Z" fill="currentColor"/>
		<path fill-rule="evenodd" clip-rule="evenodd" d="M9.375 9C9.375 8.10254 10.1025 7.375 11 7.375H13C13.8975 7.375 14.625 8.10254 14.625 9V21C14.625 21.8975 13.8975 22.625 13 22.625H11C10.1025 22.625 9.375 21.8975 9.375 21V9ZM11 8.625C10.7929 8.625 10.625 8.79289 10.625 9V21C10.625 21.2071 10.7929 21.375 11 21.375H13C13.2071 21.375 13.375 21.2071 13.375 21V9C13.375 8.79289 13.2071 8.625 13 8.625H11Z" fill="currentColor"/>
		<path fill-rule="evenodd" clip-rule="evenodd" d="M16.375 4C16.375 3.10254 17.1025 2.375 18 2.375H20C20.8975 2.375 21.625 3.10254 21.625 4V21C21.625 21.8975 20.8975 22.625 20 22.625H18C17.1025 22.625 16.375 21.8975 16.375 21V4ZM18 3.625C17.7929 3.625 17.625 3.79289 17.625 4V21C17.625 21.2071 17.7929 21.375 18 21.375H20C20.2071 21.375 20.375 21.2071 20.375 21V4C20.375 3.79289 20.2071 3.625 20 3.625H18Z" fill="currentColor"/>	
	</symbol>

	<symbol viewBox="0 0 29 3" id="etc">
		<circle cx="27.5" cy="1.5" r="1.5" fill="currentColor"/>
		<circle cx="14.5" cy="1.5" r="1.5" fill="currentColor"/>
		<circle cx="1.5" cy="1.5" r="1.5" fill="currentColor"/>
	</symbol>

	<symbol viewBox="0 0 24 24" id="cancel">
		<path d="M3 12C3 13.1819 3.23279 14.3522 3.68508 15.4442C4.13738 16.5361 4.80031 17.5282 5.63604 18.364C6.47177 19.1997 7.46392 19.8626 8.55585 20.3149C9.64778 20.7672 10.8181 21 12 21C13.1819 21 14.3522 20.7672 15.4442 20.3149C16.5361 19.8626 17.5282 19.1997 18.364 18.364C19.1997 17.5282 19.8626 16.5361 20.3149 15.4442C20.7672 14.3522 21 13.1819 21 12C21 10.8181 20.7672 9.64778 20.3149 8.55585C19.8626 7.46392 19.1997 6.47177 18.364 5.63604C17.5282 4.80031 16.5361 4.13738 15.4442 3.68508C14.3522 3.23279 13.1819 3 12 3C10.8181 3 9.64778 3.23279 8.55585 3.68508C7.46392 4.13738 6.47177 4.80031 5.63604 5.63604C4.80031 6.47177 4.13738 7.46392 3.68508 8.55585C3.23279 9.64778 3 10.8181 3 12Z" stroke="currentColor" fill="none" stroke-width="1.5" stroke-linecap="round" stroke-linejoin="round"/>
		<path d="M10 10L14 14M14 10L10 14" stroke="currentColor" fill="none" stroke-width="1.5" stroke-linecap="round" stroke-linejoin="round"/>
	</symbol>

	<symbol viewBox="0 0 24 24" id="check-4">
		<path d="M3 12C3 13.1819 3.23279 14.3522 3.68508 15.4442C4.13738 16.5361 4.80031 17.5282 5.63604 18.364C6.47177 19.1997 7.46392 19.8626 8.55585 20.3149C9.64778 20.7672 10.8181 21 12 21C13.1819 21 14.3522 20.7672 15.4442 20.3149C16.5361 19.8626 17.5282 19.1997 18.364 18.364C19.1997 17.5282 19.8626 16.5361 20.3149 15.4442C20.7672 14.3522 21 13.1819 21 12C21 10.8181 20.7672 9.64778 20.3149 8.55585C19.8626 7.46392 19.1997 6.47177 18.364 5.63604C17.5282 4.80031 16.5361 4.13738 15.4442 3.68508C14.3522 3.23279 13.1819 3 12 3C10.8181 3 9.64778 3.23279 8.55585 3.68508C7.46392 4.13738 6.47177 4.80031 5.63604 5.63604C4.80031 6.47177 4.13738 7.46392 3.68508 8.55585C3.23279 9.64778 3 10.8181 3 12Z" stroke="currentColor" fill="none" stroke-width="1.5" stroke-linecap="round" stroke-linejoin="round"/>
		<path d="M9 12L11 14L15 10" stroke="currentColor" fill="none" stroke-width="1.5" stroke-linecap="round" stroke-linejoin="round"/>
	</symbol>

</svg>