<svg width="223" height="45" fill="none" xmlns="http://www.w3.org/2000/svg"><path d="M39.229 28.9h1.131V38h-.91v-7.722l-3.185 5.33h-.13l-3.185-5.33V38h-.91v-9.1h1.131l3.029 5.07 3.029-5.07zm8.526 8.281c-.668.65-1.474.975-2.419.975-.962 0-1.772-.325-2.43-.975-.66-.659-.989-1.469-.989-2.431s.33-1.768.989-2.418c.658-.659 1.468-.988 2.43-.988.954 0 1.76.33 2.419.988.667.65 1 1.456 1 2.418 0 .953-.333 1.764-1 2.431zm-4.239-.598c.495.494 1.101.741 1.82.741.72 0 1.327-.247 1.82-.741a2.546 2.546 0 00.742-1.833c0-.72-.248-1.326-.742-1.82-.493-.503-1.1-.754-1.82-.754-.719 0-1.325.251-1.82.754-.493.494-.74 1.1-.74 1.82 0 .71.246 1.322.74 1.833zM51.05 31.5v1.079c.399-.789 1.084-1.183 2.054-1.183v.832c-.624 0-1.122.182-1.495.546-.372.355-.559.893-.559 1.612V38h-.858v-6.5h.858zm5.84-.156c.97 0 1.746.342 2.327 1.027.598.676.897 1.478.897 2.405 0 .043-.01.178-.026.403H54.38c.086.65.364 1.17.832 1.56.468.39 1.053.585 1.755.585.988 0 1.685-.368 2.093-1.105l.754.442a3.03 3.03 0 01-1.183 1.105c-.494.26-1.053.39-1.677.39-1.023 0-1.855-.32-2.496-.962-.642-.641-.962-1.456-.962-2.444 0-.98.316-1.79.949-2.431.632-.65 1.447-.975 2.444-.975zm0 .832c-.676 0-1.244.2-1.703.598-.451.399-.72.923-.806 1.573h4.849c-.096-.693-.36-1.226-.793-1.599a2.327 2.327 0 00-1.547-.572zm11.283-.676v.832H66.3v3.939c0 .355.07.611.208.767.139.147.347.225.624.234.278 0 .624-.009 1.04-.026V38c-.927.139-1.616.074-2.067-.195-.442-.277-.663-.789-.663-1.534v-3.939h-1.365V31.5h1.365v-1.56l.858-.26v1.82h1.872zm4.472-.156c.78 0 1.4.243 1.86.728.459.477.688 1.122.688 1.937V38h-.858v-3.991c0-.58-.156-1.031-.468-1.352-.303-.32-.736-.481-1.3-.481-.65 0-1.165.204-1.547.611-.372.407-.559 1.01-.559 1.807V38h-.858v-9.1h.858v3.614c.486-.78 1.214-1.17 2.184-1.17zm9.797 1.43V31.5h.858V38h-.858v-1.274c-.598.953-1.473 1.43-2.626 1.43-.927 0-1.72-.33-2.379-.988-.65-.659-.975-1.465-.975-2.418 0-.953.325-1.76.975-2.418a3.243 3.243 0 012.38-.988c1.152 0 2.027.477 2.625 1.43zm-4.38 3.809c.493.494 1.1.741 1.82.741.719 0 1.325-.247 1.82-.741a2.546 2.546 0 00.74-1.833c0-.72-.247-1.326-.74-1.82a2.453 2.453 0 00-1.82-.754c-.72 0-1.327.251-1.82.754-.495.494-.742 1.1-.742 1.82 0 .71.247 1.322.741 1.833zm10.097-5.239c.78 0 1.4.243 1.86.728.458.477.688 1.122.688 1.937V38h-.858v-3.991c0-.58-.156-1.031-.468-1.352-.303-.32-.737-.481-1.3-.481-.65 0-1.166.204-1.547.611-.373.407-.559 1.01-.559 1.807V38h-.858v-6.5h.858v1.014c.485-.78 1.213-1.17 2.184-1.17zm6.807-1.586V28.9h5.59v.858L97.123 38h-.949l3.432-8.242h-4.64zm12.235 7.124c-.598.85-1.443 1.274-2.535 1.274-1.083 0-1.932-.425-2.548-1.274-.598-.858-.897-2.002-.897-3.432 0-1.439.299-2.578.897-3.419.616-.858 1.465-1.287 2.548-1.287 1.092 0 1.937.429 2.535 1.287.607.84.91 1.98.91 3.419s-.303 2.583-.91 3.432zm-4.407-.611c.46.667 1.084 1.001 1.872 1.001.798 0 1.417-.334 1.859-1.001.451-.659.676-1.599.676-2.821 0-1.222-.225-2.162-.676-2.821-.442-.667-1.061-1.001-1.859-1.001-.788 0-1.412.334-1.872 1.001-.442.667-.663 1.608-.663 2.821s.221 2.154.663 2.821zm12.596.611c-.598.85-1.443 1.274-2.535 1.274-1.084 0-1.933-.425-2.548-1.274-.598-.858-.897-2.002-.897-3.432 0-1.439.299-2.578.897-3.419.615-.858 1.464-1.287 2.548-1.287 1.092 0 1.937.429 2.535 1.287.606.84.91 1.98.91 3.419s-.304 2.583-.91 3.432zm-4.407-.611c.459.667 1.083 1.001 1.872 1.001.797 0 1.417-.334 1.859-1.001.45-.659.676-1.599.676-2.821 0-1.222-.226-2.162-.676-2.821-.442-.667-1.062-1.001-1.859-1.001-.789 0-1.413.334-1.872 1.001-.442.667-.663 1.608-.663 2.821s.221 2.154.663 2.821zm12.595.611c-.598.85-1.443 1.274-2.535 1.274-1.083 0-1.932-.425-2.548-1.274-.598-.858-.897-2.002-.897-3.432 0-1.439.299-2.578.897-3.419.616-.858 1.465-1.287 2.548-1.287 1.092 0 1.937.429 2.535 1.287.607.84.91 1.98.91 3.419s-.303 2.583-.91 3.432zm-4.407-.611c.46.667 1.084 1.001 1.872 1.001.798 0 1.417-.334 1.859-1.001.451-.659.676-1.599.676-2.821 0-1.222-.225-2.162-.676-2.821-.442-.667-1.061-1.001-1.859-1.001-.788 0-1.412.334-1.872 1.001-.442.667-.663 1.608-.663 2.821s.221 2.154.663 2.821zm10.984-4.771v1.079c.398-.789 1.083-1.183 2.054-1.183v.832c-.624 0-1.123.182-1.495.546-.373.355-.559.893-.559 1.612V38h-.858v-6.5h.858zm5.839-.156c.971 0 1.746.342 2.327 1.027.598.676.897 1.478.897 2.405 0 .043-.009.178-.026.403h-5.707c.087.65.364 1.17.832 1.56.468.39 1.053.585 1.755.585.988 0 1.686-.368 2.093-1.105l.754.442a3.03 3.03 0 01-1.183 1.105c-.494.26-1.053.39-1.677.39-1.023 0-1.855-.32-2.496-.962-.641-.641-.962-1.456-.962-2.444 0-.98.316-1.79.949-2.431.633-.65 1.447-.975 2.444-.975zm0 .832c-.676 0-1.244.2-1.703.598-.451.399-.719.923-.806 1.573h4.849c-.095-.693-.36-1.226-.793-1.599a2.327 2.327 0 00-1.547-.572zm6.74 4.927l2.275-5.603h.91l-2.665 6.5h-1.04l-2.665-6.5h.91l2.275 5.603zm5.275-7.605c0 .173-.061.32-.182.442a.602.602 0 01-.442.182.602.602 0 01-.442-.182.603.603 0 01-.182-.442c0-.173.061-.32.182-.442a.602.602 0 01.442-.182.6.6 0 01.442.182.603.603 0 01.182.442zM147.813 38h-.858v-6.5h.858V38zm4.824-6.656c.97 0 1.746.342 2.327 1.027.598.676.897 1.478.897 2.405 0 .043-.009.178-.026.403h-5.707c.086.65.364 1.17.832 1.56.468.39 1.053.585 1.755.585.988 0 1.685-.368 2.093-1.105l.754.442a3.035 3.035 0 01-1.183 1.105c-.494.26-1.053.39-1.677.39-1.023 0-1.855-.32-2.496-.962-.642-.641-.962-1.456-.962-2.444 0-.98.316-1.79.949-2.431.632-.65 1.447-.975 2.444-.975zm0 .832c-.676 0-1.244.2-1.703.598-.451.399-.72.923-.806 1.573h4.849c-.096-.693-.36-1.226-.793-1.599a2.329 2.329 0 00-1.547-.572zm10.562 4.719l1.599-5.395h.884L163.68 38h-.936l-1.677-5.239L159.39 38h-.936l-2.002-6.5h.884l1.599 5.395 1.703-5.395h.858l1.703 5.395zm4.059-3.692c0 .503.446.871 1.339 1.105.251.06.416.104.494.13.078.017.23.065.455.143.234.07.394.13.481.182.095.052.225.134.39.247.165.104.282.212.351.325.069.104.134.243.195.416.061.165.091.342.091.533 0 .555-.221 1.005-.663 1.352-.425.347-.988.52-1.69.52-.607 0-1.131-.134-1.573-.403a2.28 2.28 0 01-.936-1.092l.728-.429c.121.338.338.607.65.806.321.19.698.286 1.131.286.442 0 .802-.087 1.079-.26.277-.173.416-.433.416-.78 0-.503-.446-.871-1.339-1.105-.251-.06-.416-.1-.494-.117a17.94 17.94 0 00-.468-.143 3.505 3.505 0 01-.481-.195 21 21 0 01-.377-.234 1.29 1.29 0 01-.351-.325 2.394 2.394 0 01-.195-.416 1.632 1.632 0 01-.091-.546c0-.529.208-.97.624-1.326.433-.355.966-.533 1.599-.533.52 0 .979.117 1.378.351.407.234.706.559.897.975l-.715.416c-.243-.607-.763-.91-1.56-.91-.39 0-.715.091-.975.273a.87.87 0 00-.39.754zM209.369 19.5l1.218-5.269-4.087-3.543 5.4-.47L214 5.25l2.1 4.969 5.4.469-4.088 3.543 1.219 5.269L214 16.706l-4.631 2.794zm-20 0l1.218-5.269-4.087-3.543 5.4-.47L194 5.25l2.1 4.969 5.4.469-4.088 3.543 1.219 5.269L194 16.706l-4.631 2.794zm-20 0l1.218-5.269-4.087-3.543 5.4-.47L174 5.25l2.1 4.969 5.4.469-4.088 3.543 1.219 5.269L174 16.706l-4.631 2.794zm-20 0l1.218-5.269-4.087-3.543 5.4-.47L154 5.25l2.1 4.969 5.4.469-4.088 3.543 1.219 5.269L154 16.706l-4.631 2.794zm-20 0l1.218-5.269-4.087-3.543 5.4-.47L134 5.25l2.1 4.969 5.4.469-4.088 3.543 1.219 5.269L134 16.706l-4.631 2.794z" fill="#66789A"/><path d="M31.36 7h10.1v1.76h-4.14V21h-1.84V8.76h-4.12V7zm12.134 4v1.68c.573-1.24 1.613-1.86 3.12-1.86v1.82c-.854-.04-1.587.187-2.2.68-.614.493-.92 1.287-.92 2.38V21h-1.74V11h1.74zm11.722 5.3V11h1.74v10h-1.74v-1.44c-.693 1.133-1.773 1.7-3.24 1.7-1.173 0-2.113-.367-2.82-1.1-.707-.747-1.06-1.753-1.06-3.02V11h1.74v6.04c0 .8.22 1.427.66 1.88.44.453 1.047.68 1.82.68.893 0 1.6-.273 2.12-.82.52-.56.78-1.387.78-2.48zm5.87-2.6c0 .64.66 1.14 1.98 1.5.493.107.906.22 1.24.34.346.107.72.273 1.12.5.413.227.726.527.94.9.213.373.32.813.32 1.32 0 .907-.354 1.633-1.06 2.18-.707.547-1.6.82-2.68.82-.96 0-1.794-.207-2.5-.62-.694-.427-1.187-1-1.48-1.72l1.5-.86c.16.48.46.86.9 1.14.44.28.966.42 1.58.42.6 0 1.08-.113 1.44-.34.36-.227.54-.567.54-1.02 0-.68-.66-1.173-1.98-1.48-.44-.12-.774-.213-1-.28a8.806 8.806 0 01-.94-.36c-.387-.173-.68-.353-.88-.54-.2-.2-.387-.46-.56-.78-.16-.333-.24-.7-.24-1.1 0-.867.333-1.58 1-2.14.68-.56 1.526-.84 2.54-.84.813 0 1.533.187 2.16.56.64.36 1.12.867 1.44 1.52l-1.46.82c-.36-.853-1.074-1.28-2.14-1.28-.507 0-.934.12-1.28.36-.334.24-.5.567-.5.98zm12.71-2.7v1.68h-2.66v5.42c0 .493.093.847.28 1.06.2.2.5.307.9.32.4 0 .892-.013 1.48-.04V21c-1.534.2-2.654.073-3.36-.38-.694-.453-1.04-1.293-1.04-2.52v-5.42h-1.98V11h1.98V8.72l1.74-.52V11h2.66zm7.638-.26c1.4 0 2.593.513 3.58 1.54.986 1.027 1.48 2.267 1.48 3.72 0 1.467-.494 2.713-1.48 3.74-.974 1.013-2.167 1.52-3.58 1.52-1.654 0-2.914-.66-3.78-1.98V25h-1.74V11h1.74v1.72c.866-1.32 2.126-1.98 3.78-1.98zm-.22 8.84c1 0 1.84-.34 2.52-1.02.68-.707 1.02-1.56 1.02-2.56 0-1.013-.34-1.86-1.02-2.54-.68-.693-1.52-1.04-2.52-1.04-1.014 0-1.86.347-2.54 1.04-.68.68-1.02 1.527-1.02 2.54 0 1 .34 1.853 1.02 2.56.68.68 1.526 1.02 2.54 1.02zm8.236-10.4a1.14 1.14 0 01-.84-.34c-.227-.227-.34-.5-.34-.82 0-.32.113-.593.34-.82.227-.24.507-.36.84-.36.32 0 .593.12.82.36.227.227.34.5.34.82 0 .32-.113.593-.34.82-.227.227-.5.34-.82.34zM90.31 21h-1.74V11h1.74v10zm4.394 0h-1.74V6.4h1.74V21zm11.095-1.26c-1.013 1.013-2.26 1.52-3.74 1.52-1.48 0-2.727-.507-3.74-1.52-1.013-1.013-1.52-2.26-1.52-3.74 0-1.48.507-2.727 1.52-3.74 1.013-1.013 2.26-1.52 3.74-1.52 1.48 0 2.727.507 3.74 1.52 1.027 1.027 1.54 2.273 1.54 3.74s-.513 2.713-1.54 3.74zm-3.74-.18c1 0 1.84-.34 2.52-1.02.68-.68 1.02-1.527 1.02-2.54 0-1.013-.34-1.86-1.02-2.54-.68-.68-1.52-1.02-2.52-1.02-.987 0-1.82.34-2.5 1.02-.68.68-1.02 1.527-1.02 2.54 0 1.013.34 1.86 1.02 2.54.68.68 1.513 1.02 2.5 1.02zM114.615 11v1.68h-2.66v5.42c0 .493.094.847.28 1.06.2.2.5.307.9.32.4 0 .894-.013 1.48-.04V21c-1.533.2-2.653.073-3.36-.38-.693-.453-1.04-1.293-1.04-2.52v-5.42h-1.98V11h1.98V8.72l1.74-.52V11h2.66z" fill="#fff"/><path d="M5.825 22l1.625-7.025L2 10.25l7.2-.625L12 3l2.8 6.625 7.2.625-5.45 4.725L18.175 22 12 18.275 5.825 22z" fill="#FFD600"/></svg>