<svg width="50" height="50" viewBox="0 0 50 50" fill="none" xmlns="http://www.w3.org/2000/svg">
<path d="M22.9 29.3049C23.005 29.0424 23.005 28.7799 22.9 28.5699C22.795 28.3074 22.585 28.1499 22.375 28.0449C22.27 27.9924 22.165 27.9924 22.0075 27.9924C21.5875 27.9924 21.22 28.2549 21.0625 28.6224C19.5925 32.3499 14.4475 39.4899 9.66998 42.1149C9.45998 42.2199 9.24998 42.4299 9.19748 42.6924C9.14498 42.9549 9.14498 43.2174 9.30248 43.4274C9.56498 43.8999 10.195 44.0574 10.615 43.7949C16.075 40.8549 21.325 33.3474 22.9 29.3049Z" fill="white"/>
<path d="M27.1525 31.6149C28.675 27.2574 26.785 24.2649 24.265 23.2674C23.635 23.0049 22.9 22.8999 22.165 22.8999C19.6975 22.8999 17.65 24.3174 16.6 26.7324C15.235 29.8824 11.7175 35.3949 7.57 37.7049C7.0975 37.9674 6.94001 38.5449 7.20251 39.0174C7.46501 39.4899 8.09501 39.6474 8.515 39.3849C13.45 36.7074 17.1775 30.4074 18.4375 27.4674C19.1725 25.7874 20.59 24.8424 22.2175 24.8424C22.69 24.8424 23.1625 24.9474 23.5825 25.1049C25.21 25.7349 26.47 27.5724 25.315 30.9324C23.5825 36.0249 17.0725 42.8499 12.82 45.1599C12.61 45.2649 12.4 45.4749 12.3475 45.7374C12.295 45.9999 12.295 46.2624 12.4525 46.4724C12.715 46.9449 13.345 47.1024 13.765 46.8924C18.385 44.3724 25.2625 37.1274 27.1525 31.6149Z" fill="white"/>
<path d="M27.52 14.9725C25 13.975 22.2175 13.7125 19.54 14.185C14.605 15.13 10.825 17.86 8.82998 21.9025L8.72498 22.06C7.98998 23.53 7.25498 25.0525 5.94248 25.42C5.41748 25.5775 5.15498 26.155 5.31248 26.6275C5.46998 27.1525 6.04748 27.415 6.51998 27.2575C8.61998 26.6275 9.66998 24.5275 10.4575 22.8475L10.51 22.7425C12.2425 19.225 15.55 16.8625 19.855 16.075C20.6425 15.9175 21.43 15.865 22.165 15.865C23.74 15.865 25.315 16.18 26.785 16.7575C32.4025 18.9625 36.6025 25.525 33.715 33.8725C32.4025 37.6525 29.5675 41.905 25.7875 45.9475C25.42 46.315 25.42 46.945 25.84 47.3125C26.2075 47.68 26.8375 47.68 27.205 47.26C31.195 43.06 34.135 38.545 35.5525 34.5025C38.9125 25.0525 34.03 17.4925 27.52 14.9725Z" fill="white"/>
<path d="M44.74 23.2149C44.8975 23.0049 44.8975 22.7424 44.845 22.4799C43.1125 15.2349 38.4925 9.72242 31.825 6.93992C28.9375 5.73242 25.8925 5.10242 22.7425 5.10242C18.4375 5.10242 14.2375 6.25742 10.5625 8.46242C10.09 8.72492 9.9325 9.35492 10.2475 9.82742C10.51 10.2999 11.14 10.4049 11.6125 10.1424C14.9725 8.09492 18.805 7.04492 22.7425 7.04492C25.63 7.04492 28.4125 7.62242 31.09 8.72492C37.1275 11.2449 41.38 16.2849 42.955 22.8999C43.06 23.3199 43.48 23.6349 43.9 23.6349C44.005 23.6349 44.0575 23.6349 44.11 23.6349C44.3725 23.5824 44.5825 23.4249 44.74 23.2149Z" fill="white"/>
<path d="M23.215 0.482422C21.22 0.482422 19.1725 0.692422 17.02 1.00742C16.495 1.11242 16.1275 1.58492 16.2325 2.16242C16.3375 2.68742 16.81 3.05492 17.335 2.94992C19.33 2.58242 21.325 2.42492 23.1625 2.42492C33.9775 2.42492 39.385 8.30492 41.2225 10.8249C41.5375 11.2449 42.1675 11.3499 42.5875 11.0349C42.7975 10.8774 42.955 10.6674 43.0075 10.4049C43.06 10.1424 43.0075 9.87992 42.85 9.66992C40.855 6.93992 34.975 0.482422 23.215 0.482422Z" fill="white"/>
<path d="M36.13 41.485C36.6025 41.7475 37.2325 41.59 37.495 41.1175C38.4925 39.385 39.28 37.6525 39.8575 35.9725C44.0575 23.8975 37.495 13.975 29.2 10.7725C26.995 9.93246 24.6325 9.45996 22.27 9.45996C21.115 9.45996 19.9075 9.56496 18.7525 9.77496C13.6075 10.72 9.3025 13.66 6.31 18.2275C6.1525 18.4375 6.1 18.7 6.1525 18.9625C6.205 19.225 6.3625 19.435 6.5725 19.5925C6.9925 19.9075 7.6225 19.75 7.9375 19.33C10.6675 15.13 14.4475 12.61 19.0675 11.7175C20.1175 11.5075 21.1675 11.4025 22.2175 11.4025C24.37 11.4025 26.4175 11.77 28.4125 12.5575C35.8675 15.4975 41.7475 24.475 37.9675 35.3425C37.39 36.9175 36.655 38.545 35.7625 40.1725C35.5 40.645 35.6575 41.2225 36.13 41.485Z" fill="white"/>
<path d="M18.3325 49.2549C23.2675 45.7374 29.305 39.0175 31.3525 33.085C33.82 25.945 30.25 20.8525 25.8925 19.12C24.1075 18.4375 22.165 18.2275 20.3275 18.595C16.915 19.225 13.975 21.64 12.505 24.9475C10.93 28.5175 8.67248 31.1425 5.67998 32.665C5.20748 32.9275 4.99748 33.505 5.25998 33.9775C5.52248 34.4499 6.09998 34.66 6.57248 34.3975C9.93248 32.665 12.5575 29.725 14.29 25.6825C15.445 22.9525 17.86 21.01 20.695 20.485C21.22 20.38 21.6925 20.3275 22.2175 20.3275C23.215 20.3275 24.2125 20.5375 25.21 20.905C28.7275 22.27 31.615 26.47 29.5675 32.4025C27.625 38.0199 21.85 44.32 17.23 47.6275C16.81 47.9425 16.705 48.5725 17.02 48.9924C17.2825 49.465 17.9125 49.57 18.3325 49.2549Z" fill="white"/>
</svg>
