<svg width="58" height="50" viewBox="0 0 58 50" fill="none" xmlns="http://www.w3.org/2000/svg">
<g clip-path="url(#clip0_245_404)">
<path fill-rule="evenodd" clip-rule="evenodd" d="M50.9951 10.8685C51.475 10.8756 51.9912 11.0656 52.4327 11.4592C53.3093 12.2477 53.3919 13.4092 52.7655 14.112L52.1007 14.8556C51.1611 13.882 50.1258 12.9956 49.0078 12.2192L49.7553 11.382C50.062 11.0392 50.5115 10.8606 50.9951 10.8685ZM37.0381 9.95631C47.7014 9.95631 56.334 18.4713 56.334 28.9963C56.334 39.5213 47.7014 48.0363 37.0381 48.0363C32.0718 48.0363 28.4403 46.4363 21.9037 44.1935L23.1304 42.9813C23.8453 42.2735 23.8706 41.2292 23.4291 40.4956C22.9912 39.767 21.9603 39.3092 20.967 39.6849C17.9836 40.8192 15.797 40.7413 14.1208 39.822C12.8071 39.0999 11.6892 37.6977 10.8815 35.8449C11.7755 36.117 13.1421 36.147 14.0708 35.9985C15.6085 35.7563 16.907 35.1827 17.6813 34.4206C18.1982 33.9113 18.5687 33.3606 18.7413 32.777C18.9116 32.1956 18.858 31.5263 18.4578 31.0285C18.0532 30.5256 17.408 30.2806 16.6641 30.2363C15.9203 30.1956 15.0329 30.3363 13.9606 30.6856C11.5659 31.4642 9.1611 31.1806 6.99408 29.852C5.1359 28.7106 3.53873 26.9435 2.2968 24.1977C3.64095 24.6777 4.84083 24.7406 5.82683 24.6113C7.29205 24.417 8.4738 23.7777 9.5845 23.1377C11.7965 21.862 13.6655 20.5335 17.6306 21.5527C18.1859 21.6935 18.6949 21.1985 18.552 20.6477C18.1634 19.0963 17.3398 17.9099 16.0218 17.2399C15.1569 16.797 13.8961 16.492 12.4345 16.4663C14.2209 14.9185 16.3161 14.4499 18.726 14.1335C21.6594 13.7463 25.0611 13.6163 28.1054 12.1277C31.1475 10.6413 34.0141 9.95631 37.0381 9.95631ZM35.7809 6.55559H38.296V8.51274C37.8805 8.48702 37.4622 8.46774 37.0388 8.46774C36.6198 8.46774 36.2007 8.48274 35.7809 8.50845V6.55559ZM33.5226 1.95345H40.55C40.9661 1.95345 41.2786 2.26345 41.2786 2.67559V4.34559C41.2786 4.76274 40.9654 5.06702 40.55 5.06702H33.5226C33.1122 5.06702 32.7976 4.76274 32.7976 4.34559V2.67559C32.7976 2.26345 33.1115 1.95345 33.5226 1.95345ZM33.5226 0.466309C32.2995 0.466309 31.291 1.46702 31.291 2.67631V4.34631C31.291 5.55559 32.2995 6.55559 33.5226 6.55559H34.2744V8.66131C32.0124 8.96345 29.8265 9.63274 27.7001 10.6706C24.7131 12.132 21.5601 12.2627 18.5209 12.6613C15.4846 13.0635 12.4976 13.7992 10.1536 16.7127C9.7498 17.207 10.1188 17.9363 10.7641 17.9177C12.921 17.8649 14.3971 18.0813 15.3338 18.5577C15.9225 18.8585 16.3198 19.272 16.6293 19.842C12.8042 19.3213 10.6749 20.7942 8.8247 21.8585C7.74808 22.4792 6.76715 22.9885 5.62963 23.1385C4.49283 23.2913 3.14578 23.1042 1.25715 22.1713C0.649601 21.8706 -0.0195741 22.4506 0.210251 23.0827C1.56673 26.8513 3.67648 29.5677 6.19948 31.1156C8.71813 32.6592 11.6413 33.0085 14.434 32.1013C15.0539 31.9006 15.5752 31.7856 15.9942 31.7399C17.769 31.5542 17.5305 32.3906 16.617 33.3699C16.2465 33.7677 15.0989 34.3335 13.8258 34.5327C12.557 34.7377 11.157 34.612 10.0123 33.8977C9.42355 33.5292 8.68333 34.0842 8.88705 34.742C9.80853 37.6963 11.2469 39.9427 13.3922 41.1192C15.5331 42.2985 18.2707 42.2985 21.5151 41.067C21.8921 40.9249 22.0096 41.0477 22.1343 41.2599C22.259 41.4685 22.2742 41.7249 22.0589 41.937L19.9926 43.987C19.604 44.377 19.7592 45.032 20.2841 45.2106C27.674 47.6849 31.4041 49.527 37.0381 49.527C48.517 49.527 57.8362 40.327 57.8362 28.9985C57.8362 24.0577 56.0621 19.5199 53.1084 15.9742L53.898 15.0956C55.1065 13.7413 54.8608 11.6327 53.4492 10.3642C52.7423 9.73202 51.844 9.40059 50.9675 9.39631C50.0881 9.38917 49.2384 9.71702 48.6265 10.4013L47.7362 11.3985C45.3575 9.98488 42.6721 9.03202 39.8025 8.65702V6.55845H40.55C41.7767 6.55845 42.7888 5.55845 42.7888 4.34917V2.67917C42.7888 1.47059 41.7767 0.469166 40.55 0.469166H33.5226V0.466309Z" fill="white"/>
<path fill-rule="evenodd" clip-rule="evenodd" d="M37.0381 15.5522C44.5716 15.5522 50.6623 21.5636 50.6623 28.9965C50.6623 36.4336 44.5716 42.4415 37.0381 42.4415C29.509 42.4415 23.4139 36.4336 23.4139 28.9965C23.4139 21.5636 29.509 15.5522 37.0381 15.5522ZM37.0381 14.0636C28.6927 14.0636 21.9117 20.76 21.9117 28.9965C21.9117 37.2322 28.6927 43.9257 37.0381 43.9257C45.3872 43.9257 52.1682 37.2322 52.1682 28.9965C52.1682 20.76 45.3872 14.0636 37.0381 14.0636Z" fill="white"/>
<path d="M36.8198 16.805C36.4037 16.8128 36.0752 17.1507 36.0825 17.5607V18.6321C36.0528 19.0592 36.3964 19.4242 36.8343 19.4242C37.2679 19.4242 37.6159 19.0592 37.5861 18.6321V17.5607C37.5934 17.1407 37.2461 16.8014 36.8198 16.805Z" fill="white"/>
<path d="M36.8198 38.61C36.4037 38.6171 36.0752 38.955 36.0825 39.365V40.4329C36.0528 40.8643 36.3964 41.225 36.8343 41.225C37.2679 41.225 37.6159 40.8636 37.5861 40.4329V39.365C37.5934 38.9443 37.2461 38.6021 36.8198 38.61Z" fill="white"/>
<path fill-rule="evenodd" clip-rule="evenodd" d="M37.0381 27.8844C37.6725 27.8844 38.1633 28.3723 38.1633 28.9965C38.1633 29.6215 37.6717 30.1087 37.0381 30.1087C36.4073 30.1087 35.9129 29.6215 35.9129 28.9965C35.9129 28.3723 36.4081 27.8844 37.0381 27.8844ZM42.1327 22.9923C41.9362 22.9958 41.747 23.0744 41.6114 23.2123L38.1372 26.6458C37.8015 26.4894 37.4303 26.3965 37.0381 26.3965C35.5917 26.3965 34.4027 27.5723 34.4027 28.9965C34.4027 30.4208 35.5917 31.5965 37.0381 31.5965C38.4881 31.5965 39.6742 30.4208 39.6742 28.9965C39.6742 28.4944 39.519 28.0287 39.266 27.6308L42.6793 24.2601C43.1672 23.7887 42.8163 22.9701 42.1327 22.9923Z" fill="white"/>
<path d="M49.2275 29.0043C49.2202 28.5943 48.8758 28.2665 48.4611 28.275H47.3736C46.9379 28.245 46.5725 28.5879 46.5725 29.0157C46.5725 29.4472 46.9386 29.785 47.3736 29.7557H48.4611C48.8874 29.7636 49.2347 29.4207 49.2275 29.0043Z" fill="white"/>
<path d="M27.0961 29.0043C27.0881 28.5943 26.7452 28.2665 26.3334 28.275H25.2459C24.8124 28.245 24.4419 28.5879 24.4419 29.0157C24.4419 29.4472 24.8124 29.785 25.2459 29.7557H26.3334C26.7554 29.7636 27.1034 29.4207 27.0961 29.0043Z" fill="white"/>
<path d="M45.6054 37.6385C45.8925 37.3449 45.8845 36.8756 45.5872 36.5935L44.8209 35.8342C44.5338 35.5106 44.0285 35.4949 43.7182 35.8006C43.413 36.1013 43.4282 36.5999 43.7559 36.8828L44.5222 37.6378C44.8209 37.9406 45.3125 37.9406 45.6054 37.6385Z" fill="white"/>
<path d="M29.9585 22.222C30.2456 21.9278 30.2376 21.4592 29.9389 21.1763L29.1726 20.417C28.8862 20.0928 28.3801 20.0785 28.0706 20.3835C27.7639 20.6842 27.7798 21.1835 28.1083 21.4663L28.8753 22.2213C29.1726 22.5235 29.6641 22.5235 29.9585 22.222Z" fill="white"/>
<path d="M45.5873 20.3729C45.2886 20.09 44.8137 20.0972 44.5222 20.3915L43.7559 21.1472C43.4282 21.43 43.4123 21.9279 43.7182 22.2329C44.0285 22.535 44.5338 22.5193 44.8209 22.1958L45.5873 21.4365C45.8925 21.1472 45.8925 20.6636 45.5873 20.3729Z" fill="white"/>
<path d="M29.9389 35.7898C29.6409 35.507 29.166 35.5148 28.8746 35.8077L28.1075 36.5634C27.7791 36.8463 27.7632 37.3448 28.0698 37.6498C28.3794 37.9505 28.8855 37.937 29.1718 37.6134L29.9382 36.8541C30.2456 36.5634 30.2456 36.0791 29.9389 35.7898Z" fill="white"/>
</g>
<defs>
<clipPath id="clip0_245_404">
<rect width="58" height="50" fill="white"/>
</clipPath>
</defs>
</svg>
