<svg width="39" height="50" viewBox="0 0 39 50" fill="none" xmlns="http://www.w3.org/2000/svg">
<g clip-path="url(#clip0_245_380)">
<path d="M36.3421 16.0715C36.2836 13.9481 35.7426 8.6742 32.0104 4.70054C29.082 1.58125 24.8727 0 19.5 0C14.1273 0 9.91797 1.58125 6.9896 4.70054C3.2573 8.67411 2.71635 13.9481 2.65785 16.0715C1.19216 16.0722 0 17.2734 0 18.75V25.8929C0 27.3699 1.19278 28.5714 2.65909 28.5714H6.71598C7.51858 31.1452 8.65277 33.2454 10.1084 34.8629C7.64347 40.9142 5.14277 44.8199 3.21484 45.6002C2.91445 45.7218 2.70412 45.9987 2.66521 46.3226C2.62709 46.6461 2.76652 46.9656 3.03048 47.1553C3.22353 47.2939 6.50759 49.6115 10.4477 49.6115C11.8277 49.6115 13.2879 49.3205 14.7237 48.5588C16.2054 49.5143 17.8507 50.0021 19.5001 50.0021C21.1496 50.0021 22.795 49.5141 24.2767 48.5588C25.7128 49.3205 27.1725 49.6115 28.5524 49.6115C32.4917 49.6115 35.7766 47.2939 35.9697 47.1553C36.2337 46.9656 36.3731 46.6461 36.335 46.3226C36.2961 45.9987 36.0856 45.7218 35.7853 45.6002C33.8573 44.8198 31.3568 40.9143 28.8918 34.863C29.3944 34.3046 29.8721 33.7088 30.2975 33.0356H32.7955C34.7509 33.0356 36.3409 31.4335 36.3409 29.4642V28.5713C37.8072 28.5713 39 27.3698 39 25.8928V18.7499C39 17.2734 37.8078 16.0722 36.3421 16.0715ZM8.27678 5.92741C10.858 3.17902 14.6337 1.78571 19.5 1.78571C24.3594 1.78571 28.1317 3.17554 30.712 5.91607C33.9842 9.39116 34.4945 14.1652 34.5634 16.0714H33.4148C32.1497 9.65884 26.3136 4.91071 19.5 4.91071C12.6843 4.91071 6.84689 9.66161 5.58489 16.0714H4.43448C4.49963 14.1708 5.00237 9.4142 8.27678 5.92741ZM23.402 14.4204C21.9833 12.1879 21.2086 10.3808 21.2008 10.3629C21.0087 9.91 20.4876 9.69857 20.0375 9.89384C19.5874 10.0879 19.3787 10.6123 19.5709 11.0653C19.6021 11.1382 20.2976 12.752 21.5878 14.8629C20.0086 16.9629 15.4987 21.6158 7.1596 20.9031C7.11183 20.0827 7.09091 19.3195 7.09091 18.6606C7.09091 18.1087 7.12636 17.5812 7.19736 17.0859C8.0067 11.1629 13.2955 6.69643 19.5 6.69643C25.7045 6.69643 30.9933 11.1629 31.8035 17.0925C31.8736 17.5812 31.9091 18.1087 31.9091 18.6606C31.9091 18.9388 31.9061 19.2344 31.899 19.5447C31.8913 19.8791 31.8778 20.2331 31.8594 20.599C31.8304 21.1746 31.7839 21.7877 31.7199 22.4225C28.0536 20.8348 25.2014 17.2647 23.402 14.4204ZM2.65909 26.7857C2.17 26.7857 1.77273 26.3851 1.77273 25.8929V18.75C1.77273 18.2578 2.17 17.8571 2.65909 17.8571H5.3407C5.32598 18.1196 5.31818 18.3881 5.31818 18.6606C5.31818 18.9371 5.32164 19.2319 5.32837 19.5387C5.3305 19.6359 5.33493 19.7398 5.33786 19.8396C5.34415 20.0554 5.35115 20.2722 5.36153 20.4999C5.36746 20.6304 5.37606 20.7654 5.38351 20.8994C5.39521 21.1095 5.40788 21.3202 5.42357 21.5382C5.4343 21.6872 5.44733 21.8384 5.46018 21.9909C5.47817 22.2043 5.49794 22.4189 5.52027 22.6382C5.53676 22.8005 5.55475 22.9632 5.5739 23.1285C5.59916 23.3469 5.62752 23.567 5.65766 23.7896C5.68062 23.9601 5.70393 24.1297 5.72999 24.3022C5.76438 24.5298 5.80347 24.7591 5.84344 24.9896C5.87287 25.1598 5.90097 25.3287 5.93358 25.5002C5.98127 25.7506 6.03614 26.0023 6.09109 26.2545C6.12442 26.4074 6.1542 26.5592 6.19036 26.7125C6.19612 26.7371 6.20047 26.7612 6.20623 26.7858L2.65909 26.7857ZM5.25153 46.4033C7.64648 44.4187 9.85778 40.0754 11.4883 36.1734C12.3077 36.8353 13.2057 37.3762 14.1818 37.7946V46.8151C10.8432 48.7632 7.11351 47.3671 5.25153 46.4033ZM23.0455 47.2364C20.8209 48.5356 18.1791 48.5356 15.9545 47.2364V38.4204C16.2648 38.4989 16.5864 38.5635 16.9133 38.6198C17.0297 38.6401 17.1491 38.6548 17.2672 38.6723C17.507 38.7074 17.7483 38.7373 17.9934 38.7608C18.1306 38.7739 18.2675 38.7871 18.4067 38.7966C18.735 38.8192 19.0648 38.8331 19.3959 38.8353C19.4312 38.8354 19.4646 38.8393 19.5 38.8393C19.5354 38.8393 19.5688 38.8354 19.604 38.8353C19.9352 38.8331 20.265 38.8193 20.5932 38.7966C20.7325 38.7871 20.8694 38.7739 21.0068 38.7607C21.2514 38.7373 21.4923 38.7074 21.7316 38.6724C21.8503 38.6549 21.9703 38.6401 22.0872 38.6197C22.4139 38.5633 22.7354 38.4988 23.0454 38.4203L23.0455 47.2364ZM33.7485 46.4033C31.8865 47.3684 28.1561 48.7634 24.8182 46.8151V37.7946C25.7943 37.3761 26.6923 36.8353 27.5117 36.1735C29.1422 40.0754 31.3535 44.4187 33.7485 46.4033ZM23.628 36.3756C22.4058 36.8255 21.0165 37.0536 19.5 37.0536C19.0695 37.0536 18.6524 37.0303 18.2433 36.9937C17.2112 36.9012 16.247 36.6978 15.3711 36.3753C11.9321 35.1149 9.52238 32.1071 8.20835 27.4305C7.75081 25.8378 7.4732 24.218 7.30869 22.7175C7.84494 22.7567 8.37153 22.7823 8.87924 22.7823C16.3366 22.7823 20.7028 18.7646 22.6062 16.4393C24.6368 19.4032 27.6398 22.7655 31.4812 24.2542C31.4411 24.5081 31.4032 24.761 31.3556 25.0179C31.2076 25.8166 31.0224 26.6271 30.7916 27.4305C30.7914 27.4312 30.7917 27.4317 30.7915 27.4323C30.7912 27.4333 30.791 27.4344 30.7907 27.4354C30.387 28.8715 29.8672 30.1308 29.2582 31.2501H21.9957C21.6287 30.213 20.654 29.4644 19.5 29.4644C18.0337 29.4644 16.8409 30.6659 16.8409 32.1429C16.8409 33.62 18.0337 34.8215 19.5 34.8215C20.654 34.8215 21.6287 34.0729 21.9957 33.0358H28.1121C26.8954 34.6028 25.4012 35.7257 23.628 36.3756ZM20.3864 32.1429C20.3864 32.6351 19.9891 33.0357 19.5 33.0357C19.0109 33.0357 18.6136 32.6351 18.6136 32.1429C18.6136 31.6506 19.0109 31.25 19.5 31.25C19.9891 31.25 20.3864 31.6506 20.3864 32.1429ZM34.5682 29.4643C34.5682 30.4491 33.7727 31.25 32.7955 31.25H31.2602C31.649 30.4252 31.9867 29.5269 32.2846 28.5714H34.5682V29.4643ZM37.2273 25.8929C37.2273 26.3851 36.83 26.7857 36.3409 26.7857H32.7937C32.7991 26.7631 32.803 26.7408 32.8083 26.7182C32.8455 26.5603 32.8764 26.4037 32.9107 26.246C32.9648 25.997 33.0191 25.7485 33.0662 25.5012C33.0986 25.3313 33.1263 25.1642 33.1556 24.9955C33.1961 24.7619 33.2358 24.5296 33.2706 24.2989C33.2962 24.1292 33.319 23.9626 33.3417 23.7949C33.3722 23.5696 33.4009 23.347 33.4265 23.126C33.4453 22.9626 33.4631 22.8016 33.4795 22.6409C33.5021 22.4196 33.522 22.2031 33.5401 21.9879C33.5528 21.8371 33.5656 21.6873 33.5763 21.5397C33.5921 21.3196 33.605 21.1071 33.6168 20.8951C33.6241 20.7633 33.6324 20.6304 33.6384 20.5021C33.6489 20.272 33.656 20.0525 33.6623 19.8346C33.6652 19.7364 33.6695 19.6342 33.6716 19.5387C33.6784 19.232 33.6818 18.9371 33.6818 18.6606C33.6818 18.3881 33.674 18.1196 33.6593 17.8571H36.3409C36.83 17.8571 37.2273 18.2578 37.2273 18.75V25.8929Z" fill="white"/>
</g>
<defs>
<clipPath id="clip0_245_380">
<rect width="39" height="50" fill="white"/>
</clipPath>
</defs>
</svg>
