<svg width="49" height="50" viewBox="0 0 49 50" fill="none" xmlns="http://www.w3.org/2000/svg">
<g clip-path="url(#clip0_245_402)">
<path fill-rule="evenodd" clip-rule="evenodd" d="M34.5919 1.81738C37.215 1.81738 39.3509 3.94782 39.3509 6.56792C39.3509 9.1864 37.215 11.3179 34.5919 11.3179C31.9676 11.3179 29.8329 9.18695 29.8329 6.56792C29.8329 3.94782 31.9676 1.81738 34.5919 1.81738ZM34.5919 12.8625C38.0698 12.8625 40.8993 10.0386 40.8993 6.56792C40.8993 3.09619 38.0698 0.271729 34.5919 0.271729C31.114 0.271729 28.285 3.09619 28.285 6.56792C28.285 10.0386 31.114 12.8625 34.5919 12.8625ZM35.5245 8.20434C35.3764 8.37445 35.0154 8.49999 34.6458 8.50869C34.2249 8.51847 33.6897 8.35706 33.5683 7.86629C33.4649 7.45216 33.0446 7.20053 32.6292 7.30325C32.2143 7.40651 31.9622 7.82662 32.0651 8.24021C32.278 9.09184 32.9417 9.71901 33.8171 9.95379V10.063C33.8171 10.4902 34.1634 10.8359 34.5913 10.8359C35.0193 10.8359 35.3655 10.4902 35.3655 10.063V9.96738C35.9094 9.83912 36.3825 9.57608 36.6951 9.21466C37.0424 8.81412 37.1916 8.31412 37.1246 7.76792C36.994 6.69184 36.186 6.02499 34.722 5.78586C33.7943 5.63314 33.779 5.33042 33.7741 5.23151C33.7551 4.82119 34.2048 4.68749 34.3431 4.65542C34.6621 4.58369 35.2653 4.61521 35.5071 5.18858C35.6726 5.58314 36.125 5.76738 36.5197 5.60216C36.9139 5.4364 37.0996 4.98369 36.9341 4.59075C36.6085 3.81792 36.0107 3.37662 35.365 3.18912V3.07282C35.365 2.64564 35.0187 2.29999 34.5908 2.29999C34.1634 2.29999 33.8166 2.64564 33.8166 3.07282V3.19619C32.8115 3.49782 32.1794 4.32445 32.2268 5.30597C32.2573 5.92173 32.5889 7.00162 34.471 7.31032C35.531 7.48314 35.5708 7.81303 35.5882 7.95271C35.604 8.0826 35.574 8.14619 35.5245 8.20434ZM14.4082 1.81738C17.0319 1.81738 19.1667 3.94782 19.1667 6.56792C19.1667 9.1864 17.0319 11.3179 14.4082 11.3179C11.784 11.3179 9.64978 9.18695 9.64978 6.56792C9.64978 3.94782 11.7845 1.81738 14.4082 1.81738ZM14.4082 12.8625C17.8856 12.8625 20.7151 10.0386 20.7151 6.56792C20.7151 3.09619 17.8856 0.271729 14.4082 0.271729C10.9303 0.271729 8.10138 3.09619 8.10138 6.56792C8.10138 10.0386 10.9309 12.8625 14.4082 12.8625ZM15.3414 8.20434C15.1933 8.37445 14.8318 8.49999 14.4621 8.50869C14.0407 8.51847 13.5066 8.35706 13.3847 7.86629C13.2812 7.45216 12.8609 7.20053 12.446 7.30325C12.0312 7.40651 11.7786 7.82662 11.8825 8.24021C12.0954 9.09184 12.7596 9.71901 13.6346 9.95379V10.063C13.6346 10.4902 13.9808 10.8359 14.4088 10.8359C14.8362 10.8359 15.183 10.4902 15.183 10.063V9.96738C15.7274 9.83912 16.2 9.57608 16.5131 9.21466C16.8604 8.81412 17.0085 8.31412 16.9426 7.76792C16.8114 6.69184 16.0034 6.02499 14.5394 5.78586C13.6112 5.63314 13.5965 5.33042 13.5916 5.23151C13.572 4.82119 14.0222 4.68749 14.1605 4.65542C14.479 4.58314 15.0822 4.61521 15.324 5.18858C15.4895 5.58314 15.943 5.76738 16.3372 5.60216C16.7314 5.4364 16.9165 4.98369 16.7515 4.59075C16.4265 3.81792 15.8281 3.37662 15.183 3.18912V3.07282C15.183 2.64564 14.8362 2.29999 14.4088 2.29999C13.9814 2.29999 13.6346 2.64564 13.6346 3.07282V3.19619C12.6295 3.49782 11.9974 4.32445 12.0448 5.30597C12.0747 5.92173 12.4063 7.00162 14.2879 7.31032C15.3479 7.48314 15.3882 7.81303 15.4051 7.95271C15.4209 8.0826 15.3915 8.14619 15.3414 8.20434ZM24.5 27.1647C20.6557 27.1647 17.5279 24.0429 17.5279 20.2049C17.5279 16.3674 20.6557 13.2451 24.5 13.2451C28.3444 13.2451 31.4722 16.3668 31.4722 20.2049C31.4722 24.0429 28.3449 27.1647 24.5 27.1647ZM33.0206 20.2049C33.0206 24.8946 29.1981 28.7098 24.5006 28.7098C19.802 28.7098 15.98 24.8946 15.98 20.2049C15.98 15.5152 19.802 11.7 24.5006 11.7C29.1981 11.7 33.0206 15.5152 33.0206 20.2049ZM27.74 21.9212C27.5756 20.569 26.5297 19.7261 24.6329 19.4147C23.0861 19.1609 23.0578 18.5706 23.0469 18.3484C23.0061 17.5136 23.9033 17.2679 24.0841 17.2266C24.8077 17.0625 25.7011 17.2869 26.067 18.1549C26.2325 18.5478 26.686 18.7331 27.0802 18.5685C27.4743 18.4033 27.6595 17.95 27.4939 17.5571C27.0431 16.4859 26.1797 15.9141 25.2737 15.7163V15.3125C25.2737 14.8853 24.9274 14.5397 24.5 14.5397C24.0727 14.5397 23.7253 14.8853 23.7253 15.3125V15.7228C22.331 16.0456 21.4365 17.1283 21.5002 18.4234C21.5459 19.3636 22.0827 20.563 24.3814 20.9397C25.8998 21.188 26.1524 21.694 26.2025 22.1081C26.2319 22.3484 26.1802 22.5369 26.0403 22.6984C25.7762 23.0022 25.1899 23.2168 24.5817 23.2315C23.8778 23.2478 22.9816 22.9619 22.7654 22.0984C22.6625 21.6842 22.2422 21.4331 21.8268 21.5353C21.412 21.6391 21.1599 22.0581 21.2633 22.4728C21.5508 23.6244 22.4954 24.4522 23.7248 24.7011V25.0984C23.7248 25.5255 24.0716 25.8712 24.4995 25.8712C24.9269 25.8712 25.2732 25.5255 25.2732 25.0984V24.7136C26.0724 24.5739 26.7704 24.2179 27.2108 23.7087C27.6393 23.2147 27.8217 22.5978 27.74 21.9212ZM20.8795 46.1168C21.0417 46.5234 20.8419 46.9848 20.4341 47.1462C20.0264 47.3087 19.5636 47.1098 19.4019 46.7027C19.2396 46.2951 19.4389 45.8331 19.8467 45.6723C20.255 45.5098 20.7167 45.7087 20.8795 46.1168ZM21.3994 48.069C21.6129 48.0674 21.7925 47.8853 21.7903 47.6723L21.7686 45.119C21.7669 44.906 21.5862 44.7283 21.3744 44.7283C21.3733 44.7283 21.3722 44.7283 21.3706 44.7283L8.08233 44.8424C7.8689 44.8446 7.69033 45.0261 7.69196 45.2397L7.71374 47.7929C7.71537 48.006 7.89722 48.181 8.11118 48.1826L21.3994 48.069ZM11.184 41.5109C11.184 41.3049 11.1024 41.1092 10.957 40.9641L3.31136 33.331C2.35205 32.3739 1.88437 31.2206 1.92194 29.9016L2.40105 13.0283C2.42174 12.3011 3.29503 11.5739 4.14 11.5739C4.14763 11.5739 4.15525 11.5739 4.16342 11.5739C5.40638 11.5929 6.14247 13.1549 6.13321 15.7505L6.09783 24.9168C6.09293 26.3408 6.55353 27.6011 7.50576 28.7728C7.67835 28.9842 7.84985 29.188 8.02135 29.3859C8.05347 29.4315 8.08614 29.4772 8.12044 29.5223C8.16672 29.5831 8.21953 29.6353 8.27778 29.6777C9.11568 30.6185 9.94759 31.425 10.816 32.2674C11.2053 32.6451 11.6081 33.0353 12.0203 33.4467C12.3225 33.7478 12.8119 33.7478 13.1146 33.4467C13.4168 33.1451 13.4168 32.6554 13.1146 32.3543C12.6949 31.9342 12.2882 31.5402 11.8945 31.1598C10.9842 30.2761 10.1147 29.4331 9.24907 28.4408C8.90172 27.9152 8.69156 27.2005 9.36014 26.5331C9.91057 25.9837 10.7926 25.9848 11.4296 26.5288C12.9992 28.3717 14.8645 29.9408 16.366 31.2043C16.8887 31.644 17.3406 32.0234 17.7163 32.3614C18.8694 33.3984 19.0257 34.9397 19.024 36.4489L19.0137 43.2033L11.184 43.2701V41.5109ZM21.3744 43.1826C21.3689 43.1826 21.363 43.1826 21.3575 43.1826L20.5621 43.1891L20.5719 36.4505C20.5746 34.6728 20.3612 32.6598 18.7529 31.2136C18.3582 30.8581 17.8752 30.4516 17.364 30.0217C15.8951 28.7864 14.0674 27.2484 12.5751 25.4875C12.5522 25.4609 12.5283 25.4353 12.5021 25.4125C11.2608 24.2956 9.39988 24.3076 8.26526 25.4402C8.07416 25.6315 7.91355 25.8342 7.78343 26.0467C7.68924 25.6886 7.64459 25.3158 7.64568 24.9228L7.68107 15.7571C7.70067 10.4946 5.01275 10.0424 4.18846 10.0288C2.48816 10.0038 0.897837 11.4114 0.853193 12.9853L0.374082 29.8587C0.324537 31.5935 0.962082 33.1728 2.21648 34.425L9.63563 41.8304V43.2837L8.06926 43.2967C6.99834 43.3054 6.13485 44.1837 6.1441 45.2522L6.16588 47.806C6.17514 48.8696 7.04462 49.7283 8.10791 49.7283C8.11336 49.7283 8.1188 49.7283 8.12479 49.7283L21.413 49.6141C22.484 49.6043 23.3475 48.7277 23.3382 47.6592L23.3164 45.1054C23.3077 44.0418 22.4382 43.1826 21.3744 43.1826ZM28.1211 46.1168C28.2839 45.7092 28.7456 45.5098 29.1534 45.6728C29.5612 45.8337 29.7599 46.2956 29.5988 46.7033C29.436 47.1103 28.9737 47.3092 28.5665 47.1467C28.1582 46.9848 27.9584 46.5234 28.1211 46.1168ZM29.9864 43.2033L29.9761 36.4489C29.9744 34.9397 30.1307 33.3984 31.2833 32.3614C31.6589 32.0234 32.1108 31.644 32.6335 31.2043C34.1351 29.9408 36.0009 28.3717 37.5705 26.5288C38.207 25.9842 39.0895 25.9837 39.64 26.5331C40.3085 27.2005 40.0978 27.9152 39.7505 28.4408C38.8848 29.4337 38.0164 30.2761 37.1045 31.1598C36.7114 31.5402 36.3052 31.9342 35.8855 32.3543C35.5822 32.6554 35.5822 33.1456 35.8855 33.4467C36.1871 33.7478 36.6776 33.7478 36.9798 33.4467C37.3919 33.0348 37.7943 32.6451 38.1841 32.2674C39.0525 31.425 39.8839 30.6185 40.7223 29.6777C40.7817 29.6353 40.8345 29.5831 40.8802 29.5223C40.914 29.4772 40.9477 29.4315 40.9787 29.3859C41.1497 29.188 41.3223 28.9837 41.4943 28.7728C42.4477 27.6011 42.9083 26.3408 42.9017 24.9168L42.8674 15.7511C42.8576 13.1554 43.5943 11.5935 44.8367 11.5744C45.6855 11.5625 46.5784 12.2951 46.6001 13.0288L47.0792 29.9022C47.1157 31.2206 46.6486 32.3739 45.6898 33.3315L38.0436 40.9641C37.8977 41.1092 37.8161 41.3049 37.8161 41.5109V43.2696L29.9864 43.2033ZM41.3087 45.2397C41.3103 45.0261 41.1317 44.8446 40.9178 44.8424L27.6295 44.7283C27.6284 44.7283 27.6268 44.7283 27.6257 44.7283C27.4134 44.7283 27.2332 44.906 27.2321 45.119L27.2097 47.6723C27.2081 47.8853 27.3872 48.0674 27.6012 48.069L40.8889 48.1831C40.89 48.1831 40.8916 48.1831 40.8927 48.1831C41.1045 48.1831 41.2847 48.0054 41.2864 47.7935L41.3087 45.2397ZM46.7836 34.425C48.0386 33.1734 48.675 31.5935 48.626 29.8587L48.1474 12.9848C48.1028 11.4109 46.5147 10.006 44.8127 10.0283C43.9884 10.0418 41.2994 10.494 41.3196 15.7565L41.355 24.9223C41.3566 25.3152 41.3109 25.688 41.2172 26.0462C41.0876 25.8337 40.927 25.631 40.7354 25.4397C39.6013 24.3071 37.7393 24.2951 36.498 25.4119C36.4729 25.4353 36.4484 25.4603 36.425 25.4869C34.9332 27.2489 33.105 28.7859 31.6361 30.0212C31.1248 30.4522 30.6425 30.8576 30.2477 31.213C28.6389 32.6592 28.4255 34.6723 28.4282 36.45L28.4391 43.1886L27.6426 43.1821C27.6377 43.1821 27.6322 43.1821 27.6262 43.1821C26.5629 43.1821 25.6935 44.0408 25.6842 45.1043L25.6624 47.6581C25.6532 48.7266 26.5172 49.6038 27.5881 49.613L40.8769 49.7272C40.8818 49.7272 40.8873 49.7272 40.8933 49.7272C41.9566 49.7272 42.8266 48.8685 42.8353 47.8049L42.8576 45.2511C42.8663 44.1831 42.0023 43.3043 40.9319 43.2956L39.3656 43.2826V41.8293L46.7836 34.425Z" fill="white"/>
</g>
<defs>
<clipPath id="clip0_245_402">
<rect width="49" height="50" fill="white"/>
</clipPath>
</defs>
</svg>
