<svg width="12" height="12" viewBox="0 0 12 12" fill="none" xmlns="http://www.w3.org/2000/svg">
<path d="M4.5 0.20867C4.57321 0.29763 4.61806 0.406499 4.62876 0.521212C4.63945 0.635925 4.6155 0.75121 4.56 0.85217C4.12639 1.64828 3.89995 2.54064 3.9015 3.44717C3.9015 6.46292 6.36 8.90492 9.39 8.90492C9.78525 8.90492 10.17 8.86367 10.5398 8.78492C10.6531 8.76038 10.7712 8.76976 10.8792 8.81191C10.9872 8.85406 11.0805 8.9271 11.1473 9.02192C11.2177 9.12051 11.2537 9.23962 11.2495 9.36075C11.2453 9.48187 11.2012 9.59821 11.124 9.69167C10.5358 10.4142 9.79369 10.9964 8.95188 11.3958C8.11007 11.7952 7.18974 12.0016 6.258 12.0002C2.8005 12.0002 0 9.21467 0 5.78267C0 3.19967 1.5855 0.98417 3.843 0.0451705C3.95545 -0.00235564 4.08029 -0.0121102 4.19876 0.0173722C4.31723 0.0468546 4.42294 0.113982 4.5 0.20867Z" fill="#FFD600"/>
<path d="M8.09548 2.361C8.10623 2.32852 8.12695 2.30026 8.15469 2.28023C8.18242 2.26019 8.21577 2.24941 8.24998 2.24941C8.28419 2.24941 8.31754 2.26019 8.34527 2.28023C8.37301 2.30026 8.39373 2.32852 8.40448 2.361L8.69473 3.2325C8.82448 3.621 9.12898 3.9255 9.51748 4.05525L10.389 4.3455C10.4215 4.35626 10.4497 4.37697 10.4698 4.40471C10.4898 4.43245 10.5006 4.46579 10.5006 4.5C10.5006 4.53422 10.4898 4.56756 10.4698 4.59529C10.4497 4.62303 10.4215 4.64375 10.389 4.6545L9.51748 4.94475C9.32587 5.00859 9.15177 5.11618 9.00896 5.25898C8.86615 5.40179 8.75857 5.5759 8.69473 5.7675L8.40448 6.639C8.39373 6.67148 8.37301 6.69975 8.34527 6.71978C8.31754 6.73981 8.28419 6.75059 8.24998 6.75059C8.21577 6.75059 8.18242 6.73981 8.15469 6.71978C8.12695 6.69975 8.10623 6.67148 8.09548 6.639L7.80523 5.7675C7.74139 5.5759 7.63381 5.40179 7.491 5.25898C7.34819 5.11618 7.17409 5.00859 6.98248 4.94475L6.11098 4.6545C6.0785 4.64375 6.05024 4.62303 6.0302 4.59529C6.01017 4.56756 5.99939 4.53422 5.99939 4.5C5.99939 4.46579 6.01017 4.43245 6.0302 4.40471C6.05024 4.37697 6.0785 4.35626 6.11098 4.3455L6.98248 4.05525C7.17409 3.99142 7.34819 3.88383 7.491 3.74102C7.63381 3.59821 7.74139 3.42411 7.80523 3.2325L8.09548 2.361ZM10.3972 0.0742523C10.4046 0.052897 10.4185 0.0343793 10.4369 0.0212735C10.4553 0.00816777 10.4774 0.00112534 10.5 0.00112534C10.5226 0.00112534 10.5446 0.00816777 10.563 0.0212735C10.5815 0.0343793 10.5953 0.052897 10.6027 0.0742523L10.7962 0.654752C10.8825 0.914252 11.0857 1.1175 11.3452 1.20375L11.9257 1.39725C11.9471 1.40466 11.9656 1.41853 11.9787 1.43694C11.9918 1.45536 11.9989 1.4774 11.9989 1.5C11.9989 1.5226 11.9918 1.54465 11.9787 1.56306C11.9656 1.58147 11.9471 1.59535 11.9257 1.60275L11.3452 1.79625C11.2173 1.83879 11.1011 1.91056 11.0058 2.00586C10.9105 2.10116 10.8388 2.21737 10.7962 2.34525L10.6027 2.92575C10.5953 2.94711 10.5815 2.96563 10.563 2.97873C10.5446 2.99184 10.5226 2.99888 10.5 2.99888C10.4774 2.99888 10.4553 2.99184 10.4369 2.97873C10.4185 2.96563 10.4046 2.94711 10.3972 2.92575L10.2037 2.34525C10.1612 2.21737 10.0894 2.10116 9.99412 2.00586C9.89882 1.91056 9.78261 1.83879 9.65473 1.79625L9.07423 1.60275C9.05287 1.59535 9.03436 1.58147 9.02125 1.56306C9.00815 1.54465 9.0011 1.5226 9.0011 1.5C9.0011 1.4774 9.00815 1.45536 9.02125 1.43694C9.03436 1.41853 9.05287 1.40466 9.07423 1.39725L9.65473 1.20375C9.91423 1.1175 10.1175 0.914252 10.2037 0.654752L10.3972 0.0750023V0.0742523Z" fill="#FFD600"/>
</svg>
