<svg width="14" height="14" viewBox="0 0 14 14" fill="none" xmlns="http://www.w3.org/2000/svg">
<g clip-path="url(#clip0_280_22)">
<path d="M13.7184 6.74325L11.1059 5.98309C10.9969 5.55244 10.8267 5.13967 10.6004 4.75744C11.035 3.96097 11.4703 3.1645 11.9056 2.36825C12.0246 2.15038 11.7873 1.91194 11.569 2.03181L9.18941 3.33862C8.80354 3.10606 8.38535 2.93194 7.94845 2.82194C7.68966 1.94038 7.4311 1.05881 7.17232 0.175063C7.10385 -0.0592186 6.76698 -0.0600936 6.69807 0.175063C6.44148 1.05881 6.18423 1.94038 5.9272 2.82413C5.49844 2.9337 5.08766 3.10432 4.70745 3.33075C3.90551 2.89325 3.10335 2.45356 2.30141 2.01606C2.08398 1.89728 1.84532 2.13484 1.9652 2.35316L3.28426 4.75459C3.05595 5.13859 2.8847 5.55375 2.77588 5.98703L0.176039 6.74916C-0.0580231 6.81784 -0.0593356 7.15516 0.176039 7.22341L2.77676 7.98006C2.88867 8.42113 3.06475 8.84338 3.29935 9.23328C2.86666 10.0247 2.43398 10.8159 2.00173 11.6076C1.88229 11.8255 2.11963 12.0641 2.33795 11.9445C3.12829 11.5103 3.91885 11.076 4.70941 10.6423C5.09344 10.8712 5.50876 11.0431 5.94229 11.1524C6.19582 12.0195 6.45023 12.8857 6.7042 13.7518C6.7731 13.9867 7.1102 13.9872 7.17845 13.7518C7.43023 12.8866 7.68266 12.0212 7.93401 11.1559C8.37236 11.0462 8.79223 10.8728 9.18023 10.6412L11.537 11.9292C11.5593 11.9477 11.5852 11.9614 11.613 11.9693C11.6408 11.9773 11.67 11.9793 11.6987 11.9753C11.7582 11.9718 11.8111 11.9445 11.8523 11.9042C11.8978 11.8622 11.9288 11.8056 11.9325 11.7413C11.9363 11.7123 11.934 11.683 11.9258 11.655C11.9176 11.627 11.9036 11.601 11.8849 11.5787C11.4548 10.7949 11.0236 10.0105 10.5934 9.22628C10.823 8.83908 10.9952 8.42063 11.1048 7.984C11.9754 7.7285 12.8474 7.473 13.7182 7.21794C13.9529 7.14925 13.9536 6.81172 13.7184 6.74325Z" fill="#FBB041"/>
<path d="M6.90217 10.8795C9.06483 10.8795 10.818 9.12636 10.818 6.9637C10.818 4.80103 9.06483 3.04785 6.90217 3.04785C4.73951 3.04785 2.98633 4.80103 2.98633 6.9637C2.98633 9.12636 4.73951 10.8795 6.90217 10.8795Z" fill="#F9EC21"/>
</g>
<defs>
<clipPath id="clip0_280_22">
<rect width="14" height="14" fill="white"/>
</clipPath>
</defs>
</svg>
