<svg width="118" height="36" viewBox="0 0 118 36" fill="none" xmlns="http://www.w3.org/2000/svg">
<path d="M50.5234 29.6016H49.3047C49.2578 29.3411 49.1706 29.112 49.043 28.9141C48.9154 28.7161 48.7591 28.5482 48.5742 28.4102C48.3893 28.2721 48.1823 28.168 47.9531 28.0977C47.7266 28.0273 47.4857 27.9922 47.2305 27.9922C46.7695 27.9922 46.3568 28.1081 45.9922 28.3398C45.6302 28.5716 45.3438 28.9115 45.1328 29.3594C44.9245 29.8073 44.8203 30.3542 44.8203 31C44.8203 31.651 44.9245 32.2005 45.1328 32.6484C45.3438 33.0964 45.6315 33.4349 45.9961 33.6641C46.3607 33.8932 46.7708 34.0078 47.2266 34.0078C47.4792 34.0078 47.7188 33.974 47.9453 33.9062C48.1745 33.8359 48.3815 33.7331 48.5664 33.5977C48.7513 33.4622 48.9076 33.2969 49.0352 33.1016C49.1654 32.9036 49.2552 32.6771 49.3047 32.4219L50.5234 32.4258C50.4583 32.819 50.332 33.181 50.1445 33.5117C49.9596 33.8398 49.7214 34.1237 49.4297 34.3633C49.1406 34.6003 48.8099 34.7839 48.4375 34.9141C48.0651 35.0443 47.6589 35.1094 47.2188 35.1094C46.526 35.1094 45.9089 34.9453 45.3672 34.6172C44.8255 34.2865 44.3984 33.8138 44.0859 33.1992C43.776 32.5846 43.6211 31.8516 43.6211 31C43.6211 30.1458 43.7773 29.4128 44.0898 28.8008C44.4023 28.1862 44.8294 27.7148 45.3711 27.3867C45.9128 27.056 46.5286 26.8906 47.2188 26.8906C47.6432 26.8906 48.0391 26.9518 48.4063 27.0742C48.776 27.194 49.1081 27.3711 49.4023 27.6055C49.6966 27.8372 49.9401 28.1211 50.1328 28.457C50.3255 28.7904 50.4557 29.1719 50.5234 29.6016ZM57.4298 35H56.1486L59.0275 27H60.422L63.3009 35H62.0197L59.758 28.4531H59.6955L57.4298 35ZM57.6447 31.8672H61.8009V32.8828H57.6447V31.8672ZM69.2962 35V27H72.1478C72.7702 27 73.2858 27.1133 73.6946 27.3398C74.1035 27.5664 74.4095 27.8763 74.6126 28.2695C74.8157 28.6602 74.9173 29.1003 74.9173 29.5898C74.9173 30.082 74.8144 30.5247 74.6087 30.918C74.4056 31.3086 74.0983 31.6185 73.6868 31.8477C73.278 32.0742 72.7637 32.1875 72.1439 32.1875H70.1829V31.1641H72.0345C72.4277 31.1641 72.7467 31.0964 72.9915 30.9609C73.2363 30.8229 73.416 30.6354 73.5306 30.3984C73.6452 30.1615 73.7025 29.8919 73.7025 29.5898C73.7025 29.2878 73.6452 29.0195 73.5306 28.7852C73.416 28.5508 73.235 28.3672 72.9876 28.2344C72.7428 28.1016 72.4199 28.0352 72.0189 28.0352H70.5032V35H69.2962ZM82.3794 27V35H81.1723V27H82.3794ZM88.5827 28.0391V27H94.7741V28.0391H92.278V35H91.0748V28.0391H88.5827ZM100.713 35H99.4314L102.31 27H103.705L106.584 35H105.303L103.041 28.4531H102.978L100.713 35ZM100.928 31.8672H105.084V32.8828H100.928V31.8672ZM112.579 35V27H113.786V33.9609H117.411V35H112.579Z" fill="#121212"/>
<path d="M55.072 4.816L48.088 15.832H55.216V19H43.864V16.36L50.848 5.368H44.032V2.2H55.072V4.816ZM65.911 8.416V7H69.007V19H65.911V17.584C64.983 18.752 63.679 19.336 61.999 19.336C60.399 19.336 59.023 18.728 57.871 17.512C56.735 16.28 56.167 14.776 56.167 13C56.167 11.24 56.735 9.744 57.871 8.512C59.023 7.28 60.399 6.664 61.999 6.664C63.679 6.664 64.983 7.248 65.911 8.416ZM60.199 15.448C60.823 16.072 61.615 16.384 62.575 16.384C63.535 16.384 64.327 16.072 64.951 15.448C65.591 14.808 65.911 13.992 65.911 13C65.911 12.008 65.591 11.2 64.951 10.576C64.327 9.936 63.535 9.616 62.575 9.616C61.615 9.616 60.823 9.936 60.199 10.576C59.575 11.2 59.263 12.008 59.263 13C59.263 13.992 59.575 14.808 60.199 15.448ZM78.6784 7V9.976H75.9664V14.968C75.9664 15.384 76.0704 15.688 76.2784 15.88C76.4864 16.072 76.7904 16.184 77.1904 16.216C77.5904 16.232 78.0864 16.224 78.6784 16.192V19C76.5824 19.24 75.0864 19.048 74.1904 18.424C73.3104 17.784 72.8704 16.632 72.8704 14.968V9.976H70.7824V7H72.8704V4.576L75.9664 3.64V7H78.6784ZM89.6063 8.416V7H92.7023V19H89.6063V17.584C88.6783 18.752 87.3743 19.336 85.6943 19.336C84.0943 19.336 82.7183 18.728 81.5663 17.512C80.4303 16.28 79.8623 14.776 79.8623 13C79.8623 11.24 80.4303 9.744 81.5663 8.512C82.7183 7.28 84.0943 6.664 85.6943 6.664C87.3743 6.664 88.6783 7.248 89.6063 8.416ZM83.8943 15.448C84.5183 16.072 85.3103 16.384 86.2703 16.384C87.2303 16.384 88.0223 16.072 88.6463 15.448C89.2863 14.808 89.6063 13.992 89.6063 13C89.6063 12.008 89.2863 11.2 88.6463 10.576C88.0223 9.936 87.2303 9.616 86.2703 9.616C85.3103 9.616 84.5183 9.936 83.8943 10.576C83.2703 11.2 82.9583 12.008 82.9583 13C82.9583 13.992 83.2703 14.808 83.8943 15.448ZM98.6058 7V9.064C98.8778 8.312 99.3418 7.744 99.9978 7.36C100.654 6.96 101.406 6.76 102.254 6.76V10.216C101.31 10.088 100.462 10.28 99.7098 10.792C98.9738 11.288 98.6058 12.112 98.6058 13.264V19H95.5098V7H98.6058ZM112.739 8.416V7H115.835V19H112.739V17.584C111.811 18.752 110.507 19.336 108.827 19.336C107.227 19.336 105.851 18.728 104.699 17.512C103.563 16.28 102.995 14.776 102.995 13C102.995 11.24 103.563 9.744 104.699 8.512C105.851 7.28 107.227 6.664 108.827 6.664C110.507 6.664 111.811 7.248 112.739 8.416ZM107.027 15.448C107.651 16.072 108.443 16.384 109.403 16.384C110.363 16.384 111.155 16.072 111.779 15.448C112.419 14.808 112.739 13.992 112.739 13C112.739 12.008 112.419 11.2 111.779 10.576C111.155 9.936 110.363 9.616 109.403 9.616C108.443 9.616 107.651 9.936 107.027 10.576C106.403 11.2 106.091 12.008 106.091 13C106.091 13.992 106.403 14.808 107.027 15.448Z" fill="#121212"/>
<g clip-path="url(#clip0_275_2069)">
<path d="M16.0967 2.40313L11 7.49979C10.56 7.93979 10.3033 8.52646 10.3033 9.14979C10.3033 9.77313 10.56 10.3598 11 10.7998L16.0967 15.9331C16.2067 16.0431 16.3533 16.0798 16.5 16.0798C16.6467 16.0798 16.7933 16.0065 16.9033 15.9331L22 10.8365C22.9167 9.91979 22.9167 8.41646 22 7.49979L16.9033 2.40313C16.6833 2.21979 16.3167 2.21979 16.0967 2.40313Z" fill="#6147FF"/>
<path d="M14.1167 18.5C14.1167 18.3533 14.0433 18.2067 13.97 18.0967L8.83667 13C7.92 12.0833 6.41667 12.0833 5.5 13L0.403335 18.0967C0.293335 18.2067 0.256668 18.3533 0.256668 18.5C0.256668 18.6467 0.330001 18.7933 0.403335 18.9033L5.5 24C5.94 24.44 6.52667 24.6967 7.15 24.6967C7.77333 24.6967 8.36 24.44 8.8 24L13.9333 18.9033C14.0433 18.7933 14.1167 18.6467 14.1167 18.5Z" fill="#6147FF"/>
<path d="M27.5 13C26.5833 12.0833 25.08 12.0833 24.1633 13L19.0667 18.0967C18.9567 18.2067 18.92 18.3533 18.92 18.5C18.92 18.6467 18.9933 18.7933 19.0667 18.9033L24.1633 24C24.6033 24.44 25.19 24.6967 25.8133 24.6967C26.4367 24.6967 27.0233 24.44 27.4633 24L32.56 18.9033C32.78 18.6833 32.78 18.3533 32.56 18.1333L27.5 13Z" fill="#6147FF"/>
<path d="M16.9033 21.0664C16.6833 20.8464 16.3533 20.8464 16.1333 21.0664L11 26.163C10.0833 27.0797 10.0833 28.583 11 29.4997L16.0967 34.5964C16.2067 34.7064 16.3533 34.743 16.5 34.743C16.6467 34.743 16.7933 34.7064 16.9033 34.5964L22 29.4997C22.9167 28.583 22.9167 27.0797 22 26.163L16.9033 21.0664Z" fill="#6147FF"/>
</g>
<defs>
<clipPath id="clip0_275_2069">
<rect width="33" height="33" fill="white" transform="translate(0 2)"/>
</clipPath>
</defs>
</svg>
