<svg width="75" height="79" viewBox="0 0 75 79" fill="none" xmlns="http://www.w3.org/2000/svg">
<path d="M7.52344 72.6016H6.30469C6.25781 72.3411 6.17057 72.112 6.04297 71.9141C5.91536 71.7161 5.75911 71.5482 5.57422 71.4102C5.38932 71.2721 5.18229 71.168 4.95313 71.0977C4.72656 71.0273 4.48568 70.9922 4.23047 70.9922C3.76953 70.9922 3.35677 71.1081 2.99219 71.3398C2.63021 71.5716 2.34375 71.9115 2.13281 72.3594C1.92448 72.8073 1.82031 73.3542 1.82031 74C1.82031 74.651 1.92448 75.2005 2.13281 75.6484C2.34375 76.0964 2.63151 76.4349 2.99609 76.6641C3.36068 76.8932 3.77083 77.0078 4.22656 77.0078C4.47917 77.0078 4.71875 76.974 4.94531 76.9062C5.17448 76.8359 5.38151 76.7331 5.56641 76.5977C5.7513 76.4622 5.90755 76.2969 6.03516 76.1016C6.16536 75.9036 6.25521 75.6771 6.30469 75.4219L7.52344 75.4258C7.45833 75.819 7.33203 76.181 7.14453 76.5117C6.95964 76.8398 6.72135 77.1237 6.42969 77.3633C6.14063 77.6003 5.8099 77.7839 5.4375 77.9141C5.0651 78.0443 4.65885 78.1094 4.21875 78.1094C3.52604 78.1094 2.90885 77.9453 2.36719 77.6172C1.82552 77.2865 1.39844 76.8138 1.08594 76.1992C0.776042 75.5846 0.621094 74.8516 0.621094 74C0.621094 73.1458 0.777344 72.4128 1.08984 71.8008C1.40234 71.1862 1.82943 70.7148 2.37109 70.3867C2.91276 70.056 3.52865 69.8906 4.21875 69.8906C4.64323 69.8906 5.03906 69.9518 5.40625 70.0742C5.77604 70.194 6.10807 70.3711 6.40234 70.6055C6.69661 70.8372 6.9401 71.1211 7.13281 71.457C7.32552 71.7904 7.45573 72.1719 7.52344 72.6016ZM14.4298 78H13.1486L16.0275 70H17.422L20.3009 78H19.0197L16.758 71.4531H16.6955L14.4298 78ZM14.6447 74.8672H18.8009V75.8828H14.6447V74.8672ZM26.2962 78V70H29.1478C29.7702 70 30.2858 70.1133 30.6946 70.3398C31.1035 70.5664 31.4095 70.8763 31.6126 71.2695C31.8157 71.6602 31.9173 72.1003 31.9173 72.5898C31.9173 73.082 31.8144 73.5247 31.6087 73.918C31.4056 74.3086 31.0983 74.6185 30.6868 74.8477C30.278 75.0742 29.7637 75.1875 29.1439 75.1875H27.1829V74.1641H29.0345C29.4277 74.1641 29.7467 74.0964 29.9915 73.9609C30.2363 73.8229 30.416 73.6354 30.5306 73.3984C30.6452 73.1615 30.7025 72.8919 30.7025 72.5898C30.7025 72.2878 30.6452 72.0195 30.5306 71.7852C30.416 71.5508 30.235 71.3672 29.9876 71.2344C29.7428 71.1016 29.4199 71.0352 29.0189 71.0352H27.5032V78H26.2962ZM39.3794 70V78H38.1723V70H39.3794ZM45.5827 71.0391V70H51.7741V71.0391H49.278V78H48.0748V71.0391H45.5827ZM57.7127 78H56.4314L59.3104 70H60.7049L63.5838 78H62.3025L60.0408 71.4531H59.9783L57.7127 78ZM57.9275 74.8672H62.0838V75.8828H57.9275V74.8672ZM69.5791 78V70H70.7861V76.9609H74.4111V78H69.5791Z" fill="#121212"/>
<path d="M12.072 47.816L5.088 58.832H12.216V62H0.864V59.36L7.848 48.368H1.032V45.2H12.072V47.816ZM22.911 51.416V50H26.007V62H22.911V60.584C21.983 61.752 20.679 62.336 18.999 62.336C17.399 62.336 16.023 61.728 14.871 60.512C13.735 59.28 13.167 57.776 13.167 56C13.167 54.24 13.735 52.744 14.871 51.512C16.023 50.28 17.399 49.664 18.999 49.664C20.679 49.664 21.983 50.248 22.911 51.416ZM17.199 58.448C17.823 59.072 18.615 59.384 19.575 59.384C20.535 59.384 21.327 59.072 21.951 58.448C22.591 57.808 22.911 56.992 22.911 56C22.911 55.008 22.591 54.2 21.951 53.576C21.327 52.936 20.535 52.616 19.575 52.616C18.615 52.616 17.823 52.936 17.199 53.576C16.575 54.2 16.263 55.008 16.263 56C16.263 56.992 16.575 57.808 17.199 58.448ZM35.6784 50V52.976H32.9664V57.968C32.9664 58.384 33.0704 58.688 33.2784 58.88C33.4864 59.072 33.7904 59.184 34.1904 59.216C34.5904 59.232 35.0864 59.224 35.6784 59.192V62C33.5824 62.24 32.0864 62.048 31.1904 61.424C30.3104 60.784 29.8704 59.632 29.8704 57.968V52.976H27.7824V50H29.8704V47.576L32.9664 46.64V50H35.6784ZM46.6063 51.416V50H49.7023V62H46.6063V60.584C45.6783 61.752 44.3743 62.336 42.6943 62.336C41.0943 62.336 39.7183 61.728 38.5663 60.512C37.4303 59.28 36.8623 57.776 36.8623 56C36.8623 54.24 37.4303 52.744 38.5663 51.512C39.7183 50.28 41.0943 49.664 42.6943 49.664C44.3743 49.664 45.6783 50.248 46.6063 51.416ZM40.8943 58.448C41.5183 59.072 42.3103 59.384 43.2703 59.384C44.2303 59.384 45.0223 59.072 45.6463 58.448C46.2863 57.808 46.6063 56.992 46.6063 56C46.6063 55.008 46.2863 54.2 45.6463 53.576C45.0223 52.936 44.2303 52.616 43.2703 52.616C42.3103 52.616 41.5183 52.936 40.8943 53.576C40.2703 54.2 39.9583 55.008 39.9583 56C39.9583 56.992 40.2703 57.808 40.8943 58.448ZM55.6058 50V52.064C55.8778 51.312 56.3418 50.744 56.9978 50.36C57.6538 49.96 58.4058 49.76 59.2538 49.76V53.216C58.3098 53.088 57.4618 53.28 56.7098 53.792C55.9738 54.288 55.6058 55.112 55.6058 56.264V62H52.5098V50H55.6058ZM69.7391 51.416V50H72.8351V62H69.7391V60.584C68.8111 61.752 67.5071 62.336 65.8271 62.336C64.2271 62.336 62.8511 61.728 61.6991 60.512C60.5631 59.28 59.9951 57.776 59.9951 56C59.9951 54.24 60.5631 52.744 61.6991 51.512C62.8511 50.28 64.2271 49.664 65.8271 49.664C67.5071 49.664 68.8111 50.248 69.7391 51.416ZM64.0271 58.448C64.6511 59.072 65.4431 59.384 66.4031 59.384C67.3631 59.384 68.1551 59.072 68.7791 58.448C69.4191 57.808 69.7391 56.992 69.7391 56C69.7391 55.008 69.4191 54.2 68.7791 53.576C68.1551 52.936 67.3631 52.616 66.4031 52.616C65.4431 52.616 64.6511 52.936 64.0271 53.576C63.4031 54.2 63.0911 55.008 63.0911 56C63.0911 56.992 63.4031 57.808 64.0271 58.448Z" fill="#121212"/>
<g clip-path="url(#clip0_4136_2025)">
<path d="M37.098 0.403125L32.0014 5.49979C31.5614 5.93979 31.3047 6.52646 31.3047 7.14979C31.3047 7.77313 31.5614 8.35979 32.0014 8.79979L37.098 13.9331C37.208 14.0431 37.3547 14.0798 37.5014 14.0798C37.648 14.0798 37.7947 14.0065 37.9047 13.9331L43.0014 8.83646C43.918 7.91979 43.918 6.41646 43.0014 5.49979L37.9047 0.403125C37.6847 0.219792 37.318 0.219792 37.098 0.403125Z" fill="#6405FF"/>
<path d="M35.1178 16.5C35.1178 16.3533 35.0445 16.2067 34.9711 16.0967L29.8378 11C28.9211 10.0833 27.4178 10.0833 26.5011 11L21.4045 16.0967C21.2945 16.2067 21.2578 16.3533 21.2578 16.5C21.2578 16.6467 21.3311 16.7933 21.4045 16.9033L26.5011 22C26.9411 22.44 27.5278 22.6967 28.1511 22.6967C28.7745 22.6967 29.3611 22.44 29.8011 22L34.9345 16.9033C35.0445 16.7933 35.1178 16.6467 35.1178 16.5Z" fill="#6405FF"/>
<path d="M48.5019 11C47.5852 10.0833 46.0819 10.0833 45.1652 11L40.0685 16.0967C39.9585 16.2067 39.9219 16.3533 39.9219 16.5C39.9219 16.6467 39.9952 16.7933 40.0685 16.9033L45.1652 22C45.6052 22.44 46.1919 22.6967 46.8152 22.6967C47.4385 22.6967 48.0252 22.44 48.4652 22L53.5619 16.9033C53.7819 16.6833 53.7819 16.3533 53.5619 16.1333L48.5019 11Z" fill="#6405FF"/>
<path d="M37.9033 19.0673C37.6833 18.8473 37.3533 18.8473 37.1333 19.0673L32 24.164C31.0833 25.0807 31.0833 26.584 32 27.5007L37.0967 32.5973C37.2067 32.7073 37.3533 32.744 37.5 32.744C37.6467 32.744 37.7933 32.7073 37.9033 32.5973L43 27.5007C43.9167 26.584 43.9167 25.0807 43 24.164L37.9033 19.0673Z" fill="#6405FF"/>
</g>
<defs>
<clipPath id="clip0_4136_2025">
<rect width="33" height="33" fill="white" transform="translate(21)"/>
</clipPath>
</defs>
</svg>
