<svg width="33" height="33" viewBox="0 0 33 33" fill="none" xmlns="http://www.w3.org/2000/svg">
<g clip-path="url(#clip0_495_1872)">
<path d="M16.0967 0.403125L11 5.49979C10.56 5.93979 10.3033 6.52646 10.3033 7.14979C10.3033 7.77313 10.56 8.35979 11 8.79979L16.0967 13.9331C16.2067 14.0431 16.3533 14.0798 16.5 14.0798C16.6467 14.0798 16.7933 14.0065 16.9033 13.9331L22 8.83646C22.9167 7.91979 22.9167 6.41646 22 5.49979L16.9033 0.403125C16.6833 0.219792 16.3167 0.219792 16.0967 0.403125Z" fill="#6147FF"/>
<path d="M14.1167 16.5C14.1167 16.3533 14.0434 16.2067 13.97 16.0967L8.83671 11C7.92005 10.0833 6.41671 10.0833 5.50005 11L0.403381 16.0967C0.293381 16.2067 0.256714 16.3533 0.256714 16.5C0.256714 16.6467 0.330047 16.7933 0.403381 16.9033L5.50005 22C5.94005 22.44 6.52671 22.6967 7.15005 22.6967C7.77338 22.6967 8.36005 22.44 8.80005 22L13.9334 16.9033C14.0434 16.7933 14.1167 16.6467 14.1167 16.5Z" fill="#6147FF"/>
<path d="M27.5 11C26.5834 10.0833 25.08 10.0833 24.1634 11L19.0667 16.0967C18.9567 16.2067 18.92 16.3533 18.92 16.5C18.92 16.6467 18.9934 16.7933 19.0667 16.9033L24.1634 22C24.6034 22.44 25.19 22.6967 25.8134 22.6967C26.4367 22.6967 27.0234 22.44 27.4634 22L32.56 16.9033C32.78 16.6833 32.78 16.3533 32.56 16.1333L27.5 11Z" fill="#6147FF"/>
<path d="M16.9033 19.0669C16.6833 18.8469 16.3533 18.8469 16.1333 19.0669L11 24.1635C10.0833 25.0802 10.0833 26.5835 11 27.5002L16.0967 32.5969C16.2067 32.7069 16.3533 32.7435 16.5 32.7435C16.6467 32.7435 16.7933 32.7069 16.9033 32.5969L22 27.5002C22.9167 26.5835 22.9167 25.0802 22 24.1635L16.9033 19.0669Z" fill="#6147FF"/>
</g>
<defs>
<clipPath id="clip0_495_1872">
<rect width="33" height="33" fill="white"/>
</clipPath>
</defs>
</svg>
