<svg width="223" height="45" viewBox="0 0 223 45" fill="none" xmlns="http://www.w3.org/2000/svg">
<path d="M39.229 28.9H40.36V38H39.45V30.278L36.265 35.608H36.135L32.95 30.278V38H32.04V28.9H33.171L36.2 33.97L39.229 28.9ZM47.7545 37.181C47.0871 37.831 46.2811 38.156 45.3365 38.156C44.3745 38.156 43.5641 37.831 42.9055 37.181C42.2468 36.5223 41.9175 35.712 41.9175 34.75C41.9175 33.788 42.2468 32.982 42.9055 32.332C43.5641 31.6733 44.3745 31.344 45.3365 31.344C46.2898 31.344 47.0958 31.6733 47.7545 32.332C48.4218 32.982 48.7555 33.788 48.7555 34.75C48.7555 35.7033 48.4218 36.5137 47.7545 37.181ZM43.5165 36.583C44.0105 37.077 44.6171 37.324 45.3365 37.324C46.0558 37.324 46.6625 37.077 47.1565 36.583C47.6505 36.0717 47.8975 35.4607 47.8975 34.75C47.8975 34.0307 47.6505 33.424 47.1565 32.93C46.6625 32.4273 46.0558 32.176 45.3365 32.176C44.6171 32.176 44.0105 32.4273 43.5165 32.93C43.0225 33.424 42.7755 34.0307 42.7755 34.75C42.7755 35.4607 43.0225 36.0717 43.5165 36.583ZM51.0493 31.5V32.579C51.4479 31.7903 52.1326 31.396 53.1032 31.396V32.228C52.4793 32.228 51.9809 32.41 51.6083 32.774C51.2356 33.1293 51.0493 33.6667 51.0493 34.386V38H50.1913V31.5H51.0493ZM56.8886 31.344C57.8593 31.344 58.6349 31.6863 59.2156 32.371C59.8136 33.047 60.1126 33.8487 60.1126 34.776C60.1126 34.8193 60.1039 34.9537 60.0866 35.179H54.3796C54.4663 35.829 54.7436 36.349 55.2116 36.739C55.6796 37.129 56.2646 37.324 56.9666 37.324C57.9546 37.324 58.6523 36.9557 59.0596 36.219L59.8136 36.661C59.5276 37.129 59.1333 37.4973 58.6306 37.766C58.1366 38.026 57.5776 38.156 56.9536 38.156C55.9309 38.156 55.0989 37.8353 54.4576 37.194C53.8163 36.5527 53.4956 35.738 53.4956 34.75C53.4956 33.7707 53.8119 32.9603 54.4446 32.319C55.0773 31.669 55.8919 31.344 56.8886 31.344ZM56.8886 32.176C56.2126 32.176 55.6449 32.3753 55.1856 32.774C54.7349 33.1727 54.4663 33.697 54.3796 34.347H59.2286C59.1333 33.6537 58.8689 33.1207 58.4356 32.748C57.9849 32.3667 57.4693 32.176 56.8886 32.176ZM68.1724 31.5V32.332H66.3004V36.271C66.3004 36.6263 66.3697 36.882 66.5084 37.038C66.647 37.1853 66.855 37.2633 67.1324 37.272C67.4097 37.272 67.7564 37.2633 68.1724 37.246V38C67.245 38.1387 66.556 38.0737 66.1054 37.805C65.6634 37.5277 65.4424 37.0163 65.4424 36.271V32.332H64.0774V31.5H65.4424V29.94L66.3004 29.68V31.5H68.1724ZM72.6444 31.344C73.4244 31.344 74.044 31.5867 74.5034 32.072C74.9627 32.5487 75.1924 33.1943 75.1924 34.009V38H74.3344V34.009C74.3344 33.4283 74.1784 32.9777 73.8664 32.657C73.563 32.3363 73.1297 32.176 72.5664 32.176C71.9164 32.176 71.4007 32.3797 71.0194 32.787C70.6467 33.1943 70.4604 33.7967 70.4604 34.594V38H69.6024V28.9H70.4604V32.514C70.9457 31.734 71.6737 31.344 72.6444 31.344ZM82.4414 32.774V31.5H83.2994V38H82.4414V36.726C81.8434 37.6793 80.9681 38.156 79.8154 38.156C78.8881 38.156 78.0951 37.8267 77.4364 37.168C76.7864 36.5093 76.4614 35.7033 76.4614 34.75C76.4614 33.7967 76.7864 32.9907 77.4364 32.332C78.0951 31.6733 78.8881 31.344 79.8154 31.344C80.9681 31.344 81.8434 31.8207 82.4414 32.774ZM78.0604 36.583C78.5544 37.077 79.1611 37.324 79.8804 37.324C80.5997 37.324 81.2064 37.077 81.7004 36.583C82.1944 36.0717 82.4414 35.4607 82.4414 34.75C82.4414 34.0307 82.1944 33.424 81.7004 32.93C81.2064 32.4273 80.5997 32.176 79.8804 32.176C79.1611 32.176 78.5544 32.4273 78.0604 32.93C77.5664 33.424 77.3194 34.0307 77.3194 34.75C77.3194 35.4607 77.5664 36.0717 78.0604 36.583ZM88.1581 31.344C88.9381 31.344 89.5577 31.5867 90.0171 32.072C90.4764 32.5487 90.7061 33.1943 90.7061 34.009V38H89.8481V34.009C89.8481 33.4283 89.6921 32.9777 89.3801 32.657C89.0767 32.3363 88.6434 32.176 88.0801 32.176C87.4301 32.176 86.9144 32.3797 86.5331 32.787C86.1604 33.1943 85.9741 33.7967 85.9741 34.594V38H85.1161V31.5H85.9741V32.514C86.4594 31.734 87.1874 31.344 88.1581 31.344ZM94.9651 29.758V28.9H100.555V29.758L97.1231 38H96.1741L99.6061 29.758H94.9651ZM107.2 36.882C106.602 37.7313 105.757 38.156 104.665 38.156C103.582 38.156 102.733 37.7313 102.117 36.882C101.519 36.024 101.22 34.88 101.22 33.45C101.22 32.0113 101.519 30.8717 102.117 30.031C102.733 29.173 103.582 28.744 104.665 28.744C105.757 28.744 106.602 29.173 107.2 30.031C107.807 30.8717 108.11 32.0113 108.11 33.45C108.11 34.8887 107.807 36.0327 107.2 36.882ZM102.793 36.271C103.253 36.9383 103.877 37.272 104.665 37.272C105.463 37.272 106.082 36.9383 106.524 36.271C106.975 35.6123 107.2 34.672 107.2 33.45C107.2 32.228 106.975 31.2877 106.524 30.629C106.082 29.9617 105.463 29.628 104.665 29.628C103.877 29.628 103.253 29.9617 102.793 30.629C102.351 31.2963 102.13 32.2367 102.13 33.45C102.13 34.6633 102.351 35.6037 102.793 36.271ZM115.389 36.882C114.791 37.7313 113.946 38.156 112.854 38.156C111.77 38.156 110.921 37.7313 110.306 36.882C109.708 36.024 109.409 34.88 109.409 33.45C109.409 32.0113 109.708 30.8717 110.306 30.031C110.921 29.173 111.77 28.744 112.854 28.744C113.946 28.744 114.791 29.173 115.389 30.031C115.995 30.8717 116.299 32.0113 116.299 33.45C116.299 34.8887 115.995 36.0327 115.389 36.882ZM110.982 36.271C111.441 36.9383 112.065 37.272 112.854 37.272C113.651 37.272 114.271 36.9383 114.713 36.271C115.163 35.6123 115.389 34.672 115.389 33.45C115.389 32.228 115.163 31.2877 114.713 30.629C114.271 29.9617 113.651 29.628 112.854 29.628C112.065 29.628 111.441 29.9617 110.982 30.629C110.54 31.2963 110.319 32.2367 110.319 33.45C110.319 34.6633 110.54 35.6037 110.982 36.271ZM123.577 36.882C122.979 37.7313 122.134 38.156 121.042 38.156C119.959 38.156 119.11 37.7313 118.494 36.882C117.896 36.024 117.597 34.88 117.597 33.45C117.597 32.0113 117.896 30.8717 118.494 30.031C119.11 29.173 119.959 28.744 121.042 28.744C122.134 28.744 122.979 29.173 123.577 30.031C124.184 30.8717 124.487 32.0113 124.487 33.45C124.487 34.8887 124.184 36.0327 123.577 36.882ZM119.17 36.271C119.63 36.9383 120.254 37.272 121.042 37.272C121.84 37.272 122.459 36.9383 122.901 36.271C123.352 35.6123 123.577 34.672 123.577 33.45C123.577 32.228 123.352 31.2877 122.901 30.629C122.459 29.9617 121.84 29.628 121.042 29.628C120.254 29.628 119.63 29.9617 119.17 30.629C118.728 31.2963 118.507 32.2367 118.507 33.45C118.507 34.6633 118.728 35.6037 119.17 36.271ZM130.154 31.5V32.579C130.552 31.7903 131.237 31.396 132.208 31.396V32.228C131.584 32.228 131.085 32.41 130.713 32.774C130.34 33.1293 130.154 33.6667 130.154 34.386V38H129.296V31.5H130.154ZM135.993 31.344C136.964 31.344 137.739 31.6863 138.32 32.371C138.918 33.047 139.217 33.8487 139.217 34.776C139.217 34.8193 139.208 34.9537 139.191 35.179H133.484C133.571 35.829 133.848 36.349 134.316 36.739C134.784 37.129 135.369 37.324 136.071 37.324C137.059 37.324 137.757 36.9557 138.164 36.219L138.918 36.661C138.632 37.129 138.238 37.4973 137.735 37.766C137.241 38.026 136.682 38.156 136.058 38.156C135.035 38.156 134.203 37.8353 133.562 37.194C132.921 36.5527 132.6 35.738 132.6 34.75C132.6 33.7707 132.916 32.9603 133.549 32.319C134.182 31.669 134.996 31.344 135.993 31.344ZM135.993 32.176C135.317 32.176 134.749 32.3753 134.29 32.774C133.839 33.1727 133.571 33.697 133.484 34.347H138.333C138.238 33.6537 137.973 33.1207 137.54 32.748C137.089 32.3667 136.574 32.176 135.993 32.176ZM142.733 37.103L145.008 31.5H145.918L143.253 38H142.213L139.548 31.5H140.458L142.733 37.103ZM148.008 29.498C148.008 29.6713 147.947 29.8187 147.826 29.94C147.705 30.0613 147.557 30.122 147.384 30.122C147.211 30.122 147.063 30.0613 146.942 29.94C146.821 29.8187 146.76 29.6713 146.76 29.498C146.76 29.3247 146.821 29.1773 146.942 29.056C147.063 28.9347 147.211 28.874 147.384 28.874C147.557 28.874 147.705 28.9347 147.826 29.056C147.947 29.1773 148.008 29.3247 148.008 29.498ZM147.813 38H146.955V31.5H147.813V38ZM152.637 31.344C153.607 31.344 154.383 31.6863 154.964 32.371C155.562 33.047 155.861 33.8487 155.861 34.776C155.861 34.8193 155.852 34.9537 155.835 35.179H150.128C150.214 35.829 150.492 36.349 150.96 36.739C151.428 37.129 152.013 37.324 152.715 37.324C153.703 37.324 154.4 36.9557 154.808 36.219L155.562 36.661C155.276 37.129 154.881 37.4973 154.379 37.766C153.885 38.026 153.326 38.156 152.702 38.156C151.679 38.156 150.847 37.8353 150.206 37.194C149.564 36.5527 149.244 35.738 149.244 34.75C149.244 33.7707 149.56 32.9603 150.193 32.319C150.825 31.669 151.64 31.344 152.637 31.344ZM152.637 32.176C151.961 32.176 151.393 32.3753 150.934 32.774C150.483 33.1727 150.214 33.697 150.128 34.347H154.977C154.881 33.6537 154.617 33.1207 154.184 32.748C153.733 32.3667 153.217 32.176 152.637 32.176ZM163.199 36.895L164.798 31.5H165.682L163.68 38H162.744L161.067 32.761L159.39 38H158.454L156.452 31.5H157.336L158.935 36.895L160.638 31.5H161.496L163.199 36.895ZM167.258 33.203C167.258 33.7057 167.704 34.074 168.597 34.308C168.848 34.3687 169.013 34.412 169.091 34.438C169.169 34.4553 169.321 34.503 169.546 34.581C169.78 34.6503 169.94 34.711 170.027 34.763C170.122 34.815 170.252 34.8973 170.417 35.01C170.582 35.114 170.699 35.2223 170.768 35.335C170.837 35.439 170.902 35.5777 170.963 35.751C171.024 35.9157 171.054 36.0933 171.054 36.284C171.054 36.8387 170.833 37.2893 170.391 37.636C169.966 37.9827 169.403 38.156 168.701 38.156C168.094 38.156 167.57 38.0217 167.128 37.753C166.686 37.4757 166.374 37.1117 166.192 36.661L166.92 36.232C167.041 36.57 167.258 36.8387 167.57 37.038C167.891 37.2287 168.268 37.324 168.701 37.324C169.143 37.324 169.503 37.2373 169.78 37.064C170.057 36.8907 170.196 36.6307 170.196 36.284C170.196 35.7813 169.75 35.413 168.857 35.179C168.606 35.1183 168.441 35.0793 168.363 35.062C168.285 35.036 168.129 34.9883 167.895 34.919C167.67 34.841 167.509 34.776 167.414 34.724C167.327 34.672 167.202 34.594 167.037 34.49C166.872 34.3773 166.755 34.269 166.686 34.165C166.617 34.0523 166.552 33.9137 166.491 33.749C166.43 33.5757 166.4 33.3937 166.4 33.203C166.4 32.6743 166.608 32.2323 167.024 31.877C167.457 31.5217 167.99 31.344 168.623 31.344C169.143 31.344 169.602 31.461 170.001 31.695C170.408 31.929 170.707 32.254 170.898 32.67L170.183 33.086C169.94 32.4793 169.42 32.176 168.623 32.176C168.233 32.176 167.908 32.267 167.648 32.449C167.388 32.631 167.258 32.8823 167.258 33.203Z" fill="#66789A"/>
<path d="M209.369 19.5L210.587 14.2313L206.5 10.6875L211.9 10.2188L214 5.25L216.1 10.2188L221.5 10.6875L217.412 14.2313L218.631 19.5L214 16.7062L209.369 19.5Z" fill="#CCCCCC"/>
<path d="M189.369 19.5L190.587 14.2313L186.5 10.6875L191.9 10.2188L194 5.25L196.1 10.2188L201.5 10.6875L197.412 14.2313L198.631 19.5L194 16.7062L189.369 19.5Z" fill="#CCCCCC"/>
<path d="M169.369 19.5L170.587 14.2313L166.5 10.6875L171.9 10.2188L174 5.25L176.1 10.2188L181.5 10.6875L177.412 14.2313L178.631 19.5L174 16.7062L169.369 19.5Z" fill="#CCCCCC"/>
<path d="M149.369 19.5L150.587 14.2313L146.5 10.6875L151.9 10.2188L154 5.25L156.1 10.2188L161.5 10.6875L157.412 14.2313L158.631 19.5L154 16.7062L149.369 19.5Z" fill="#CCCCCC"/>
<path d="M129.369 19.5L130.587 14.2313L126.5 10.6875L131.9 10.2188L134 5.25L136.1 10.2188L141.5 10.6875L137.412 14.2313L138.631 19.5L134 16.7062L129.369 19.5Z" fill="#CCCCCC"/>
<path d="M31.36 7H41.46V8.76H37.32V21H35.48V8.76H31.36V7ZM43.4936 11V12.68C44.0669 11.44 45.1069 10.82 46.6136 10.82V12.64C45.7603 12.6 45.0269 12.8267 44.4136 13.32C43.8003 13.8133 43.4936 14.6067 43.4936 15.7V21H41.7536V11H43.4936ZM55.2161 16.3V11H56.9561V21H55.2161V19.56C54.5228 20.6933 53.4428 21.26 51.9761 21.26C50.8028 21.26 49.8628 20.8933 49.1561 20.16C48.4494 19.4133 48.0961 18.4067 48.0961 17.14V11H49.8361V17.04C49.8361 17.84 50.0561 18.4667 50.4961 18.92C50.9361 19.3733 51.5428 19.6 52.3161 19.6C53.2094 19.6 53.9161 19.3267 54.4361 18.78C54.9561 18.22 55.2161 17.3933 55.2161 16.3ZM61.0856 13.7C61.0856 14.34 61.7456 14.84 63.0656 15.2C63.559 15.3067 63.9723 15.42 64.3056 15.54C64.6523 15.6467 65.0256 15.8133 65.4256 16.04C65.839 16.2667 66.1523 16.5667 66.3656 16.94C66.579 17.3133 66.6856 17.7533 66.6856 18.26C66.6856 19.1667 66.3323 19.8933 65.6256 20.44C64.919 20.9867 64.0256 21.26 62.9456 21.26C61.9856 21.26 61.1523 21.0533 60.4456 20.64C59.7523 20.2133 59.259 19.64 58.9656 18.92L60.4656 18.06C60.6256 18.54 60.9256 18.92 61.3656 19.2C61.8056 19.48 62.3323 19.62 62.9456 19.62C63.5456 19.62 64.0256 19.5067 64.3856 19.28C64.7456 19.0533 64.9256 18.7133 64.9256 18.26C64.9256 17.58 64.2656 17.0867 62.9456 16.78C62.5056 16.66 62.1723 16.5667 61.9456 16.5C61.719 16.4333 61.4056 16.3133 61.0056 16.14C60.619 15.9667 60.3256 15.7867 60.1256 15.6C59.9256 15.4 59.739 15.14 59.5656 14.82C59.4056 14.4867 59.3256 14.12 59.3256 13.72C59.3256 12.8533 59.659 12.14 60.3256 11.58C61.0056 11.02 61.8523 10.74 62.8656 10.74C63.679 10.74 64.399 10.9267 65.0256 11.3C65.6656 11.66 66.1456 12.1667 66.4656 12.82L65.0056 13.64C64.6456 12.7867 63.9323 12.36 62.8656 12.36C62.359 12.36 61.9323 12.48 61.5856 12.72C61.2523 12.96 61.0856 13.2867 61.0856 13.7ZM73.7952 11V12.68H71.1352V18.1C71.1352 18.5933 71.2285 18.9467 71.4152 19.16C71.6152 19.36 71.9152 19.4667 72.3152 19.48C72.7152 19.48 73.2085 19.4667 73.7952 19.44V21C72.2618 21.2 71.1418 21.0733 70.4352 20.62C69.7418 20.1667 69.3952 19.3267 69.3952 18.1V12.68H67.4152V11H69.3952V8.72L71.1352 8.2V11H73.7952ZM81.4338 10.74C82.8338 10.74 84.0271 11.2533 85.0138 12.28C86.0004 13.3067 86.4938 14.5467 86.4938 16C86.4938 17.4667 86.0004 18.7133 85.0138 19.74C84.0404 20.7533 82.8471 21.26 81.4338 21.26C79.7804 21.26 78.5204 20.6 77.6538 19.28V25H75.9137V11H77.6538V12.72C78.5204 11.4 79.7804 10.74 81.4338 10.74ZM81.2138 19.58C82.2138 19.58 83.0538 19.24 83.7338 18.56C84.4138 17.8533 84.7538 17 84.7538 16C84.7538 14.9867 84.4138 14.14 83.7338 13.46C83.0538 12.7667 82.2138 12.42 81.2138 12.42C80.2004 12.42 79.3538 12.7667 78.6738 13.46C77.9938 14.14 77.6538 14.9867 77.6538 16C77.6538 17 77.9938 17.8533 78.6738 18.56C79.3538 19.24 80.2004 19.58 81.2138 19.58ZM89.45 9.18C89.1167 9.18 88.8367 9.06667 88.61 8.84C88.3833 8.61333 88.27 8.34 88.27 8.02C88.27 7.7 88.3833 7.42667 88.61 7.2C88.8367 6.96 89.1167 6.84 89.45 6.84C89.77 6.84 90.0433 6.96 90.27 7.2C90.4967 7.42667 90.61 7.7 90.61 8.02C90.61 8.34 90.4967 8.61333 90.27 8.84C90.0433 9.06667 89.77 9.18 89.45 9.18ZM90.31 21H88.57V11H90.31V21ZM94.7045 21H92.9645V6.4H94.7045V21ZM105.799 19.74C104.786 20.7533 103.539 21.26 102.059 21.26C100.579 21.26 99.3324 20.7533 98.3191 19.74C97.3057 18.7267 96.7991 17.48 96.7991 16C96.7991 14.52 97.3057 13.2733 98.3191 12.26C99.3324 11.2467 100.579 10.74 102.059 10.74C103.539 10.74 104.786 11.2467 105.799 12.26C106.826 13.2867 107.339 14.5333 107.339 16C107.339 17.4667 106.826 18.7133 105.799 19.74ZM102.059 19.56C103.059 19.56 103.899 19.22 104.579 18.54C105.259 17.86 105.599 17.0133 105.599 16C105.599 14.9867 105.259 14.14 104.579 13.46C103.899 12.78 103.059 12.44 102.059 12.44C101.072 12.44 100.239 12.78 99.5591 13.46C98.8791 14.14 98.5391 14.9867 98.5391 16C98.5391 17.0133 98.8791 17.86 99.5591 18.54C100.239 19.22 101.072 19.56 102.059 19.56ZM114.615 11V12.68H111.955V18.1C111.955 18.5933 112.049 18.9467 112.235 19.16C112.435 19.36 112.735 19.4667 113.135 19.48C113.535 19.48 114.029 19.4667 114.615 19.44V21C113.082 21.2 111.962 21.0733 111.255 20.62C110.562 20.1667 110.215 19.3267 110.215 18.1V12.68H108.235V11H110.215V8.72L111.955 8.2V11H114.615Z" fill="#121212"/>
<path d="M5.825 22L7.45 14.975L2 10.25L9.2 9.625L12 3L14.8 9.625L22 10.25L16.55 14.975L18.175 22L12 18.275L5.825 22Z" fill="#FFD600"/>
</svg>
