<svg width="130" height="60" viewBox="0 0 130 60" fill="none" xmlns="http://www.w3.org/2000/svg">
<g clip-path="url(#clip0_4010_5506)">
<path d="M57.0761 32.9591C56.4444 30.4978 57.0371 30.0122 57.6105 30.0165C57.743 30.0174 57.7644 30.0152 57.8793 30.05L57.881 29.9961C57.881 29.9961 56.1821 24.2439 60.269 21.7143C60.269 21.7143 59.5507 21.1239 59.6064 20.2735C59.6064 20.2735 61.4801 20.4891 63.2758 20.493C64.0918 20.4948 64.892 20.4526 65.492 20.3269C65.732 20.2765 65.9745 20.2565 66.2154 20.2626C67.9018 20.3056 69.518 21.6391 69.8021 22.9265C69.8021 22.9265 69.827 22.9243 69.8724 22.9243C70.4055 22.9235 73.7544 23.1835 72.1473 30.0187C72.1473 30.0187 72.146 30.0278 72.1434 30.0443C72.221 30.0278 72.3028 30.0169 72.3847 30.0156C72.9598 30.0082 73.5577 30.4896 72.9243 32.9578C72.4181 34.93 71.9493 35.4378 71.6013 35.4365C71.4851 35.4361 71.3827 35.3791 71.2965 35.3013C71.0527 36.8522 70.412 38.74 68.8254 40.0813C64.9078 43.1335 61.1887 40.1417 61.1887 40.1417C59.5644 38.8096 58.9057 36.9096 58.6528 35.3439C58.5761 35.4013 58.4878 35.4387 58.391 35.4369C58.0434 35.4304 57.578 34.9148 57.0761 32.9591ZM65.0424 59.643L67.7424 56.64L65.771 47.8061C65.771 47.8061 68.9145 43.4243 65 43.4752C61.0854 43.4243 64.229 47.8061 64.229 47.8061L62.2575 56.64L64.9575 59.643V59.7374L65 59.6904L65.0424 59.7374V59.643ZM79.7154 50.09C79.8264 48.4939 79.6948 45.2643 76.9383 44.5535C73.2423 43.6 70.2388 41.4552 70.2388 41.4552L67.7553 49.4235L69.2865 56.2856C69.3007 56.3496 69.311 56.4139 69.3174 56.4782C75.7125 55.643 79.4077 53.2065 79.4077 53.2065C79.7595 52.3061 79.7278 50.0869 79.7278 50.0869L79.7154 50.09ZM60.7134 56.2856L62.2447 49.4235L62.1041 48.973L59.7611 41.4552C59.7611 41.4552 56.7581 43.6004 53.0617 44.5535C50.3068 45.2639 50.1735 48.49 50.2845 50.0869C50.2845 50.0869 50.2528 52.3061 50.6047 53.2065C50.6047 53.2065 54.2951 55.64 60.683 56.4765C60.689 56.4126 60.6993 56.3487 60.7134 56.2856Z" fill="#66789A"/>
</g>
<g clip-path="url(#clip1_4010_5506)">
<path d="M7.07611 12.9591C6.4444 10.4978 7.03711 10.0122 7.61054 10.0165C7.74297 10.0174 7.7644 10.0152 7.87926 10.05L7.88097 9.99607C7.88097 9.99607 6.18211 4.2439 10.269 1.71433C10.269 1.71433 9.55069 1.1239 9.6064 0.273464C9.6064 0.273464 11.4801 0.489116 13.2758 0.493029C14.0918 0.494768 14.892 0.452594 15.492 0.326942C15.732 0.276507 15.9745 0.256507 16.2154 0.262594C17.9018 0.305638 19.518 1.63912 19.8021 2.92651C19.8021 2.92651 19.827 2.92433 19.8724 2.92433C20.4055 2.92346 23.7544 3.18346 22.1473 10.0187C22.1473 10.0187 22.146 10.0278 22.1434 10.0443C22.221 10.0278 22.3028 10.0169 22.3847 10.0156C22.9598 10.0082 23.5577 10.4896 22.9243 12.9578C22.4181 14.93 21.9493 15.4378 21.6013 15.4365C21.4851 15.4361 21.3827 15.3791 21.2965 15.3013C21.0527 16.8522 20.412 18.74 18.8254 20.0813C14.9078 23.1335 11.1887 20.1417 11.1887 20.1417C9.5644 18.8096 8.90568 16.9096 8.65283 15.3439C8.57611 15.4013 8.48783 15.4387 8.39097 15.4369C8.0434 15.4304 7.57797 14.9148 7.07611 12.9591ZM15.0424 39.643L17.7424 36.64L15.771 27.8061C15.771 27.8061 18.9145 23.4243 15 23.4752C11.0854 23.4243 14.229 27.8061 14.229 27.8061L12.2575 36.64L14.9575 39.643V39.7374L15 39.6904L15.0424 39.7374V39.643ZM29.7154 30.09C29.8264 28.4939 29.6948 25.2643 26.9383 24.5535C23.2423 23.6 20.2388 21.4552 20.2388 21.4552L17.7553 29.4235L19.2865 36.2856C19.3007 36.3496 19.311 36.4139 19.3174 36.4782C25.7125 35.643 29.4077 33.2065 29.4077 33.2065C29.7595 32.3061 29.7278 30.0869 29.7278 30.0869L29.7154 30.09ZM10.7134 36.2856L12.2447 29.4235L12.1041 28.973L9.76111 21.4552C9.76111 21.4552 6.75811 23.6004 3.06169 24.5535C0.306828 25.2639 0.173543 28.49 0.284543 30.0869C0.284543 30.0869 0.252828 32.3061 0.604685 33.2065C0.604685 33.2065 4.29511 35.64 10.683 36.4765C10.689 36.4126 10.6993 36.3487 10.7134 36.2856Z" fill="#66789A"/>
</g>
<g clip-path="url(#clip2_4010_5506)">
<path d="M107.076 12.9591C106.444 10.4978 107.037 10.0122 107.611 10.0165C107.743 10.0174 107.764 10.0152 107.879 10.05L107.881 9.99607C107.881 9.99607 106.182 4.2439 110.269 1.71433C110.269 1.71433 109.551 1.1239 109.606 0.273464C109.606 0.273464 111.48 0.489116 113.276 0.493029C114.092 0.494768 114.892 0.452594 115.492 0.326942C115.732 0.276507 115.975 0.256507 116.215 0.262594C117.902 0.305638 119.518 1.63912 119.802 2.92651C119.802 2.92651 119.827 2.92433 119.872 2.92433C120.406 2.92346 123.754 3.18346 122.147 10.0187C122.147 10.0187 122.146 10.0278 122.143 10.0443C122.221 10.0278 122.303 10.0169 122.385 10.0156C122.96 10.0082 123.558 10.4896 122.924 12.9578C122.418 14.93 121.949 15.4378 121.601 15.4365C121.485 15.4361 121.383 15.3791 121.297 15.3013C121.053 16.8522 120.412 18.74 118.825 20.0813C114.908 23.1335 111.189 20.1417 111.189 20.1417C109.564 18.8096 108.906 16.9096 108.653 15.3439C108.576 15.4013 108.488 15.4387 108.391 15.4369C108.043 15.4304 107.578 14.9148 107.076 12.9591ZM115.042 39.643L117.742 36.64L115.771 27.8061C115.771 27.8061 118.915 23.4243 115 23.4752C111.085 23.4243 114.229 27.8061 114.229 27.8061L112.258 36.64L114.958 39.643V39.7374L115 39.6904L115.042 39.7374V39.643ZM129.715 30.09C129.826 28.4939 129.695 25.2643 126.938 24.5535C123.242 23.6 120.239 21.4552 120.239 21.4552L117.755 29.4235L119.287 36.2856C119.301 36.3496 119.311 36.4139 119.317 36.4782C125.713 35.643 129.408 33.2065 129.408 33.2065C129.76 32.3061 129.728 30.0869 129.728 30.0869L129.715 30.09ZM110.713 36.2856L112.245 29.4235L112.104 28.973L109.761 21.4552C109.761 21.4552 106.758 23.6004 103.062 24.5535C100.307 25.2639 100.174 28.49 100.285 30.0869C100.285 30.0869 100.253 32.3061 100.605 33.2065C100.605 33.2065 104.295 35.64 110.683 36.4765C110.689 36.4126 110.699 36.3487 110.713 36.2856Z" fill="#66789A"/>
</g>
<defs>
<clipPath id="clip0_4010_5506">
<rect width="30" height="40" fill="white" transform="translate(50 20)"/>
</clipPath>
<clipPath id="clip1_4010_5506">
<rect width="30" height="40" fill="white"/>
</clipPath>
<clipPath id="clip2_4010_5506">
<rect width="30" height="40" fill="white" transform="translate(100)"/>
</clipPath>
</defs>
</svg>
