<svg width="40" height="40" viewBox="0 0 40 40" fill="none" xmlns="http://www.w3.org/2000/svg">
<g clip-path="url(#clip0_314_368)">
<path d="M36.2141 33.79C36.3575 33.79 36.4775 33.6716 36.4775 33.5266V32.4783C36.4775 32.3316 36.3575 32.2133 36.2141 32.2133H33.9725C34.2025 32.195 34.3858 32.0183 34.3858 31.785C34.3858 31.5416 34.1891 31.345 33.9458 31.345H33.8108V30.5433C33.8108 30.405 33.7008 30.2916 33.5608 30.2916H32.9491V15.5083C33.2425 15.5083 33.4775 15.2716 33.4775 14.98C33.4775 14.7016 33.2575 14.485 32.9841 14.465H35.2141C35.7658 14.465 36.2141 14.0183 36.2141 13.4666C36.2141 12.9166 35.7658 12.47 35.2141 12.47H4.78746C4.23413 12.47 3.78746 12.9166 3.78746 13.4666C3.78746 14.0183 4.23579 14.465 4.78746 14.465H7.01746C6.74413 14.485 6.52413 14.7016 6.52413 14.98C6.52413 15.2716 6.76079 15.5083 7.05246 15.5083V30.2916H6.43746C6.29913 30.2916 6.18579 30.405 6.18579 30.5433V31.345H6.05413C5.81079 31.345 5.61246 31.54 5.61246 31.785C5.61246 32.0183 5.79746 32.1983 6.02746 32.2133H3.78579C3.64079 32.2133 3.52246 32.3316 3.52246 32.4783V33.5266C3.52246 33.6716 3.64079 33.79 3.78579 33.79H36.2141ZM25.4975 15.5083C25.7908 15.5083 26.0258 15.2716 26.0258 14.98C26.0258 14.7016 25.8025 14.485 25.5291 14.465H29.3925C29.1191 14.485 28.8958 14.7016 28.8958 14.98C28.8958 15.2716 29.1358 15.5083 29.4241 15.5083V30.2916H28.8108C28.6725 30.2916 28.5625 30.405 28.5625 30.5433V31.345H28.4291C28.1858 31.345 27.9858 31.54 27.9858 31.785C27.9858 32.0183 28.1675 32.1983 28.3991 32.2133H26.5175C26.7441 32.195 26.9291 32.0183 26.9291 31.785C26.9291 31.5416 26.7308 31.345 26.4875 31.345H26.3541V30.5433C26.3541 30.405 26.2425 30.2916 26.1058 30.2916H25.4941L25.4975 15.5083ZM18.0341 15.5083C18.3258 15.5083 18.5625 15.2716 18.5625 14.98C18.5625 14.7016 18.3408 14.485 18.0675 14.465H21.9408C21.6675 14.4833 21.4475 14.7 21.4475 14.9783C21.4475 15.27 21.6841 15.5066 21.9758 15.5066V30.29H21.3608C21.2241 30.29 21.1125 30.4033 21.1125 30.5416V31.3433H20.9808C20.7375 31.3433 20.5391 31.5383 20.5391 31.7833C20.5391 32.0166 20.7241 32.1966 20.9508 32.2116H19.0591C19.2858 32.1933 19.4708 32.0166 19.4708 31.7833C19.4708 31.54 19.2725 31.3433 19.0308 31.3433H18.8991V30.5416C18.8991 30.4033 18.7858 30.29 18.6475 30.29H18.0341V15.5083ZM11.5675 31.345H11.4341V30.545C11.4341 30.4066 11.3208 30.2933 11.1825 30.2933H10.5708V15.51C10.8625 15.51 11.0991 15.2733 11.0991 14.9816C11.0991 14.7033 10.8791 14.4866 10.6041 14.4666H14.4791C14.2058 14.4866 13.9841 14.7033 13.9841 14.9816C13.9841 15.2733 14.2208 15.51 14.5125 15.51V30.2933H13.9008C13.7625 30.2933 13.6491 30.4066 13.6491 30.545V31.345H13.5158C13.2725 31.345 13.0758 31.5416 13.0758 31.785C13.0758 32.02 13.2591 32.1983 13.4891 32.215H11.5958C11.8225 32.195 12.0075 32.02 12.0075 31.785C12.0091 31.5416 11.8091 31.345 11.5675 31.345Z" fill="#66789A"/>
<path d="M2.02281 36.7233H37.9711C38.1161 36.7233 38.2361 36.6066 38.2361 36.4599V35.0583C38.2361 34.9133 38.1178 34.7933 37.9711 34.7933H2.02281C1.87781 34.7933 1.75781 34.9133 1.75781 35.0583V36.4599C1.76115 36.6049 1.87781 36.7233 2.02281 36.7233Z" fill="#66789A"/>
<path d="M39.7333 37.7284H0.265C0.116667 37.7284 0 37.8467 0 37.9917V39.7467C0 39.8901 0.118333 40.0084 0.265 40.0084H39.7367C39.8833 40.0084 40.0017 39.8901 40.0017 39.7467V37.9917C40 37.8467 39.8817 37.7284 39.7333 37.7284Z" fill="#66789A"/>
<path d="M19.9998 11.4816H1.57979C-0.270214 11.4816 -0.448547 10.7716 1.17979 9.89328L19.2631 0.156609C19.6698 -0.0617244 20.3315 -0.0617244 20.7381 0.156609L38.8214 9.89328C40.4498 10.7699 40.2715 11.4816 38.4215 11.4816H19.9998Z" fill="#66789A"/>
</g>
<defs>
<clipPath id="clip0_314_368">
<rect width="40" height="40" fill="white"/>
</clipPath>
</defs>
</svg>
