<svg width="37" height="64" fill="none" xmlns="http://www.w3.org/2000/svg"><g clip-path="url(#clip0_365_252)"><path d="M20.107 24.937h8.913a.59.59 0 00.589-.633c-.33-5.042-4.4-9.093-9.464-9.421a.588.588 0 00-.63.592v8.868c0 .329.265.594.591.594zm.59-8.806c3.97.539 7.123 3.673 7.669 7.619h-7.669v-7.62z" fill="#DB47D5"/><path d="M20.778 26.341a.596.596 0 00.135.65l5.907 5.774a.59.59 0 00.412.169h.013a.59.59 0 00.417-.187c1.533-1.635 2.423-3.697 2.645-6.128a.596.596 0 00-.588-.648h-8.394a.59.59 0 00-.547.37zm8.274.817c-.251 1.665-.873 3.114-1.854 4.32l-4.418-4.32h6.272z" fill="#6405FF"/><path d="M24.904 33.644a.595.595 0 00.046-.885l-6.563-6.53v-9.962a.595.595 0 00-.639-.591 10.34 10.34 0 00-6.703 3.239 10.124 10.124 0 00-2.752 6.943 9.959 9.959 0 002.975 7.14c1.92 1.897 4.497 2.942 7.255 2.942 2.313 0 4.52-.794 6.38-2.296zm-15.43-7.786c0-4.443 3.348-8.245 7.732-8.923v9.541c0 .159.063.311.175.422l6.25 6.22c-1.53 1.072-3.282 1.634-5.108 1.634-5.074 0-9.048-3.906-9.048-8.894z" fill="#DB47D5"/><path d="M6.02 28.877a.589.589 0 00-.832 0l-2.645 2.631a.596.596 0 00.415 1.016c.15 0 .3-.057.416-.171l1.639-1.63v6.168c0 .328.264.594.59.594a.592.592 0 00.591-.594v-6.168l1.638 1.63c.232.23.606.228.835-.005a.596.596 0 00-.004-.84l-2.644-2.63z" fill="#6405FF"/><path d="M13.333 5.396h10.273a.592.592 0 00.591-.594.592.592 0 00-.59-.594H13.332a.592.592 0 00-.59.594c0 .328.264.594.59.594zm10.578 53.373H13.638a.592.592 0 00-.591.593c0 .328.264.594.59.594h10.274c.326 0 .59-.266.59-.594a.592.592 0 00-.59-.593z" fill="#DB47D5"/><path d="M35.638 1.362C35.005.619 34.023.159 33.068.159H3.873C2.918.16 1.935.62 1.3 1.362.62 2.051.23 3.082.23 4.194v55.473c0 1.162.36 2.115 1.07 2.833.634.742 1.617 1.202 2.572 1.202h29.195c.955 0 1.937-.46 2.57-1.202.711-.718 1.072-1.67 1.072-2.833V4.194c0-1.113-.39-2.143-1.072-2.832zM1.412 9.445h34.116v40.72H22.956L14.69 40.85a.59.59 0 00-.44-.2H1.412V9.446zm0 32.393h12.572l8.267 9.316a.59.59 0 00.44.199h12.837v2.76H1.412V41.838zm.74-39.651a.613.613 0 00.035-.039c.409-.487 1.07-.8 1.686-.8h29.195c.615 0 1.276.313 1.683.8a.606.606 0 00.037.04c.463.46.74 1.21.74 2.006v4.063H1.412V4.194c0-.796.276-1.546.74-2.007zm32.636 59.487a.508.508 0 00-.037.04c-.407.486-1.068.8-1.683.8H3.873c-.616 0-1.277-.314-1.686-.8a.587.587 0 00-.035-.039c-.498-.496-.74-1.152-.74-2.007V55.3h34.116v4.367c0 .855-.242 1.511-.74 2.006z" fill="#6405FF"/><path d="M29.792 37.7a.592.592 0 00-.591-.593.592.592 0 00-.59.593v6.232l-1.632-1.685a.589.589 0 00-.835-.011.596.596 0 00-.012.84l2.645 2.732a.59.59 0 00.848 0l2.644-2.733a.596.596 0 00-.012-.84.589.589 0 00-.835.012l-1.63 1.684v-6.23z" fill="#6405FF"/></g><defs><clipPath id="clip0_365_252"><path fill="#fff" d="M0 0h37v64H0z"/></clipPath></defs></svg>