<svg width="64" height="62" fill="none" xmlns="http://www.w3.org/2000/svg"><g clip-path="url(#clip0_365_265)"><path d="M54.448 9.328C48.464 3.533 40.551.342 32.167.342 23.74.342 15.797 3.533 9.8 9.328 3.795 15.13.488 22.818.488 30.978.488 47.82 14.7 61.52 32.167 61.52c8.39 0 16.302-3.174 22.28-8.939 5.997-5.782 9.3-13.454 9.3-21.603 0-8.154-3.303-15.843-9.299-21.65zm-22.281 51c-16.817 0-30.499-13.166-30.499-29.35 0-16.235 13.682-29.444 30.499-29.444 16.762 0 30.399 13.208 30.399 29.444 0 16.184-13.637 29.35-30.4 29.35z" fill="#6405FF"/><path d="M32.168 9.846c.326 0 .59-.267.59-.596V3.489a.593.593 0 00-.59-.596.593.593 0 00-.59.596v5.76c0 .33.264.597.59.597z" fill="#DB47D5"/><path d="M46.652 6.665a.587.587 0 00-.811.197l-3.032 5.005a.6.6 0 00.196.82.589.589 0 00.811-.197l3.032-5.006a.6.6 0 00-.196-.82zm4.97 14.045a.584.584 0 00.284-.075l5.083-2.833a.6.6 0 00.232-.81.587.587 0 00-.802-.234l-5.083 2.833a.6.6 0 00-.231.81.588.588 0 00.517.308z" fill="#6405FF"/><path d="M60.518 30.382h-5.963a.593.593 0 00-.59.596c0 .33.264.596.59.596h5.963c.325 0 .59-.267.59-.596a.593.593 0 00-.59-.596z" fill="#DB47D5"/><path d="M56.99 44.153l-5.084-2.833a.587.587 0 00-.801.234.6.6 0 00.231.81l5.083 2.833a.584.584 0 00.802-.234.6.6 0 00-.232-.81zm-13.078 5.316a.587.587 0 00-.81-.203.6.6 0 00-.2.819l2.934 4.912a.589.589 0 00.81.202.6.6 0 00.2-.818l-2.934-4.912z" fill="#6405FF"/><path d="M32.168 52.11a.593.593 0 00-.59.595v5.668c0 .329.264.596.59.596.326 0 .59-.267.59-.596v-5.668a.593.593 0 00-.59-.596z" fill="#DB47D5"/><path d="M21.238 49.27a.587.587 0 00-.813.191l-3.03 4.913a.6.6 0 00.188.82.583.583 0 00.813-.19l3.03-4.912a.6.6 0 00-.188-.821zm-8.91-7.95l-5.085 2.833a.6.6 0 00-.232.81.589.589 0 00.802.233l5.085-2.832a.6.6 0 00.232-.81.587.587 0 00-.802-.234z" fill="#6405FF"/><path d="M10.271 30.978a.593.593 0 00-.59-.596H3.719a.593.593 0 00-.59.596c0 .33.264.596.59.596h5.962c.326 0 .59-.267.59-.596z" fill="#DB47D5"/><path d="M12.898 19.591l-5.085-2.833a.587.587 0 00-.802.234.6.6 0 00.232.81l5.085 2.833a.583.583 0 00.801-.234.6.6 0 00-.231-.81zm7.525-7.101a.589.589 0 00.811.197.6.6 0 00.196-.82l-3.032-5.005a.586.586 0 00-.811-.197.6.6 0 00-.195.82l3.03 5.004z" fill="#6405FF"/><path d="M32.168 34.407c.015 0 .029-.003.043-.004l12.317 5.899a.59.59 0 00.786-.283.599.599 0 00-.28-.794l-12.276-5.88V19.453a.593.593 0 00-.59-.596.593.593 0 00-.59.596v14.36c0 .328.264.595.59.595z" fill="#DB47D5"/></g><defs><clipPath id="clip0_365_265"><path fill="#fff" d="M0 0h64v62H0z"/></clipPath></defs></svg>