<svg width="24" height="24" fill="none" xmlns="http://www.w3.org/2000/svg"><path fill-rule="evenodd" clip-rule="evenodd" d="M2.375 15c0-.898.728-1.625 1.625-1.625h2c.897 0 1.625.727 1.625 1.625v6c0 .898-.728 1.625-1.625 1.625H4A1.625 1.625 0 012.375 21v-6zM4 14.625a.375.375 0 00-.375.375v6c0 .207.168.375.375.375h2A.375.375 0 006.375 21v-6A.375.375 0 006 14.625H4zM9.375 9c0-.897.727-1.625 1.625-1.625h2c.898 0 1.625.728 1.625 1.625v12c0 .898-.727 1.625-1.625 1.625h-2A1.625 1.625 0 019.375 21V9zM11 8.625a.375.375 0 00-.375.375v12c0 .207.168.375.375.375h2a.375.375 0 00.375-.375V9A.375.375 0 0013 8.625h-2zM16.375 4c0-.897.727-1.625 1.625-1.625h2c.898 0 1.625.728 1.625 1.625v17c0 .898-.727 1.625-1.625 1.625h-2A1.625 1.625 0 0116.375 21V4zM18 3.625a.375.375 0 00-.375.375v17c0 .207.168.375.375.375h2a.375.375 0 00.375-.375V4A.375.375 0 0020 3.625h-2z" fill="#3D5075"/></svg>