<svg width="49" height="50" fill="none" xmlns="http://www.w3.org/2000/svg"><g clip-path="url(#clip0_245_402)"><path fill-rule="evenodd" clip-rule="evenodd" d="M34.592 1.817a4.76 4.76 0 014.759 4.75 4.76 4.76 0 01-9.518 0 4.76 4.76 0 014.759-4.75zm0 11.046c3.478 0 6.307-2.824 6.307-6.295 0-3.472-2.83-6.296-6.307-6.296-3.478 0-6.307 2.824-6.307 6.296 0 3.47 2.829 6.295 6.307 6.295zm.933-4.659c-.149.17-.51.296-.88.305-.42.01-.955-.152-1.077-.643a.775.775 0 00-1.503.374c.213.852.877 1.479 1.752 1.714v.109a.773.773 0 001.548 0v-.096c.544-.128 1.017-.39 1.33-.752.347-.4.497-.9.43-1.447-.131-1.076-.939-1.743-2.403-1.982-.928-.153-.943-.456-.948-.554-.019-.41.43-.545.57-.577.318-.071.921-.04 1.163.534a.773.773 0 101.427-.598 2.387 2.387 0 00-1.569-1.402v-.116a.773.773 0 00-1.548 0v.123c-1.005.302-1.638 1.128-1.59 2.11.03.616.362 1.696 2.244 2.004 1.06.173 1.1.503 1.117.643.016.13-.014.193-.063.251zM14.408 1.817a4.76 4.76 0 014.759 4.75 4.76 4.76 0 01-9.517 0 4.76 4.76 0 014.758-4.75zm0 11.046c3.478 0 6.307-2.824 6.307-6.295 0-3.472-2.83-6.296-6.307-6.296-3.478 0-6.307 2.824-6.307 6.296 0 3.47 2.83 6.295 6.307 6.295zm.933-4.659c-.148.17-.51.296-.879.305-.421.01-.955-.152-1.077-.643a.775.775 0 00-1.502.374c.212.852.877 1.479 1.752 1.714v.109a.773.773 0 001.548 0v-.096c.544-.128 1.017-.39 1.33-.752.347-.4.495-.9.43-1.447-.132-1.076-.94-1.743-2.404-1.982-.928-.153-.942-.456-.947-.554-.02-.41.43-.545.569-.577.318-.072.921-.04 1.163.534a.774.774 0 001.428-.598 2.386 2.386 0 00-1.569-1.402v-.116a.773.773 0 00-1.548 0v.123c-1.005.302-1.638 1.128-1.59 2.11.03.616.361 1.696 2.243 2.004 1.06.173 1.1.503 1.117.643.016.13-.013.193-.064.251zm9.159 18.96c-3.844 0-6.972-3.121-6.972-6.96 0-3.837 3.128-6.959 6.972-6.959 3.844 0 6.972 3.122 6.972 6.96s-3.127 6.96-6.972 6.96zm8.52-6.96c0 4.69-3.822 8.506-8.52 8.506-4.698 0-8.52-3.815-8.52-8.505 0-4.69 3.822-8.505 8.52-8.505 4.698 0 8.52 3.815 8.52 8.505zm-5.28 1.717c-.164-1.352-1.21-2.195-3.107-2.506-1.547-.254-1.575-.844-1.586-1.067-.04-.834.856-1.08 1.037-1.121.724-.165 1.617.06 1.983.928a.775.775 0 001.013.413.772.772 0 00.414-1.01c-.45-1.072-1.314-1.644-2.22-1.842v-.403a.774.774 0 00-1.548 0v.41c-1.395.323-2.29 1.405-2.226 2.7.046.94.583 2.14 2.881 2.517 1.519.248 1.771.754 1.822 1.168.029.24-.023.429-.163.59-.264.304-.85.519-1.458.534-.704.016-1.6-.27-1.817-1.134a.775.775 0 00-1.502.375c.288 1.151 1.232 1.98 2.462 2.228v.397a.774.774 0 001.548 0v-.384c.8-.14 1.497-.496 1.938-1.005.428-.494.61-1.111.529-1.788zm-6.86 24.196a.794.794 0 11-1.48.583.794.794 0 011.48-.583zm.52 1.952a.399.399 0 00.39-.397l-.021-2.553a.4.4 0 00-.395-.39h-.003l-13.289.113a.4.4 0 00-.39.398l.022 2.553a.4.4 0 00.397.39l13.288-.114zm-10.216-6.558a.77.77 0 00-.227-.547l-7.646-7.633c-.959-.957-1.427-2.11-1.39-3.43l.48-16.873c.02-.727.894-1.454 1.739-1.454h.023c1.243.019 1.98 1.58 1.97 4.177l-.035 9.166c-.005 1.424.456 2.684 1.408 3.856.172.211.344.415.515.613.032.046.065.091.1.136a.773.773 0 00.157.156c.838.94 1.67 1.747 2.538 2.59.39.377.792.767 1.204 1.179a.776.776 0 001.095 0 .771.771 0 000-1.093c-.42-.42-.827-.814-1.22-1.194-.91-.884-1.78-1.727-2.646-2.72-.347-.525-.557-1.24.111-1.907.55-.55 1.433-.548 2.07-.004 1.57 1.843 3.434 3.412 4.936 4.675.523.44.975.82 1.35 1.157 1.153 1.037 1.31 2.579 1.308 4.088l-.01 6.754-7.83.067v-1.76zm10.19 1.672h-.016l-.796.006.01-6.739c.003-1.777-.21-3.79-1.82-5.236a57.351 57.351 0 00-1.388-1.192c-1.469-1.236-3.297-2.774-4.789-4.534a.729.729 0 00-.073-.075c-1.241-1.117-3.102-1.105-4.237.027a3.292 3.292 0 00-.482.607 4.342 4.342 0 01-.137-1.124l.035-9.166c.02-5.262-2.668-5.715-3.493-5.728-1.7-.025-3.29 1.382-3.335 2.956L.374 29.86c-.05 1.734.588 3.314 1.842 4.566l7.42 7.405v1.454l-1.567.013a1.942 1.942 0 00-1.925 1.955l.022 2.554a1.943 1.943 0 001.942 1.922h.017l13.288-.114a1.943 1.943 0 001.925-1.955l-.022-2.554a1.943 1.943 0 00-1.942-1.922zm6.747 2.934a.794.794 0 111.476.587.794.794 0 01-1.476-.587zm1.865-2.914l-.01-6.754c-.002-1.51.155-3.05 1.307-4.088.376-.338.828-.717 1.35-1.157 1.502-1.263 3.368-2.832 4.938-4.675.636-.545 1.519-.545 2.069.004.669.668.458 1.382.11 1.908-.865.993-1.734 1.835-2.645 2.719-.394.38-.8.774-1.22 1.194a.77.77 0 000 1.093.776.776 0 001.095 0c.412-.412.814-.802 1.204-1.18.869-.842 1.7-1.649 2.538-2.59a.724.724 0 00.158-.155 3.13 3.13 0 00.099-.136c.17-.198.343-.402.515-.613.954-1.172 1.414-2.432 1.408-3.856l-.035-9.166c-.01-2.596.727-4.157 1.97-4.177.848-.011 1.741.721 1.763 1.455l.48 16.873c.036 1.319-.431 2.472-1.39 3.43l-7.646 7.632a.77.77 0 00-.228.547v1.759l-7.83-.067zM41.31 45.24a.4.4 0 00-.391-.398l-13.288-.114h-.004a.398.398 0 00-.394.391l-.022 2.553a.4.4 0 00.391.397l13.288.114h.004a.399.399 0 00.393-.39l.023-2.553zm5.475-10.815c1.255-1.252 1.891-2.831 1.842-4.566l-.479-16.874c-.044-1.574-1.632-2.979-3.334-2.957-.825.014-3.514.466-3.493 5.729l.035 9.165c.002.393-.044.766-.138 1.124a3.25 3.25 0 00-.482-.606c-1.134-1.133-2.996-1.145-4.237-.028a.865.865 0 00-.073.075c-1.492 1.762-3.32 3.299-4.789 4.534-.511.431-.994.837-1.388 1.192-1.61 1.446-1.823 3.46-1.82 5.237l.011 6.739-.796-.007h-.017a1.943 1.943 0 00-1.942 1.922l-.022 2.554a1.943 1.943 0 001.926 1.955l13.289.114h.016a1.943 1.943 0 001.942-1.922l.023-2.554a1.944 1.944 0 00-1.926-1.955l-1.566-.013v-1.454l7.418-7.404z" fill="#fff"/></g><defs><clipPath id="clip0_245_402"><path fill="#fff" d="M0 0h49v50H0z"/></clipPath></defs></svg>