<svg width="50" height="50" fill="none" xmlns="http://www.w3.org/2000/svg"><path d="M22.9 29.305c.105-.263.105-.525 0-.735-.105-.263-.315-.42-.525-.525-.105-.053-.21-.053-.367-.053-.42 0-.788.263-.945.63-1.47 3.728-6.615 10.868-11.393 13.493-.21.105-.42.315-.473.577-.052.263-.052.525.105.735.263.473.893.63 1.313.368 5.46-2.94 10.71-10.448 12.285-14.49z" fill="#fff"/><path d="M27.152 31.615c1.523-4.358-.367-7.35-2.887-8.348-.63-.262-1.365-.367-2.1-.367-2.467 0-4.515 1.417-5.565 3.832-1.365 3.15-4.883 8.663-9.03 10.973a.953.953 0 00-.367 1.312c.262.473.892.63 1.312.368 4.935-2.678 8.662-8.978 9.922-11.918.735-1.68 2.153-2.625 3.78-2.625.473 0 .946.105 1.366.263 1.627.63 2.887 2.467 1.732 5.827-1.733 5.093-8.242 11.918-12.495 14.228-.21.105-.42.315-.473.577-.052.263-.052.525.106.735.262.473.892.63 1.312.42 4.62-2.52 11.497-9.765 13.387-15.277z" fill="#fff"/><path d="M27.52 14.973c-2.52-.998-5.302-1.26-7.98-.788-4.935.945-8.715 3.675-10.71 7.717l-.105.158c-.735 1.47-1.47 2.992-2.783 3.36a.964.964 0 00.578 1.837c2.1-.63 3.15-2.73 3.938-4.41l.052-.105c1.732-3.517 5.04-5.88 9.345-6.667a11.85 11.85 0 012.31-.21c1.575 0 3.15.315 4.62.893 5.618 2.204 9.817 8.767 6.93 17.115-1.313 3.78-4.148 8.032-7.928 12.075a.938.938 0 00.053 1.364.938.938 0 001.365-.052c3.99-4.2 6.93-8.715 8.348-12.758 3.36-9.45-1.523-17.01-8.033-19.53z" fill="#fff"/><path d="M44.74 23.215c.157-.21.157-.473.105-.735-1.733-7.245-6.352-12.758-13.02-15.54a23.397 23.397 0 00-9.082-1.838 23.636 23.636 0 00-12.18 3.36.956.956 0 00-.316 1.365c.263.473.893.578 1.366.315 3.36-2.047 7.192-3.097 11.13-3.097 2.887 0 5.67.577 8.347 1.68 6.037 2.52 10.29 7.56 11.865 14.175.105.42.525.735.945.735h.21c.263-.053.473-.21.63-.42z" fill="#fff"/><path d="M23.215.482c-1.995 0-4.043.21-6.195.525-.525.105-.892.578-.787 1.155.104.525.577.893 1.102.788a32.477 32.477 0 015.828-.525c10.814 0 16.222 5.88 18.06 8.4.315.42.944.525 1.364.21.21-.158.368-.368.42-.63a.911.911 0 00-.157-.735C40.855 6.94 34.975.482 23.215.482zM36.13 41.485c.472.263 1.102.105 1.365-.367a29.738 29.738 0 002.363-5.146c4.2-12.075-2.363-21.997-10.658-25.2-2.205-.84-4.567-1.312-6.93-1.312-1.155 0-2.363.105-3.517.315-5.146.945-9.45 3.885-12.443 8.452a.911.911 0 00-.157.735c.052.263.21.473.42.63.42.316 1.05.158 1.364-.262 2.73-4.2 6.51-6.72 11.13-7.612 1.05-.21 2.1-.316 3.15-.316 2.153 0 4.2.368 6.196 1.155 7.454 2.94 13.335 11.918 9.555 22.786a35.521 35.521 0 01-2.206 4.83.953.953 0 00.368 1.312z" fill="#fff"/><path d="M18.332 49.255c4.935-3.518 10.973-10.238 13.02-16.17 2.468-7.14-1.102-12.233-5.46-13.965-1.784-.683-3.727-.893-5.564-.525-3.413.63-6.353 3.045-7.823 6.353-1.575 3.57-3.833 6.194-6.825 7.717-.473.263-.683.84-.42 1.313.262.472.84.682 1.312.42 3.36-1.733 5.985-4.673 7.718-8.716 1.155-2.73 3.57-4.672 6.405-5.197a7.497 7.497 0 011.523-.157c.997 0 1.994.21 2.992.577 3.517 1.365 6.405 5.565 4.357 11.498C27.625 38.02 21.85 44.32 17.23 47.627c-.42.316-.525.945-.21 1.365.262.473.893.578 1.313.263z" fill="#fff"/></svg>