<svg width="58" height="50" fill="none" xmlns="http://www.w3.org/2000/svg"><g clip-path="url(#clip0_245_404)" fill="#fff"><path fill-rule="evenodd" clip-rule="evenodd" d="M50.995 10.868c.48.008.996.198 1.438.591.876.789.959 1.95.333 2.653l-.665.744a20.762 20.762 0 00-3.093-2.637l.747-.837c.307-.343.756-.521 1.24-.514zm-13.957-.912c10.663 0 19.296 8.515 19.296 19.04 0 10.525-8.633 19.04-19.296 19.04-4.966 0-8.598-1.6-15.134-3.843l1.226-1.212c.715-.708.74-1.752.3-2.485-.439-.729-1.47-1.187-2.463-.811-2.983 1.134-5.17 1.056-6.846.137-1.314-.722-2.432-2.124-3.24-3.977.894.272 2.261.302 3.19.154 1.537-.243 2.836-.816 3.61-1.578.517-.51.888-1.06 1.06-1.644.17-.581.117-1.25-.283-1.748-.405-.503-1.05-.748-1.794-.793-.744-.04-1.631.1-2.703.45-2.395.778-4.8.495-6.967-.834-1.858-1.141-3.455-2.909-4.697-5.654 1.344.48 2.544.543 3.53.413 1.465-.194 2.647-.833 3.758-1.473 2.211-1.276 4.08-2.605 8.046-1.585.555.14 1.064-.355.921-.905-.389-1.552-1.212-2.738-2.53-3.408-.865-.443-2.126-.748-3.587-.774 1.786-1.548 3.881-2.016 6.291-2.333 2.933-.387 6.335-.517 9.38-2.005 3.041-1.487 5.908-2.172 8.932-2.172zm-1.257-3.4h2.515v1.957a20.305 20.305 0 00-1.257-.045c-.42 0-.838.015-1.258.04V6.556zm-2.258-4.603h7.027a.71.71 0 01.729.723v1.67a.706.706 0 01-.729.721h-7.027a.706.706 0 01-.725-.721v-1.67c0-.413.313-.723.725-.723zm0-1.487c-1.224 0-2.232 1.001-2.232 2.21v1.67c0 1.21 1.009 2.21 2.232 2.21h.751V8.66c-2.262.302-4.448.972-6.574 2.01-2.987 1.461-6.14 1.592-9.18 1.99-3.035.402-6.022 1.138-8.366 4.052-.404.494-.035 1.223.61 1.205 2.157-.053 3.633.163 4.57.64.588.3.986.714 1.295 1.284-3.825-.52-5.954.952-7.804 2.017-1.077.62-2.058 1.13-3.195 1.28-1.137.152-2.484-.035-4.373-.968-.607-.3-1.277.28-1.047.912 1.357 3.768 3.466 6.485 5.99 8.033 2.518 1.543 5.441 1.892 8.234.985.62-.2 1.141-.315 1.56-.361 1.775-.186 1.537.65.623 1.63-.37.398-1.518.964-2.791 1.163-1.269.205-2.669.079-3.814-.635-.588-.369-1.329.186-1.125.844.922 2.954 2.36 5.2 4.505 6.377 2.141 1.18 4.879 1.18 8.123-.052.377-.142.495-.02.62.193.124.209.14.465-.076.677l-2.066 2.05a.738.738 0 00.291 1.224c7.39 2.474 11.12 4.316 16.754 4.316 11.479 0 20.798-9.2 20.798-20.529 0-4.94-1.774-9.478-4.728-13.024l.79-.878c1.208-1.355.963-3.463-.449-4.732a3.778 3.778 0 00-2.481-.968c-.88-.007-1.73.321-2.342 1.005l-.89.998a20.778 20.778 0 00-7.933-2.742V6.558h.747c1.227 0 2.239-1 2.239-2.209V2.68c0-1.208-1.012-2.21-2.239-2.21h-7.027V.466z"/><path fill-rule="evenodd" clip-rule="evenodd" d="M37.038 15.552c7.534 0 13.624 6.012 13.624 13.445 0 7.437-6.09 13.444-13.624 13.444-7.529 0-13.624-6.007-13.624-13.445 0-7.432 6.095-13.444 13.624-13.444zm0-1.488c-8.345 0-15.126 6.696-15.126 14.933 0 8.235 6.78 14.929 15.126 14.929 8.35 0 15.13-6.694 15.13-14.93s-6.78-14.932-15.13-14.932z"/><path d="M36.82 16.805a.746.746 0 00-.737.756v1.071a.747.747 0 00.751.792.749.749 0 00.752-.792v-1.071a.75.75 0 00-.766-.756zm0 21.805a.745.745 0 00-.737.755v1.068a.744.744 0 00.751.792.747.747 0 00.752-.792v-1.068a.747.747 0 00-.766-.755z"/><path fill-rule="evenodd" clip-rule="evenodd" d="M37.038 27.884c.635 0 1.125.488 1.125 1.113s-.491 1.112-1.125 1.112c-.63 0-1.125-.488-1.125-1.113 0-.624.495-1.112 1.125-1.112zm5.095-4.892a.751.751 0 00-.522.22l-3.474 3.434a2.596 2.596 0 00-1.099-.25c-1.446 0-2.635 1.176-2.635 2.6 0 1.425 1.189 2.6 2.635 2.6 1.45 0 2.636-1.175 2.636-2.6 0-.502-.155-.967-.408-1.365l3.413-3.37c.488-.472.137-1.29-.546-1.269z"/><path d="M49.227 29.004a.748.748 0 00-.766-.729h-1.087a.746.746 0 00-.802.74c0 .432.367.77.802.74h1.087a.747.747 0 00.767-.75zm-22.131 0a.747.747 0 00-.763-.729h-1.087a.75.75 0 00-.804.74c0 .432.37.77.804.74h1.087a.746.746 0 00.763-.75zm18.509 8.635a.733.733 0 00-.018-1.046l-.766-.759a.762.762 0 00-1.103-.033c-.305.3-.29.799.038 1.082l.766.755a.76.76 0 001.083 0zM29.959 22.222a.732.732 0 00-.02-1.046l-.766-.759a.762.762 0 00-1.102-.034.735.735 0 00.037 1.083l.767.755a.761.761 0 001.084.001zm15.628-1.849a.764.764 0 00-1.065.018l-.766.756a.74.74 0 00-.038 1.086.766.766 0 001.103-.037l.766-.76a.732.732 0 000-1.063zM29.939 35.79a.764.764 0 00-1.064.018l-.767.755a.74.74 0 00-.038 1.087c.31.3.816.287 1.102-.037l.766-.759a.73.73 0 000-1.064z"/></g><defs><clipPath id="clip0_245_404"><path fill="#fff" d="M0 0h58v50H0z"/></clipPath></defs></svg>