<svg width="39" height="50" fill="none" xmlns="http://www.w3.org/2000/svg"><g clip-path="url(#clip0_245_380)"><path d="M36.342 16.072c-.058-2.124-.6-7.398-4.332-11.371C29.082 1.58 24.873 0 19.5 0S9.918 1.581 6.99 4.7c-3.733 3.974-4.274 9.248-4.332 11.372C1.192 16.072 0 17.273 0 18.75v7.143a2.672 2.672 0 002.66 2.678h4.056c.803 2.574 1.937 4.674 3.392 6.292C7.643 40.914 5.143 44.82 3.215 45.6a.896.896 0 00-.184 1.555c.193.139 3.477 2.456 7.417 2.456 1.38 0 2.84-.29 4.276-1.052 1.481.955 3.127 1.443 4.776 1.443 1.65 0 3.295-.488 4.777-1.443a9.023 9.023 0 004.275 1.053c3.94 0 7.225-2.318 7.418-2.457a.896.896 0 00-.185-1.555c-1.928-.78-4.428-4.686-6.893-10.737.502-.558.98-1.154 1.405-1.827h2.498c1.956 0 3.546-1.603 3.546-3.572v-.893A2.671 2.671 0 0039 25.893V18.75c0-1.477-1.192-2.678-2.658-2.678zM8.277 5.927C10.858 3.18 14.634 1.786 19.5 1.786c4.86 0 8.632 1.39 11.212 4.13 3.272 3.475 3.783 8.25 3.851 10.155h-1.148C32.15 9.66 26.314 4.911 19.5 4.911c-6.816 0-12.653 4.75-13.915 11.16h-1.15c.065-1.9.567-6.657 3.842-10.144zm15.125 8.493c-1.419-2.232-2.193-4.04-2.201-4.057a.883.883 0 00-1.163-.47.895.895 0 00-.467 1.172c.031.073.727 1.687 2.017 3.798-1.58 2.1-6.09 6.753-14.428 6.04a39.091 39.091 0 01-.07-2.242c0-.552.036-1.08.107-1.575.81-5.923 6.099-10.39 12.303-10.39 6.204 0 11.493 4.467 12.303 10.397.07.488.106 1.016.106 1.568a38.675 38.675 0 01-.05 1.938 36.677 36.677 0 01-.14 1.823c-3.665-1.587-6.518-5.157-8.317-8.002zM2.659 26.786a.89.89 0 01-.886-.893V18.75a.89.89 0 01.886-.893h2.682c-.015.263-.023.531-.023.804 0 .276.004.57.01.878.002.097.007.2.01.3.006.216.013.433.024.66.005.131.014.266.022.4.011.21.024.421.04.64.01.148.023.3.036.452a37.305 37.305 0 00.198 1.799c.023.17.046.34.072.512.034.228.073.457.113.688.03.17.058.339.09.51.048.25.103.502.158.755.033.152.063.304.1.457l.015.074H2.66zm2.593 19.617c2.394-1.984 4.606-6.328 6.236-10.23.82.662 1.718 1.203 2.694 1.622v9.02c-3.339 1.948-7.068.552-8.93-.412zm17.794.833c-2.225 1.3-4.867 1.3-7.091 0V38.42c.31.079.631.143.958.2.117.02.236.035.354.052.24.035.481.065.726.089.138.013.274.026.414.036.328.022.658.036.989.038.035 0 .069.004.104.004.035 0 .069-.004.104-.004.331-.002.661-.016.99-.038.139-.01.275-.023.413-.036.244-.024.485-.054.725-.089.118-.017.238-.032.355-.052.327-.057.648-.121.958-.2v8.816zm10.703-.833c-1.863.965-5.593 2.36-8.93.412v-9.02c.975-.419 1.873-.96 2.693-1.622 1.63 3.902 3.841 8.246 6.236 10.23zM23.627 36.376c-1.222.45-2.611.678-4.128.678-.43 0-.848-.024-1.257-.06-1.032-.093-1.996-.296-2.872-.619-3.439-1.26-5.849-4.268-7.163-8.945-.457-1.592-.735-3.212-.9-4.712.537.039 1.064.064 1.571.064 7.458 0 11.824-4.017 13.727-6.343 2.03 2.964 5.034 6.326 8.875 7.815-.04.254-.078.507-.125.764a25.85 25.85 0 01-.564 2.412v.002l-.001.003a18.284 18.284 0 01-1.533 3.815h-7.262c-.367-1.037-1.342-1.786-2.496-1.786-1.466 0-2.66 1.202-2.66 2.679a2.672 2.672 0 002.66 2.678c1.154 0 2.129-.748 2.496-1.785h6.116c-1.217 1.567-2.71 2.69-4.484 3.34zm-3.242-4.233a.89.89 0 01-.886.893.89.89 0 01-.886-.893.89.89 0 01.886-.893c.49 0 .886.4.886.893zm14.182-2.679c0 .985-.795 1.786-1.773 1.786H31.26c.389-.825.727-1.723 1.025-2.679h2.283v.893zm2.66-3.571a.89.89 0 01-.887.893h-3.547l.014-.068c.038-.158.068-.314.103-.472.054-.249.108-.497.155-.745.033-.17.06-.337.09-.506a32.255 32.255 0 00.186-1.2 35.076 35.076 0 00.198-1.807 39.905 39.905 0 00.077-1.093l.021-.393c.01-.23.018-.45.024-.667.003-.099.008-.2.01-.296.006-.307.01-.602.01-.878 0-.273-.008-.541-.023-.804h2.682c.489 0 .886.4.886.893v7.143z" fill="#fff"/></g><defs><clipPath id="clip0_245_380"><path fill="#fff" d="M0 0h39v50H0z"/></clipPath></defs></svg>