<svg width="20" height="20" fill="none" xmlns="http://www.w3.org/2000/svg"><g clip-path="url(#clip0_503_10401)"><path d="M1.761 4.334A9.957 9.957 0 00.33 7.45h4.549L1.76 4.334zM7.2.4a9.964 9.964 0 00-3.16 1.57L7.2 5.128V.4zM4.276 18.197A9.949 9.949 0 007.199 19.6v-4.325l-2.923 2.923zM.444 12.953A9.962 9.962 0 001.929 15.9l2.948-2.948H.444z" fill="#29337A"/><path d="M1.926 4.102c-.056.076-.11.154-.165.232L4.878 7.45H.329a9.727 9.727 0 00-.183.857h5.986L1.926 4.102zm2.118 13.93c.076.057.154.11.232.165l2.923-2.923v4.325c.281.082.567.153.857.21V14.02l-4.012 4.012zM.222 12.096c.062.29.135.576.222.857h4.433L1.93 15.9c.32.438.676.85 1.062 1.23l5.035-5.035H.222zM7.2.4v4.728L4.04 1.97c-.435.324-.842.683-1.22 1.072l5.236 5.235V.19c-.29.058-.576.129-.857.21z" fill="#fff"/><path d="M7.2 12.922l-.03.03h.03v-.03zm.826-.826h.03v-.03l-.03.03zm3.848-3.789h-.029v.029l.03-.03zM7.229 7.45l-.03-.03v.03h.03zm.827.827v.03h.03l-.03-.03z" fill="#D32030"/><path d="M12.701 17.386v2.241a9.943 9.943 0 002.965-1.389l-2.429-2.428c-.194.681-.265 1.034-.536 1.576zM13.25 4.58l2.652-2.652a9.962 9.962 0 00-3.2-1.556v2.303c.311.625.338 1.099.548 1.905zm4.78 11.38a9.973 9.973 0 001.526-3.007h-4.533l3.007 3.007zm1.641-8.51a9.954 9.954 0 00-1.473-3.174L15.022 7.45h4.649z" fill="#252F6C"/><path d="M13.834 12.266l.687.687 3.29 3.29c.074-.094.148-.188.22-.283l-3.007-3.007h4.533c.086-.28.16-.566.221-.857h-5.88c-.01.122-.053.049-.064.17zm-.688-7.185L16.127 2.1c-.074-.058-.15-.116-.225-.172L13.25 4.58c.027.105-.13.394-.104.501zm-.444-2.591V.373a9.98 9.98 0 00-.857-.2v1.034c.319.345.604.78.857 1.285zm1.064 5.817h6.089c-.05-.29-.11-.576-.184-.857h-4.648l3.175-3.175a10.042 10.042 0 00-1.038-1.253l-3.577 3.576c.097.648.14 1.025.183 1.709zm-.673 7.358l2.573 2.573a9.958 9.958 0 001.208-.979l-3.385-3.385a17.41 17.41 0 01-.396 1.79zm-1.248 3.01v1.152c.29-.054.576-.121.857-.2v-2.241c-.252.505-.538.944-.857 1.29z" fill="#E7E7E7"/><path d="M13.583 6.598l3.576-3.576a9.998 9.998 0 00-1.032-.922l-2.81 2.81c.125.522.182 1.12.266 1.688z" fill="#D71F28"/><path d="M9.5.012zM10 20zm0 0c.63 0 1.247-.061 1.845-.173v-1.152C11.32 19.245 10.705 20 10 20z" fill="#D32030"/><path d="M19.854 8.307h-6.009c.08 1.254.07 2.544-.029 3.79h5.962a10.033 10.033 0 00.076-3.79zm-6.02 3.959c-.056.59-.25 1.05-.346 1.608l3.385 3.385c.335-.317.648-.656.937-1.017l-3.29-3.29-.686-.686z" fill="#D71F28"/><path d="M11.845 1.28V.173A10.048 10.048 0 0010 0c.706 0 1.32.711 1.845 1.28z" fill="#D32030"/><path d="M12.702 17.818c.27-.542.502-1.166.696-1.847l-.696-.697v2.544zm.783-13.473c-.21-.806-.471-1.539-.783-2.163v2.946l.783-.783z" fill="#29337A"/><path d="M14.028 12.46l.031-.364h-.394l.363.364zm-1.326-7.332V2.182a5.533 5.533 0 00-.857-1.285v5.485l1.72-1.72a18.996 18.996 0 00-.08-.317l-.783.783zm-.828 3.179h2.214a24.123 24.123 0 00-.209-2.005l-2.005 2.005zm-.029 10.796a5.57 5.57 0 00.857-1.285v-2.544l.696.697c.16-.56.294-1.159.403-1.785l-1.956-1.955v6.872z" fill="#fff"/><path d="M11.845 19.103V12.23l1.955 1.955c.097-.557.172-1.136.228-1.726l-.364-.364h.395c.099-1.245.108-2.535.029-3.79h-2.214l2.005-2.004a19.233 19.233 0 00-.314-1.64l-1.72 1.72V.897C11.32.327 10.705 0 10 0a10.066 10.066 0 00-1.944.19v8.087L2.82 3.042c-.322.332-.621.686-.895 1.06l3.35 3.348.857.857H.146C.052 8.857 0 9.423 0 10c0 .72.078 1.42.222 2.096h7.804L2.99 17.131c.33.324.681.625 1.053.901l4.012-4.012v5.79A10.074 10.074 0 0010 20c.706 0 1.32-.328 1.845-.897z" fill="#E51D35"/></g><defs><clipPath id="clip0_503_10401"><path fill="#fff" d="M0 0h20v20H0z"/></clipPath></defs></svg>