<svg width="1240" height="433" viewBox="0 0 1240 433" fill="none" xmlns="http://www.w3.org/2000/svg">
<path d="M1240 384L127 384" stroke="#3EB52A" stroke-dasharray="4 4"/>
<path d="M149.016 351.6V358.944H152.64V360H147.9V351.6H149.016ZM156.153 360H154.857L152.445 351.6H153.621L155.541 358.512L157.581 351.6H158.709L160.749 358.512L162.669 351.6H163.845L161.433 360H160.137L158.145 353.292L156.153 360Z" fill="#3EB52A"/>
<path d="M1240 290L1235 287.113V292.887L1240 290ZM1235.5 289.5L127 289.5V290.5L1235.5 290.5V289.5Z" fill="#66789A"/>
<path d="M127 4L124.113 9L129.887 9L127 4ZM126.5 8.5L126.5 384L127.5 384L127.5 8.5L126.5 8.5Z" fill="#66789A"/>
<line x1="1008.5" y1="9" x2="1008.5" y2="384" stroke="#1C2E50"/>
<line x1="788.5" y1="9" x2="788.5" y2="384" stroke="#1C2E50"/>
<line x1="568.5" y1="9" x2="568.5" y2="384" stroke="#1C2E50"/>
<line x1="348.5" y1="9" x2="348.5" y2="384" stroke="#1C2E50"/>
<path d="M1240 194L127 194" stroke="#1C2E50"/>
<path d="M1240 119L127 119" stroke="#1C2E50"/>
<path d="M1240 99L127 99" stroke="#1C2E50"/>
<path d="M1240 9L127 9" stroke="#1C2E50"/>
<path d="M1191.76 419.392V414.8H1193.6V426H1191.76V421.152H1186.96V426H1185.12V414.8H1186.96V419.392H1191.76ZM1203.45 422.736H1197.09C1197.21 423.333 1197.5 423.797 1197.95 424.128C1198.41 424.459 1198.97 424.624 1199.65 424.624C1200.55 424.624 1201.24 424.293 1201.71 423.632L1203.13 424.464C1202.36 425.627 1201.19 426.208 1199.63 426.208C1198.34 426.208 1197.29 425.813 1196.48 425.024C1195.68 424.224 1195.28 423.216 1195.28 422C1195.28 420.816 1195.67 419.819 1196.46 419.008C1197.24 418.197 1198.25 417.792 1199.5 417.792C1200.67 417.792 1201.63 418.203 1202.38 419.024C1203.14 419.845 1203.52 420.843 1203.52 422.016C1203.52 422.229 1203.5 422.469 1203.45 422.736ZM1197.07 421.328H1201.77C1201.66 420.699 1201.39 420.213 1200.97 419.872C1200.57 419.531 1200.07 419.36 1199.49 419.36C1198.85 419.36 1198.31 419.536 1197.89 419.888C1197.46 420.24 1197.19 420.72 1197.07 421.328ZM1211.77 418V424.368H1212.84V428.144H1211.14V426H1205.65V428.144H1203.96V424.368H1204.93C1205.43 423.685 1205.67 422.72 1205.67 421.472V418H1211.77ZM1206.84 424.368H1210.07V419.584H1207.37V421.472C1207.37 422.624 1207.19 423.589 1206.84 424.368ZM1221.66 422.736H1215.29C1215.42 423.333 1215.71 423.797 1216.15 424.128C1216.61 424.459 1217.18 424.624 1217.85 424.624C1218.76 424.624 1219.44 424.293 1219.91 423.632L1221.34 424.464C1220.56 425.627 1219.39 426.208 1217.83 426.208C1216.54 426.208 1215.49 425.813 1214.68 425.024C1213.88 424.224 1213.48 423.216 1213.48 422C1213.48 420.816 1213.88 419.819 1214.67 419.008C1215.44 418.197 1216.46 417.792 1217.71 417.792C1218.87 417.792 1219.83 418.203 1220.59 419.024C1221.34 419.845 1221.72 420.843 1221.72 422.016C1221.72 422.229 1221.7 422.469 1221.66 422.736ZM1215.27 421.328H1219.98C1219.86 420.699 1219.59 420.213 1219.18 419.872C1218.77 419.531 1218.28 419.36 1217.69 419.36C1217.05 419.36 1216.52 419.536 1216.09 419.888C1215.66 420.24 1215.39 420.72 1215.27 421.328ZM1223.55 418H1229.68V426H1227.95V419.664H1225.28V422.64C1225.28 423.888 1225.01 424.784 1224.47 425.328C1223.92 425.872 1223.13 426.096 1222.08 426V424.384C1222.57 424.469 1222.94 424.368 1223.19 424.08C1223.43 423.781 1223.55 423.275 1223.55 422.56V418ZM1233.39 423.072L1237.49 418H1238.82V426H1237.12V420.912L1233.02 426H1231.7V418H1233.39V423.072Z" fill="#3D5075"/>
<path d="M1010.09 424.272H1011.37V425.984H1010.09V428H1008.23V425.984H1002.73V424.272L1006.58 416.8H1008.58L1004.73 424.272H1008.23V421.36H1010.09V424.272Z" fill="#3D5075"/>
<path d="M790.796 418.368L788.524 421.376C789.356 421.568 790.017 421.952 790.508 422.528C791.009 423.093 791.26 423.787 791.26 424.608C791.26 425.728 790.881 426.608 790.124 427.248C789.377 427.888 788.449 428.208 787.34 428.208C786.465 428.208 785.692 428.011 785.02 427.616C784.348 427.211 783.868 426.635 783.58 425.888L785.148 424.976C785.478 425.936 786.209 426.416 787.34 426.416C787.98 426.416 788.486 426.256 788.86 425.936C789.233 425.605 789.42 425.163 789.42 424.608C789.42 424.053 789.233 423.616 788.86 423.296C788.486 422.976 787.98 422.816 787.34 422.816H786.924L786.188 421.712L788.604 418.528H783.916V416.8H790.796V418.368Z" fill="#3D5075"/>
<path d="M569.138 428H561.762V426.56L565.666 422.576C566.615 421.627 567.09 420.805 567.09 420.112C567.09 419.579 566.93 419.157 566.61 418.848C566.29 418.539 565.874 418.384 565.362 418.384C564.423 418.384 563.73 418.848 563.282 419.776L561.73 418.864C562.071 418.128 562.562 417.568 563.202 417.184C563.842 416.789 564.556 416.592 565.346 416.592C566.338 416.592 567.18 416.901 567.874 417.52C568.578 418.149 568.93 418.992 568.93 420.048C568.93 421.179 568.295 422.395 567.026 423.696L564.498 426.224H569.138V428Z" fill="#3D5075"/>
<path d="M344.231 417.84L347.175 416.8H348.775V428H346.935V418.768L344.679 419.408L344.231 417.84Z" fill="#3D5075"/>
<path d="M129.733 426.624C128.965 427.68 127.888 428.208 126.501 428.208C125.125 428.208 124.042 427.68 123.253 426.624C122.485 425.568 122.101 424.16 122.101 422.4C122.101 420.64 122.485 419.232 123.253 418.176C124.042 417.12 125.125 416.592 126.501 416.592C127.888 416.592 128.965 417.12 129.733 418.176C130.512 419.221 130.901 420.629 130.901 422.4C130.901 424.171 130.512 425.579 129.733 426.624ZM126.501 426.416C127.333 426.416 127.968 426.069 128.405 425.376C128.842 424.683 129.061 423.691 129.061 422.4C129.061 421.109 128.842 420.117 128.405 419.424C127.968 418.731 127.333 418.384 126.501 418.384C125.68 418.384 125.045 418.731 124.597 419.424C124.16 420.117 123.941 421.109 123.941 422.4C123.941 423.691 124.16 424.683 124.597 425.376C125.045 426.069 125.68 426.416 126.501 426.416Z" fill="#3D5075"/>
<path d="M7.44625 384.968H1.52625V383.304H7.44625V384.968ZM16.4345 389H9.0585V387.56L12.9625 383.576C13.9118 382.627 14.3865 381.805 14.3865 381.112C14.3865 380.579 14.2265 380.157 13.9065 379.848C13.5865 379.539 13.1705 379.384 12.6585 379.384C11.7198 379.384 11.0265 379.848 10.5785 380.776L9.0265 379.864C9.36783 379.128 9.8585 378.568 10.4985 378.184C11.1385 377.789 11.8532 377.592 12.6425 377.592C13.6345 377.592 14.4772 377.901 15.1705 378.52C15.8745 379.149 16.2265 379.992 16.2265 381.048C16.2265 382.179 15.5918 383.395 14.3225 384.696L11.7945 387.224H16.4345V389ZM25.147 387.624C24.379 388.68 23.3017 389.208 21.915 389.208C20.539 389.208 19.4563 388.68 18.667 387.624C17.899 386.568 17.515 385.16 17.515 383.4C17.515 381.64 17.899 380.232 18.667 379.176C19.4563 378.12 20.539 377.592 21.915 377.592C23.3017 377.592 24.379 378.12 25.147 379.176C25.9257 380.221 26.315 381.629 26.315 383.4C26.315 385.171 25.9257 386.579 25.147 387.624ZM21.915 387.416C22.747 387.416 23.3817 387.069 23.819 386.376C24.2563 385.683 24.475 384.691 24.475 383.4C24.475 382.109 24.2563 381.117 23.819 380.424C23.3817 379.731 22.747 379.384 21.915 379.384C21.0937 379.384 20.459 379.731 20.011 380.424C19.5737 381.117 19.355 382.109 19.355 383.4C19.355 384.691 19.5737 385.683 20.011 386.376C20.459 387.069 21.0937 387.416 21.915 387.416ZM31.9206 378.328C32.422 378.829 32.6726 379.437 32.6726 380.152C32.6726 380.867 32.422 381.475 31.9206 381.976C31.43 382.467 30.8113 382.712 30.0646 382.712C29.3073 382.712 28.6833 382.467 28.1926 381.976C27.6913 381.475 27.4406 380.867 27.4406 380.152C27.4406 379.448 27.6913 378.845 28.1926 378.344C28.694 377.843 29.318 377.592 30.0646 377.592C30.8113 377.592 31.43 377.837 31.9206 378.328ZM30.0486 381.304C30.39 381.304 30.6673 381.197 30.8806 380.984C31.094 380.76 31.2006 380.483 31.2006 380.152C31.2006 379.821 31.094 379.544 30.8806 379.32C30.6673 379.096 30.39 378.984 30.0486 378.984C29.718 378.984 29.446 379.096 29.2326 379.32C29.0193 379.544 28.9126 379.821 28.9126 380.152C28.9126 380.472 29.0193 380.744 29.2326 380.968C29.4566 381.192 29.7286 381.304 30.0486 381.304ZM29.2486 387.864L28.3846 387.352L35.7606 379.144L36.6246 379.64L29.2486 387.864ZM35.1846 389.192C34.4273 389.192 33.8033 388.947 33.3126 388.456C32.8113 387.955 32.5606 387.347 32.5606 386.632C32.5606 385.928 32.8113 385.325 33.3126 384.824C33.814 384.323 34.438 384.072 35.1846 384.072C35.9206 384.072 36.5393 384.323 37.0406 384.824C37.542 385.325 37.7926 385.928 37.7926 386.632C37.7926 387.347 37.542 387.955 37.0406 388.456C36.55 388.947 35.9313 389.192 35.1846 389.192ZM35.1686 387.784C35.51 387.784 35.7873 387.677 36.0006 387.464C36.214 387.24 36.3206 386.963 36.3206 386.632C36.3206 386.301 36.214 386.024 36.0006 385.8C35.7873 385.576 35.51 385.464 35.1686 385.464C34.838 385.464 34.566 385.576 34.3526 385.8C34.1393 386.024 34.0326 386.301 34.0326 386.632C34.0326 386.952 34.1393 387.224 34.3526 387.448C34.5766 387.672 34.8486 387.784 35.1686 387.784Z" fill="#3D5075"/>
<path d="M16.4126 293.624C15.6446 294.68 14.5673 295.208 13.1806 295.208C11.8046 295.208 10.722 294.68 9.93263 293.624C9.16463 292.568 8.78063 291.16 8.78063 289.4C8.78063 287.64 9.16463 286.232 9.93263 285.176C10.722 284.12 11.8046 283.592 13.1806 283.592C14.5673 283.592 15.6446 284.12 16.4126 285.176C17.1913 286.221 17.5806 287.629 17.5806 289.4C17.5806 291.171 17.1913 292.579 16.4126 293.624ZM13.1806 293.416C14.0126 293.416 14.6473 293.069 15.0846 292.376C15.522 291.683 15.7406 290.691 15.7406 289.4C15.7406 288.109 15.522 287.117 15.0846 286.424C14.6473 285.731 14.0126 285.384 13.1806 285.384C12.3593 285.384 11.7246 285.731 11.2766 286.424C10.8393 287.117 10.6206 288.109 10.6206 289.4C10.6206 290.691 10.8393 291.683 11.2766 292.376C11.7246 293.069 12.3593 293.416 13.1806 293.416ZM23.1863 284.328C23.6876 284.829 23.9383 285.437 23.9383 286.152C23.9383 286.867 23.6876 287.475 23.1863 287.976C22.6956 288.467 22.0769 288.712 21.3303 288.712C20.5729 288.712 19.9489 288.467 19.4583 287.976C18.9569 287.475 18.7063 286.867 18.7063 286.152C18.7063 285.448 18.9569 284.845 19.4583 284.344C19.9596 283.843 20.5836 283.592 21.3303 283.592C22.0769 283.592 22.6956 283.837 23.1863 284.328ZM21.3143 287.304C21.6556 287.304 21.9329 287.197 22.1463 286.984C22.3596 286.76 22.4663 286.483 22.4663 286.152C22.4663 285.821 22.3596 285.544 22.1463 285.32C21.9329 285.096 21.6556 284.984 21.3143 284.984C20.9836 284.984 20.7116 285.096 20.4983 285.32C20.2849 285.544 20.1783 285.821 20.1783 286.152C20.1783 286.472 20.2849 286.744 20.4983 286.968C20.7223 287.192 20.9943 287.304 21.3143 287.304ZM20.5143 293.864L19.6503 293.352L27.0263 285.144L27.8903 285.64L20.5143 293.864ZM26.4503 295.192C25.6929 295.192 25.0689 294.947 24.5783 294.456C24.0769 293.955 23.8263 293.347 23.8263 292.632C23.8263 291.928 24.0769 291.325 24.5783 290.824C25.0796 290.323 25.7036 290.072 26.4503 290.072C27.1863 290.072 27.8049 290.323 28.3063 290.824C28.8076 291.325 29.0583 291.928 29.0583 292.632C29.0583 293.347 28.8076 293.955 28.3063 294.456C27.8156 294.947 27.1969 295.192 26.4503 295.192ZM26.4343 293.784C26.7756 293.784 27.0529 293.677 27.2663 293.464C27.4796 293.24 27.5863 292.963 27.5863 292.632C27.5863 292.301 27.4796 292.024 27.2663 291.8C27.0529 291.576 26.7756 291.464 26.4343 291.464C26.1036 291.464 25.8316 291.576 25.6183 291.8C25.4049 292.024 25.2983 292.301 25.2983 292.632C25.2983 292.952 25.4049 293.224 25.6183 293.448C25.8423 293.672 26.1143 293.784 26.4343 293.784Z" fill="#3D5075"/>
<path d="M12.3564 199H4.98038V197.56L8.88438 193.576C9.83371 192.627 10.3084 191.805 10.3084 191.112C10.3084 190.579 10.1484 190.157 9.82838 189.848C9.50838 189.539 9.09238 189.384 8.58038 189.384C7.64171 189.384 6.94838 189.848 6.50038 190.776L4.94838 189.864C5.28971 189.128 5.78038 188.568 6.42038 188.184C7.06038 187.789 7.77504 187.592 8.56438 187.592C9.55638 187.592 10.399 187.901 11.0924 188.52C11.7964 189.149 12.1484 189.992 12.1484 191.048C12.1484 192.179 11.5137 193.395 10.2444 194.696L7.71638 197.224H12.3564V199ZM21.0689 197.624C20.3009 198.68 19.2235 199.208 17.8369 199.208C16.4609 199.208 15.3782 198.68 14.5889 197.624C13.8209 196.568 13.4369 195.16 13.4369 193.4C13.4369 191.64 13.8209 190.232 14.5889 189.176C15.3782 188.12 16.4609 187.592 17.8369 187.592C19.2235 187.592 20.3009 188.12 21.0689 189.176C21.8475 190.221 22.2369 191.629 22.2369 193.4C22.2369 195.171 21.8475 196.579 21.0689 197.624ZM17.8369 197.416C18.6689 197.416 19.3035 197.069 19.7409 196.376C20.1782 195.683 20.3969 194.691 20.3969 193.4C20.3969 192.109 20.1782 191.117 19.7409 190.424C19.3035 189.731 18.6689 189.384 17.8369 189.384C17.0155 189.384 16.3809 189.731 15.9329 190.424C15.4955 191.117 15.2769 192.109 15.2769 193.4C15.2769 194.691 15.4955 195.683 15.9329 196.376C16.3809 197.069 17.0155 197.416 17.8369 197.416ZM27.8425 188.328C28.3438 188.829 28.5945 189.437 28.5945 190.152C28.5945 190.867 28.3438 191.475 27.8425 191.976C27.3518 192.467 26.7332 192.712 25.9865 192.712C25.2292 192.712 24.6052 192.467 24.1145 191.976C23.6132 191.475 23.3625 190.867 23.3625 190.152C23.3625 189.448 23.6132 188.845 24.1145 188.344C24.6158 187.843 25.2398 187.592 25.9865 187.592C26.7332 187.592 27.3518 187.837 27.8425 188.328ZM25.9705 191.304C26.3118 191.304 26.5892 191.197 26.8025 190.984C27.0158 190.76 27.1225 190.483 27.1225 190.152C27.1225 189.821 27.0158 189.544 26.8025 189.32C26.5892 189.096 26.3118 188.984 25.9705 188.984C25.6398 188.984 25.3678 189.096 25.1545 189.32C24.9412 189.544 24.8345 189.821 24.8345 190.152C24.8345 190.472 24.9412 190.744 25.1545 190.968C25.3785 191.192 25.6505 191.304 25.9705 191.304ZM25.1705 197.864L24.3065 197.352L31.6825 189.144L32.5465 189.64L25.1705 197.864ZM31.1065 199.192C30.3492 199.192 29.7252 198.947 29.2345 198.456C28.7332 197.955 28.4825 197.347 28.4825 196.632C28.4825 195.928 28.7332 195.325 29.2345 194.824C29.7358 194.323 30.3598 194.072 31.1065 194.072C31.8425 194.072 32.4612 194.323 32.9625 194.824C33.4638 195.325 33.7145 195.928 33.7145 196.632C33.7145 197.347 33.4638 197.955 32.9625 198.456C32.4718 198.947 31.8532 199.192 31.1065 199.192ZM31.0905 197.784C31.4318 197.784 31.7092 197.677 31.9225 197.464C32.1358 197.24 32.2425 196.963 32.2425 196.632C32.2425 196.301 32.1358 196.024 31.9225 195.8C31.7092 195.576 31.4318 195.464 31.0905 195.464C30.7598 195.464 30.4878 195.576 30.2745 195.8C30.0612 196.024 29.9545 196.301 29.9545 196.632C29.9545 196.952 30.0612 197.224 30.2745 197.448C30.4985 197.672 30.7705 197.784 31.0905 197.784Z" fill="#3D5075"/>
<path d="M11.728 100.272H13.008V101.984H11.728V104H9.872V101.984H4.368V100.272L8.224 92.8H10.224L6.368 100.272H9.872V97.36H11.728V100.272ZM21.5533 102.624C20.7853 103.68 19.7079 104.208 18.3213 104.208C16.9453 104.208 15.8626 103.68 15.0733 102.624C14.3053 101.568 13.9213 100.16 13.9213 98.4C13.9213 96.64 14.3053 95.232 15.0733 94.176C15.8626 93.12 16.9453 92.592 18.3213 92.592C19.7079 92.592 20.7853 93.12 21.5533 94.176C22.3319 95.2213 22.7213 96.6293 22.7213 98.4C22.7213 100.171 22.3319 101.579 21.5533 102.624ZM18.3213 102.416C19.1533 102.416 19.7879 102.069 20.2253 101.376C20.6626 100.683 20.8813 99.6907 20.8813 98.4C20.8813 97.1093 20.6626 96.1173 20.2253 95.424C19.7879 94.7307 19.1533 94.384 18.3213 94.384C17.4999 94.384 16.8653 94.7307 16.4173 95.424C15.9799 96.1173 15.7613 97.1093 15.7613 98.4C15.7613 99.6907 15.9799 100.683 16.4173 101.376C16.8653 102.069 17.4999 102.416 18.3213 102.416ZM28.3269 93.328C28.8282 93.8293 29.0789 94.4373 29.0789 95.152C29.0789 95.8667 28.8282 96.4747 28.3269 96.976C27.8362 97.4667 27.2175 97.712 26.4709 97.712C25.7135 97.712 25.0895 97.4667 24.5989 96.976C24.0975 96.4747 23.8469 95.8667 23.8469 95.152C23.8469 94.448 24.0975 93.8453 24.5989 93.344C25.1002 92.8427 25.7242 92.592 26.4709 92.592C27.2175 92.592 27.8362 92.8373 28.3269 93.328ZM26.4549 96.304C26.7962 96.304 27.0735 96.1973 27.2869 95.984C27.5002 95.76 27.6069 95.4827 27.6069 95.152C27.6069 94.8213 27.5002 94.544 27.2869 94.32C27.0735 94.096 26.7962 93.984 26.4549 93.984C26.1242 93.984 25.8522 94.096 25.6389 94.32C25.4255 94.544 25.3189 94.8213 25.3189 95.152C25.3189 95.472 25.4255 95.744 25.6389 95.968C25.8629 96.192 26.1349 96.304 26.4549 96.304ZM25.6549 102.864L24.7909 102.352L32.1669 94.144L33.0309 94.64L25.6549 102.864ZM31.5909 104.192C30.8335 104.192 30.2095 103.947 29.7189 103.456C29.2175 102.955 28.9669 102.347 28.9669 101.632C28.9669 100.928 29.2175 100.325 29.7189 99.824C30.2202 99.3227 30.8442 99.072 31.5909 99.072C32.3269 99.072 32.9455 99.3227 33.4469 99.824C33.9482 100.325 34.1989 100.928 34.1989 101.632C34.1989 102.347 33.9482 102.955 33.4469 103.456C32.9562 103.947 32.3375 104.192 31.5909 104.192ZM31.5749 102.784C31.9162 102.784 32.1935 102.677 32.4069 102.464C32.6202 102.24 32.7269 101.963 32.7269 101.632C32.7269 101.301 32.6202 101.024 32.4069 100.8C32.1935 100.576 31.9162 100.464 31.5749 100.464C31.2442 100.464 30.9722 100.576 30.7589 100.8C30.5455 101.024 30.4389 101.301 30.4389 101.632C30.4389 101.952 30.5455 102.224 30.7589 102.448C30.9829 102.672 31.2549 102.784 31.5749 102.784Z" fill="#3D5075"/>
<path d="M8.44125 6.56H8.64925C9.82258 6.56 10.7719 6.91733 11.4973 7.632C12.2333 8.336 12.6013 9.25333 12.6013 10.384C12.6013 11.504 12.2333 12.4267 11.4973 13.152C10.7613 13.856 9.81192 14.208 8.64925 14.208C7.47592 14.208 6.52125 13.856 5.78525 13.152C5.04925 12.4267 4.68125 11.504 4.68125 10.384C4.68125 9.53067 4.90525 8.77867 5.35325 8.128L8.90525 2.8H11.0013L8.44125 6.56ZM8.64925 12.464C9.26792 12.464 9.77458 12.2773 10.1693 11.904C10.5639 11.52 10.7613 11.0133 10.7613 10.384C10.7613 9.75467 10.5639 9.25333 10.1693 8.88C9.77458 8.496 9.26792 8.304 8.64925 8.304C8.00925 8.304 7.49192 8.496 7.09725 8.88C6.71325 9.25333 6.52125 9.75467 6.52125 10.384C6.52125 11.0133 6.71325 11.52 7.09725 11.904C7.49192 12.2773 8.00925 12.464 8.64925 12.464ZM21.272 12.624C20.504 13.68 19.4267 14.208 18.04 14.208C16.664 14.208 15.5813 13.68 14.792 12.624C14.024 11.568 13.64 10.16 13.64 8.4C13.64 6.64 14.024 5.232 14.792 4.176C15.5813 3.12 16.664 2.592 18.04 2.592C19.4267 2.592 20.504 3.12 21.272 4.176C22.0507 5.22133 22.44 6.62933 22.44 8.4C22.44 10.1707 22.0507 11.5787 21.272 12.624ZM18.04 12.416C18.872 12.416 19.5067 12.0693 19.944 11.376C20.3813 10.6827 20.6 9.69067 20.6 8.4C20.6 7.10933 20.3813 6.11733 19.944 5.424C19.5067 4.73067 18.872 4.384 18.04 4.384C17.2187 4.384 16.584 4.73067 16.136 5.424C15.6987 6.11733 15.48 7.10933 15.48 8.4C15.48 9.69067 15.6987 10.6827 16.136 11.376C16.584 12.0693 17.2187 12.416 18.04 12.416ZM28.0456 3.328C28.547 3.82933 28.7976 4.43733 28.7976 5.152C28.7976 5.86667 28.547 6.47467 28.0456 6.976C27.555 7.46667 26.9363 7.712 26.1896 7.712C25.4323 7.712 24.8083 7.46667 24.3176 6.976C23.8163 6.47467 23.5656 5.86667 23.5656 5.152C23.5656 4.448 23.8163 3.84533 24.3176 3.344C24.819 2.84267 25.443 2.592 26.1896 2.592C26.9363 2.592 27.555 2.83733 28.0456 3.328ZM26.1736 6.304C26.515 6.304 26.7923 6.19733 27.0056 5.984C27.219 5.76 27.3256 5.48267 27.3256 5.152C27.3256 4.82133 27.219 4.544 27.0056 4.32C26.7923 4.096 26.515 3.984 26.1736 3.984C25.843 3.984 25.571 4.096 25.3576 4.32C25.1443 4.544 25.0376 4.82133 25.0376 5.152C25.0376 5.472 25.1443 5.744 25.3576 5.968C25.5816 6.192 25.8536 6.304 26.1736 6.304ZM25.3736 12.864L24.5096 12.352L31.8856 4.144L32.7496 4.64L25.3736 12.864ZM31.3096 14.192C30.5523 14.192 29.9283 13.9467 29.4376 13.456C28.9363 12.9547 28.6856 12.3467 28.6856 11.632C28.6856 10.928 28.9363 10.3253 29.4376 9.824C29.939 9.32267 30.563 9.072 31.3096 9.072C32.0456 9.072 32.6643 9.32267 33.1656 9.824C33.667 10.3253 33.9176 10.928 33.9176 11.632C33.9176 12.3467 33.667 12.9547 33.1656 13.456C32.675 13.9467 32.0563 14.192 31.3096 14.192ZM31.2936 12.784C31.635 12.784 31.9123 12.6773 32.1256 12.464C32.339 12.24 32.4456 11.9627 32.4456 11.632C32.4456 11.3013 32.339 11.024 32.1256 10.8C31.9123 10.576 31.635 10.464 31.2936 10.464C30.963 10.464 30.691 10.576 30.4776 10.8C30.2643 11.024 30.1576 11.3013 30.1576 11.632C30.1576 11.952 30.2643 12.224 30.4776 12.448C30.7016 12.672 30.9736 12.784 31.2936 12.784Z" fill="#3D5075"/>
<path d="M128 289.5C177.167 273 283.1 234.7 313.5 213.5C351.5 187 354 195.5 357 196C360 196.5 453 236 467.5 241C482 246 491.5 253 503.5 237.5C513.1 225.1 534.167 153.333 543.5 119C546.833 106.667 559.6 86.3999 584 104C608.4 121.6 652.5 131.333 671.5 134C678.833 135.333 694.7 135 699.5 123C705.5 108 721 38.9999 745.5 86.4999C747.333 93.3333 754.7 107 769.5 107C788 107 776 95.9999 810 98.4999C837.2 100.5 859.333 99.3333 867 98.4999C872.833 97.6666 886 92.9999 892 80.9999C899.5 65.9999 920.5 16.4999 945.5 33.9999C970.5 51.4999 964.5 53 977.5 38C990.5 23 988.5 -14 1023 14C1057.5 42 1051.5 19.9999 1071 14C1086.6 9.19999 1119.5 8.66667 1134 9" stroke="#247FEC" stroke-width="1.6"/>
<path d="M1008 52L1004.54 58L1011.46 58L1008 52ZM1008 99L1011.46 93L1004.54 93L1008 99ZM1007.4 57.4L1007.4 93.6L1008.6 93.6L1008.6 57.4L1007.4 57.4Z" fill="#6405FF"/>
<line x1="996" y1="51.5" x2="1020" y2="51.5" stroke="#EE3737"/>
<line x1="996" y1="99.5" x2="1020" y2="99.5" stroke="#6405FF"/>
<path d="M1008 4L1004.54 10L1011.46 10L1008 4ZM1008 51L1011.46 45L1004.54 45L1008 51ZM1007.4 9.4L1007.4 45.6L1008.6 45.6L1008.6 9.4L1007.4 9.4Z" fill="#EE3737"/>
<path d="M1031.84 96H1030.79V87.24H1031.84V96ZM1033.96 88.908C1033.76 88.908 1033.59 88.84 1033.45 88.704C1033.32 88.568 1033.25 88.404 1033.25 88.212C1033.25 88.02 1033.32 87.856 1033.45 87.72C1033.59 87.576 1033.76 87.504 1033.96 87.504C1034.15 87.504 1034.31 87.576 1034.45 87.72C1034.58 87.856 1034.65 88.02 1034.65 88.212C1034.65 88.404 1034.58 88.568 1034.45 88.704C1034.31 88.84 1034.15 88.908 1033.96 88.908ZM1034.47 96H1033.43V90H1034.47V96ZM1042.55 89.844C1043.23 89.844 1043.77 90.064 1044.18 90.504C1044.59 90.944 1044.8 91.532 1044.8 92.268V96H1043.76V92.304C1043.76 91.848 1043.64 91.492 1043.4 91.236C1043.17 90.972 1042.85 90.84 1042.44 90.84C1041.97 90.84 1041.61 90.996 1041.35 91.308C1041.09 91.612 1040.96 92.064 1040.96 92.664V96H1039.92V92.304C1039.92 91.848 1039.8 91.492 1039.57 91.236C1039.35 90.972 1039.04 90.84 1038.65 90.84C1038.19 90.84 1037.82 91 1037.53 91.32C1037.25 91.632 1037.11 92.08 1037.11 92.664V96H1036.07V90H1037.11V90.804C1037.52 90.164 1038.11 89.844 1038.9 89.844C1039.71 89.844 1040.29 90.184 1040.66 90.864C1041.08 90.184 1041.71 89.844 1042.55 89.844ZM1048.52 97.2H1047.47C1046.59 95.44 1046.15 93.64 1046.15 91.8C1046.15 89.96 1046.59 88.16 1047.47 86.4H1048.52C1047.64 88.16 1047.2 89.96 1047.2 91.8C1047.2 93.64 1047.64 95.44 1048.52 97.2ZM1056.09 89.844C1056.77 89.844 1057.32 90.064 1057.72 90.504C1058.14 90.944 1058.35 91.532 1058.35 92.268V96H1057.3V92.304C1057.3 91.848 1057.18 91.492 1056.94 91.236C1056.71 90.972 1056.39 90.84 1055.98 90.84C1055.52 90.84 1055.16 90.996 1054.89 91.308C1054.64 91.612 1054.51 92.064 1054.51 92.664V96H1053.46V92.304C1053.46 91.848 1053.35 91.492 1053.12 91.236C1052.89 90.972 1052.58 90.84 1052.19 90.84C1051.74 90.84 1051.36 91 1051.08 91.32C1050.8 91.632 1050.66 92.08 1050.66 92.664V96H1049.61V90H1050.66V90.804C1051.06 90.164 1051.66 89.844 1052.44 89.844C1053.25 89.844 1053.84 90.184 1054.21 90.864C1054.62 90.184 1055.25 89.844 1056.09 89.844ZM1064.76 91.032V90H1065.81V96H1064.76V94.968C1064.25 95.76 1063.5 96.156 1062.5 96.156C1061.65 96.156 1060.93 95.852 1060.35 95.244C1059.76 94.628 1059.46 93.88 1059.46 93C1059.46 92.128 1059.76 91.384 1060.35 90.768C1060.94 90.152 1061.66 89.844 1062.5 89.844C1063.5 89.844 1064.25 90.24 1064.76 91.032ZM1062.63 95.148C1063.24 95.148 1063.74 94.944 1064.15 94.536C1064.56 94.112 1064.76 93.6 1064.76 93C1064.76 92.392 1064.56 91.884 1064.15 91.476C1063.74 91.06 1063.24 90.852 1062.63 90.852C1062.03 90.852 1061.52 91.06 1061.12 91.476C1060.71 91.884 1060.5 92.392 1060.5 93C1060.5 93.6 1060.71 94.112 1061.12 94.536C1061.52 94.944 1062.03 95.148 1062.63 95.148ZM1070.31 92.904L1072.6 96H1071.37L1069.69 93.732L1068 96H1066.78L1069.08 92.916L1066.91 90H1068.15L1069.69 92.088L1071.24 90H1072.47L1070.31 92.904ZM1075.83 97.2H1074.79C1073.91 95.44 1073.47 93.64 1073.47 91.8C1073.47 89.96 1073.91 88.16 1074.79 86.4H1075.83C1074.95 88.16 1074.51 89.96 1074.51 91.8C1074.51 93.64 1074.95 95.44 1075.83 97.2ZM1077.04 87.6H1080.31C1081.45 87.6 1082.4 88.008 1083.16 88.824C1083.92 89.632 1084.3 90.624 1084.3 91.8C1084.3 92.968 1083.92 93.964 1083.16 94.788C1082.4 95.596 1081.45 96 1080.31 96H1077.04V87.6ZM1078.15 94.944H1080.31C1081.17 94.944 1081.87 94.644 1082.41 94.044C1082.96 93.436 1083.23 92.688 1083.23 91.8C1083.23 90.912 1082.96 90.164 1082.41 89.556C1081.87 88.956 1081.17 88.656 1080.31 88.656H1078.15V94.944ZM1085.65 87.6H1088.93C1090.06 87.6 1091.01 88.008 1091.77 88.824C1092.53 89.632 1092.91 90.624 1092.91 91.8C1092.91 92.968 1092.53 93.964 1091.77 94.788C1091.01 95.596 1090.06 96 1088.93 96H1085.65V87.6ZM1086.77 94.944H1088.93C1089.78 94.944 1090.48 94.644 1091.03 94.044C1091.57 93.436 1091.84 92.688 1091.84 91.8C1091.84 90.912 1091.57 90.164 1091.03 89.556C1090.48 88.956 1089.78 88.656 1088.93 88.656H1086.77V94.944ZM1094.71 97.2H1093.66C1094.54 95.44 1094.98 93.64 1094.98 91.8C1094.98 89.96 1094.54 88.16 1093.66 86.4H1094.71C1095.59 88.16 1096.03 89.96 1096.03 91.8C1096.03 93.64 1095.59 95.44 1094.71 97.2ZM1098.07 97.2H1097.03C1097.91 95.44 1098.35 93.64 1098.35 91.8C1098.35 89.96 1097.91 88.16 1097.03 86.4H1098.07C1098.95 88.16 1099.39 89.96 1099.39 91.8C1099.39 93.64 1098.95 95.44 1098.07 97.2Z" fill="#6405FF"/>
<path d="M1031.84 48H1030.79V39.24H1031.84V48ZM1033.96 40.908C1033.76 40.908 1033.59 40.84 1033.45 40.704C1033.32 40.568 1033.25 40.404 1033.25 40.212C1033.25 40.02 1033.32 39.856 1033.45 39.72C1033.59 39.576 1033.76 39.504 1033.96 39.504C1034.15 39.504 1034.31 39.576 1034.45 39.72C1034.58 39.856 1034.65 40.02 1034.65 40.212C1034.65 40.404 1034.58 40.568 1034.45 40.704C1034.31 40.84 1034.15 40.908 1033.96 40.908ZM1034.47 48H1033.43V42H1034.47V48ZM1042.55 41.844C1043.23 41.844 1043.77 42.064 1044.18 42.504C1044.59 42.944 1044.8 43.532 1044.8 44.268V48H1043.76V44.304C1043.76 43.848 1043.64 43.492 1043.4 43.236C1043.17 42.972 1042.85 42.84 1042.44 42.84C1041.97 42.84 1041.61 42.996 1041.35 43.308C1041.09 43.612 1040.96 44.064 1040.96 44.664V48H1039.92V44.304C1039.92 43.848 1039.8 43.492 1039.57 43.236C1039.35 42.972 1039.04 42.84 1038.65 42.84C1038.19 42.84 1037.82 43 1037.53 43.32C1037.25 43.632 1037.11 44.08 1037.11 44.664V48H1036.07V42H1037.11V42.804C1037.52 42.164 1038.11 41.844 1038.9 41.844C1039.71 41.844 1040.29 42.184 1040.66 42.864C1041.08 42.184 1041.71 41.844 1042.55 41.844ZM1048.52 49.2H1047.47C1046.59 47.44 1046.15 45.64 1046.15 43.8C1046.15 41.96 1046.59 40.16 1047.47 38.4H1048.52C1047.64 40.16 1047.2 41.96 1047.2 43.8C1047.2 45.64 1047.64 47.44 1048.52 49.2ZM1050.84 39.6V46.944H1054.46V48H1049.72V39.6H1050.84ZM1060.3 47.244C1059.69 47.852 1058.95 48.156 1058.06 48.156C1057.17 48.156 1056.42 47.852 1055.81 47.244C1055.21 46.636 1054.9 45.888 1054.9 45C1054.9 44.112 1055.21 43.364 1055.81 42.756C1056.42 42.148 1057.17 41.844 1058.06 41.844C1058.95 41.844 1059.69 42.148 1060.3 42.756C1060.92 43.372 1061.23 44.12 1061.23 45C1061.23 45.88 1060.92 46.628 1060.3 47.244ZM1058.06 47.136C1058.66 47.136 1059.16 46.932 1059.57 46.524C1059.98 46.116 1060.18 45.608 1060.18 45C1060.18 44.392 1059.98 43.884 1059.57 43.476C1059.16 43.068 1058.66 42.864 1058.06 42.864C1057.47 42.864 1056.97 43.068 1056.56 43.476C1056.15 43.884 1055.95 44.392 1055.95 45C1055.95 45.608 1056.15 46.116 1056.56 46.524C1056.97 46.932 1057.47 47.136 1058.06 47.136ZM1063.23 43.62C1063.23 44.004 1063.62 44.304 1064.42 44.52C1064.71 44.584 1064.96 44.652 1065.16 44.724C1065.37 44.788 1065.59 44.888 1065.83 45.024C1066.08 45.16 1066.27 45.34 1066.4 45.564C1066.52 45.788 1066.59 46.052 1066.59 46.356C1066.59 46.9 1066.38 47.336 1065.95 47.664C1065.53 47.992 1064.99 48.156 1064.34 48.156C1063.77 48.156 1063.27 48.032 1062.84 47.784C1062.43 47.528 1062.13 47.184 1061.96 46.752L1062.86 46.236C1062.95 46.524 1063.13 46.752 1063.4 46.92C1063.66 47.088 1063.98 47.172 1064.34 47.172C1064.7 47.172 1064.99 47.104 1065.21 46.968C1065.42 46.832 1065.53 46.628 1065.53 46.356C1065.53 45.948 1065.14 45.652 1064.34 45.468C1064.08 45.396 1063.88 45.34 1063.74 45.3C1063.61 45.26 1063.42 45.188 1063.18 45.084C1062.95 44.98 1062.77 44.872 1062.65 44.76C1062.53 44.64 1062.42 44.484 1062.32 44.292C1062.22 44.092 1062.17 43.872 1062.17 43.632C1062.17 43.112 1062.37 42.684 1062.77 42.348C1063.18 42.012 1063.69 41.844 1064.3 41.844C1064.78 41.844 1065.22 41.956 1065.59 42.18C1065.98 42.396 1066.26 42.7 1066.46 43.092L1065.58 43.584C1065.36 43.072 1064.94 42.816 1064.3 42.816C1063.99 42.816 1063.74 42.888 1063.53 43.032C1063.33 43.176 1063.23 43.372 1063.23 43.62ZM1068.35 43.62C1068.35 44.004 1068.74 44.304 1069.54 44.52C1069.83 44.584 1070.08 44.652 1070.28 44.724C1070.49 44.788 1070.71 44.888 1070.95 45.024C1071.2 45.16 1071.39 45.34 1071.52 45.564C1071.64 45.788 1071.71 46.052 1071.71 46.356C1071.71 46.9 1071.5 47.336 1071.07 47.664C1070.65 47.992 1070.11 48.156 1069.46 48.156C1068.89 48.156 1068.39 48.032 1067.96 47.784C1067.55 47.528 1067.25 47.184 1067.08 46.752L1067.98 46.236C1068.07 46.524 1068.25 46.752 1068.52 46.92C1068.78 47.088 1069.1 47.172 1069.46 47.172C1069.82 47.172 1070.11 47.104 1070.33 46.968C1070.54 46.832 1070.65 46.628 1070.65 46.356C1070.65 45.948 1070.26 45.652 1069.46 45.468C1069.2 45.396 1069 45.34 1068.86 45.3C1068.73 45.26 1068.54 45.188 1068.3 45.084C1068.07 44.98 1067.89 44.872 1067.77 44.76C1067.65 44.64 1067.54 44.484 1067.44 44.292C1067.34 44.092 1067.29 43.872 1067.29 43.632C1067.29 43.112 1067.49 42.684 1067.89 42.348C1068.3 42.012 1068.81 41.844 1069.42 41.844C1069.9 41.844 1070.34 41.956 1070.71 42.18C1071.1 42.396 1071.38 42.7 1071.58 43.092L1070.7 43.584C1070.48 43.072 1070.06 42.816 1069.42 42.816C1069.11 42.816 1068.86 42.888 1068.65 43.032C1068.45 43.176 1068.35 43.372 1068.35 43.62ZM1075.21 49.2H1074.17C1073.29 47.44 1072.85 45.64 1072.85 43.8C1072.85 41.96 1073.29 40.16 1074.17 38.4H1075.21C1074.33 40.16 1073.89 41.96 1073.89 43.8C1073.89 45.64 1074.33 47.44 1075.21 49.2ZM1079.52 48H1078.23L1075.82 39.6H1076.99L1078.91 46.512L1080.95 39.6H1082.08L1084.12 46.512L1086.04 39.6H1087.22L1084.8 48H1083.51L1081.52 41.292L1079.52 48ZM1088.86 49.2H1087.82C1088.7 47.44 1089.14 45.64 1089.14 43.8C1089.14 41.96 1088.7 40.16 1087.82 38.4H1088.86C1089.74 40.16 1090.18 41.96 1090.18 43.8C1090.18 45.64 1089.74 47.44 1088.86 49.2ZM1092.22 49.2H1091.18C1092.06 47.44 1092.5 45.64 1092.5 43.8C1092.5 41.96 1092.06 40.16 1091.18 38.4H1092.22C1093.1 40.16 1093.54 41.96 1093.54 43.8C1093.54 45.64 1093.1 47.44 1092.22 49.2Z" fill="#EE3737"/>
<line x1="921" y1="119.5" x2="945" y2="119.5" stroke="#6405FF"/>
<path d="M956.836 116H955.792V107.24H956.836V116ZM958.957 108.908C958.757 108.908 958.589 108.84 958.453 108.704C958.317 108.568 958.249 108.404 958.249 108.212C958.249 108.02 958.317 107.856 958.453 107.72C958.589 107.576 958.757 107.504 958.957 107.504C959.149 107.504 959.313 107.576 959.449 107.72C959.585 107.856 959.653 108.02 959.653 108.212C959.653 108.404 959.585 108.568 959.449 108.704C959.313 108.84 959.149 108.908 958.957 108.908ZM959.473 116H958.429V110H959.473V116ZM967.545 109.844C968.225 109.844 968.769 110.064 969.177 110.504C969.593 110.944 969.801 111.532 969.801 112.268V116H968.757V112.304C968.757 111.848 968.637 111.492 968.397 111.236C968.165 110.972 967.845 110.84 967.437 110.84C966.973 110.84 966.609 110.996 966.345 111.308C966.089 111.612 965.961 112.064 965.961 112.664V116H964.917V112.304C964.917 111.848 964.801 111.492 964.569 111.236C964.345 110.972 964.037 110.84 963.645 110.84C963.189 110.84 962.817 111 962.529 111.32C962.249 111.632 962.109 112.08 962.109 112.664V116H961.065V110H962.109V110.804C962.517 110.164 963.113 109.844 963.897 109.844C964.705 109.844 965.293 110.184 965.661 110.864C966.077 110.184 966.705 109.844 967.545 109.844ZM973.517 117.2H972.473C971.593 115.44 971.153 113.64 971.153 111.8C971.153 109.96 971.593 108.16 972.473 106.4H973.517C972.637 108.16 972.197 109.96 972.197 111.8C972.197 113.64 972.637 115.44 973.517 117.2ZM981.092 109.844C981.772 109.844 982.316 110.064 982.724 110.504C983.14 110.944 983.348 111.532 983.348 112.268V116H982.304V112.304C982.304 111.848 982.184 111.492 981.944 111.236C981.712 110.972 981.392 110.84 980.984 110.84C980.52 110.84 980.156 110.996 979.892 111.308C979.636 111.612 979.508 112.064 979.508 112.664V116H978.464V112.304C978.464 111.848 978.348 111.492 978.116 111.236C977.892 110.972 977.584 110.84 977.192 110.84C976.736 110.84 976.364 111 976.076 111.32C975.796 111.632 975.656 112.08 975.656 112.664V116H974.612V110H975.656V110.804C976.064 110.164 976.66 109.844 977.444 109.844C978.252 109.844 978.84 110.184 979.208 110.864C979.624 110.184 980.252 109.844 981.092 109.844ZM989.764 111.032V110H990.808V116H989.764V114.968C989.252 115.76 988.496 116.156 987.496 116.156C986.648 116.156 985.932 115.852 985.348 115.244C984.756 114.628 984.46 113.88 984.46 113C984.46 112.128 984.756 111.384 985.348 110.768C985.94 110.152 986.656 109.844 987.496 109.844C988.496 109.844 989.252 110.24 989.764 111.032ZM987.628 115.148C988.236 115.148 988.744 114.944 989.152 114.536C989.56 114.112 989.764 113.6 989.764 113C989.764 112.392 989.56 111.884 989.152 111.476C988.744 111.06 988.236 110.852 987.628 110.852C987.028 110.852 986.524 111.06 986.116 111.476C985.708 111.884 985.504 112.392 985.504 113C985.504 113.6 985.708 114.112 986.116 114.536C986.524 114.944 987.028 115.148 987.628 115.148ZM995.306 112.904L997.598 116H996.374L994.694 113.732L993.002 116H991.778L994.082 112.916L991.91 110H993.146L994.694 112.088L996.242 110H997.466L995.306 112.904ZM1000.83 117.2H999.789C998.909 115.44 998.469 113.64 998.469 111.8C998.469 109.96 998.909 108.16 999.789 106.4H1000.83C999.953 108.16 999.513 109.96 999.513 111.8C999.513 113.64 999.953 115.44 1000.83 117.2ZM1002.04 107.6H1005.31C1006.45 107.6 1007.4 108.008 1008.16 108.824C1008.92 109.632 1009.3 110.624 1009.3 111.8C1009.3 112.968 1008.92 113.964 1008.16 114.788C1007.4 115.596 1006.45 116 1005.31 116H1002.04V107.6ZM1003.15 114.944H1005.31C1006.17 114.944 1006.87 114.644 1007.41 114.044C1007.96 113.436 1008.23 112.688 1008.23 111.8C1008.23 110.912 1007.96 110.164 1007.41 109.556C1006.87 108.956 1006.17 108.656 1005.31 108.656H1003.15V114.944ZM1010.65 107.6H1013.93C1015.06 107.6 1016.01 108.008 1016.77 108.824C1017.53 109.632 1017.91 110.624 1017.91 111.8C1017.91 112.968 1017.53 113.964 1016.77 114.788C1016.01 115.596 1015.06 116 1013.93 116H1010.65V107.6ZM1011.77 114.944H1013.93C1014.78 114.944 1015.48 114.644 1016.03 114.044C1016.57 113.436 1016.84 112.688 1016.84 111.8C1016.84 110.912 1016.57 110.164 1016.03 109.556C1015.48 108.956 1014.78 108.656 1013.93 108.656H1011.77V114.944ZM1019.71 117.2H1018.66C1019.54 115.44 1019.98 113.64 1019.98 111.8C1019.98 109.96 1019.54 108.16 1018.66 106.4H1019.71C1020.59 108.16 1021.03 109.96 1021.03 111.8C1021.03 113.64 1020.59 115.44 1019.71 117.2ZM1023.07 117.2H1022.03C1022.91 115.44 1023.35 113.64 1023.35 111.8C1023.35 109.96 1022.91 108.16 1022.03 106.4H1023.07C1023.95 108.16 1024.39 109.96 1024.39 111.8C1024.39 113.64 1023.95 115.44 1023.07 117.2Z" fill="#6405FF"/>
<path d="M933 31L929.536 37L936.464 37L933 31ZM933 119L936.464 113L929.536 113L933 119ZM932.4 36.4L932.4 113.6L933.6 113.6L933.6 36.4L932.4 36.4Z" fill="#6405FF"/>
<path d="M812.836 143H811.792V134.24H812.836V143ZM814.957 135.908C814.757 135.908 814.589 135.84 814.453 135.704C814.317 135.568 814.249 135.404 814.249 135.212C814.249 135.02 814.317 134.856 814.453 134.72C814.589 134.576 814.757 134.504 814.957 134.504C815.149 134.504 815.313 134.576 815.449 134.72C815.585 134.856 815.653 135.02 815.653 135.212C815.653 135.404 815.585 135.568 815.449 135.704C815.313 135.84 815.149 135.908 814.957 135.908ZM815.473 143H814.429V137H815.473V143ZM823.545 136.844C824.225 136.844 824.769 137.064 825.177 137.504C825.593 137.944 825.801 138.532 825.801 139.268V143H824.757V139.304C824.757 138.848 824.637 138.492 824.397 138.236C824.165 137.972 823.845 137.84 823.437 137.84C822.973 137.84 822.609 137.996 822.345 138.308C822.089 138.612 821.961 139.064 821.961 139.664V143H820.917V139.304C820.917 138.848 820.801 138.492 820.569 138.236C820.345 137.972 820.037 137.84 819.645 137.84C819.189 137.84 818.817 138 818.529 138.32C818.249 138.632 818.109 139.08 818.109 139.664V143H817.065V137H818.109V137.804C818.517 137.164 819.113 136.844 819.897 136.844C820.705 136.844 821.293 137.184 821.661 137.864C822.077 137.184 822.705 136.844 823.545 136.844ZM829.517 144.2H828.473C827.593 142.44 827.153 140.64 827.153 138.8C827.153 136.96 827.593 135.16 828.473 133.4H829.517C828.637 135.16 828.197 136.96 828.197 138.8C828.197 140.64 828.637 142.44 829.517 144.2ZM831.836 134.6V141.944H835.46V143H830.72V134.6H831.836ZM841.301 142.244C840.693 142.852 839.945 143.156 839.057 143.156C838.169 143.156 837.421 142.852 836.813 142.244C836.205 141.636 835.901 140.888 835.901 140C835.901 139.112 836.205 138.364 836.813 137.756C837.421 137.148 838.169 136.844 839.057 136.844C839.945 136.844 840.693 137.148 841.301 137.756C841.917 138.372 842.225 139.12 842.225 140C842.225 140.88 841.917 141.628 841.301 142.244ZM839.057 142.136C839.657 142.136 840.161 141.932 840.569 141.524C840.977 141.116 841.181 140.608 841.181 140C841.181 139.392 840.977 138.884 840.569 138.476C840.161 138.068 839.657 137.864 839.057 137.864C838.465 137.864 837.965 138.068 837.557 138.476C837.149 138.884 836.945 139.392 836.945 140C836.945 140.608 837.149 141.116 837.557 141.524C837.965 141.932 838.465 142.136 839.057 142.136ZM844.227 138.62C844.227 139.004 844.623 139.304 845.415 139.52C845.711 139.584 845.959 139.652 846.159 139.724C846.367 139.788 846.591 139.888 846.831 140.024C847.079 140.16 847.267 140.34 847.395 140.564C847.523 140.788 847.587 141.052 847.587 141.356C847.587 141.9 847.375 142.336 846.951 142.664C846.527 142.992 845.991 143.156 845.343 143.156C844.767 143.156 844.267 143.032 843.843 142.784C843.427 142.528 843.131 142.184 842.955 141.752L843.855 141.236C843.951 141.524 844.131 141.752 844.395 141.92C844.659 142.088 844.975 142.172 845.343 142.172C845.703 142.172 845.991 142.104 846.207 141.968C846.423 141.832 846.531 141.628 846.531 141.356C846.531 140.948 846.135 140.652 845.343 140.468C845.079 140.396 844.879 140.34 844.743 140.3C844.607 140.26 844.419 140.188 844.179 140.084C843.947 139.98 843.771 139.872 843.651 139.76C843.531 139.64 843.419 139.484 843.315 139.292C843.219 139.092 843.171 138.872 843.171 138.632C843.171 138.112 843.371 137.684 843.771 137.348C844.179 137.012 844.687 136.844 845.295 136.844C845.783 136.844 846.215 136.956 846.591 137.18C846.975 137.396 847.263 137.7 847.455 138.092L846.579 138.584C846.363 138.072 845.935 137.816 845.295 137.816C844.991 137.816 844.735 137.888 844.527 138.032C844.327 138.176 844.227 138.372 844.227 138.62ZM849.348 138.62C849.348 139.004 849.744 139.304 850.536 139.52C850.832 139.584 851.08 139.652 851.28 139.724C851.488 139.788 851.712 139.888 851.952 140.024C852.2 140.16 852.388 140.34 852.516 140.564C852.644 140.788 852.708 141.052 852.708 141.356C852.708 141.9 852.496 142.336 852.072 142.664C851.648 142.992 851.112 143.156 850.464 143.156C849.888 143.156 849.388 143.032 848.964 142.784C848.548 142.528 848.252 142.184 848.076 141.752L848.976 141.236C849.072 141.524 849.252 141.752 849.516 141.92C849.78 142.088 850.096 142.172 850.464 142.172C850.824 142.172 851.112 142.104 851.328 141.968C851.544 141.832 851.652 141.628 851.652 141.356C851.652 140.948 851.256 140.652 850.464 140.468C850.2 140.396 850 140.34 849.864 140.3C849.728 140.26 849.54 140.188 849.3 140.084C849.068 139.98 848.892 139.872 848.772 139.76C848.652 139.64 848.54 139.484 848.436 139.292C848.34 139.092 848.292 138.872 848.292 138.632C848.292 138.112 848.492 137.684 848.892 137.348C849.3 137.012 849.808 136.844 850.416 136.844C850.904 136.844 851.336 136.956 851.712 137.18C852.096 137.396 852.384 137.7 852.576 138.092L851.7 138.584C851.484 138.072 851.056 137.816 850.416 137.816C850.112 137.816 849.856 137.888 849.648 138.032C849.448 138.176 849.348 138.372 849.348 138.62ZM856.212 144.2H855.168C854.288 142.44 853.848 140.64 853.848 138.8C853.848 136.96 854.288 135.16 855.168 133.4H856.212C855.332 135.16 854.892 136.96 854.892 138.8C854.892 140.64 855.332 142.44 856.212 144.2ZM860.524 143H859.228L856.816 134.6H857.992L859.912 141.512L861.952 134.6H863.08L865.12 141.512L867.04 134.6H868.216L865.804 143H864.508L862.516 136.292L860.524 143ZM869.86 144.2H868.816C869.696 142.44 870.136 140.64 870.136 138.8C870.136 136.96 869.696 135.16 868.816 133.4H869.86C870.74 135.16 871.18 136.96 871.18 138.8C871.18 140.64 870.74 142.44 869.86 144.2ZM873.223 144.2H872.179C873.059 142.44 873.499 140.64 873.499 138.8C873.499 136.96 873.059 135.16 872.179 133.4H873.223C874.103 135.16 874.543 136.96 874.543 138.8C874.543 140.64 874.103 142.44 873.223 144.2Z" fill="#EE3737"/>
<line x1="777" y1="146.5" x2="801" y2="146.5" stroke="#EE3737"/>
<path d="M789 99L785.536 105L792.464 105L789 99ZM789 146L792.464 140L785.536 140L789 146ZM788.4 104.4L788.4 140.6L789.6 140.6L789.6 104.4L788.4 104.4Z" fill="#EE3737"/>
<line x1="717" y1="170.5" x2="741" y2="170.5" stroke="#6405FF"/>
<path d="M752.836 167H751.792V158.24H752.836V167ZM754.957 159.908C754.757 159.908 754.589 159.84 754.453 159.704C754.317 159.568 754.249 159.404 754.249 159.212C754.249 159.02 754.317 158.856 754.453 158.72C754.589 158.576 754.757 158.504 754.957 158.504C755.149 158.504 755.313 158.576 755.449 158.72C755.585 158.856 755.653 159.02 755.653 159.212C755.653 159.404 755.585 159.568 755.449 159.704C755.313 159.84 755.149 159.908 754.957 159.908ZM755.473 167H754.429V161H755.473V167ZM763.545 160.844C764.225 160.844 764.769 161.064 765.177 161.504C765.593 161.944 765.801 162.532 765.801 163.268V167H764.757V163.304C764.757 162.848 764.637 162.492 764.397 162.236C764.165 161.972 763.845 161.84 763.437 161.84C762.973 161.84 762.609 161.996 762.345 162.308C762.089 162.612 761.961 163.064 761.961 163.664V167H760.917V163.304C760.917 162.848 760.801 162.492 760.569 162.236C760.345 161.972 760.037 161.84 759.645 161.84C759.189 161.84 758.817 162 758.529 162.32C758.249 162.632 758.109 163.08 758.109 163.664V167H757.065V161H758.109V161.804C758.517 161.164 759.113 160.844 759.897 160.844C760.705 160.844 761.293 161.184 761.661 161.864C762.077 161.184 762.705 160.844 763.545 160.844ZM769.517 168.2H768.473C767.593 166.44 767.153 164.64 767.153 162.8C767.153 160.96 767.593 159.16 768.473 157.4H769.517C768.637 159.16 768.197 160.96 768.197 162.8C768.197 164.64 768.637 166.44 769.517 168.2ZM777.092 160.844C777.772 160.844 778.316 161.064 778.724 161.504C779.14 161.944 779.348 162.532 779.348 163.268V167H778.304V163.304C778.304 162.848 778.184 162.492 777.944 162.236C777.712 161.972 777.392 161.84 776.984 161.84C776.52 161.84 776.156 161.996 775.892 162.308C775.636 162.612 775.508 163.064 775.508 163.664V167H774.464V163.304C774.464 162.848 774.348 162.492 774.116 162.236C773.892 161.972 773.584 161.84 773.192 161.84C772.736 161.84 772.364 162 772.076 162.32C771.796 162.632 771.656 163.08 771.656 163.664V167H770.612V161H771.656V161.804C772.064 161.164 772.66 160.844 773.444 160.844C774.252 160.844 774.84 161.184 775.208 161.864C775.624 161.184 776.252 160.844 777.092 160.844ZM785.764 162.032V161H786.808V167H785.764V165.968C785.252 166.76 784.496 167.156 783.496 167.156C782.648 167.156 781.932 166.852 781.348 166.244C780.756 165.628 780.46 164.88 780.46 164C780.46 163.128 780.756 162.384 781.348 161.768C781.94 161.152 782.656 160.844 783.496 160.844C784.496 160.844 785.252 161.24 785.764 162.032ZM783.628 166.148C784.236 166.148 784.744 165.944 785.152 165.536C785.56 165.112 785.764 164.6 785.764 164C785.764 163.392 785.56 162.884 785.152 162.476C784.744 162.06 784.236 161.852 783.628 161.852C783.028 161.852 782.524 162.06 782.116 162.476C781.708 162.884 781.504 163.392 781.504 164C781.504 164.6 781.708 165.112 782.116 165.536C782.524 165.944 783.028 166.148 783.628 166.148ZM791.306 163.904L793.598 167H792.374L790.694 164.732L789.002 167H787.778L790.082 163.916L787.91 161H789.146L790.694 163.088L792.242 161H793.466L791.306 163.904ZM796.833 168.2H795.789C794.909 166.44 794.469 164.64 794.469 162.8C794.469 160.96 794.909 159.16 795.789 157.4H796.833C795.953 159.16 795.513 160.96 795.513 162.8C795.513 164.64 795.953 166.44 796.833 168.2ZM798.037 158.6H801.313C802.449 158.6 803.397 159.008 804.157 159.824C804.917 160.632 805.297 161.624 805.297 162.8C805.297 163.968 804.917 164.964 804.157 165.788C803.397 166.596 802.449 167 801.313 167H798.037V158.6ZM799.153 165.944H801.313C802.169 165.944 802.869 165.644 803.413 165.044C803.957 164.436 804.229 163.688 804.229 162.8C804.229 161.912 803.957 161.164 803.413 160.556C802.869 159.956 802.169 159.656 801.313 159.656H799.153V165.944ZM806.65 158.6H809.926C811.062 158.6 812.01 159.008 812.77 159.824C813.53 160.632 813.91 161.624 813.91 162.8C813.91 163.968 813.53 164.964 812.77 165.788C812.01 166.596 811.062 167 809.926 167H806.65V158.6ZM807.766 165.944H809.926C810.782 165.944 811.482 165.644 812.026 165.044C812.57 164.436 812.842 163.688 812.842 162.8C812.842 161.912 812.57 161.164 812.026 160.556C811.482 159.956 810.782 159.656 809.926 159.656H807.766V165.944ZM815.707 168.2H814.663C815.543 166.44 815.983 164.64 815.983 162.8C815.983 160.96 815.543 159.16 814.663 157.4H815.707C816.587 159.16 817.027 160.96 817.027 162.8C817.027 164.64 816.587 166.44 815.707 168.2ZM819.071 168.2H818.027C818.907 166.44 819.347 164.64 819.347 162.8C819.347 160.96 818.907 159.16 818.027 157.4H819.071C819.951 159.16 820.391 160.96 820.391 162.8C820.391 164.64 819.951 166.44 819.071 168.2Z" fill="#6405FF"/>
<path d="M729 71L725.536 77L732.464 77L729 71ZM729 170L732.464 164L725.536 164L729 170ZM728.4 76.4L728.4 164.6L729.6 164.6L729.6 76.4L728.4 76.4Z" fill="#6405FF"/>
<path d="M569 147L565.536 153L572.464 153L569 147ZM569 194L572.464 188L565.536 188L569 194ZM568.4 152.4L568.4 188.6L569.6 188.6L569.6 152.4L568.4 152.4Z" fill="#6405FF"/>
<line x1="557" y1="146.5" x2="581" y2="146.5" stroke="#EE3737"/>
<line x1="557" y1="194.5" x2="581" y2="194.5" stroke="#6405FF"/>
<path d="M569 99L565.536 105L572.464 105L569 99ZM569 146L572.464 140L565.536 140L569 146ZM568.4 104.4L568.4 140.6L569.6 140.6L569.6 104.4L568.4 104.4Z" fill="#EE3737"/>
<path d="M592.836 191H591.792V182.24H592.836V191ZM594.957 183.908C594.757 183.908 594.589 183.84 594.453 183.704C594.317 183.568 594.249 183.404 594.249 183.212C594.249 183.02 594.317 182.856 594.453 182.72C594.589 182.576 594.757 182.504 594.957 182.504C595.149 182.504 595.313 182.576 595.449 182.72C595.585 182.856 595.653 183.02 595.653 183.212C595.653 183.404 595.585 183.568 595.449 183.704C595.313 183.84 595.149 183.908 594.957 183.908ZM595.473 191H594.429V185H595.473V191ZM603.545 184.844C604.225 184.844 604.769 185.064 605.177 185.504C605.593 185.944 605.801 186.532 605.801 187.268V191H604.757V187.304C604.757 186.848 604.637 186.492 604.397 186.236C604.165 185.972 603.845 185.84 603.437 185.84C602.973 185.84 602.609 185.996 602.345 186.308C602.089 186.612 601.961 187.064 601.961 187.664V191H600.917V187.304C600.917 186.848 600.801 186.492 600.569 186.236C600.345 185.972 600.037 185.84 599.645 185.84C599.189 185.84 598.817 186 598.529 186.32C598.249 186.632 598.109 187.08 598.109 187.664V191H597.065V185H598.109V185.804C598.517 185.164 599.113 184.844 599.897 184.844C600.705 184.844 601.293 185.184 601.661 185.864C602.077 185.184 602.705 184.844 603.545 184.844ZM609.517 192.2H608.473C607.593 190.44 607.153 188.64 607.153 186.8C607.153 184.96 607.593 183.16 608.473 181.4H609.517C608.637 183.16 608.197 184.96 608.197 186.8C608.197 188.64 608.637 190.44 609.517 192.2ZM617.092 184.844C617.772 184.844 618.316 185.064 618.724 185.504C619.14 185.944 619.348 186.532 619.348 187.268V191H618.304V187.304C618.304 186.848 618.184 186.492 617.944 186.236C617.712 185.972 617.392 185.84 616.984 185.84C616.52 185.84 616.156 185.996 615.892 186.308C615.636 186.612 615.508 187.064 615.508 187.664V191H614.464V187.304C614.464 186.848 614.348 186.492 614.116 186.236C613.892 185.972 613.584 185.84 613.192 185.84C612.736 185.84 612.364 186 612.076 186.32C611.796 186.632 611.656 187.08 611.656 187.664V191H610.612V185H611.656V185.804C612.064 185.164 612.66 184.844 613.444 184.844C614.252 184.844 614.84 185.184 615.208 185.864C615.624 185.184 616.252 184.844 617.092 184.844ZM625.764 186.032V185H626.808V191H625.764V189.968C625.252 190.76 624.496 191.156 623.496 191.156C622.648 191.156 621.932 190.852 621.348 190.244C620.756 189.628 620.46 188.88 620.46 188C620.46 187.128 620.756 186.384 621.348 185.768C621.94 185.152 622.656 184.844 623.496 184.844C624.496 184.844 625.252 185.24 625.764 186.032ZM623.628 190.148C624.236 190.148 624.744 189.944 625.152 189.536C625.56 189.112 625.764 188.6 625.764 188C625.764 187.392 625.56 186.884 625.152 186.476C624.744 186.06 624.236 185.852 623.628 185.852C623.028 185.852 622.524 186.06 622.116 186.476C621.708 186.884 621.504 187.392 621.504 188C621.504 188.6 621.708 189.112 622.116 189.536C622.524 189.944 623.028 190.148 623.628 190.148ZM631.306 187.904L633.598 191H632.374L630.694 188.732L629.002 191H627.778L630.082 187.916L627.91 185H629.146L630.694 187.088L632.242 185H633.466L631.306 187.904ZM636.833 192.2H635.789C634.909 190.44 634.469 188.64 634.469 186.8C634.469 184.96 634.909 183.16 635.789 181.4H636.833C635.953 183.16 635.513 184.96 635.513 186.8C635.513 188.64 635.953 190.44 636.833 192.2ZM638.037 182.6H641.313C642.449 182.6 643.397 183.008 644.157 183.824C644.917 184.632 645.297 185.624 645.297 186.8C645.297 187.968 644.917 188.964 644.157 189.788C643.397 190.596 642.449 191 641.313 191H638.037V182.6ZM639.153 189.944H641.313C642.169 189.944 642.869 189.644 643.413 189.044C643.957 188.436 644.229 187.688 644.229 186.8C644.229 185.912 643.957 185.164 643.413 184.556C642.869 183.956 642.169 183.656 641.313 183.656H639.153V189.944ZM646.65 182.6H649.926C651.062 182.6 652.01 183.008 652.77 183.824C653.53 184.632 653.91 185.624 653.91 186.8C653.91 187.968 653.53 188.964 652.77 189.788C652.01 190.596 651.062 191 649.926 191H646.65V182.6ZM647.766 189.944H649.926C650.782 189.944 651.482 189.644 652.026 189.044C652.57 188.436 652.842 187.688 652.842 186.8C652.842 185.912 652.57 185.164 652.026 184.556C651.482 183.956 650.782 183.656 649.926 183.656H647.766V189.944ZM655.707 192.2H654.663C655.543 190.44 655.983 188.64 655.983 186.8C655.983 184.96 655.543 183.16 654.663 181.4H655.707C656.587 183.16 657.027 184.96 657.027 186.8C657.027 188.64 656.587 190.44 655.707 192.2ZM659.071 192.2H658.027C658.907 190.44 659.347 188.64 659.347 186.8C659.347 184.96 658.907 183.16 658.027 181.4H659.071C659.951 183.16 660.391 184.96 660.391 186.8C660.391 188.64 659.951 190.44 659.071 192.2Z" fill="#6405FF"/>
<path d="M592.836 143H591.792V134.24H592.836V143ZM594.957 135.908C594.757 135.908 594.589 135.84 594.453 135.704C594.317 135.568 594.249 135.404 594.249 135.212C594.249 135.02 594.317 134.856 594.453 134.72C594.589 134.576 594.757 134.504 594.957 134.504C595.149 134.504 595.313 134.576 595.449 134.72C595.585 134.856 595.653 135.02 595.653 135.212C595.653 135.404 595.585 135.568 595.449 135.704C595.313 135.84 595.149 135.908 594.957 135.908ZM595.473 143H594.429V137H595.473V143ZM603.545 136.844C604.225 136.844 604.769 137.064 605.177 137.504C605.593 137.944 605.801 138.532 605.801 139.268V143H604.757V139.304C604.757 138.848 604.637 138.492 604.397 138.236C604.165 137.972 603.845 137.84 603.437 137.84C602.973 137.84 602.609 137.996 602.345 138.308C602.089 138.612 601.961 139.064 601.961 139.664V143H600.917V139.304C600.917 138.848 600.801 138.492 600.569 138.236C600.345 137.972 600.037 137.84 599.645 137.84C599.189 137.84 598.817 138 598.529 138.32C598.249 138.632 598.109 139.08 598.109 139.664V143H597.065V137H598.109V137.804C598.517 137.164 599.113 136.844 599.897 136.844C600.705 136.844 601.293 137.184 601.661 137.864C602.077 137.184 602.705 136.844 603.545 136.844ZM609.517 144.2H608.473C607.593 142.44 607.153 140.64 607.153 138.8C607.153 136.96 607.593 135.16 608.473 133.4H609.517C608.637 135.16 608.197 136.96 608.197 138.8C608.197 140.64 608.637 142.44 609.517 144.2ZM611.836 134.6V141.944H615.46V143H610.72V134.6H611.836ZM621.301 142.244C620.693 142.852 619.945 143.156 619.057 143.156C618.169 143.156 617.421 142.852 616.813 142.244C616.205 141.636 615.901 140.888 615.901 140C615.901 139.112 616.205 138.364 616.813 137.756C617.421 137.148 618.169 136.844 619.057 136.844C619.945 136.844 620.693 137.148 621.301 137.756C621.917 138.372 622.225 139.12 622.225 140C622.225 140.88 621.917 141.628 621.301 142.244ZM619.057 142.136C619.657 142.136 620.161 141.932 620.569 141.524C620.977 141.116 621.181 140.608 621.181 140C621.181 139.392 620.977 138.884 620.569 138.476C620.161 138.068 619.657 137.864 619.057 137.864C618.465 137.864 617.965 138.068 617.557 138.476C617.149 138.884 616.945 139.392 616.945 140C616.945 140.608 617.149 141.116 617.557 141.524C617.965 141.932 618.465 142.136 619.057 142.136ZM624.227 138.62C624.227 139.004 624.623 139.304 625.415 139.52C625.711 139.584 625.959 139.652 626.159 139.724C626.367 139.788 626.591 139.888 626.831 140.024C627.079 140.16 627.267 140.34 627.395 140.564C627.523 140.788 627.587 141.052 627.587 141.356C627.587 141.9 627.375 142.336 626.951 142.664C626.527 142.992 625.991 143.156 625.343 143.156C624.767 143.156 624.267 143.032 623.843 142.784C623.427 142.528 623.131 142.184 622.955 141.752L623.855 141.236C623.951 141.524 624.131 141.752 624.395 141.92C624.659 142.088 624.975 142.172 625.343 142.172C625.703 142.172 625.991 142.104 626.207 141.968C626.423 141.832 626.531 141.628 626.531 141.356C626.531 140.948 626.135 140.652 625.343 140.468C625.079 140.396 624.879 140.34 624.743 140.3C624.607 140.26 624.419 140.188 624.179 140.084C623.947 139.98 623.771 139.872 623.651 139.76C623.531 139.64 623.419 139.484 623.315 139.292C623.219 139.092 623.171 138.872 623.171 138.632C623.171 138.112 623.371 137.684 623.771 137.348C624.179 137.012 624.687 136.844 625.295 136.844C625.783 136.844 626.215 136.956 626.591 137.18C626.975 137.396 627.263 137.7 627.455 138.092L626.579 138.584C626.363 138.072 625.935 137.816 625.295 137.816C624.991 137.816 624.735 137.888 624.527 138.032C624.327 138.176 624.227 138.372 624.227 138.62ZM629.348 138.62C629.348 139.004 629.744 139.304 630.536 139.52C630.832 139.584 631.08 139.652 631.28 139.724C631.488 139.788 631.712 139.888 631.952 140.024C632.2 140.16 632.388 140.34 632.516 140.564C632.644 140.788 632.708 141.052 632.708 141.356C632.708 141.9 632.496 142.336 632.072 142.664C631.648 142.992 631.112 143.156 630.464 143.156C629.888 143.156 629.388 143.032 628.964 142.784C628.548 142.528 628.252 142.184 628.076 141.752L628.976 141.236C629.072 141.524 629.252 141.752 629.516 141.92C629.78 142.088 630.096 142.172 630.464 142.172C630.824 142.172 631.112 142.104 631.328 141.968C631.544 141.832 631.652 141.628 631.652 141.356C631.652 140.948 631.256 140.652 630.464 140.468C630.2 140.396 630 140.34 629.864 140.3C629.728 140.26 629.54 140.188 629.3 140.084C629.068 139.98 628.892 139.872 628.772 139.76C628.652 139.64 628.54 139.484 628.436 139.292C628.34 139.092 628.292 138.872 628.292 138.632C628.292 138.112 628.492 137.684 628.892 137.348C629.3 137.012 629.808 136.844 630.416 136.844C630.904 136.844 631.336 136.956 631.712 137.18C632.096 137.396 632.384 137.7 632.576 138.092L631.7 138.584C631.484 138.072 631.056 137.816 630.416 137.816C630.112 137.816 629.856 137.888 629.648 138.032C629.448 138.176 629.348 138.372 629.348 138.62ZM636.212 144.2H635.168C634.288 142.44 633.848 140.64 633.848 138.8C633.848 136.96 634.288 135.16 635.168 133.4H636.212C635.332 135.16 634.892 136.96 634.892 138.8C634.892 140.64 635.332 142.44 636.212 144.2ZM640.524 143H639.228L636.816 134.6H637.992L639.912 141.512L641.952 134.6H643.08L645.12 141.512L647.04 134.6H648.216L645.804 143H644.508L642.516 136.292L640.524 143ZM649.86 144.2H648.816C649.696 142.44 650.136 140.64 650.136 138.8C650.136 136.96 649.696 135.16 648.816 133.4H649.86C650.74 135.16 651.18 136.96 651.18 138.8C651.18 140.64 650.74 142.44 649.86 144.2ZM653.223 144.2H652.179C653.059 142.44 653.499 140.64 653.499 138.8C653.499 136.96 653.059 135.16 652.179 133.4H653.223C654.103 135.16 654.543 136.96 654.543 138.8C654.543 140.64 654.103 142.44 653.223 144.2Z" fill="#EE3737"/>
<path d="M349 243L345.536 249L352.464 249L349 243ZM349 290L352.464 284L345.536 284L349 290ZM348.4 248.4L348.4 284.6L349.6 284.6L349.6 248.4L348.4 248.4Z" fill="#6405FF"/>
<line x1="337" y1="242.5" x2="361" y2="242.5" stroke="#EE3737"/>
<line x1="337" y1="290.5" x2="361" y2="290.5" stroke="#6405FF"/>
<path d="M349 195L345.536 201L352.464 201L349 195ZM349 242L352.464 236L345.536 236L349 242ZM348.4 200.4L348.4 236.6L349.6 236.6L349.6 200.4L348.4 200.4Z" fill="#EE3737"/>
<path d="M372.836 287H371.792V278.24H372.836V287ZM374.957 279.908C374.757 279.908 374.589 279.84 374.453 279.704C374.317 279.568 374.249 279.404 374.249 279.212C374.249 279.02 374.317 278.856 374.453 278.72C374.589 278.576 374.757 278.504 374.957 278.504C375.149 278.504 375.313 278.576 375.449 278.72C375.585 278.856 375.653 279.02 375.653 279.212C375.653 279.404 375.585 279.568 375.449 279.704C375.313 279.84 375.149 279.908 374.957 279.908ZM375.473 287H374.429V281H375.473V287ZM383.545 280.844C384.225 280.844 384.769 281.064 385.177 281.504C385.593 281.944 385.801 282.532 385.801 283.268V287H384.757V283.304C384.757 282.848 384.637 282.492 384.397 282.236C384.165 281.972 383.845 281.84 383.437 281.84C382.973 281.84 382.609 281.996 382.345 282.308C382.089 282.612 381.961 283.064 381.961 283.664V287H380.917V283.304C380.917 282.848 380.801 282.492 380.569 282.236C380.345 281.972 380.037 281.84 379.645 281.84C379.189 281.84 378.817 282 378.529 282.32C378.249 282.632 378.109 283.08 378.109 283.664V287H377.065V281H378.109V281.804C378.517 281.164 379.113 280.844 379.897 280.844C380.705 280.844 381.293 281.184 381.661 281.864C382.077 281.184 382.705 280.844 383.545 280.844ZM389.517 288.2H388.473C387.593 286.44 387.153 284.64 387.153 282.8C387.153 280.96 387.593 279.16 388.473 277.4H389.517C388.637 279.16 388.197 280.96 388.197 282.8C388.197 284.64 388.637 286.44 389.517 288.2ZM397.092 280.844C397.772 280.844 398.316 281.064 398.724 281.504C399.14 281.944 399.348 282.532 399.348 283.268V287H398.304V283.304C398.304 282.848 398.184 282.492 397.944 282.236C397.712 281.972 397.392 281.84 396.984 281.84C396.52 281.84 396.156 281.996 395.892 282.308C395.636 282.612 395.508 283.064 395.508 283.664V287H394.464V283.304C394.464 282.848 394.348 282.492 394.116 282.236C393.892 281.972 393.584 281.84 393.192 281.84C392.736 281.84 392.364 282 392.076 282.32C391.796 282.632 391.656 283.08 391.656 283.664V287H390.612V281H391.656V281.804C392.064 281.164 392.66 280.844 393.444 280.844C394.252 280.844 394.84 281.184 395.208 281.864C395.624 281.184 396.252 280.844 397.092 280.844ZM405.764 282.032V281H406.808V287H405.764V285.968C405.252 286.76 404.496 287.156 403.496 287.156C402.648 287.156 401.932 286.852 401.348 286.244C400.756 285.628 400.46 284.88 400.46 284C400.46 283.128 400.756 282.384 401.348 281.768C401.94 281.152 402.656 280.844 403.496 280.844C404.496 280.844 405.252 281.24 405.764 282.032ZM403.628 286.148C404.236 286.148 404.744 285.944 405.152 285.536C405.56 285.112 405.764 284.6 405.764 284C405.764 283.392 405.56 282.884 405.152 282.476C404.744 282.06 404.236 281.852 403.628 281.852C403.028 281.852 402.524 282.06 402.116 282.476C401.708 282.884 401.504 283.392 401.504 284C401.504 284.6 401.708 285.112 402.116 285.536C402.524 285.944 403.028 286.148 403.628 286.148ZM411.306 283.904L413.598 287H412.374L410.694 284.732L409.002 287H407.778L410.082 283.916L407.91 281H409.146L410.694 283.088L412.242 281H413.466L411.306 283.904ZM416.833 288.2H415.789C414.909 286.44 414.469 284.64 414.469 282.8C414.469 280.96 414.909 279.16 415.789 277.4H416.833C415.953 279.16 415.513 280.96 415.513 282.8C415.513 284.64 415.953 286.44 416.833 288.2ZM418.037 278.6H421.313C422.449 278.6 423.397 279.008 424.157 279.824C424.917 280.632 425.297 281.624 425.297 282.8C425.297 283.968 424.917 284.964 424.157 285.788C423.397 286.596 422.449 287 421.313 287H418.037V278.6ZM419.153 285.944H421.313C422.169 285.944 422.869 285.644 423.413 285.044C423.957 284.436 424.229 283.688 424.229 282.8C424.229 281.912 423.957 281.164 423.413 280.556C422.869 279.956 422.169 279.656 421.313 279.656H419.153V285.944ZM426.65 278.6H429.926C431.062 278.6 432.01 279.008 432.77 279.824C433.53 280.632 433.91 281.624 433.91 282.8C433.91 283.968 433.53 284.964 432.77 285.788C432.01 286.596 431.062 287 429.926 287H426.65V278.6ZM427.766 285.944H429.926C430.782 285.944 431.482 285.644 432.026 285.044C432.57 284.436 432.842 283.688 432.842 282.8C432.842 281.912 432.57 281.164 432.026 280.556C431.482 279.956 430.782 279.656 429.926 279.656H427.766V285.944ZM435.707 288.2H434.663C435.543 286.44 435.983 284.64 435.983 282.8C435.983 280.96 435.543 279.16 434.663 277.4H435.707C436.587 279.16 437.027 280.96 437.027 282.8C437.027 284.64 436.587 286.44 435.707 288.2ZM439.071 288.2H438.027C438.907 286.44 439.347 284.64 439.347 282.8C439.347 280.96 438.907 279.16 438.027 277.4H439.071C439.951 279.16 440.391 280.96 440.391 282.8C440.391 284.64 439.951 286.44 439.071 288.2Z" fill="#6405FF"/>
<path d="M372.836 242H371.792V233.24H372.836V242ZM374.957 234.908C374.757 234.908 374.589 234.84 374.453 234.704C374.317 234.568 374.249 234.404 374.249 234.212C374.249 234.02 374.317 233.856 374.453 233.72C374.589 233.576 374.757 233.504 374.957 233.504C375.149 233.504 375.313 233.576 375.449 233.72C375.585 233.856 375.653 234.02 375.653 234.212C375.653 234.404 375.585 234.568 375.449 234.704C375.313 234.84 375.149 234.908 374.957 234.908ZM375.473 242H374.429V236H375.473V242ZM383.545 235.844C384.225 235.844 384.769 236.064 385.177 236.504C385.593 236.944 385.801 237.532 385.801 238.268V242H384.757V238.304C384.757 237.848 384.637 237.492 384.397 237.236C384.165 236.972 383.845 236.84 383.437 236.84C382.973 236.84 382.609 236.996 382.345 237.308C382.089 237.612 381.961 238.064 381.961 238.664V242H380.917V238.304C380.917 237.848 380.801 237.492 380.569 237.236C380.345 236.972 380.037 236.84 379.645 236.84C379.189 236.84 378.817 237 378.529 237.32C378.249 237.632 378.109 238.08 378.109 238.664V242H377.065V236H378.109V236.804C378.517 236.164 379.113 235.844 379.897 235.844C380.705 235.844 381.293 236.184 381.661 236.864C382.077 236.184 382.705 235.844 383.545 235.844ZM389.517 243.2H388.473C387.593 241.44 387.153 239.64 387.153 237.8C387.153 235.96 387.593 234.16 388.473 232.4H389.517C388.637 234.16 388.197 235.96 388.197 237.8C388.197 239.64 388.637 241.44 389.517 243.2ZM391.836 233.6V240.944H395.46V242H390.72V233.6H391.836ZM401.301 241.244C400.693 241.852 399.945 242.156 399.057 242.156C398.169 242.156 397.421 241.852 396.813 241.244C396.205 240.636 395.901 239.888 395.901 239C395.901 238.112 396.205 237.364 396.813 236.756C397.421 236.148 398.169 235.844 399.057 235.844C399.945 235.844 400.693 236.148 401.301 236.756C401.917 237.372 402.225 238.12 402.225 239C402.225 239.88 401.917 240.628 401.301 241.244ZM399.057 241.136C399.657 241.136 400.161 240.932 400.569 240.524C400.977 240.116 401.181 239.608 401.181 239C401.181 238.392 400.977 237.884 400.569 237.476C400.161 237.068 399.657 236.864 399.057 236.864C398.465 236.864 397.965 237.068 397.557 237.476C397.149 237.884 396.945 238.392 396.945 239C396.945 239.608 397.149 240.116 397.557 240.524C397.965 240.932 398.465 241.136 399.057 241.136ZM404.227 237.62C404.227 238.004 404.623 238.304 405.415 238.52C405.711 238.584 405.959 238.652 406.159 238.724C406.367 238.788 406.591 238.888 406.831 239.024C407.079 239.16 407.267 239.34 407.395 239.564C407.523 239.788 407.587 240.052 407.587 240.356C407.587 240.9 407.375 241.336 406.951 241.664C406.527 241.992 405.991 242.156 405.343 242.156C404.767 242.156 404.267 242.032 403.843 241.784C403.427 241.528 403.131 241.184 402.955 240.752L403.855 240.236C403.951 240.524 404.131 240.752 404.395 240.92C404.659 241.088 404.975 241.172 405.343 241.172C405.703 241.172 405.991 241.104 406.207 240.968C406.423 240.832 406.531 240.628 406.531 240.356C406.531 239.948 406.135 239.652 405.343 239.468C405.079 239.396 404.879 239.34 404.743 239.3C404.607 239.26 404.419 239.188 404.179 239.084C403.947 238.98 403.771 238.872 403.651 238.76C403.531 238.64 403.419 238.484 403.315 238.292C403.219 238.092 403.171 237.872 403.171 237.632C403.171 237.112 403.371 236.684 403.771 236.348C404.179 236.012 404.687 235.844 405.295 235.844C405.783 235.844 406.215 235.956 406.591 236.18C406.975 236.396 407.263 236.7 407.455 237.092L406.579 237.584C406.363 237.072 405.935 236.816 405.295 236.816C404.991 236.816 404.735 236.888 404.527 237.032C404.327 237.176 404.227 237.372 404.227 237.62ZM409.348 237.62C409.348 238.004 409.744 238.304 410.536 238.52C410.832 238.584 411.08 238.652 411.28 238.724C411.488 238.788 411.712 238.888 411.952 239.024C412.2 239.16 412.388 239.34 412.516 239.564C412.644 239.788 412.708 240.052 412.708 240.356C412.708 240.9 412.496 241.336 412.072 241.664C411.648 241.992 411.112 242.156 410.464 242.156C409.888 242.156 409.388 242.032 408.964 241.784C408.548 241.528 408.252 241.184 408.076 240.752L408.976 240.236C409.072 240.524 409.252 240.752 409.516 240.92C409.78 241.088 410.096 241.172 410.464 241.172C410.824 241.172 411.112 241.104 411.328 240.968C411.544 240.832 411.652 240.628 411.652 240.356C411.652 239.948 411.256 239.652 410.464 239.468C410.2 239.396 410 239.34 409.864 239.3C409.728 239.26 409.54 239.188 409.3 239.084C409.068 238.98 408.892 238.872 408.772 238.76C408.652 238.64 408.54 238.484 408.436 238.292C408.34 238.092 408.292 237.872 408.292 237.632C408.292 237.112 408.492 236.684 408.892 236.348C409.3 236.012 409.808 235.844 410.416 235.844C410.904 235.844 411.336 235.956 411.712 236.18C412.096 236.396 412.384 236.7 412.576 237.092L411.7 237.584C411.484 237.072 411.056 236.816 410.416 236.816C410.112 236.816 409.856 236.888 409.648 237.032C409.448 237.176 409.348 237.372 409.348 237.62ZM416.212 243.2H415.168C414.288 241.44 413.848 239.64 413.848 237.8C413.848 235.96 414.288 234.16 415.168 232.4H416.212C415.332 234.16 414.892 235.96 414.892 237.8C414.892 239.64 415.332 241.44 416.212 243.2ZM420.524 242H419.228L416.816 233.6H417.992L419.912 240.512L421.952 233.6H423.08L425.12 240.512L427.04 233.6H428.216L425.804 242H424.508L422.516 235.292L420.524 242ZM429.86 243.2H428.816C429.696 241.44 430.136 239.64 430.136 237.8C430.136 235.96 429.696 234.16 428.816 232.4H429.86C430.74 234.16 431.18 235.96 431.18 237.8C431.18 239.64 430.74 241.44 429.86 243.2ZM433.223 243.2H432.179C433.059 241.44 433.499 239.64 433.499 237.8C433.499 235.96 433.059 234.16 432.179 232.4H433.223C434.103 234.16 434.543 235.96 434.543 237.8C434.543 239.64 434.103 241.44 433.223 243.2Z" fill="#EE3737"/>
</svg>
