<svg width="1240" height="433" fill="none" xmlns="http://www.w3.org/2000/svg"><path d="M1240 384H127" stroke="#3EB52A" stroke-dasharray="4 4"/><path d="M149.016 351.6v7.344h3.624V360h-4.74v-8.4h1.116zm7.137 8.4h-1.296l-2.412-8.4h1.176l1.92 6.912 2.04-6.912h1.128l2.04 6.912 1.92-6.912h1.176l-2.412 8.4h-1.296l-1.992-6.708-1.992 6.708z" fill="#3EB52A"/><path d="M1240 290l-5-2.887v5.774l5-2.887zm-4.5-.5H127v1h1108.5v-1z" fill="#66789A"/><path d="M127 4l-2.887 5h5.774L127 4zm-.5 4.5V384h1V8.5h-1z" fill="#66789A"/><path stroke="#1C2E50" d="M1008.5 9v375M788.5 9v375M568.5 9v375M348.5 9v375M1240 194H127m1113-75H127m1113-20H127M1240 9H127"/><path d="M1191.76 419.392V414.8h1.84V426h-1.84v-4.848h-4.8V426h-1.84v-11.2h1.84v4.592h4.8zm11.69 3.344h-6.36c.12.597.41 1.061.86 1.392.46.331 1.02.496 1.7.496.9 0 1.59-.331 2.06-.992l1.42.832c-.77 1.163-1.94 1.744-3.5 1.744-1.29 0-2.34-.395-3.15-1.184-.8-.8-1.2-1.808-1.2-3.024 0-1.184.39-2.181 1.18-2.992.78-.811 1.79-1.216 3.04-1.216 1.17 0 2.13.411 2.88 1.232.76.821 1.14 1.819 1.14 2.992 0 .213-.02.453-.07.72zm-6.38-1.408h4.7c-.11-.629-.38-1.115-.8-1.456-.4-.341-.9-.512-1.48-.512-.64 0-1.18.176-1.6.528-.43.352-.7.832-.82 1.44zm14.7-3.328v6.368h1.07v3.776h-1.7V426h-5.49v2.144h-1.69v-3.776h.97c.5-.683.74-1.648.74-2.896V418h6.1zm-4.93 6.368h3.23v-4.784h-2.7v1.888c0 1.152-.18 2.117-.53 2.896zm14.82-1.632h-6.37c.13.597.42 1.061.86 1.392.46.331 1.03.496 1.7.496.91 0 1.59-.331 2.06-.992l1.43.832c-.78 1.163-1.95 1.744-3.51 1.744-1.29 0-2.34-.395-3.15-1.184-.8-.8-1.2-1.808-1.2-3.024 0-1.184.4-2.181 1.19-2.992.77-.811 1.79-1.216 3.04-1.216 1.16 0 2.12.411 2.88 1.232.75.821 1.13 1.819 1.13 2.992 0 .213-.02.453-.06.72zm-6.39-1.408h4.71c-.12-.629-.39-1.115-.8-1.456-.41-.341-.9-.512-1.49-.512-.64 0-1.17.176-1.6.528-.43.352-.7.832-.82 1.44zm8.28-3.328h6.13v8h-1.73v-6.336h-2.67v2.976c0 1.248-.27 2.144-.81 2.688-.55.544-1.34.768-2.39.672v-1.616c.49.085.86-.016 1.11-.304.24-.299.36-.805.36-1.52V418zm9.84 5.072l4.1-5.072h1.33v8h-1.7v-5.088l-4.1 5.088h-1.32v-8h1.69v5.072zm-223.3 1.2h1.28v1.712h-1.28V428h-1.86v-2.016h-5.5v-1.712l3.85-7.472h2l-3.85 7.472h3.5v-2.912h1.86v2.912zm-219.294-5.904l-2.272 3.008c.832.192 1.493.576 1.984 1.152.501.565.752 1.259.752 2.08 0 1.12-.379 2-1.136 2.64-.747.64-1.675.96-2.784.96-.875 0-1.648-.197-2.32-.592a3.378 3.378 0 01-1.44-1.728l1.568-.912c.33.96 1.061 1.44 2.192 1.44.64 0 1.146-.16 1.52-.48.373-.331.56-.773.56-1.328s-.187-.992-.56-1.312c-.374-.32-.88-.48-1.52-.48h-.416l-.736-1.104 2.416-3.184h-4.688V416.8h6.88v1.568zM569.138 428h-7.376v-1.44l3.904-3.984c.949-.949 1.424-1.771 1.424-2.464 0-.533-.16-.955-.48-1.264-.32-.309-.736-.464-1.248-.464-.939 0-1.632.464-2.08 1.392l-1.552-.912c.341-.736.832-1.296 1.472-1.68a3.998 3.998 0 012.144-.592c.992 0 1.834.309 2.528.928.704.629 1.056 1.472 1.056 2.528 0 1.131-.635 2.347-1.904 3.648l-2.528 2.528h4.64V428zm-224.907-10.16l2.944-1.04h1.6V428h-1.84v-9.232l-2.256.64-.448-1.568zm-214.498 8.784c-.768 1.056-1.845 1.584-3.232 1.584-1.376 0-2.459-.528-3.248-1.584-.768-1.056-1.152-2.464-1.152-4.224 0-1.76.384-3.168 1.152-4.224.789-1.056 1.872-1.584 3.248-1.584 1.387 0 2.464.528 3.232 1.584.779 1.045 1.168 2.453 1.168 4.224 0 1.771-.389 3.179-1.168 4.224zm-3.232-.208c.832 0 1.467-.347 1.904-1.04.437-.693.656-1.685.656-2.976s-.219-2.283-.656-2.976c-.437-.693-1.072-1.04-1.904-1.04-.821 0-1.456.347-1.904 1.04-.437.693-.656 1.685-.656 2.976s.219 2.283.656 2.976c.448.693 1.083 1.04 1.904 1.04zM7.446 384.968h-5.92v-1.664h5.92v1.664zM16.435 389H9.058v-1.44l3.904-3.984c.949-.949 1.424-1.771 1.424-2.464 0-.533-.16-.955-.48-1.264-.32-.309-.736-.464-1.248-.464-.94 0-1.633.464-2.08 1.392l-1.553-.912c.342-.736.832-1.296 1.473-1.68a4 4 0 012.143-.592c.992 0 1.835.309 2.529.928.704.629 1.056 1.472 1.056 2.528 0 1.131-.635 2.347-1.905 3.648l-2.527 2.528h4.64V389zm8.712-1.376c-.768 1.056-1.845 1.584-3.232 1.584-1.376 0-2.459-.528-3.248-1.584-.768-1.056-1.152-2.464-1.152-4.224 0-1.76.384-3.168 1.152-4.224.79-1.056 1.872-1.584 3.248-1.584 1.387 0 2.464.528 3.232 1.584.779 1.045 1.168 2.453 1.168 4.224 0 1.771-.39 3.179-1.168 4.224zm-3.232-.208c.832 0 1.467-.347 1.904-1.04.437-.693.656-1.685.656-2.976s-.219-2.283-.656-2.976c-.437-.693-1.072-1.04-1.904-1.04-.821 0-1.456.347-1.904 1.04-.437.693-.656 1.685-.656 2.976s.219 2.283.656 2.976c.448.693 1.083 1.04 1.904 1.04zm10.006-9.088c.501.501.752 1.109.752 1.824 0 .715-.251 1.323-.752 1.824-.491.491-1.11.736-1.856.736-.758 0-1.382-.245-1.872-.736a2.483 2.483 0 01-.752-1.824c0-.704.25-1.307.752-1.808.501-.501 1.125-.752 1.872-.752.746 0 1.365.245 1.856.736zm-1.872 2.976c.341 0 .618-.107.832-.32a1.16 1.16 0 00.32-.832 1.16 1.16 0 00-.32-.832c-.214-.224-.491-.336-.832-.336-.331 0-.603.112-.816.336a1.16 1.16 0 00-.32.832c0 .32.106.592.32.816.224.224.496.336.816.336zm-.8 6.56l-.864-.512 7.376-8.208.864.496-7.376 8.224zm5.936 1.328c-.758 0-1.382-.245-1.872-.736a2.483 2.483 0 01-.752-1.824c0-.704.25-1.307.752-1.808.501-.501 1.125-.752 1.872-.752.736 0 1.354.251 1.856.752.501.501.752 1.104.752 1.808 0 .715-.251 1.323-.752 1.824-.491.491-1.11.736-1.856.736zm-.016-1.408c.341 0 .618-.107.832-.32a1.16 1.16 0 00.32-.832 1.16 1.16 0 00-.32-.832c-.214-.224-.491-.336-.832-.336-.331 0-.603.112-.816.336a1.16 1.16 0 00-.32.832c0 .32.106.592.32.816.224.224.496.336.816.336zm-18.756-94.16c-.768 1.056-1.846 1.584-3.232 1.584-1.376 0-2.459-.528-3.248-1.584-.768-1.056-1.152-2.464-1.152-4.224 0-1.76.384-3.168 1.152-4.224.789-1.056 1.872-1.584 3.248-1.584 1.386 0 2.464.528 3.232 1.584.778 1.045 1.168 2.453 1.168 4.224 0 1.771-.39 3.179-1.168 4.224zm-3.232-.208c.832 0 1.466-.347 1.904-1.04.437-.693.656-1.685.656-2.976s-.219-2.283-.656-2.976c-.438-.693-1.072-1.04-1.904-1.04-.822 0-1.456.347-1.904 1.04-.438.693-.656 1.685-.656 2.976s.218 2.283.656 2.976c.448.693 1.082 1.04 1.904 1.04zm10.005-9.088a2.48 2.48 0 01.752 1.824 2.48 2.48 0 01-.752 1.824c-.49.491-1.11.736-1.856.736-.757 0-1.381-.245-1.872-.736a2.482 2.482 0 01-.752-1.824c0-.704.25-1.307.752-1.808.502-.501 1.126-.752 1.872-.752.747 0 1.366.245 1.856.736zm-1.872 2.976c.342 0 .619-.107.832-.32a1.16 1.16 0 00.32-.832 1.16 1.16 0 00-.32-.832c-.213-.224-.49-.336-.832-.336-.33 0-.602.112-.816.336a1.16 1.16 0 00-.32.832c0 .32.107.592.32.816.224.224.496.336.816.336zm-.8 6.56l-.864-.512 7.376-8.208.864.496-7.376 8.224zm5.936 1.328c-.757 0-1.381-.245-1.872-.736a2.482 2.482 0 01-.752-1.824c0-.704.25-1.307.752-1.808.502-.501 1.126-.752 1.872-.752.736 0 1.355.251 1.856.752.502.501.752 1.104.752 1.808a2.48 2.48 0 01-.752 1.824c-.49.491-1.11.736-1.856.736zm-.016-1.408c.342 0 .619-.107.832-.32a1.16 1.16 0 00.32-.832 1.16 1.16 0 00-.32-.832c-.213-.224-.49-.336-.832-.336-.33 0-.602.112-.816.336a1.16 1.16 0 00-.32.832c0 .32.107.592.32.816.224.224.496.336.816.336zM12.356 199H4.98v-1.44l3.904-3.984c.95-.949 1.424-1.771 1.424-2.464 0-.533-.16-.955-.48-1.264-.32-.309-.736-.464-1.248-.464-.938 0-1.632.464-2.08 1.392l-1.552-.912c.342-.736.832-1.296 1.472-1.68a4 4 0 012.144-.592c.992 0 1.835.309 2.528.928.704.629 1.056 1.472 1.056 2.528 0 1.131-.634 2.347-1.904 3.648l-2.528 2.528h4.64V199zm8.713-1.376c-.768 1.056-1.845 1.584-3.232 1.584-1.376 0-2.459-.528-3.248-1.584-.768-1.056-1.152-2.464-1.152-4.224 0-1.76.384-3.168 1.152-4.224.79-1.056 1.872-1.584 3.248-1.584 1.387 0 2.464.528 3.232 1.584.779 1.045 1.168 2.453 1.168 4.224 0 1.771-.39 3.179-1.168 4.224zm-3.232-.208c.832 0 1.466-.347 1.904-1.04.437-.693.656-1.685.656-2.976s-.219-2.283-.656-2.976c-.438-.693-1.072-1.04-1.904-1.04-.822 0-1.456.347-1.904 1.04-.438.693-.656 1.685-.656 2.976s.219 2.283.656 2.976c.448.693 1.082 1.04 1.904 1.04zm10.006-9.088c.5.501.752 1.109.752 1.824 0 .715-.251 1.323-.752 1.824-.491.491-1.11.736-1.857.736-.757 0-1.38-.245-1.872-.736a2.483 2.483 0 01-.752-1.824c0-.704.251-1.307.753-1.808.5-.501 1.125-.752 1.872-.752.746 0 1.365.245 1.856.736zm-1.872 2.976c.34 0 .618-.107.831-.32a1.16 1.16 0 00.32-.832 1.16 1.16 0 00-.32-.832c-.213-.224-.49-.336-.831-.336a1.08 1.08 0 00-.817.336 1.16 1.16 0 00-.32.832c0 .32.107.592.32.816.224.224.497.336.817.336zm-.8 6.56l-.864-.512 7.376-8.208.864.496-7.376 8.224zm5.936 1.328c-.758 0-1.382-.245-1.872-.736a2.483 2.483 0 01-.752-1.824c0-.704.25-1.307.752-1.808.5-.501 1.125-.752 1.872-.752.736 0 1.354.251 1.855.752.502.501.752 1.104.752 1.808a2.48 2.48 0 01-.752 1.824c-.49.491-1.109.736-1.856.736zm-.017-1.408c.342 0 .62-.107.832-.32a1.16 1.16 0 00.32-.832 1.16 1.16 0 00-.32-.832c-.213-.224-.49-.336-.832-.336-.33 0-.602.112-.816.336a1.16 1.16 0 00-.32.832c0 .32.107.592.32.816.224.224.496.336.816.336zm-19.362-97.512h1.28v1.712h-1.28V104H9.872v-2.016H4.368v-1.712L8.224 92.8h2l-3.856 7.472h3.504V97.36h1.856v2.912zm9.825 2.352c-.768 1.056-1.845 1.584-3.232 1.584-1.376 0-2.458-.528-3.248-1.584-.768-1.056-1.152-2.464-1.152-4.224 0-1.76.384-3.168 1.152-4.224.79-1.056 1.872-1.584 3.248-1.584 1.387 0 2.464.528 3.232 1.584.779 1.045 1.168 2.453 1.168 4.224 0 1.771-.39 3.179-1.168 4.224zm-3.232-.208c.832 0 1.467-.347 1.904-1.04.438-.693.656-1.685.656-2.976 0-1.29-.218-2.283-.656-2.976-.437-.693-1.072-1.04-1.904-1.04-.821 0-1.456.347-1.904 1.04-.437.693-.656 1.685-.656 2.976 0 1.29.219 2.283.656 2.976.448.693 1.083 1.04 1.904 1.04zm10.006-9.088c.501.501.752 1.11.752 1.824a2.48 2.48 0 01-.752 1.824c-.49.49-1.11.736-1.856.736-.758 0-1.381-.245-1.872-.736a2.483 2.483 0 01-.752-1.824c0-.704.25-1.307.752-1.808.501-.501 1.125-.752 1.872-.752.747 0 1.365.245 1.856.736zm-1.872 2.976c.341 0 .619-.107.832-.32a1.16 1.16 0 00.32-.832c0-.33-.107-.608-.32-.832-.213-.224-.49-.336-.832-.336-.33 0-.603.112-.816.336a1.16 1.16 0 00-.32.832c0 .32.107.592.32.816.224.224.496.336.816.336zm-.8 6.56l-.864-.512 7.376-8.208.864.496-7.376 8.224zm5.936 1.328c-.758 0-1.382-.245-1.872-.736a2.482 2.482 0 01-.752-1.824c0-.704.25-1.307.752-1.808.501-.501 1.125-.752 1.872-.752.736 0 1.355.25 1.856.752.501.501.752 1.104.752 1.808a2.48 2.48 0 01-.752 1.824c-.49.491-1.11.736-1.856.736zm-.016-1.408c.341 0 .619-.107.832-.32a1.16 1.16 0 00.32-.832 1.16 1.16 0 00-.32-.832c-.213-.224-.49-.336-.832-.336-.33 0-.603.112-.816.336a1.16 1.16 0 00-.32.832c0 .32.107.592.32.816.224.224.496.336.816.336zM8.441 6.56h.208c1.174 0 2.123.357 2.848 1.072.736.704 1.104 1.621 1.104 2.752 0 1.12-.368 2.043-1.104 2.768-.736.704-1.685 1.056-2.848 1.056-1.173 0-2.128-.352-2.864-1.056-.736-.725-1.104-1.648-1.104-2.768 0-.853.224-1.605.672-2.256L8.905 2.8h2.096l-2.56 3.76zm.208 5.904c.619 0 1.126-.187 1.52-.56.395-.384.592-.89.592-1.52s-.197-1.13-.592-1.504c-.394-.384-.901-.576-1.52-.576-.64 0-1.157.192-1.552.576-.384.373-.576.875-.576 1.504 0 .63.192 1.136.576 1.52.395.373.912.56 1.552.56zm12.623.16c-.768 1.056-1.845 1.584-3.232 1.584-1.376 0-2.459-.528-3.248-1.584-.768-1.056-1.152-2.464-1.152-4.224 0-1.76.384-3.168 1.152-4.224.79-1.056 1.872-1.584 3.248-1.584 1.387 0 2.464.528 3.232 1.584.779 1.045 1.168 2.453 1.168 4.224 0 1.77-.39 3.179-1.168 4.224zm-3.232-.208c.832 0 1.467-.347 1.904-1.04.437-.693.656-1.685.656-2.976 0-1.29-.219-2.283-.656-2.976-.437-.693-1.072-1.04-1.904-1.04-.821 0-1.456.347-1.904 1.04-.437.693-.656 1.685-.656 2.976 0 1.29.219 2.283.656 2.976.448.693 1.083 1.04 1.904 1.04zm10.006-9.088c.501.501.752 1.11.752 1.824 0 .715-.251 1.323-.752 1.824-.491.49-1.11.736-1.856.736-.758 0-1.382-.245-1.872-.736a2.484 2.484 0 01-.752-1.824c0-.704.25-1.307.752-1.808.501-.501 1.125-.752 1.872-.752.746 0 1.365.245 1.856.736zm-1.872 2.976c.341 0 .618-.107.832-.32a1.16 1.16 0 00.32-.832c0-.33-.107-.608-.32-.832-.214-.224-.491-.336-.832-.336-.331 0-.603.112-.816.336a1.16 1.16 0 00-.32.832c0 .32.106.592.32.816.224.224.496.336.816.336zm-.8 6.56l-.864-.512 7.376-8.208.864.496-7.376 8.224zm5.936 1.328c-.758 0-1.382-.245-1.872-.736a2.484 2.484 0 01-.752-1.824c0-.704.25-1.307.752-1.808.501-.501 1.125-.752 1.872-.752.736 0 1.354.25 1.856.752.501.501.752 1.104.752 1.808 0 .715-.251 1.323-.752 1.824-.491.49-1.11.736-1.856.736zm-.016-1.408c.341 0 .618-.107.832-.32a1.16 1.16 0 00.32-.832c0-.33-.107-.608-.32-.832-.214-.224-.491-.336-.832-.336-.331 0-.603.112-.816.336a1.16 1.16 0 00-.32.832c0 .32.106.592.32.816.224.224.496.336.816.336z" fill="#3D5075"/><path d="M128 289.5c49.167-16.5 155.1-54.8 185.5-76 38-26.5 40.5-18 43.5-17.5s96 40 110.5 45 24 12 36-3.5c9.6-12.4 30.667-84.167 40-118.5 3.333-12.333 16.1-32.6 40.5-15s68.5 27.333 87.5 30c7.333 1.333 23.2 1 28-11 6-15 21.5-84 46-36.5 1.833 6.833 9.2 20.5 24 20.5 18.5 0 6.5-11 40.5-8.5 27.2 2 49.333.833 57 0 5.833-.833 19-5.5 25-17.5 7.5-15 28.5-64.5 53.5-47s19 19 32 4 11-52 45.5-24 28.5 6 48 0c15.6-4.8 48.5-5.333 63-5" stroke="#247FEC" stroke-width="1.6"/><path d="M1008 52l-3.46 6h6.92l-3.46-6zm0 47l3.46-6h-6.92l3.46 6zm-.6-41.6v36.2h1.2V57.4h-1.2z" fill="#6405FF"/><path stroke="#EE3737" d="M996 51.5h24"/><path stroke="#6405FF" d="M996 99.5h24"/><path d="M1008 4l-3.46 6h6.92L1008 4zm0 47l3.46-6h-6.92l3.46 6zm-.6-41.6v36.2h1.2V9.4h-1.2z" fill="#EE3737"/><path d="M1031.84 96h-1.05v-8.76h1.05V96zm2.12-7.092a.69.69 0 01-.71-.696.69.69 0 01.2-.492.685.685 0 01.51-.216c.19 0 .35.072.49.216.13.136.2.3.2.492a.69.69 0 01-.69.696zm.51 7.092h-1.04v-6h1.04v6zm8.08-6.156c.68 0 1.22.22 1.63.66.41.44.62 1.028.62 1.764V96h-1.04v-3.696c0-.456-.12-.812-.36-1.068-.23-.264-.55-.396-.96-.396-.47 0-.83.156-1.09.468-.26.304-.39.756-.39 1.356V96h-1.04v-3.696c0-.456-.12-.812-.35-1.068-.22-.264-.53-.396-.92-.396-.46 0-.83.16-1.12.48-.28.312-.42.76-.42 1.344V96h-1.04v-6h1.04v.804c.41-.64 1-.96 1.79-.96.81 0 1.39.34 1.76 1.02.42-.68 1.05-1.02 1.89-1.02zm5.97 7.356h-1.05c-.88-1.76-1.32-3.56-1.32-5.4 0-1.84.44-3.64 1.32-5.4h1.05c-.88 1.76-1.32 3.56-1.32 5.4 0 1.84.44 3.64 1.32 5.4zm7.57-7.356c.68 0 1.23.22 1.63.66.42.44.63 1.028.63 1.764V96h-1.05v-3.696c0-.456-.12-.812-.36-1.068-.23-.264-.55-.396-.96-.396-.46 0-.82.156-1.09.468-.25.304-.38.756-.38 1.356V96h-1.05v-3.696c0-.456-.11-.812-.34-1.068-.23-.264-.54-.396-.93-.396-.45 0-.83.16-1.11.48-.28.312-.42.76-.42 1.344V96h-1.05v-6h1.05v.804c.4-.64 1-.96 1.78-.96.81 0 1.4.34 1.77 1.02.41-.68 1.04-1.02 1.88-1.02zm8.67 1.188V90h1.05v6h-1.05v-1.032c-.51.792-1.26 1.188-2.26 1.188-.85 0-1.57-.304-2.15-.912-.59-.616-.89-1.364-.89-2.244 0-.872.3-1.616.89-2.232.59-.616 1.31-.924 2.15-.924 1 0 1.75.396 2.26 1.188zm-2.13 4.116c.61 0 1.11-.204 1.52-.612.41-.424.61-.936.61-1.536 0-.608-.2-1.116-.61-1.524-.41-.416-.91-.624-1.52-.624-.6 0-1.11.208-1.51.624-.41.408-.62.916-.62 1.524 0 .6.21 1.112.62 1.536.4.408.91.612 1.51.612zm7.68-2.244L1072.6 96h-1.23l-1.68-2.268L1068 96h-1.22l2.3-3.084-2.17-2.916h1.24l1.54 2.088 1.55-2.088h1.23l-2.16 2.904zm5.52 4.296h-1.04c-.88-1.76-1.32-3.56-1.32-5.4 0-1.84.44-3.64 1.32-5.4h1.04c-.88 1.76-1.32 3.56-1.32 5.4 0 1.84.44 3.64 1.32 5.4zm1.21-9.6h3.27c1.14 0 2.09.408 2.85 1.224.76.808 1.14 1.8 1.14 2.976 0 1.168-.38 2.164-1.14 2.988-.76.808-1.71 1.212-2.85 1.212h-3.27v-8.4zm1.11 7.344h2.16c.86 0 1.56-.3 2.1-.9.55-.608.82-1.356.82-2.244 0-.888-.27-1.636-.82-2.244-.54-.6-1.24-.9-2.1-.9h-2.16v6.288zm7.5-7.344h3.28c1.13 0 2.08.408 2.84 1.224.76.808 1.14 1.8 1.14 2.976 0 1.168-.38 2.164-1.14 2.988-.76.808-1.71 1.212-2.84 1.212h-3.28v-8.4zm1.12 7.344h2.16c.85 0 1.55-.3 2.1-.9.54-.608.81-1.356.81-2.244 0-.888-.27-1.636-.81-2.244-.55-.6-1.25-.9-2.1-.9h-2.16v6.288zm7.94 2.256h-1.05c.88-1.76 1.32-3.56 1.32-5.4 0-1.84-.44-3.64-1.32-5.4h1.05c.88 1.76 1.32 3.56 1.32 5.4 0 1.84-.44 3.64-1.32 5.4zm3.36 0h-1.04c.88-1.76 1.32-3.56 1.32-5.4 0-1.84-.44-3.64-1.32-5.4h1.04c.88 1.76 1.32 3.56 1.32 5.4 0 1.84-.44 3.64-1.32 5.4z" fill="#6405FF"/><path d="M1031.84 48h-1.05v-8.76h1.05V48zm2.12-7.092a.69.69 0 01-.71-.696.69.69 0 01.2-.492.685.685 0 01.51-.216c.19 0 .35.072.49.216.13.136.2.3.2.492a.69.69 0 01-.69.696zm.51 7.092h-1.04v-6h1.04v6zm8.08-6.156c.68 0 1.22.22 1.63.66.41.44.62 1.028.62 1.764V48h-1.04v-3.696c0-.456-.12-.812-.36-1.068-.23-.264-.55-.396-.96-.396-.47 0-.83.156-1.09.468-.26.304-.39.756-.39 1.356V48h-1.04v-3.696c0-.456-.12-.812-.35-1.068-.22-.264-.53-.396-.92-.396-.46 0-.83.16-1.12.48-.28.312-.42.76-.42 1.344V48h-1.04v-6h1.04v.804c.41-.64 1-.96 1.79-.96.81 0 1.39.34 1.76 1.02.42-.68 1.05-1.02 1.89-1.02zm5.97 7.356h-1.05c-.88-1.76-1.32-3.56-1.32-5.4 0-1.84.44-3.64 1.32-5.4h1.05c-.88 1.76-1.32 3.56-1.32 5.4 0 1.84.44 3.64 1.32 5.4zm2.32-9.6v7.344h3.62V48h-4.74v-8.4h1.12zm9.46 7.644c-.61.608-1.35.912-2.24.912-.89 0-1.64-.304-2.25-.912-.6-.608-.91-1.356-.91-2.244 0-.888.31-1.636.91-2.244.61-.608 1.36-.912 2.25-.912.89 0 1.63.304 2.24.912.62.616.93 1.364.93 2.244 0 .88-.31 1.628-.93 2.244zm-2.24-.108c.6 0 1.1-.204 1.51-.612.41-.408.61-.916.61-1.524s-.2-1.116-.61-1.524a2.053 2.053 0 00-1.51-.612c-.59 0-1.09.204-1.5.612-.41.408-.61.916-.61 1.524s.2 1.116.61 1.524c.41.408.91.612 1.5.612zm5.17-3.516c0 .384.39.684 1.19.9.29.064.54.132.74.204.21.064.43.164.67.3.25.136.44.316.57.54.12.224.19.488.19.792 0 .544-.21.98-.64 1.308-.42.328-.96.492-1.61.492-.57 0-1.07-.124-1.5-.372-.41-.256-.71-.6-.88-1.032l.9-.516c.09.288.27.516.54.684.26.168.58.252.94.252s.65-.068.87-.204c.21-.136.32-.34.32-.612 0-.408-.39-.704-1.19-.888l-.6-.168c-.13-.04-.32-.112-.56-.216a1.992 1.992 0 01-.53-.324c-.12-.12-.23-.276-.33-.468-.1-.2-.15-.42-.15-.66 0-.52.2-.948.6-1.284.41-.336.92-.504 1.53-.504.48 0 .92.112 1.29.336.39.216.67.52.87.912l-.88.492c-.22-.512-.64-.768-1.28-.768-.31 0-.56.072-.77.216-.2.144-.3.34-.3.588zm5.12 0c0 .384.39.684 1.19.9.29.064.54.132.74.204.21.064.43.164.67.3.25.136.44.316.57.54.12.224.19.488.19.792 0 .544-.21.98-.64 1.308-.42.328-.96.492-1.61.492-.57 0-1.07-.124-1.5-.372-.41-.256-.71-.6-.88-1.032l.9-.516c.09.288.27.516.54.684.26.168.58.252.94.252s.65-.068.87-.204c.21-.136.32-.34.32-.612 0-.408-.39-.704-1.19-.888l-.6-.168c-.13-.04-.32-.112-.56-.216a1.992 1.992 0 01-.53-.324c-.12-.12-.23-.276-.33-.468-.1-.2-.15-.42-.15-.66 0-.52.2-.948.6-1.284.41-.336.92-.504 1.53-.504.48 0 .92.112 1.29.336.39.216.67.52.87.912l-.88.492c-.22-.512-.64-.768-1.28-.768-.31 0-.56.072-.77.216-.2.144-.3.34-.3.588zm6.86 5.58h-1.04c-.88-1.76-1.32-3.56-1.32-5.4 0-1.84.44-3.64 1.32-5.4h1.04c-.88 1.76-1.32 3.56-1.32 5.4 0 1.84.44 3.64 1.32 5.4zm4.31-1.2h-1.29l-2.41-8.4h1.17l1.92 6.912 2.04-6.912h1.13l2.04 6.912 1.92-6.912h1.18l-2.42 8.4h-1.29l-1.99-6.708-2 6.708zm9.34 1.2h-1.04c.88-1.76 1.32-3.56 1.32-5.4 0-1.84-.44-3.64-1.32-5.4h1.04c.88 1.76 1.32 3.56 1.32 5.4 0 1.84-.44 3.64-1.32 5.4zm3.36 0h-1.04c.88-1.76 1.32-3.56 1.32-5.4 0-1.84-.44-3.64-1.32-5.4h1.04c.88 1.76 1.32 3.56 1.32 5.4 0 1.84-.44 3.64-1.32 5.4z" fill="#EE3737"/><path stroke="#6405FF" d="M921 119.5h24"/><path d="M956.836 116h-1.044v-8.76h1.044V116zm2.121-7.092a.685.685 0 01-.504-.204.67.67 0 01-.204-.492.67.67 0 01.204-.492.666.666 0 01.504-.216c.192 0 .356.072.492.216a.67.67 0 01.204.492.67.67 0 01-.204.492.67.67 0 01-.492.204zm.516 7.092h-1.044v-6h1.044v6zm8.072-6.156c.68 0 1.224.22 1.632.66.416.44.624 1.028.624 1.764V116h-1.044v-3.696c0-.456-.12-.812-.36-1.068-.232-.264-.552-.396-.96-.396-.464 0-.828.156-1.092.468-.256.304-.384.756-.384 1.356V116h-1.044v-3.696c0-.456-.116-.812-.348-1.068-.224-.264-.532-.396-.924-.396-.456 0-.828.16-1.116.48-.28.312-.42.76-.42 1.344V116h-1.044v-6h1.044v.804c.408-.64 1.004-.96 1.788-.96.808 0 1.396.34 1.764 1.02.416-.68 1.044-1.02 1.884-1.02zm5.972 7.356h-1.044c-.88-1.76-1.32-3.56-1.32-5.4 0-1.84.44-3.64 1.32-5.4h1.044c-.88 1.76-1.32 3.56-1.32 5.4 0 1.84.44 3.64 1.32 5.4zm7.575-7.356c.68 0 1.224.22 1.632.66.416.44.624 1.028.624 1.764V116h-1.044v-3.696c0-.456-.12-.812-.36-1.068-.232-.264-.552-.396-.96-.396-.464 0-.828.156-1.092.468-.256.304-.384.756-.384 1.356V116h-1.044v-3.696c0-.456-.116-.812-.348-1.068-.224-.264-.532-.396-.924-.396-.456 0-.828.16-1.116.48-.28.312-.42.76-.42 1.344V116h-1.044v-6h1.044v.804c.408-.64 1.004-.96 1.788-.96.808 0 1.396.34 1.764 1.02.416-.68 1.044-1.02 1.884-1.02zm8.672 1.188V110h1.044v6h-1.044v-1.032c-.512.792-1.268 1.188-2.268 1.188a2.863 2.863 0 01-2.148-.912c-.592-.616-.888-1.364-.888-2.244 0-.872.296-1.616.888-2.232.592-.616 1.308-.924 2.148-.924 1 0 1.756.396 2.268 1.188zm-2.136 4.116c.608 0 1.116-.204 1.524-.612.408-.424.612-.936.612-1.536 0-.608-.204-1.116-.612-1.524-.408-.416-.916-.624-1.524-.624-.6 0-1.104.208-1.512.624-.408.408-.612.916-.612 1.524 0 .6.204 1.112.612 1.536.408.408.912.612 1.512.612zm7.678-2.244l2.292 3.096h-1.224l-1.68-2.268-1.692 2.268h-1.224l2.304-3.084L991.91 110h1.236l1.548 2.088 1.548-2.088h1.224l-2.16 2.904zm5.524 4.296h-1.041c-.88-1.76-1.32-3.56-1.32-5.4 0-1.84.44-3.64 1.32-5.4h1.041c-.877 1.76-1.317 3.56-1.317 5.4 0 1.84.44 3.64 1.317 5.4zm1.21-9.6h3.27c1.14 0 2.09.408 2.85 1.224.76.808 1.14 1.8 1.14 2.976 0 1.168-.38 2.164-1.14 2.988-.76.808-1.71 1.212-2.85 1.212h-3.27v-8.4zm1.11 7.344h2.16c.86 0 1.56-.3 2.1-.9.55-.608.82-1.356.82-2.244 0-.888-.27-1.636-.82-2.244-.54-.6-1.24-.9-2.1-.9h-2.16v6.288zm7.5-7.344h3.28c1.13 0 2.08.408 2.84 1.224.76.808 1.14 1.8 1.14 2.976 0 1.168-.38 2.164-1.14 2.988-.76.808-1.71 1.212-2.84 1.212h-3.28v-8.4zm1.12 7.344h2.16c.85 0 1.55-.3 2.1-.9.54-.608.81-1.356.81-2.244 0-.888-.27-1.636-.81-2.244-.55-.6-1.25-.9-2.1-.9h-2.16v6.288zm7.94 2.256h-1.05c.88-1.76 1.32-3.56 1.32-5.4 0-1.84-.44-3.64-1.32-5.4h1.05c.88 1.76 1.32 3.56 1.32 5.4 0 1.84-.44 3.64-1.32 5.4zm3.36 0h-1.04c.88-1.76 1.32-3.56 1.32-5.4 0-1.84-.44-3.64-1.32-5.4h1.04c.88 1.76 1.32 3.56 1.32 5.4 0 1.84-.44 3.64-1.32 5.4zM933 31l-3.464 6h6.928L933 31zm0 88l3.464-6h-6.928l3.464 6zm-.6-82.6v77.2h1.2V36.4h-1.2z" fill="#6405FF"/><path d="M812.836 143h-1.044v-8.76h1.044V143zm2.121-7.092a.685.685 0 01-.504-.204.67.67 0 01-.204-.492.67.67 0 01.204-.492.666.666 0 01.504-.216c.192 0 .356.072.492.216a.67.67 0 01.204.492.67.67 0 01-.204.492.67.67 0 01-.492.204zm.516 7.092h-1.044v-6h1.044v6zm8.072-6.156c.68 0 1.224.22 1.632.66.416.44.624 1.028.624 1.764V143h-1.044v-3.696c0-.456-.12-.812-.36-1.068-.232-.264-.552-.396-.96-.396-.464 0-.828.156-1.092.468-.256.304-.384.756-.384 1.356V143h-1.044v-3.696c0-.456-.116-.812-.348-1.068-.224-.264-.532-.396-.924-.396-.456 0-.828.16-1.116.48-.28.312-.42.76-.42 1.344V143h-1.044v-6h1.044v.804c.408-.64 1.004-.96 1.788-.96.808 0 1.396.34 1.764 1.02.416-.68 1.044-1.02 1.884-1.02zm5.972 7.356h-1.044c-.88-1.76-1.32-3.56-1.32-5.4 0-1.84.44-3.64 1.32-5.4h1.044c-.88 1.76-1.32 3.56-1.32 5.4 0 1.84.44 3.64 1.32 5.4zm2.319-9.6v7.344h3.624V143h-4.74v-8.4h1.116zm9.465 7.644c-.608.608-1.356.912-2.244.912-.888 0-1.636-.304-2.244-.912-.608-.608-.912-1.356-.912-2.244 0-.888.304-1.636.912-2.244.608-.608 1.356-.912 2.244-.912.888 0 1.636.304 2.244.912.616.616.924 1.364.924 2.244 0 .88-.308 1.628-.924 2.244zm-2.244-.108c.6 0 1.104-.204 1.512-.612.408-.408.612-.916.612-1.524s-.204-1.116-.612-1.524c-.408-.408-.912-.612-1.512-.612a2.04 2.04 0 00-1.5.612c-.408.408-.612.916-.612 1.524s.204 1.116.612 1.524a2.04 2.04 0 001.5.612zm5.17-3.516c0 .384.396.684 1.188.9.296.064.544.132.744.204.208.064.432.164.672.3.248.136.436.316.564.54.128.224.192.488.192.792 0 .544-.212.98-.636 1.308-.424.328-.96.492-1.608.492-.576 0-1.076-.124-1.5-.372a2.138 2.138 0 01-.888-1.032l.9-.516c.096.288.276.516.54.684.264.168.58.252.948.252.36 0 .648-.068.864-.204.216-.136.324-.34.324-.612 0-.408-.396-.704-1.188-.888a34.115 34.115 0 01-.6-.168 5.271 5.271 0 01-.564-.216 1.945 1.945 0 01-.528-.324 2.014 2.014 0 01-.336-.468c-.096-.2-.144-.42-.144-.66 0-.52.2-.948.6-1.284.408-.336.916-.504 1.524-.504.488 0 .92.112 1.296.336.384.216.672.52.864.912l-.876.492c-.216-.512-.644-.768-1.284-.768-.304 0-.56.072-.768.216-.2.144-.3.34-.3.588zm5.121 0c0 .384.396.684 1.188.9.296.064.544.132.744.204.208.064.432.164.672.3.248.136.436.316.564.54.128.224.192.488.192.792 0 .544-.212.98-.636 1.308-.424.328-.96.492-1.608.492-.576 0-1.076-.124-1.5-.372a2.138 2.138 0 01-.888-1.032l.9-.516c.096.288.276.516.54.684.264.168.58.252.948.252.36 0 .648-.068.864-.204.216-.136.324-.34.324-.612 0-.408-.396-.704-1.188-.888a34.115 34.115 0 01-.6-.168 5.271 5.271 0 01-.564-.216 1.945 1.945 0 01-.528-.324 2.014 2.014 0 01-.336-.468c-.096-.2-.144-.42-.144-.66 0-.52.2-.948.6-1.284.408-.336.916-.504 1.524-.504.488 0 .92.112 1.296.336.384.216.672.52.864.912l-.876.492c-.216-.512-.644-.768-1.284-.768-.304 0-.56.072-.768.216-.2.144-.3.34-.3.588zm6.864 5.58h-1.044c-.88-1.76-1.32-3.56-1.32-5.4 0-1.84.44-3.64 1.32-5.4h1.044c-.88 1.76-1.32 3.56-1.32 5.4 0 1.84.44 3.64 1.32 5.4zm4.312-1.2h-1.296l-2.412-8.4h1.176l1.92 6.912 2.04-6.912h1.128l2.04 6.912 1.92-6.912h1.176l-2.412 8.4h-1.296l-1.992-6.708-1.992 6.708zm9.336 1.2h-1.044c.88-1.76 1.32-3.56 1.32-5.4 0-1.84-.44-3.64-1.32-5.4h1.044c.88 1.76 1.32 3.56 1.32 5.4 0 1.84-.44 3.64-1.32 5.4zm3.363 0h-1.044c.88-1.76 1.32-3.56 1.32-5.4 0-1.84-.44-3.64-1.32-5.4h1.044c.88 1.76 1.32 3.56 1.32 5.4 0 1.84-.44 3.64-1.32 5.4z" fill="#EE3737"/><path stroke="#EE3737" d="M777 146.5h24"/><path d="M789 99l-3.464 6h6.928L789 99zm0 47l3.464-6h-6.928l3.464 6zm-.6-41.6v36.2h1.2v-36.2h-1.2z" fill="#EE3737"/><path stroke="#6405FF" d="M717 170.5h24"/><path d="M752.836 167h-1.044v-8.76h1.044V167zm2.121-7.092a.685.685 0 01-.504-.204.67.67 0 01-.204-.492.67.67 0 01.204-.492.666.666 0 01.504-.216c.192 0 .356.072.492.216a.67.67 0 01.204.492.67.67 0 01-.204.492.67.67 0 01-.492.204zm.516 7.092h-1.044v-6h1.044v6zm8.072-6.156c.68 0 1.224.22 1.632.66.416.44.624 1.028.624 1.764V167h-1.044v-3.696c0-.456-.12-.812-.36-1.068-.232-.264-.552-.396-.96-.396-.464 0-.828.156-1.092.468-.256.304-.384.756-.384 1.356V167h-1.044v-3.696c0-.456-.116-.812-.348-1.068-.224-.264-.532-.396-.924-.396-.456 0-.828.16-1.116.48-.28.312-.42.76-.42 1.344V167h-1.044v-6h1.044v.804c.408-.64 1.004-.96 1.788-.96.808 0 1.396.34 1.764 1.02.416-.68 1.044-1.02 1.884-1.02zm5.972 7.356h-1.044c-.88-1.76-1.32-3.56-1.32-5.4 0-1.84.44-3.64 1.32-5.4h1.044c-.88 1.76-1.32 3.56-1.32 5.4 0 1.84.44 3.64 1.32 5.4zm7.575-7.356c.68 0 1.224.22 1.632.66.416.44.624 1.028.624 1.764V167h-1.044v-3.696c0-.456-.12-.812-.36-1.068-.232-.264-.552-.396-.96-.396-.464 0-.828.156-1.092.468-.256.304-.384.756-.384 1.356V167h-1.044v-3.696c0-.456-.116-.812-.348-1.068-.224-.264-.532-.396-.924-.396-.456 0-.828.16-1.116.48-.28.312-.42.76-.42 1.344V167h-1.044v-6h1.044v.804c.408-.64 1.004-.96 1.788-.96.808 0 1.396.34 1.764 1.02.416-.68 1.044-1.02 1.884-1.02zm8.672 1.188V161h1.044v6h-1.044v-1.032c-.512.792-1.268 1.188-2.268 1.188a2.863 2.863 0 01-2.148-.912c-.592-.616-.888-1.364-.888-2.244 0-.872.296-1.616.888-2.232.592-.616 1.308-.924 2.148-.924 1 0 1.756.396 2.268 1.188zm-2.136 4.116c.608 0 1.116-.204 1.524-.612.408-.424.612-.936.612-1.536 0-.608-.204-1.116-.612-1.524-.408-.416-.916-.624-1.524-.624-.6 0-1.104.208-1.512.624-.408.408-.612.916-.612 1.524 0 .6.204 1.112.612 1.536.408.408.912.612 1.512.612zm7.678-2.244l2.292 3.096h-1.224l-1.68-2.268-1.692 2.268h-1.224l2.304-3.084L787.91 161h1.236l1.548 2.088 1.548-2.088h1.224l-2.16 2.904zm5.527 4.296h-1.044c-.88-1.76-1.32-3.56-1.32-5.4 0-1.84.44-3.64 1.32-5.4h1.044c-.88 1.76-1.32 3.56-1.32 5.4 0 1.84.44 3.64 1.32 5.4zm1.204-9.6h3.276c1.136 0 2.084.408 2.844 1.224.76.808 1.14 1.8 1.14 2.976 0 1.168-.38 2.164-1.14 2.988-.76.808-1.708 1.212-2.844 1.212h-3.276v-8.4zm1.116 7.344h2.16c.856 0 1.556-.3 2.1-.9.544-.608.816-1.356.816-2.244 0-.888-.272-1.636-.816-2.244-.544-.6-1.244-.9-2.1-.9h-2.16v6.288zm7.497-7.344h3.276c1.136 0 2.084.408 2.844 1.224.76.808 1.14 1.8 1.14 2.976 0 1.168-.38 2.164-1.14 2.988-.76.808-1.708 1.212-2.844 1.212h-3.276v-8.4zm1.116 7.344h2.16c.856 0 1.556-.3 2.1-.9.544-.608.816-1.356.816-2.244 0-.888-.272-1.636-.816-2.244-.544-.6-1.244-.9-2.1-.9h-2.16v6.288zm7.941 2.256h-1.044c.88-1.76 1.32-3.56 1.32-5.4 0-1.84-.44-3.64-1.32-5.4h1.044c.88 1.76 1.32 3.56 1.32 5.4 0 1.84-.44 3.64-1.32 5.4zm3.364 0h-1.044c.88-1.76 1.32-3.56 1.32-5.4 0-1.84-.44-3.64-1.32-5.4h1.044c.88 1.76 1.32 3.56 1.32 5.4 0 1.84-.44 3.64-1.32 5.4zM729 71l-3.464 6h6.928L729 71zm0 99l3.464-6h-6.928l3.464 6zm-.6-93.6v88.2h1.2V76.4h-1.2zM569 147l-3.464 6h6.928L569 147zm0 47l3.464-6h-6.928l3.464 6zm-.6-41.6v36.2h1.2v-36.2h-1.2z" fill="#6405FF"/><path stroke="#EE3737" d="M557 146.5h24"/><path stroke="#6405FF" d="M557 194.5h24"/><path d="M569 99l-3.464 6h6.928L569 99zm0 47l3.464-6h-6.928l3.464 6zm-.6-41.6v36.2h1.2v-36.2h-1.2z" fill="#EE3737"/><path d="M592.836 191h-1.044v-8.76h1.044V191zm2.121-7.092a.685.685 0 01-.504-.204.67.67 0 01-.204-.492.67.67 0 01.204-.492.666.666 0 01.504-.216c.192 0 .356.072.492.216a.67.67 0 01.204.492.67.67 0 01-.204.492.67.67 0 01-.492.204zm.516 7.092h-1.044v-6h1.044v6zm8.072-6.156c.68 0 1.224.22 1.632.66.416.44.624 1.028.624 1.764V191h-1.044v-3.696c0-.456-.12-.812-.36-1.068-.232-.264-.552-.396-.96-.396-.464 0-.828.156-1.092.468-.256.304-.384.756-.384 1.356V191h-1.044v-3.696c0-.456-.116-.812-.348-1.068-.224-.264-.532-.396-.924-.396-.456 0-.828.16-1.116.48-.28.312-.42.76-.42 1.344V191h-1.044v-6h1.044v.804c.408-.64 1.004-.96 1.788-.96.808 0 1.396.34 1.764 1.02.416-.68 1.044-1.02 1.884-1.02zm5.972 7.356h-1.044c-.88-1.76-1.32-3.56-1.32-5.4 0-1.84.44-3.64 1.32-5.4h1.044c-.88 1.76-1.32 3.56-1.32 5.4 0 1.84.44 3.64 1.32 5.4zm7.575-7.356c.68 0 1.224.22 1.632.66.416.44.624 1.028.624 1.764V191h-1.044v-3.696c0-.456-.12-.812-.36-1.068-.232-.264-.552-.396-.96-.396-.464 0-.828.156-1.092.468-.256.304-.384.756-.384 1.356V191h-1.044v-3.696c0-.456-.116-.812-.348-1.068-.224-.264-.532-.396-.924-.396-.456 0-.828.16-1.116.48-.28.312-.42.76-.42 1.344V191h-1.044v-6h1.044v.804c.408-.64 1.004-.96 1.788-.96.808 0 1.396.34 1.764 1.02.416-.68 1.044-1.02 1.884-1.02zm8.672 1.188V185h1.044v6h-1.044v-1.032c-.512.792-1.268 1.188-2.268 1.188a2.863 2.863 0 01-2.148-.912c-.592-.616-.888-1.364-.888-2.244 0-.872.296-1.616.888-2.232.592-.616 1.308-.924 2.148-.924 1 0 1.756.396 2.268 1.188zm-2.136 4.116c.608 0 1.116-.204 1.524-.612.408-.424.612-.936.612-1.536 0-.608-.204-1.116-.612-1.524-.408-.416-.916-.624-1.524-.624-.6 0-1.104.208-1.512.624-.408.408-.612.916-.612 1.524 0 .6.204 1.112.612 1.536.408.408.912.612 1.512.612zm7.678-2.244l2.292 3.096h-1.224l-1.68-2.268-1.692 2.268h-1.224l2.304-3.084L627.91 185h1.236l1.548 2.088 1.548-2.088h1.224l-2.16 2.904zm5.527 4.296h-1.044c-.88-1.76-1.32-3.56-1.32-5.4 0-1.84.44-3.64 1.32-5.4h1.044c-.88 1.76-1.32 3.56-1.32 5.4 0 1.84.44 3.64 1.32 5.4zm1.204-9.6h3.276c1.136 0 2.084.408 2.844 1.224.76.808 1.14 1.8 1.14 2.976 0 1.168-.38 2.164-1.14 2.988-.76.808-1.708 1.212-2.844 1.212h-3.276v-8.4zm1.116 7.344h2.16c.856 0 1.556-.3 2.1-.9.544-.608.816-1.356.816-2.244 0-.888-.272-1.636-.816-2.244-.544-.6-1.244-.9-2.1-.9h-2.16v6.288zm7.497-7.344h3.276c1.136 0 2.084.408 2.844 1.224.76.808 1.14 1.8 1.14 2.976 0 1.168-.38 2.164-1.14 2.988-.76.808-1.708 1.212-2.844 1.212h-3.276v-8.4zm1.116 7.344h2.16c.856 0 1.556-.3 2.1-.9.544-.608.816-1.356.816-2.244 0-.888-.272-1.636-.816-2.244-.544-.6-1.244-.9-2.1-.9h-2.16v6.288zm7.941 2.256h-1.044c.88-1.76 1.32-3.56 1.32-5.4 0-1.84-.44-3.64-1.32-5.4h1.044c.88 1.76 1.32 3.56 1.32 5.4 0 1.84-.44 3.64-1.32 5.4zm3.364 0h-1.044c.88-1.76 1.32-3.56 1.32-5.4 0-1.84-.44-3.64-1.32-5.4h1.044c.88 1.76 1.32 3.56 1.32 5.4 0 1.84-.44 3.64-1.32 5.4z" fill="#6405FF"/><path d="M592.836 143h-1.044v-8.76h1.044V143zm2.121-7.092a.685.685 0 01-.504-.204.67.67 0 01-.204-.492.67.67 0 01.204-.492.666.666 0 01.504-.216c.192 0 .356.072.492.216a.67.67 0 01.204.492.67.67 0 01-.204.492.67.67 0 01-.492.204zm.516 7.092h-1.044v-6h1.044v6zm8.072-6.156c.68 0 1.224.22 1.632.66.416.44.624 1.028.624 1.764V143h-1.044v-3.696c0-.456-.12-.812-.36-1.068-.232-.264-.552-.396-.96-.396-.464 0-.828.156-1.092.468-.256.304-.384.756-.384 1.356V143h-1.044v-3.696c0-.456-.116-.812-.348-1.068-.224-.264-.532-.396-.924-.396-.456 0-.828.16-1.116.48-.28.312-.42.76-.42 1.344V143h-1.044v-6h1.044v.804c.408-.64 1.004-.96 1.788-.96.808 0 1.396.34 1.764 1.02.416-.68 1.044-1.02 1.884-1.02zm5.972 7.356h-1.044c-.88-1.76-1.32-3.56-1.32-5.4 0-1.84.44-3.64 1.32-5.4h1.044c-.88 1.76-1.32 3.56-1.32 5.4 0 1.84.44 3.64 1.32 5.4zm2.319-9.6v7.344h3.624V143h-4.74v-8.4h1.116zm9.465 7.644c-.608.608-1.356.912-2.244.912-.888 0-1.636-.304-2.244-.912-.608-.608-.912-1.356-.912-2.244 0-.888.304-1.636.912-2.244.608-.608 1.356-.912 2.244-.912.888 0 1.636.304 2.244.912.616.616.924 1.364.924 2.244 0 .88-.308 1.628-.924 2.244zm-2.244-.108c.6 0 1.104-.204 1.512-.612.408-.408.612-.916.612-1.524s-.204-1.116-.612-1.524c-.408-.408-.912-.612-1.512-.612a2.04 2.04 0 00-1.5.612c-.408.408-.612.916-.612 1.524s.204 1.116.612 1.524a2.04 2.04 0 001.5.612zm5.17-3.516c0 .384.396.684 1.188.9.296.064.544.132.744.204.208.064.432.164.672.3.248.136.436.316.564.54.128.224.192.488.192.792 0 .544-.212.98-.636 1.308-.424.328-.96.492-1.608.492-.576 0-1.076-.124-1.5-.372a2.138 2.138 0 01-.888-1.032l.9-.516c.096.288.276.516.54.684.264.168.58.252.948.252.36 0 .648-.068.864-.204.216-.136.324-.34.324-.612 0-.408-.396-.704-1.188-.888a34.115 34.115 0 01-.6-.168 5.271 5.271 0 01-.564-.216 1.945 1.945 0 01-.528-.324 2.014 2.014 0 01-.336-.468c-.096-.2-.144-.42-.144-.66 0-.52.2-.948.6-1.284.408-.336.916-.504 1.524-.504.488 0 .92.112 1.296.336.384.216.672.52.864.912l-.876.492c-.216-.512-.644-.768-1.284-.768-.304 0-.56.072-.768.216-.2.144-.3.34-.3.588zm5.121 0c0 .384.396.684 1.188.9.296.064.544.132.744.204.208.064.432.164.672.3.248.136.436.316.564.54.128.224.192.488.192.792 0 .544-.212.98-.636 1.308-.424.328-.96.492-1.608.492-.576 0-1.076-.124-1.5-.372a2.138 2.138 0 01-.888-1.032l.9-.516c.096.288.276.516.54.684.264.168.58.252.948.252.36 0 .648-.068.864-.204.216-.136.324-.34.324-.612 0-.408-.396-.704-1.188-.888a34.115 34.115 0 01-.6-.168 5.271 5.271 0 01-.564-.216 1.945 1.945 0 01-.528-.324 2.014 2.014 0 01-.336-.468c-.096-.2-.144-.42-.144-.66 0-.52.2-.948.6-1.284.408-.336.916-.504 1.524-.504.488 0 .92.112 1.296.336.384.216.672.52.864.912l-.876.492c-.216-.512-.644-.768-1.284-.768-.304 0-.56.072-.768.216-.2.144-.3.34-.3.588zm6.864 5.58h-1.044c-.88-1.76-1.32-3.56-1.32-5.4 0-1.84.44-3.64 1.32-5.4h1.044c-.88 1.76-1.32 3.56-1.32 5.4 0 1.84.44 3.64 1.32 5.4zm4.312-1.2h-1.296l-2.412-8.4h1.176l1.92 6.912 2.04-6.912h1.128l2.04 6.912 1.92-6.912h1.176l-2.412 8.4h-1.296l-1.992-6.708-1.992 6.708zm9.336 1.2h-1.044c.88-1.76 1.32-3.56 1.32-5.4 0-1.84-.44-3.64-1.32-5.4h1.044c.88 1.76 1.32 3.56 1.32 5.4 0 1.84-.44 3.64-1.32 5.4zm3.363 0h-1.044c.88-1.76 1.32-3.56 1.32-5.4 0-1.84-.44-3.64-1.32-5.4h1.044c.88 1.76 1.32 3.56 1.32 5.4 0 1.84-.44 3.64-1.32 5.4z" fill="#EE3737"/><path d="M349 243l-3.464 6h6.928L349 243zm0 47l3.464-6h-6.928l3.464 6zm-.6-41.6v36.2h1.2v-36.2h-1.2z" fill="#6405FF"/><path stroke="#EE3737" d="M337 242.5h24"/><path stroke="#6405FF" d="M337 290.5h24"/><path d="M349 195l-3.464 6h6.928L349 195zm0 47l3.464-6h-6.928l3.464 6zm-.6-41.6v36.2h1.2v-36.2h-1.2z" fill="#EE3737"/><path d="M372.836 287h-1.044v-8.76h1.044V287zm2.121-7.092a.685.685 0 01-.504-.204.67.67 0 01-.204-.492.67.67 0 01.204-.492.666.666 0 01.504-.216c.192 0 .356.072.492.216a.67.67 0 01.204.492.67.67 0 01-.204.492.67.67 0 01-.492.204zm.516 7.092h-1.044v-6h1.044v6zm8.072-6.156c.68 0 1.224.22 1.632.66.416.44.624 1.028.624 1.764V287h-1.044v-3.696c0-.456-.12-.812-.36-1.068-.232-.264-.552-.396-.96-.396-.464 0-.828.156-1.092.468-.256.304-.384.756-.384 1.356V287h-1.044v-3.696c0-.456-.116-.812-.348-1.068-.224-.264-.532-.396-.924-.396-.456 0-.828.16-1.116.48-.28.312-.42.76-.42 1.344V287h-1.044v-6h1.044v.804c.408-.64 1.004-.96 1.788-.96.808 0 1.396.34 1.764 1.02.416-.68 1.044-1.02 1.884-1.02zm5.972 7.356h-1.044c-.88-1.76-1.32-3.56-1.32-5.4 0-1.84.44-3.64 1.32-5.4h1.044c-.88 1.76-1.32 3.56-1.32 5.4 0 1.84.44 3.64 1.32 5.4zm7.575-7.356c.68 0 1.224.22 1.632.66.416.44.624 1.028.624 1.764V287h-1.044v-3.696c0-.456-.12-.812-.36-1.068-.232-.264-.552-.396-.96-.396-.464 0-.828.156-1.092.468-.256.304-.384.756-.384 1.356V287h-1.044v-3.696c0-.456-.116-.812-.348-1.068-.224-.264-.532-.396-.924-.396-.456 0-.828.16-1.116.48-.28.312-.42.76-.42 1.344V287h-1.044v-6h1.044v.804c.408-.64 1.004-.96 1.788-.96.808 0 1.396.34 1.764 1.02.416-.68 1.044-1.02 1.884-1.02zm8.672 1.188V281h1.044v6h-1.044v-1.032c-.512.792-1.268 1.188-2.268 1.188a2.863 2.863 0 01-2.148-.912c-.592-.616-.888-1.364-.888-2.244 0-.872.296-1.616.888-2.232.592-.616 1.308-.924 2.148-.924 1 0 1.756.396 2.268 1.188zm-2.136 4.116c.608 0 1.116-.204 1.524-.612.408-.424.612-.936.612-1.536 0-.608-.204-1.116-.612-1.524-.408-.416-.916-.624-1.524-.624-.6 0-1.104.208-1.512.624-.408.408-.612.916-.612 1.524 0 .6.204 1.112.612 1.536.408.408.912.612 1.512.612zm7.678-2.244l2.292 3.096h-1.224l-1.68-2.268-1.692 2.268h-1.224l2.304-3.084L407.91 281h1.236l1.548 2.088 1.548-2.088h1.224l-2.16 2.904zm5.527 4.296h-1.044c-.88-1.76-1.32-3.56-1.32-5.4 0-1.84.44-3.64 1.32-5.4h1.044c-.88 1.76-1.32 3.56-1.32 5.4 0 1.84.44 3.64 1.32 5.4zm1.204-9.6h3.276c1.136 0 2.084.408 2.844 1.224.76.808 1.14 1.8 1.14 2.976 0 1.168-.38 2.164-1.14 2.988-.76.808-1.708 1.212-2.844 1.212h-3.276v-8.4zm1.116 7.344h2.16c.856 0 1.556-.3 2.1-.9.544-.608.816-1.356.816-2.244 0-.888-.272-1.636-.816-2.244-.544-.6-1.244-.9-2.1-.9h-2.16v6.288zm7.497-7.344h3.276c1.136 0 2.084.408 2.844 1.224.76.808 1.14 1.8 1.14 2.976 0 1.168-.38 2.164-1.14 2.988-.76.808-1.708 1.212-2.844 1.212h-3.276v-8.4zm1.116 7.344h2.16c.856 0 1.556-.3 2.1-.9.544-.608.816-1.356.816-2.244 0-.888-.272-1.636-.816-2.244-.544-.6-1.244-.9-2.1-.9h-2.16v6.288zm7.941 2.256h-1.044c.88-1.76 1.32-3.56 1.32-5.4 0-1.84-.44-3.64-1.32-5.4h1.044c.88 1.76 1.32 3.56 1.32 5.4 0 1.84-.44 3.64-1.32 5.4zm3.364 0h-1.044c.88-1.76 1.32-3.56 1.32-5.4 0-1.84-.44-3.64-1.32-5.4h1.044c.88 1.76 1.32 3.56 1.32 5.4 0 1.84-.44 3.64-1.32 5.4z" fill="#6405FF"/><path d="M372.836 242h-1.044v-8.76h1.044V242zm2.121-7.092a.685.685 0 01-.504-.204.67.67 0 01-.204-.492.67.67 0 01.204-.492.666.666 0 01.504-.216c.192 0 .356.072.492.216a.67.67 0 01.204.492.67.67 0 01-.204.492.67.67 0 01-.492.204zm.516 7.092h-1.044v-6h1.044v6zm8.072-6.156c.68 0 1.224.22 1.632.66.416.44.624 1.028.624 1.764V242h-1.044v-3.696c0-.456-.12-.812-.36-1.068-.232-.264-.552-.396-.96-.396-.464 0-.828.156-1.092.468-.256.304-.384.756-.384 1.356V242h-1.044v-3.696c0-.456-.116-.812-.348-1.068-.224-.264-.532-.396-.924-.396-.456 0-.828.16-1.116.48-.28.312-.42.76-.42 1.344V242h-1.044v-6h1.044v.804c.408-.64 1.004-.96 1.788-.96.808 0 1.396.34 1.764 1.02.416-.68 1.044-1.02 1.884-1.02zm5.972 7.356h-1.044c-.88-1.76-1.32-3.56-1.32-5.4 0-1.84.44-3.64 1.32-5.4h1.044c-.88 1.76-1.32 3.56-1.32 5.4 0 1.84.44 3.64 1.32 5.4zm2.319-9.6v7.344h3.624V242h-4.74v-8.4h1.116zm9.465 7.644c-.608.608-1.356.912-2.244.912-.888 0-1.636-.304-2.244-.912-.608-.608-.912-1.356-.912-2.244 0-.888.304-1.636.912-2.244.608-.608 1.356-.912 2.244-.912.888 0 1.636.304 2.244.912.616.616.924 1.364.924 2.244 0 .88-.308 1.628-.924 2.244zm-2.244-.108c.6 0 1.104-.204 1.512-.612.408-.408.612-.916.612-1.524s-.204-1.116-.612-1.524c-.408-.408-.912-.612-1.512-.612a2.04 2.04 0 00-1.5.612c-.408.408-.612.916-.612 1.524s.204 1.116.612 1.524a2.04 2.04 0 001.5.612zm5.17-3.516c0 .384.396.684 1.188.9.296.064.544.132.744.204.208.064.432.164.672.3.248.136.436.316.564.54.128.224.192.488.192.792 0 .544-.212.98-.636 1.308-.424.328-.96.492-1.608.492-.576 0-1.076-.124-1.5-.372a2.138 2.138 0 01-.888-1.032l.9-.516c.096.288.276.516.54.684.264.168.58.252.948.252.36 0 .648-.068.864-.204.216-.136.324-.34.324-.612 0-.408-.396-.704-1.188-.888a34.115 34.115 0 01-.6-.168 5.271 5.271 0 01-.564-.216 1.945 1.945 0 01-.528-.324 2.014 2.014 0 01-.336-.468c-.096-.2-.144-.42-.144-.66 0-.52.2-.948.6-1.284.408-.336.916-.504 1.524-.504.488 0 .92.112 1.296.336.384.216.672.52.864.912l-.876.492c-.216-.512-.644-.768-1.284-.768-.304 0-.56.072-.768.216-.2.144-.3.34-.3.588zm5.121 0c0 .384.396.684 1.188.9.296.064.544.132.744.204.208.064.432.164.672.3.248.136.436.316.564.54.128.224.192.488.192.792 0 .544-.212.98-.636 1.308-.424.328-.96.492-1.608.492-.576 0-1.076-.124-1.5-.372a2.138 2.138 0 01-.888-1.032l.9-.516c.096.288.276.516.54.684.264.168.58.252.948.252.36 0 .648-.068.864-.204.216-.136.324-.34.324-.612 0-.408-.396-.704-1.188-.888a34.115 34.115 0 01-.6-.168 5.271 5.271 0 01-.564-.216 1.945 1.945 0 01-.528-.324 2.014 2.014 0 01-.336-.468c-.096-.2-.144-.42-.144-.66 0-.52.2-.948.6-1.284.408-.336.916-.504 1.524-.504.488 0 .92.112 1.296.336.384.216.672.52.864.912l-.876.492c-.216-.512-.644-.768-1.284-.768-.304 0-.56.072-.768.216-.2.144-.3.34-.3.588zm6.864 5.58h-1.044c-.88-1.76-1.32-3.56-1.32-5.4 0-1.84.44-3.64 1.32-5.4h1.044c-.88 1.76-1.32 3.56-1.32 5.4 0 1.84.44 3.64 1.32 5.4zm4.312-1.2h-1.296l-2.412-8.4h1.176l1.92 6.912 2.04-6.912h1.128l2.04 6.912 1.92-6.912h1.176l-2.412 8.4h-1.296l-1.992-6.708-1.992 6.708zm9.336 1.2h-1.044c.88-1.76 1.32-3.56 1.32-5.4 0-1.84-.44-3.64-1.32-5.4h1.044c.88 1.76 1.32 3.56 1.32 5.4 0 1.84-.44 3.64-1.32 5.4zm3.363 0h-1.044c.88-1.76 1.32-3.56 1.32-5.4 0-1.84-.44-3.64-1.32-5.4h1.044c.88 1.76 1.32 3.56 1.32 5.4 0 1.84-.44 3.64-1.32 5.4z" fill="#EE3737"/></svg>