<svg width="130" height="60" fill="none" xmlns="http://www.w3.org/2000/svg"><g clip-path="url(#clip0_4010_5506)"><path d="M57.076 32.96c-.632-2.462-.039-2.948.535-2.944.132.001.153 0 .268.034l.002-.054s-1.699-5.752 2.388-8.282c0 0-.718-.59-.663-1.44 0 0 1.874.215 3.67.219.816.002 1.616-.04 2.216-.166.24-.05.483-.07.723-.064 1.687.043 3.303 1.376 3.587 2.663 0 0 .025-.002.07-.002.534 0 3.882.26 2.275 7.095l-.004.025a1.29 1.29 0 01.242-.028c.575-.008 1.173.474.54 2.942-.507 1.972-.976 2.48-1.324 2.479a.462.462 0 01-.305-.136c-.243 1.551-.884 3.439-2.47 4.78-3.918 3.052-7.637.06-7.637.06-1.625-1.331-2.283-3.231-2.536-4.797a.423.423 0 01-.262.093c-.348-.007-.813-.522-1.315-2.478zm7.966 26.683l2.7-3.003-1.971-8.834s3.144-4.382-.771-4.33c-3.915-.052-.771 4.33-.771 4.33l-1.971 8.834 2.7 3.003v.094L65 59.69l.042.047v-.094zm14.673-9.553c.111-1.596-.02-4.826-2.777-5.537-3.696-.953-6.7-3.098-6.7-3.098l-2.483 7.968 1.532 6.863c.014.064.024.128.03.192 6.396-.835 10.09-3.272 10.09-3.272.353-.9.32-3.12.32-3.12l-.012.004zm-19.002 6.196l1.532-6.863-.14-.45-2.344-7.518s-3.003 2.145-6.7 3.099c-2.754.71-2.888 3.936-2.776 5.533 0 0-.032 2.22.32 3.12 0 0 3.69 2.433 10.078 3.27.006-.064.016-.128.03-.191z" fill="#66789A"/></g><g clip-path="url(#clip1_4010_5506)"><path d="M7.076 12.96c-.632-2.462-.039-2.948.535-2.944.132.001.153 0 .268.034l.002-.054s-1.699-5.752 2.388-8.282c0 0-.718-.59-.663-1.44 0 0 1.874.215 3.67.219.816.002 1.616-.04 2.216-.166.24-.05.482-.07.723-.064 1.687.043 3.303 1.376 3.587 2.664 0 0 .025-.003.07-.003.534 0 3.882.26 2.275 7.095l-.004.025a1.29 1.29 0 01.242-.028c.575-.008 1.173.474.54 2.942-.507 1.972-.976 2.48-1.324 2.479a.462.462 0 01-.304-.136c-.244 1.551-.885 3.439-2.472 4.78-3.917 3.053-7.636.06-7.636.06-1.625-1.331-2.283-3.231-2.536-4.797a.423.423 0 01-.262.093c-.348-.007-.813-.522-1.315-2.478zm7.966 26.683l2.7-3.003-1.971-8.834s3.143-4.382-.771-4.33c-3.915-.052-.771 4.33-.771 4.33l-1.971 8.834 2.7 3.003v.094L15 39.69l.042.047v-.094zm14.673-9.553c.111-1.596-.02-4.826-2.777-5.537-3.696-.953-6.7-3.098-6.7-3.098l-2.483 7.969 1.532 6.862c.014.064.024.128.03.192 6.395-.835 10.09-3.272 10.09-3.272.352-.9.32-3.12.32-3.12l-.012.004zm-19.002 6.196l1.532-6.863-.14-.45-2.344-7.518s-3.003 2.145-6.7 3.099C.308 25.264.175 28.49.286 30.087c0 0-.032 2.22.32 3.12 0 0 3.69 2.433 10.078 3.27.006-.064.016-.128.03-.191z" fill="#66789A"/></g><g clip-path="url(#clip2_4010_5506)"><path d="M107.076 12.96c-.632-2.462-.039-2.948.535-2.944.132.001.153 0 .268.034l.002-.054s-1.699-5.752 2.388-8.282c0 0-.718-.59-.663-1.44 0 0 1.874.215 3.67.219.816.002 1.616-.04 2.216-.166.24-.05.483-.07.723-.064 1.687.043 3.303 1.376 3.587 2.664 0 0 .025-.003.07-.003.534 0 3.882.26 2.275 7.095l-.004.025a1.29 1.29 0 01.242-.028c.575-.008 1.173.474.539 2.942-.506 1.972-.975 2.48-1.323 2.479a.46.46 0 01-.304-.136c-.244 1.551-.885 3.439-2.472 4.78-3.917 3.053-7.636.06-7.636.06-1.625-1.331-2.283-3.231-2.536-4.797a.424.424 0 01-.262.093c-.348-.007-.813-.522-1.315-2.478zm7.966 26.683l2.7-3.003-1.971-8.834s3.144-4.382-.771-4.33c-3.915-.052-.771 4.33-.771 4.33l-1.971 8.834 2.7 3.003v.094l.042-.047.042.047v-.094zm14.673-9.553c.111-1.596-.02-4.826-2.777-5.537-3.696-.953-6.699-3.098-6.699-3.098l-2.484 7.969 1.532 6.862c.014.064.024.128.03.192 6.396-.835 10.091-3.272 10.091-3.272.352-.9.32-3.12.32-3.12l-.013.004zm-19.002 6.196l1.532-6.863-.141-.45-2.343-7.518s-3.003 2.145-6.699 3.099c-2.755.71-2.888 3.936-2.777 5.533 0 0-.032 2.22.32 3.12 0 0 3.69 2.433 10.078 3.27.006-.064.016-.128.03-.191z" fill="#66789A"/></g><defs><clipPath id="clip0_4010_5506"><path fill="#fff" transform="translate(50 20)" d="M0 0h30v40H0z"/></clipPath><clipPath id="clip1_4010_5506"><path fill="#fff" d="M0 0h30v40H0z"/></clipPath><clipPath id="clip2_4010_5506"><path fill="#fff" transform="translate(100)" d="M0 0h30v40H0z"/></clipPath></defs></svg>