<svg width="40" height="40" fill="none" xmlns="http://www.w3.org/2000/svg"><g clip-path="url(#clip0_314_368)" fill="#66789A"><path d="M36.214 33.79a.265.265 0 00.264-.263v-1.049a.265.265 0 00-.264-.265h-2.242a.434.434 0 00-.026-.868h-.135v-.802a.25.25 0 00-.25-.251h-.612V15.508a.521.521 0 00.035-1.043h2.23a1 1 0 001-.998.999.999 0 00-1-.997H4.787a.998.998 0 100 1.995h2.23a.521.521 0 00.035 1.043v14.784h-.615a.253.253 0 00-.251.251v.802h-.132a.433.433 0 00-.027.868H3.786a.264.264 0 00-.264.265v1.049c0 .145.119.263.264.263h32.428zM25.498 15.508a.527.527 0 00.528-.528.524.524 0 00-.497-.515h3.863a.524.524 0 00-.496.515c0 .292.24.528.528.528v14.784h-.613a.25.25 0 00-.248.251v.802h-.134a.441.441 0 00-.443.44.43.43 0 00.413.428h-1.882a.435.435 0 00.412-.428.44.44 0 00-.441-.44h-.134v-.802a.25.25 0 00-.248-.251h-.612l.003-14.784zm-7.464 0a.529.529 0 00.529-.528.523.523 0 00-.495-.515h3.873a.519.519 0 00-.493.513c0 .292.236.529.528.529V30.29h-.615a.25.25 0 00-.248.252v.801h-.132a.44.44 0 00-.442.44c0 .234.185.414.412.429h-1.892a.435.435 0 00.412-.429.44.44 0 00-.44-.44h-.132v-.801a.252.252 0 00-.252-.252h-.613V15.508zm-6.466 15.837h-.134v-.8a.252.252 0 00-.252-.252h-.611V15.51a.522.522 0 00.033-1.043h3.875a.523.523 0 00-.495.515c0 .291.237.528.528.528v14.783h-.611a.253.253 0 00-.252.252v.8h-.133a.44.44 0 00-.44.44c0 .235.183.413.413.43h-1.893a.437.437 0 00.412-.43.44.44 0 00-.44-.44zm-9.545 5.378H37.97a.264.264 0 00.265-.263v-1.402a.266.266 0 00-.265-.265H2.023a.267.267 0 00-.265.265v1.402c.003.145.12.263.265.263zm37.71 1.005H.265a.263.263 0 00-.265.264v1.755c0 .143.118.261.265.261h39.472a.264.264 0 00.265-.261v-1.755a.267.267 0 00-.269-.264zM20 11.482H1.58c-1.85 0-2.029-.71-.4-1.589L19.263.157c.407-.219 1.068-.219 1.475 0l18.083 9.736c1.629.877 1.45 1.589-.4 1.589H20z"/></g><defs><clipPath id="clip0_314_368"><path fill="#fff" d="M0 0h40v40H0z"/></clipPath></defs></svg>