<svg width="30" height="30" viewBox="0 0 30 30" fill="none" xmlns="http://www.w3.org/2000/svg">
<g clip-path="url(#clip0_435_1748)">
<path d="M1.22745 11.5667L1.2275 11.5665C3.12318 3.95851 10.8279 -0.671404 18.4335 1.2251L18.4335 1.22511C26.0409 3.12165 30.6702 10.8277 28.7736 18.4353C26.877 26.0424 19.1724 30.672 11.5643 28.775C3.95963 26.8785 -0.669991 19.1733 1.22745 11.5667Z" fill="#F7AC1A" stroke="white" stroke-width="1.6"/>
<path d="M19.7271 9.54383C18.9878 7.666 17.1352 7.49663 14.9777 7.91573L14.2096 5.23718L12.5792 5.70486L13.3272 8.3128C12.8986 8.43576 12.4629 8.56986 12.0301 8.70336L11.2775 6.07806L9.64797 6.54527L10.4152 9.22324C10.0643 9.33167 9.71952 9.43763 9.38156 9.53478L9.37897 9.52653L7.13 10.1706L7.62975 11.9118C7.62975 11.9118 8.82717 11.5436 8.81352 11.5715C9.47398 11.3823 9.79886 11.7041 9.95624 12.017L10.8314 15.0684C10.877 15.0556 10.937 15.0405 11.007 15.0304C10.9527 15.046 10.8944 15.0623 10.8348 15.08L12.0602 19.3549C12.0908 19.571 12.0636 19.9374 11.6025 20.0705C11.6286 20.083 10.4172 20.4101 10.4172 20.4101L10.6516 22.4501L12.7733 21.8416C13.1683 21.7289 13.5587 21.6242 13.9408 21.5172L14.7183 24.2261L16.347 23.7593L15.5784 21.0789C16.0282 20.9599 16.462 20.8394 16.8844 20.7179L17.6487 23.3861L19.2791 22.9185L18.5042 20.2141C21.2002 19.2708 22.9206 18.0301 22.4208 15.3878C22.0188 13.2599 20.7786 12.6147 19.1155 12.6872C19.9227 11.9348 20.2705 10.9172 19.7271 9.54383ZM19.1071 15.9905C19.6885 18.0147 16.156 18.7785 15.0513 19.0964L14.0225 15.5069C15.1279 15.1902 18.5017 13.8789 19.1071 15.9905ZM16.8967 11.1439C17.4243 12.9859 14.4717 13.5999 13.5514 13.8639L12.618 10.6085C13.5384 10.3446 16.3456 9.22283 16.8967 11.1439Z" fill="white"/>
</g>
<defs>
<clipPath id="clip0_435_1748">
<rect width="30" height="30" fill="white"/>
</clipPath>
</defs>
</svg>
