<svg width="30" height="30" viewBox="0 0 30 30" fill="none" xmlns="http://www.w3.org/2000/svg">
<circle cx="15" cy="15" r="15" fill="url(#paint0_linear_435_1830)"/>
<g clip-path="url(#clip0_435_1830)">
<mask id="mask0_435_1830" style="mask-type:luminance" maskUnits="userSpaceOnUse" x="7" y="7" width="16" height="17">
<path d="M16.9234 7.47678C15.8585 8.09347 15.2292 9.20477 15.2292 10.3787C15.2292 10.9954 15.4803 11.6152 15.795 12.1693C16.0461 12.6639 16.17 13.5279 15.2927 13.9599C14.6666 14.3293 13.8497 14.082 13.4746 13.4653C13.0995 12.9707 12.6609 12.4761 12.0951 12.1067C11.0302 11.49 9.77467 11.49 8.70983 12.1067C7.64499 12.7234 7.01562 13.8378 7.01562 15.0117C7.01562 16.1856 7.64181 17.2969 8.70983 17.9136C9.77467 18.5303 11.0302 18.5303 12.0951 17.9136C12.6609 17.6037 13.0995 17.1122 13.411 16.555C13.6621 16.123 14.3519 15.5658 15.2292 16.0604C15.8554 16.4298 16.0429 17.2343 15.7314 17.851C15.4167 18.4082 15.2292 19.0249 15.2292 19.6416C15.2292 20.8155 15.8554 21.9268 16.9234 22.5435C17.9882 23.1602 19.2438 23.1602 20.3086 22.5435C21.3734 21.9268 22.0028 20.8155 22.0028 19.6416C22.0028 18.4677 21.3766 17.3564 20.3086 16.7397C19.7428 16.4298 19.1166 16.3077 18.4269 16.3077C17.8611 16.3077 17.1109 15.9383 17.1109 15.0117C17.1109 14.2698 17.6767 13.7157 18.4269 13.7157C19.0531 13.7157 19.7428 13.5936 20.3086 13.2837C21.3734 12.667 22.0028 11.5557 22.0028 10.3818C22.0028 9.2079 21.3766 8.0966 20.3086 7.47991C19.8064 7.17 19.1802 7.04791 18.6144 7.04791C18.0518 7.04478 17.4224 7.17 16.9234 7.47678Z" fill="white"/>
</mask>
<g mask="url(#mask0_435_1830)">
<path d="M14.5401 -0.365234L30.2138 15.1335L14.5401 30.5696L-1.19727 15.1335L14.5401 -0.365234Z" fill="white"/>
</g>
</g>
<defs>
<linearGradient id="paint0_linear_435_1830" x1="0" y1="15" x2="30" y2="15" gradientUnits="userSpaceOnUse">
<stop stop-color="#0F9FD7"/>
<stop offset="1" stop-color="#036AA0"/>
</linearGradient>
<clipPath id="clip0_435_1830">
<rect width="15" height="16" fill="white" transform="translate(7 7)"/>
</clipPath>
</defs>
</svg>
