<svg width="38" height="33" viewBox="0 0 38 33" fill="none" xmlns="http://www.w3.org/2000/svg">
<g clip-path="url(#clip0_435_1889)">
<path d="M0 3H30V33H0V3Z" fill="#26A17B"/>
<path d="M16.6063 19.1362C16.5174 19.1362 16.1349 19.1727 15.0168 19.1727C14.1206 19.1727 13.6138 19.1459 13.392 19.1362C9.94041 18.983 7.23506 18.3777 7.23506 17.6459C7.23506 16.9141 9.94041 16.2996 13.392 16.1459V18.5314H16.6063V16.1464C20.0488 16.2996 22.7542 16.9141 22.7542 17.6459C22.7542 18.3686 20.0488 18.983 16.6063 19.1362ZM16.6063 15.8936V13.7143H21.4277V10.5H8.57059V13.7143H13.392V15.893C9.48773 16.0741 6.42773 16.8691 6.42773 17.8082C6.42773 18.7479 9.48773 19.5429 13.392 19.7239V26.5714H16.6063V19.7239C20.5106 19.5429 23.5706 18.7479 23.5706 17.8082C23.5706 16.8691 20.5106 16.0832 16.6063 15.893V15.8936Z" fill="white"/>
</g>
<g clip-path="url(#clip1_435_1889)">
<path d="M22 0H38V16H22V0Z" fill="#627EEA"/>
<path d="M30 2.28613V6.50985L33.5714 8.10528L30 2.28613Z" fill="white" fill-opacity="0.6"/>
<path d="M29.9992 2.28613L26.4277 8.10528L29.9992 6.50985V2.28613Z" fill="white"/>
<path d="M30 10.8429V13.7143L33.5714 8.77148L30 10.8429Z" fill="white" fill-opacity="0.6"/>
<path d="M29.9992 13.7143V10.8429L26.4277 8.77148L29.9992 13.7143Z" fill="white"/>
<path d="M30 10.1766L33.5714 8.10519L30 6.50977V10.1766Z" fill="white" fill-opacity="0.2"/>
<path d="M26.4277 8.10519L29.9992 10.1766V6.50977L26.4277 8.10519Z" fill="white" fill-opacity="0.6"/>
</g>
<defs>
<clipPath id="clip0_435_1889">
<rect y="3" width="30" height="30" rx="15" fill="white"/>
</clipPath>
<clipPath id="clip1_435_1889">
<rect x="22" width="16" height="16" rx="8" fill="white"/>
</clipPath>
</defs>
</svg>
