<svg width="34" height="26" viewBox="0 0 34 26" fill="none" xmlns="http://www.w3.org/2000/svg">
<g clip-path="url(#clip0_418_156)">
<path d="M12 2C18.6271 2 24 7.37288 24 14C24 20.6271 18.6269 26 12 26C5.37312 26 0 20.6286 0 14C0 7.37144 5.37216 2 12 2Z" fill="#53AE94"/>
<path d="M13.481 12.4015V10.6164H17.5632V7.89648H6.44732V10.6164H10.53V12.4001C7.21196 12.5525 4.71716 13.2096 4.71716 13.9968C4.71716 14.784 7.21316 15.4411 10.53 15.5945V21.3125H13.482V15.594C16.794 15.4411 19.2837 14.7845 19.2837 13.998C19.2837 13.2115 16.794 12.5549 13.482 12.402M13.482 15.1097V15.1082C13.3987 15.1135 12.9708 15.1392 12.018 15.1392C11.2562 15.1392 10.7203 15.1176 10.5314 15.1078V15.1102C7.60004 14.9803 5.41196 14.4698 5.41196 13.859C5.41196 13.2482 7.60028 12.7385 10.5314 12.6084V14.6016C10.7234 14.6148 11.2725 14.6472 12.0304 14.6472C12.9408 14.6472 13.3984 14.6093 13.4824 14.6016V12.6084C16.408 12.7387 18.5911 13.2497 18.5911 13.8583C18.5911 14.467 16.4071 14.9782 13.4824 15.1085" fill="white"/>
</g>
<circle cx="26" cy="8" r="8" fill="#FF060A"/>
<g clip-path="url(#clip1_418_156)">
<path d="M31.5789 6.3139C31.0632 5.8378 30.35 5.11077 29.769 4.59515L29.7346 4.57108C29.6774 4.52515 29.613 4.48914 29.5439 4.46452C28.1431 4.20327 21.6239 2.98468 21.4967 3.00015C21.461 3.00514 21.427 3.01806 21.397 3.03796L21.3643 3.06374C21.3241 3.10458 21.2936 3.15391 21.275 3.20811L21.2664 3.23046V3.35249V3.3714C22.0003 5.41499 24.8981 12.1095 25.4687 13.6805C25.5031 13.787 25.5684 13.9898 25.6904 14.0001H25.7179C25.7832 14.0001 26.0617 13.6323 26.0617 13.6323C26.0617 13.6323 31.0392 7.59608 31.5428 6.95327C31.608 6.87409 31.6655 6.78892 31.7146 6.6989C31.7272 6.62846 31.7213 6.55598 31.6975 6.48851C31.6737 6.42104 31.6328 6.36088 31.5789 6.3139ZM27.3387 7.01686L29.4631 5.25515L30.7092 6.40327L27.3387 7.01686ZM26.5137 6.90171L22.8562 3.90421L28.7739 4.99561L26.5137 6.90171ZM26.8437 7.68718L30.5871 7.0839L26.3075 12.2401L26.8437 7.68718ZM22.3595 4.20327L26.2078 7.4689L25.6509 12.2436L22.3595 4.20327Z" fill="white"/>
</g>
<defs>
<clipPath id="clip0_418_156">
<rect width="24" height="24" fill="white" transform="translate(0 2)"/>
</clipPath>
<clipPath id="clip1_418_156">
<rect width="11" height="11" fill="white" transform="translate(21 3)"/>
</clipPath>
</defs>
</svg>
