<svg width="24" height="24" viewBox="0 0 24 24" fill="none" xmlns="http://www.w3.org/2000/svg">
<g clip-path="url(#clip0_411_76)">
<path d="M23.0813 7.23032C21.9563 6.19157 20.4 4.60532 19.1325 3.48032L19.0575 3.42782C18.9328 3.32761 18.7921 3.24902 18.6413 3.19532C15.585 2.62532 1.3613 -0.0334315 1.0838 0.000318475C1.00604 0.0112085 0.931718 0.0394005 0.866299 0.0828185L0.795049 0.139068C0.707315 0.228169 0.64068 0.33581 0.600049 0.454068L0.581299 0.502818V0.769068V0.810318C2.18255 5.26907 8.50505 19.8753 9.75005 23.3028C9.82505 23.5353 9.96755 23.9778 10.2338 24.0003H10.2938C10.4363 24.0003 11.0438 23.1978 11.0438 23.1978C11.0438 23.1978 21.9038 10.0278 23.0025 8.62532C23.1448 8.45256 23.2703 8.26673 23.3775 8.07032C23.4049 7.91664 23.392 7.7585 23.3401 7.61129C23.2882 7.46408 23.199 7.33283 23.0813 7.23032ZM13.83 8.76407L18.465 4.92032L21.1838 7.42532L13.83 8.76407ZM12.0301 8.51282L4.05005 1.97282L16.9613 4.35407L12.0301 8.51282ZM12.75 10.2266L20.9175 8.91032L11.58 20.1603L12.75 10.2266ZM2.9663 2.62532L11.3625 9.75032L10.1475 20.1678L2.9663 2.62532Z" fill="#FF060A"/>
</g>
<defs>
<clipPath id="clip0_411_76">
<rect width="24" height="24" fill="white"/>
</clipPath>
</defs>
</svg>
