<svg width="30" height="30" viewBox="0 0 30 30" fill="none" xmlns="http://www.w3.org/2000/svg">
<g clip-path="url(#clip0_435_1850)">
<path d="M0 0H30V30H0V0Z" fill="#C4342B"/>
<path fill-rule="evenodd" clip-rule="evenodd" d="M8.2494 7.75964C8.31422 7.68788 8.39724 7.63501 8.48967 7.60662C8.5821 7.57823 8.68049 7.57539 8.7744 7.59839L20.078 10.3659C20.146 10.3825 20.2098 10.4125 20.2665 10.4532L22.5664 12.13C22.6788 12.2121 22.7549 12.3347 22.7785 12.4719C22.8021 12.6091 22.7714 12.7501 22.6928 12.865L14.7803 24.4418C14.7245 24.5236 14.6472 24.5883 14.5569 24.6288C14.4666 24.6693 14.3668 24.684 14.2686 24.6712C14.1705 24.6585 14.0778 24.6187 14.0008 24.5565C13.9238 24.4942 13.8656 24.4119 13.8326 24.3186L8.14226 8.29857C8.1099 8.20751 8.10277 8.10939 8.12163 8.0146C8.14049 7.91982 8.18464 7.83137 8.2494 7.75964ZM10.1148 10.6509L14.0651 21.7723L14.7149 16.0086L10.1148 10.6509ZM15.7719 16.1945L15.1119 22.0584L20.6994 13.8818L15.7719 16.1945ZM21.2035 12.4621L17.6019 14.1523L20.0164 11.597L21.2035 12.4621ZM18.9289 11.1877L10.1405 9.03571L15.293 15.0368L18.9289 11.1877Z" fill="white"/>
</g>
<defs>
<clipPath id="clip0_435_1850">
<rect width="30" height="30" rx="15" fill="white"/>
</clipPath>
</defs>
</svg>
