<svg width="24" height="24" viewBox="0 0 24 24" fill="none" xmlns="http://www.w3.org/2000/svg">
<path fill-rule="evenodd" clip-rule="evenodd" d="M2.375 15C2.375 14.1025 3.10254 13.375 4 13.375H6C6.89746 13.375 7.625 14.1025 7.625 15V21C7.625 21.8975 6.89746 22.625 6 22.625H4C3.10254 22.625 2.375 21.8975 2.375 21V15ZM4 14.625C3.79289 14.625 3.625 14.7929 3.625 15V21C3.625 21.2071 3.79289 21.375 4 21.375H6C6.20711 21.375 6.375 21.2071 6.375 21V15C6.375 14.7929 6.20711 14.625 6 14.625H4Z" fill="#3D5075"/>
<path fill-rule="evenodd" clip-rule="evenodd" d="M9.375 9C9.375 8.10254 10.1025 7.375 11 7.375H13C13.8975 7.375 14.625 8.10254 14.625 9V21C14.625 21.8975 13.8975 22.625 13 22.625H11C10.1025 22.625 9.375 21.8975 9.375 21V9ZM11 8.625C10.7929 8.625 10.625 8.79289 10.625 9V21C10.625 21.2071 10.7929 21.375 11 21.375H13C13.2071 21.375 13.375 21.2071 13.375 21V9C13.375 8.79289 13.2071 8.625 13 8.625H11Z" fill="#3D5075"/>
<path fill-rule="evenodd" clip-rule="evenodd" d="M16.375 4C16.375 3.10254 17.1025 2.375 18 2.375H20C20.8975 2.375 21.625 3.10254 21.625 4V21C21.625 21.8975 20.8975 22.625 20 22.625H18C17.1025 22.625 16.375 21.8975 16.375 21V4ZM18 3.625C17.7929 3.625 17.625 3.79289 17.625 4V21C17.625 21.2071 17.7929 21.375 18 21.375H20C20.2071 21.375 20.375 21.2071 20.375 21V4C20.375 3.79289 20.2071 3.625 20 3.625H18Z" fill="#3D5075"/>
</svg>
