<svg width="20" height="20" viewBox="0 0 20 20" fill="none" xmlns="http://www.w3.org/2000/svg">
<path d="M10.0933 0.625C5.97666 0.625 2.46166 3.285 1.16333 6.95833H19.0867C17.7567 3.285 14.2417 0.625 10.0933 0.625Z" fill="#F9F9F9"/>
<path d="M10.0933 19.625C14.2417 19.625 17.7567 16.965 19.055 13.2917H1.16333C2.46166 16.9967 5.97666 19.625 10.0933 19.625Z" fill="#ED4C5C"/>
<path d="M1.16333 6.95834C0.815 7.94 0.625 9.01667 0.625 10.125C0.625 11.2333 0.815 12.31 1.16333 13.2917H19.0867C19.435 12.31 19.625 11.2333 19.625 10.125C19.625 9.01667 19.435 7.94 19.0867 6.95834H1.16333Z" fill="#428BC1"/>
</svg>
