<svg width="20" height="20" viewBox="0 0 20 20" fill="none" xmlns="http://www.w3.org/2000/svg">
<g clip-path="url(#clip0_503_10401)">
<path d="M1.76121 4.33377C1.11634 5.26976 0.626264 6.32072 0.329102 7.45031H4.87791L1.76121 4.33377Z" fill="#29337A"/>
<path d="M7.19949 0.400269C6.04732 0.735812 4.98027 1.27124 4.04065 1.9696L7.19949 5.12844V0.400269Z" fill="#29337A"/>
<path d="M4.27551 18.1972C5.15687 18.8139 6.14154 19.2914 7.19943 19.5994V15.2737L4.27551 18.1972Z" fill="#29337A"/>
<path d="M0.443848 12.9527C0.774493 14.0237 1.28116 15.0173 1.92869 15.9012L4.87722 12.9527H0.443848Z" fill="#29337A"/>
<path d="M1.9262 4.10167C1.8703 4.17809 1.8152 4.25561 1.76119 4.33394L4.8779 7.45047H0.329087C0.255366 7.73104 0.195199 8.01701 0.14563 8.30691H6.13178L1.9262 4.10167Z" fill="white"/>
<path d="M4.04358 18.0322C4.11966 18.0889 4.19786 18.1428 4.27551 18.1972L7.19942 15.2736V19.5993C7.48033 19.6814 7.76563 19.7523 8.05587 19.8093V14.02L4.04358 18.0322Z" fill="white"/>
<path d="M0.22168 12.0962C0.283747 12.3864 0.357003 12.6722 0.443686 12.9527H4.8771L1.92857 15.9012C2.24925 16.3393 2.60485 16.7505 2.99123 17.1307L8.02568 12.0962H0.22168Z" fill="white"/>
<path d="M7.19941 0.400269V5.12844L4.04053 1.96977C3.60504 2.29362 3.19798 2.65314 2.8208 3.04235L8.05569 8.27723V0.190254C7.76562 0.247593 7.48032 0.318653 7.19941 0.400269Z" fill="white"/>
<path d="M7.19945 12.9225L7.16943 12.9527H7.19945V12.9225Z" fill="#D32030"/>
<path d="M8.02588 12.0962H8.05586V12.0661L8.02588 12.0962Z" fill="#D32030"/>
<path d="M11.8742 8.30675H11.8453V8.3358L11.8742 8.30675Z" fill="#D32030"/>
<path d="M7.22898 7.45047L7.19946 7.42079V7.45047H7.22898Z" fill="#D32030"/>
<path d="M8.05591 8.27719V8.30675H8.08546L8.05591 8.27719Z" fill="#D32030"/>
<path d="M12.7015 17.3857V19.6274C13.7732 19.3274 14.7723 18.8545 15.666 18.2384L13.2371 15.8095C13.043 16.4914 12.972 16.844 12.7015 17.3857Z" fill="#252F6C"/>
<path d="M13.2499 4.57993L15.9015 1.92839C14.9489 1.23079 13.8682 0.699167 12.7015 0.372322V2.67506C13.0134 3.29953 13.0396 3.77403 13.2499 4.57993Z" fill="#252F6C"/>
<path d="M18.0302 15.9595C18.698 15.0612 19.2184 14.0472 19.5565 12.9527H15.0234L18.0302 15.9595Z" fill="#252F6C"/>
<path d="M19.671 7.45047C19.3675 6.29704 18.8627 5.22636 18.1975 4.27567L15.0223 7.45047H19.671Z" fill="#252F6C"/>
<path d="M13.8337 12.2657L14.5209 12.9528L17.8102 16.2421C17.8849 16.1486 17.9591 16.0555 18.0305 15.9596L15.0237 12.9528H19.5567C19.6431 12.6726 19.7164 12.3866 19.7783 12.0964H13.898C13.8884 12.2178 13.8453 12.145 13.8337 12.2657Z" fill="#E7E7E7"/>
<path d="M13.1461 5.08141L16.1274 2.09986C16.0527 2.04193 15.9778 1.98429 15.9015 1.92839L13.25 4.57993C13.2775 4.68477 13.1206 4.97403 13.1461 5.08141Z" fill="#E7E7E7"/>
<path d="M12.7017 2.49079V0.372148C12.4211 0.293529 12.1355 0.226902 11.8452 0.172562V1.206C12.1639 1.55147 12.4495 1.98539 12.7017 2.49079Z" fill="#E7E7E7"/>
<path d="M13.7664 8.30675H19.8547C19.8052 8.01685 19.7449 7.73104 19.6712 7.4503H15.0226L18.1977 4.2755C17.8856 3.82959 17.5387 3.41023 17.1597 3.02166L13.5834 6.59766C13.6797 7.24633 13.7228 7.62304 13.7664 8.30675Z" fill="#E7E7E7"/>
<path d="M13.0928 15.6647L15.6663 18.2385C16.0944 17.9437 16.4975 17.6156 16.8736 17.2594L13.4885 13.8741C13.3804 14.5002 13.2522 15.1049 13.0928 15.6647Z" fill="#E7E7E7"/>
<path d="M11.8453 18.6751V19.8269C12.1355 19.7729 12.421 19.706 12.7018 19.6273V17.3857C12.4495 17.8913 12.1638 18.3301 11.8453 18.6751Z" fill="#E7E7E7"/>
<path d="M13.5833 6.59766L17.1593 3.02166C16.8374 2.69101 16.4922 2.38329 16.1272 2.09985L13.3173 4.91023C13.4422 5.43223 13.4989 6.02972 13.5833 6.59766Z" fill="#D71F28"/>
<path d="M9.50085 0.012329C9.66746 0.00426448 9.83357 0 9.9998 0C9.8326 0 9.6662 0.00426448 9.50085 0.012329Z" fill="#D32030"/>
<path d="M9.99975 20C9.83347 20 9.66737 19.9954 9.5011 19.9874C9.66644 19.9957 9.83255 20 9.99975 20Z" fill="#D32030"/>
<path d="M9.99976 20C10.6307 20 11.2468 19.9389 11.8452 19.8269V18.6751C11.3199 19.2445 10.7054 20 9.99976 20Z" fill="#D32030"/>
<path d="M19.8544 8.30675H13.8453C13.9249 9.56093 13.9152 10.8506 13.8165 12.0962H19.7784C19.9227 11.4199 20 10.7192 20 10.0002C20 9.42256 19.9486 8.85763 19.8544 8.30675Z" fill="#D71F28"/>
<path d="M13.8337 12.2657C13.7782 12.8565 13.5846 13.3169 13.4883 13.8743L16.8734 17.2594C17.2083 16.942 17.5214 16.6026 17.81 16.2421L14.5209 12.9527L13.8337 12.2657Z" fill="#D71F28"/>
<path d="M11.8454 1.28036V0.172733C11.2471 0.0610961 10.631 0 9.99988 0C10.7055 0 11.3201 0.711155 11.8454 1.28036Z" fill="#D32030"/>
<path d="M12.7017 17.8182C12.9721 17.2763 13.2041 16.6525 13.3983 15.9707L12.7017 15.2741V17.8182Z" fill="#29337A"/>
<path d="M13.485 4.34496C13.2743 3.53906 13.0135 2.80641 12.7017 2.18194V5.12794L13.485 4.34496Z" fill="#29337A"/>
<path d="M14.0279 12.4595C14.0392 12.3389 14.0495 12.2178 14.0593 12.0962H13.6646L14.0279 12.4595Z" fill="white"/>
<path d="M12.7017 5.12798V2.18181C12.4493 1.67641 12.1639 1.24219 11.8452 0.897018V6.38199L13.5652 4.66205C13.5393 4.55468 13.5121 4.4495 13.4849 4.34466L12.7017 5.12798Z" fill="white"/>
<path d="M11.8743 8.30675H14.088C14.0446 7.62308 13.9754 6.95043 13.8792 6.30193L11.8743 8.30675Z" fill="white"/>
<path d="M11.8453 19.1028C12.164 18.7574 12.4495 18.3235 12.7018 17.8181V15.2739L13.3984 15.9705C13.5582 15.4105 13.6922 14.8122 13.8006 14.1862L11.8454 12.2311L11.8453 19.1028Z" fill="white"/>
<path d="M11.8453 19.1029V12.2311L13.8004 14.1863C13.8966 13.6287 13.9722 13.0505 14.0276 12.4596L13.6643 12.0962H14.059C14.1577 10.8506 14.1673 9.56088 14.0878 8.30675H11.8741L13.8789 6.30193C13.7944 5.73383 13.6899 5.18434 13.565 4.66218L11.8454 6.38211V0.897146C11.32 0.327774 10.7055 0 9.99983 0C9.83356 0 9.66745 0.00426448 9.50089 0.012329C9.00903 0.0369448 8.52668 0.0974498 8.05582 0.190297V8.27723L2.82081 3.04235C2.49916 3.37426 2.19997 3.72792 1.92615 4.10167L5.27495 7.45047L6.13169 8.30692H0.145583C0.0518071 8.85763 0 9.42256 0 10.0002C0 10.7194 0.0776896 11.4199 0.221669 12.0962H8.02584L2.99134 17.1307C3.32102 17.4546 3.67201 17.7562 4.04357 18.0321L8.05569 14.02V19.8094C8.52651 19.9023 9.0092 19.9627 9.50105 19.9874C9.66733 19.9954 9.83343 20 9.9997 20C10.7055 20 11.32 19.6722 11.8453 19.1029Z" fill="#E51D35"/>
</g>
<defs>
<clipPath id="clip0_503_10401">
<rect width="20" height="20" fill="white"/>
</clipPath>
</defs>
</svg>
