<svg width="18" height="18" fill="none" xmlns="http://www.w3.org/2000/svg"><path d="M15.587 11.534c-.483-.605-.854-1.036-.854-2.198V5.477c0-1.628-.111-3.152-1.316-4.267C12.45.325 10.862 0 9.607 0c-2.652 0-5.023 1.072-5.6 3.955-.05.327.191.466.385.512l2.514.23c.241 0 .386-.231.435-.464.192-.977 1.064-1.8 2.029-1.8.53 0 1.577.533 1.577 1.649v1.395c-1.545 0-3.269.104-4.62.661-1.591.653-2.952 1.903-2.952 3.903 0 2.558 1.98 3.956 4.102 3.956 1.785 0 2.758-.463 4.156-1.812.434.652.703 1.114 1.523 1.811.194.095.435.095.578-.045.482-.42 1.323-1.301 1.852-1.719.242-.187.194-.465 0-.697l.001-.001zm-4.64-3.623c0 .93-.183 3.25-2.545 3.25-1.215 0-1.24-1.424-1.24-1.424 0-1.826 1.952-2.435 3.785-2.435v.609z" fill="#fff"/><path d="M16.421 15.828C14.424 17.176 11.433 18 9.01 18a13.994 13.994 0 01-8.932-3.214c-.189-.174 0-.348.191-.261 2.566 1.347 5.464 2.128 8.692 2.128 2.186 0 4.942-.435 7.174-1.303.332-.087.618.261.286.478zm.713-.913c-.238-.303-1.663-.13-2.281-.086-.191 0-.237-.131-.048-.26 1.093-.74 2.945-.523 3.136-.262.19.262-.048 1.955-1.093 2.738-.143.13-.332.042-.238-.087.238-.523.761-1.738.523-2.043z" fill="#FFB300"/></svg>