<svg width="17" height="20" fill="none" xmlns="http://www.w3.org/2000/svg"><path d="M17 14.658a10.863 10.863 0 01-1.442 2.861c-.57.807-1.037 1.365-1.397 1.674-.558.51-1.156.77-1.797.784-.46 0-1.013-.13-1.66-.392s-1.242-.391-1.786-.391c-.57 0-1.182.129-1.837.39-.655.264-1.183.4-1.587.414-.614.026-1.226-.241-1.837-.804-.39-.338-.877-.916-1.462-1.734-.627-.873-1.142-1.888-1.546-3.044C.216 13.168 0 11.96 0 10.79c0-1.34.292-2.496.877-3.465a5.125 5.125 0 011.84-1.842A4.979 4.979 0 015.2 4.787c.487 0 1.127.15 1.922.444.792.295 1.301.444 1.525.444.167 0 .732-.174 1.69-.523.906-.323 1.671-.457 2.298-.405 1.698.136 2.973.8 3.822 1.995-1.518.912-2.269 2.188-2.254 3.827.013 1.276.48 2.339 1.398 3.182.409.386.882.693 1.398.907zM12.73 0c.012.133.019.267.019.4 0 1-.368 1.935-1.103 2.799-.887 1.028-1.96 1.62-3.124 1.528a3.087 3.087 0 01-.023-.38c0-.96.421-1.988 1.17-2.828.375-.425.85-.779 1.426-1.061C11.672.18 12.217.027 12.73 0z" fill="#121212"/></svg>