<svg width="33" height="16" fill="none" xmlns="http://www.w3.org/2000/svg"><g clip-path="url(#clip0_224_69)"><path d="M3.645 14.225c-.134-.015-.343-.13-.49-.246-1.412-1.345.4-2.892 2.496-3.789V7.631c.49.304.758.318.772.361l1.605-1.547-.535-1.33C12.19 3.537 14.076 2.93 17.895 2.31l-.685-.623 1.116-.621c2.57.825 4.993 1.041 4.576 3.138.104-1.417-1.709-1.967-4.473-2.719l-.534.318 1.024.824c-4.575.767-7.384 1.635-10.728 2.762l.46 1.158L6.974 8.15c.283.073 3.21 1.027 6.255-1.04 0 0 .06-.044.06-.059-.088-.144-.297-.304-.55-.52.892.058 1.471.824 1.367 1.62h-.416c.03-.261-.03-.536-.118-.723-2.363 1.677-5.097 1.923-7.43 1.127v1.981c-1.13.39-3.15 1.605-3.135 2.777.074.564.371.766.639.911z" fill="#DADADA"/><path d="M13.295 13.561c-2.527 1.244-4.948 2.241-8.678 2.386-4.859-.102-5.616-3.24-3.314-6.522 2.17-3.311 5.617-6.305 11.1-8.17 1.59-.549 3.923-1.172 6.181-1.2 3.24-.03 6.39.954 6.182 3.976-.12 2.314-3.55 5.582-5.364 7.925-.773 1.026-.907 1.692.415 1.634 4.8-.304 9.154-1.923 13.195-3.601-2.733 1.808-16.865 8.618-16.923 3.977.014-.593.296-1.215.757-1.88.446-.665 1.07-1.36 1.709-2.068.965-1.07 3.358-3.63 4.16-5.163 1.352-2.906-1.679-3.051-4.294-3.947l-1.116.62.685.623c-3.819.622-5.706 1.23-10.401 2.806l.535 1.33-1.605 1.547c-.045-.043-.282-.057-.773-.361v2.56c-2.096.896-3.908 2.443-2.497 3.788.149.116.358.231.491.246 2.57 1.417 9.569-.506 9.555-.506z" fill="#F60"/></g><defs><clipPath id="clip0_224_69"><path fill="#fff" d="M0 0h33v16H0z"/></clipPath></defs></svg>