<svg width="33" height="16" fill="none" xmlns="http://www.w3.org/2000/svg"><g clip-path="url(#clip0_275_1964)"><path d="M3.645 14.225c-.134-.015-.343-.131-.49-.247-1.412-1.345.4-2.892 2.496-3.788V7.63c.49.304.758.318.772.362l1.605-1.547-.535-1.331c4.696-1.576 6.583-2.184 10.402-2.805l-.685-.623 1.116-.62c2.57.824 4.993 1.04 4.576 3.137.104-1.417-1.709-1.967-4.473-2.719l-.534.318 1.024.825c-4.575.766-7.384 1.634-10.728 2.762l.46 1.157L6.974 8.15c.283.072 3.21 1.026 6.255-1.041 0 0 .06-.044.06-.058-.088-.145-.297-.304-.55-.52a1.44 1.44 0 011.367 1.619h-.416c.03-.26-.03-.535-.118-.723-2.363 1.677-5.097 1.923-7.43 1.128v1.98c-1.13.391-3.15 1.605-3.135 2.777.074.564.371.766.639.912z" fill="#121212"/><path d="M13.295 13.561c-2.527 1.244-4.948 2.242-8.678 2.386-4.859-.101-5.616-3.24-3.314-6.522 2.17-3.311 5.617-6.305 11.1-8.17 1.59-.549 3.923-1.171 6.181-1.2 3.24-.03 6.39.954 6.182 3.977-.12 2.313-3.55 5.581-5.364 7.924-.773 1.026-.907 1.692.415 1.634 4.8-.304 9.154-1.923 13.195-3.6-2.733 1.807-16.865 8.617-16.923 3.976.014-.593.296-1.215.757-1.88.446-.665 1.07-1.36 1.709-2.068.965-1.07 3.358-3.63 4.16-5.163 1.352-2.906-1.679-3.05-4.294-3.947l-1.116.621.685.623c-3.819.621-5.706 1.228-10.401 2.805l.535 1.33-1.605 1.547c-.045-.043-.282-.057-.773-.36v2.558c-2.096.897-3.908 2.444-2.497 3.789.149.116.358.231.491.247 2.57 1.417 9.569-.507 9.555-.507z" fill="#F60"/></g><defs><clipPath id="clip0_275_1964"><path fill="#fff" d="M0 0h33v16H0z"/></clipPath></defs></svg>