<svg width="30" height="18" fill="none" xmlns="http://www.w3.org/2000/svg"><g clip-path="url(#clip0_224_152)"><path d="M8.609 15.056c.682-.565.8-1.265.8-1.893v-2.638H5.7v3.58a.93.93 0 01-.932.927c-.515 0-.898-.415-.898-.928V3.964c0-.511.383-.927.898-.927a.93.93 0 01.932.927v3.603h3.703V3.83c0-2.065-1.358-3.764-4.667-3.768C1.34.062.056 1.769.056 3.834V14.42c0 2.047 1.635 3.595 3.727 3.595H4.93l3.678-2.96zM20.667 3.837V.409h9.262v3.428h-2.572v14.157H26.26l-3.033-2.522V3.837h-2.56z" fill="#fff"/><path d="M6.521 18.02h18.365l-9.02-7.507-9.345 7.508z" fill="#FFC400"/><path d="M14.87 8.49l.998-5.07.993 5.07h-1.992zM18.44.428h-5.167l-3.01 13.416 5.606-4.495 5.843 4.865L18.44.428z" fill="#fff"/></g><defs><clipPath id="clip0_224_152"><path fill="#fff" d="M0 0h30v18H0z"/></clipPath></defs></svg>