<svg width="20" height="14" fill="none" xmlns="http://www.w3.org/2000/svg"><path d="M16 1.68h1.143v.432c.116-.095.396-.432 1.143-.432.863 0 1.714.575 1.714 1.543v2.408h-1.138V3.51c0-.54-.265-.857-.763-.857-.482 0-.956.301-.956.857V5.6H16V1.68zm-4.987 2.036c0-1.144.962-2.08 2.206-2.08 1.262 0 2.208.936 2.208 2.08 0 1.143-.963 2.08-2.208 2.08-1.244-.016-2.206-.937-2.206-2.08zm1.194 0c0 .555.432 1 1.029 1 .598 0 1.029-.445 1.029-1 0-.556-.431-1.001-1.029-1.001-.597 0-1.03.445-1.03 1zM3.877 5.6h1.427l1.261-1.472.797.779L5.43 7.28h1.427l1.268-1.644 2.16 2.204h1.726L8.888 4.748l2.54-3.068H10L8.125 3.986l-.797-.763L9.369.763H7.943L6.549 2.476l-.835-.797H4.022l1.78 1.702L3.876 5.6zM0 0v5.594l3.429.006.005-1.12H1.143l-.005-1.12h2.29V2.24h-2.29V1.12h2.29V.006L0 0zm8.571 9.8c-1.306 0-2.285.95-2.285 2.108 0 1.159.996 2.092 2.285 2.092 1.29 0 2.286-.934 2.286-2.092 0-1.159-.996-2.108-2.286-2.108zm0 3.122c-.618 0-1.065-.45-1.065-1.014 0-.563.447-1.014 1.065-1.014.62 0 1.066.451 1.066 1.014s-.447 1.014-1.066 1.014zM17.714 8.4h-1.143v1.095h1.143V8.4zm0 1.523h-1.143V14h1.143V9.923zM20 8.4h-1.143V14H20V8.4zm-5.984 1.428c-.83 0-1.378.366-1.445.413V8.4H11.43v5.589h1.142v-.269c.083.063.632.269 1.429.269 1.045 0 2.007-.89 2.007-2.065 0-1.19-.912-2.096-1.991-2.096zm-.282 3.065c-.597 0-1.16-.43-1.16-.985 0-.57.563-1 1.16-1s1.029.429 1.029.985c0 .57-.448 1-1.029 1zM0 8.4V14h1.143v-3.92h.05L2.286 14h1.143l1.093-3.92h.05V14h1.146V8.4h-1.94l-.92 3.92h-.034L1.818 8.4H0z" fill="#ED1B2D"/></svg>