<svg width="17" height="18" fill="none" xmlns="http://www.w3.org/2000/svg"><g clip-path="url(#clip0_244_29)"><path d="M8.673 7.364v3.485h4.668a4.16 4.16 0 01-1.742 2.708l2.815 2.267C16.054 14.253 17 11.946 17 9.204c0-.638-.055-1.251-.158-1.84H8.673z" fill="#4285F4"/><path d="M3.813 10.713l-.635.504L.93 13.034C2.358 15.97 5.283 18 8.673 18c2.342 0 4.305-.802 5.74-2.176L11.6 13.557c-.773.54-1.759.868-2.926.868-2.255 0-4.17-1.58-4.857-3.707l-.003-.005z" fill="#34A853"/><path d="M.93 4.966A9.162 9.162 0 000 9c0 1.456.34 2.823.93 4.034 0 .008 2.886-2.324 2.886-2.324A5.577 5.577 0 013.54 9c0-.597.103-1.17.276-1.71L.93 4.966z" fill="#FBBC05"/><path d="M8.673 3.584c1.278 0 2.413.458 3.32 1.341l2.484-2.577C12.97.892 11.015 0 8.673 0 5.283 0 2.358 2.02.93 4.966L3.816 7.29c.686-2.127 2.602-3.706 4.857-3.706z" fill="#EA4335"/></g><defs><clipPath id="clip0_244_29"><path fill="#fff" d="M0 0h17v18H0z"/></clipPath></defs></svg>