<svg width="22" height="9" fill="none" xmlns="http://www.w3.org/2000/svg"><path d="M18.398.53H22V0h-3.399l-.198.53h-.005zm-2.75 0L15.433 0H12.1v.53h3.548zm-3.548.529h3.751l.209.53H12.1v-.53zm-1.21-.53A2.524 2.524 0 009.35 0h-4.4v.53h5.94zm-5.94.53h6.44c.11.159.21.339.275.53H4.95v-.53zM4.4.529V0H0v.53h4.4zM0 1.06h4.4v.53H0v-.53zm1.1 1.059h2.2v.53H1.1v-.53zm0 1.588v-.53h2.2v.53H1.1zm0 1.059v-.53h2.2v.53H1.1zm0 1.059v-.53h2.2v.53H1.1zm0 1.058v-.53h2.2v.53H1.1zm0 .53H0v.53h4.4v-.53H1.1zm3.85 0v.53h6.49c.132-.16.237-.34.325-.53H4.95zm4.4-.53h2.585c.038-.17.055-.35.055-.53H9.35v.53zm-1.65 0v-.53H6.05v.53H7.7zM6.05 5.824h5.885a2.555 2.555 0 00-.17-.53H6.05v.53zm0-1.06h5.39a2.717 2.717 0 00-.55-.529H6.05v.53zm0-1.058h5.34a2.22 2.22 0 00.275-.53H6.05v.53zm0-1.059v-.53H7.7v.53H6.05zm3.3-.53h2.442c.02.177.02.354 0 .53H9.35v-.53zm3.85 1.06v.529h3.696l-.209-.53H13.2zm3.278-.53H13.2v-.53h3.069l.209.53zm.918.53l-.198.529H20.9v-.53h-3.503zm3.504-.53h-3.3l.198-.53H20.9v.53zm0-1.059H22v-.53h-3.8l-.198.53H20.9zm0 2.647h-3.85v.53h3.85v-.53zm0 1.06h-2.2v.529h2.2v-.53zm0 1.058h-2.2v.53h2.2v-.53zm0 1.059h-2.2v.53H22v-.53h-1.1zM22 8.47h-3.3V9H22v-.53zM17.05 9l.215-.53h-.215V9zm0-1.059h.424l.209-.53h-.633v.53zm0-.53v.53h-.418l-.209-.53h.627zm0-.529h.847l.209-.53H17.05v.53zm0-.53v.53h-.83l-.21-.53h1.04zm0-.528h1.265l.22-.53H17.05v.53zm0-.53v.53h-1.248l-.21-.53h1.458zm0-.53v-.529H13.2v.53h3.85zm-3.85.53v.53h2.2v-.53h-2.2zm2.2 1.059h-2.2v.53h2.2v-.53zm0 1.059h-3.3v.53h3.3v-.53zm0 1.059h-3.3V9h3.3v-.53zM9.35 9a2.8 2.8 0 001.54-.53H4.95V9h4.4zM4.4 9v-.53H0V9h4.4zm12.441-.53h.203V9l-.203-.53z" fill="#173BC4"/></svg>