<svg width="27" height="18" fill="none" xmlns="http://www.w3.org/2000/svg"><g clip-path="url(#clip0_224_135)"><path d="M2.95 11.87c0 1.035.226 1.83.52 2.31.387.63.963.896 1.55.896.759 0 1.452-.19 2.788-2.05 1.07-1.492 2.331-3.586 3.18-4.899l1.437-2.223c.998-1.545 2.154-3.262 3.478-4.425C16.985.529 18.152 0 19.326 0c1.971 0 3.849 1.15 5.286 3.308 1.573 2.364 2.336 5.34 2.336 8.412 0 1.826-.357 3.168-.965 4.229-.588 1.025-1.733 2.049-3.66 2.049v-2.923c1.65 0 2.062-1.527 2.062-3.274 0-2.49-.577-5.252-1.846-7.226-.901-1.4-2.069-2.256-3.353-2.256-1.39 0-2.508 1.055-3.764 2.937-.668 1-1.354 2.218-2.124 3.593l-.848 1.513c-1.702 3.04-2.134 3.733-2.985 4.876-1.492 2.001-2.767 2.76-4.444 2.76-1.99 0-3.249-.868-4.028-2.176-.636-1.066-.949-2.464-.949-4.057l2.906.104z" fill="#0081FB"/><path d="M2.336 3.516C3.668 1.447 5.59 0 7.796 0c1.277 0 2.546.38 3.872 1.471 1.45 1.192 2.996 3.155 4.924 6.39l.692 1.16c1.669 2.801 2.618 4.242 3.174 4.921.715.873 1.215 1.133 1.866 1.133 1.649 0 2.06-1.527 2.06-3.274l2.564-.08c0 1.825-.357 3.167-.965 4.228-.588 1.025-1.733 2.049-3.66 2.049-1.197 0-2.258-.262-3.431-1.377-.902-.855-1.956-2.375-2.768-3.742L13.711 8.82c-1.21-2.037-2.32-3.556-2.963-4.244-.692-.74-1.58-1.633-3-1.633-1.147 0-2.122.811-2.938 2.052l-2.474-1.48z" fill="url(#paint0_linear_224_135)"/><path d="M7.749 2.944c-1.148 0-2.123.811-2.939 2.052C3.657 6.75 2.95 9.362 2.95 11.87c0 1.035.226 1.83.52 2.31L.993 15.823C.357 14.757.044 13.36.044 11.766c0-2.898.79-5.918 2.292-8.25C3.668 1.447 5.59 0 7.796 0l-.047 2.943z" fill="url(#paint1_linear_224_135)"/></g><defs><linearGradient id="paint0_linear_224_135" x1="5.751" y1="11.026" x2="24.277" y2="11.955" gradientUnits="userSpaceOnUse"><stop stop-color="#0064E1"/><stop offset=".4" stop-color="#0064E1"/><stop offset=".83" stop-color="#0073EE"/><stop offset="1" stop-color="#0082FB"/></linearGradient><linearGradient id="paint1_linear_224_135" x1="4.254" y1="13.099" x2="4.254" y2="6.22" gradientUnits="userSpaceOnUse"><stop stop-color="#0082FB"/><stop offset="1" stop-color="#0064E0"/></linearGradient><clipPath id="clip0_224_135"><path fill="#fff" d="M0 0h27v18H0z"/></clipPath></defs></svg>